<svg version="1.1" viewBox="0.0 0.0 478.25984251968504 228.498687664042" fill="none" stroke="none" stroke-linecap="square" stroke-miterlimit="10" xmlns:xlink="http://www.w3.org/1999/xlink" xmlns="http://www.w3.org/2000/svg"><clipPath id="p.0"><path d="m0 0l478.25986 0l0 228.49869l-478.25986 0l0 -228.49869z" clip-rule="nonzero"/></clipPath><g clip-path="url(#p.0)"><path fill="#000000" fill-opacity="0.0" d="m0 0l478.25986 0l0 228.49869l-478.25986 0z" fill-rule="evenodd"/><path fill="#000000" fill-opacity="0.0" d="m82.545456 122.12861c-3.2932816 0 -5.9630203 -2.6697311 -5.9630203 -5.9630127l0 -23.8535c0 -3.2932816 -2.6697311 -5.9630127 -5.9630127 -5.9630127c3.2932816 0 5.9630127 -2.6697311 5.9630127 -5.9630203l0 -23.853493l0 0c0 -3.2932816 2.6697388 -5.9630165 5.9630203 -5.9630165l503.32904 0c1.5814819 0 3.0982056 0.6282463 4.2164917 1.7465286c1.1182861 1.1182823 1.746521 2.6349983 1.746521 4.216488l0 23.853493c0 3.2932892 2.6697388 5.9630203 5.9630127 5.9630203l0 0c-3.293274 0 -5.9630127 2.6697311 -5.9630127 5.9630127l0 23.8535c0 3.2932816 -2.6697388 5.9630127 -5.9630127 5.9630127z" fill-rule="evenodd"/><path fill="#000000" fill-opacity="0.0" d="m82.545456 122.12861c-3.2932816 0 -5.9630203 -2.6697311 -5.9630203 -5.9630127l0 -23.8535c0 -3.2932816 -2.6697311 -5.9630127 -5.9630127 -5.9630127c3.2932816 0 5.9630127 -2.6697311 5.9630127 -5.9630203l0 -23.853493l0 0c0 -3.2932816 2.6697388 -5.9630165 5.9630203 -5.9630165m503.32904 0c1.5814819 0 3.0982056 0.6282463 4.2164917 1.7465286c1.1182861 1.1182823 1.746521 2.6349983 1.746521 4.216488l0 23.853493c0 3.2932892 2.6697388 5.9630203 5.9630127 5.9630203l0 0c-3.293274 0 -5.9630127 2.6697311 -5.9630127 5.9630127l0 23.8535c0 3.2932816 -2.6697388 5.9630127 -5.9630127 5.9630127" fill-rule="evenodd"/><path stroke="#000000" stroke-width="1.0" stroke-linejoin="round" stroke-linecap="butt" d="m82.545456 122.12861c-3.2932816 0 -5.9630203 -2.6697311 -5.9630203 -5.9630127l0 -23.8535c0 -3.2932816 -2.6697311 -5.9630127 -5.9630127 -5.9630127c3.2932816 0 5.9630127 -2.6697311 5.9630127 -5.9630203l0 -23.853493l0 0c0 -3.2932816 2.6697388 -5.9630165 5.9630203 -5.9630165m503.32904 0c1.5814819 0 3.0982056 0.6282463 4.2164917 1.7465286c1.1182861 1.1182823 1.746521 2.6349983 1.746521 4.216488l0 23.853493c0 3.2932892 2.6697388 5.9630203 5.9630127 5.9630203l0 0c-3.293274 0 -5.9630127 2.6697311 -5.9630127 5.9630127l0 23.8535c0 3.2932816 -2.6697388 5.9630127 -5.9630127 5.9630127" fill-rule="evenodd"/><path fill="#d9d9d9" d="m102.61155 74.25861l95.937004 0l0 23.81102l-95.937004 0z" fill-rule="evenodd"/><path stroke="#000000" stroke-width="1.0" stroke-linejoin="round" stroke-linecap="butt" d="m102.61155 74.25861l95.937004 0l0 23.81102l-95.937004 0z" fill-rule="evenodd"/><path fill="#000000" fill-opacity="0.0" d="m150.58005 98.06963l0 -5.7637787" fill-rule="evenodd"/><path stroke="#000000" stroke-width="1.0" stroke-linejoin="round" stroke-linecap="butt" d="m150.58005 98.06963l0 -5.7637787" fill-rule="evenodd"/><path fill="#000000" fill-opacity="0.0" d="m174.58005 98.06963l0 -5.7637787" fill-rule="evenodd"/><path stroke="#000000" stroke-width="1.0" stroke-linejoin="round" stroke-linecap="butt" d="m174.58005 98.06963l0 -5.7637787" fill-rule="evenodd"/><path fill="#000000" fill-opacity="0.0" d="m126.580055 98.06963l0 -5.7637787" fill-rule="evenodd"/><path stroke="#000000" stroke-width="1.0" stroke-linejoin="round" stroke-linecap="butt" d="m126.580055 98.06963l0 -5.7637787" fill-rule="evenodd"/><path fill="#000000" fill-opacity="0.0" d="m186.6751 98.06963l0 -5.7637787" fill-rule="evenodd"/><path stroke="#000000" stroke-width="1.0" stroke-linejoin="round" stroke-linecap="butt" d="m186.6751 98.06963l0 -5.7637787" fill-rule="evenodd"/><path fill="#000000" fill-opacity="0.0" d="m138.6751 98.06963l0 -5.7637787" fill-rule="evenodd"/><path stroke="#000000" stroke-width="1.0" stroke-linejoin="round" stroke-linecap="butt" d="m138.6751 98.06963l0 -5.7637787" fill-rule="evenodd"/><path fill="#000000" fill-opacity="0.0" d="m162.6751 98.06963l0 -5.7637787" fill-rule="evenodd"/><path stroke="#000000" stroke-width="1.0" stroke-linejoin="round" stroke-linecap="butt" d="m162.6751 98.06963l0 -5.7637787" fill-rule="evenodd"/><path fill="#000000" fill-opacity="0.0" d="m114.675095 98.06963l0 -5.7637787" fill-rule="evenodd"/><path stroke="#000000" stroke-width="1.0" stroke-linejoin="round" stroke-linecap="butt" d="m114.675095 98.06963l0 -5.7637787" fill-rule="evenodd"/><path fill="#000000" fill-opacity="0.0" d="m150.58005 170.38058l0 0" fill-rule="evenodd"/><path stroke="#000000" stroke-width="1.0" stroke-linejoin="round" stroke-linecap="butt" d="m150.58005 170.38058l0 0" fill-rule="evenodd"/><path fill="#000000" fill-opacity="0.0" d="m150.58005 170.38058l0 0" fill-rule="evenodd"/><path stroke="#000000" stroke-width="1.0" stroke-linejoin="round" stroke-linecap="butt" d="m150.58005 170.38058l0 0" fill-rule="evenodd"/><path fill="#d9d9d9" d="m102.61155 146.56955l95.937004 0l0 23.811035l-95.937004 0z" fill-rule="evenodd"/><path stroke="#000000" stroke-width="1.0" stroke-linejoin="round" stroke-linecap="butt" d="m102.61155 146.56955l95.937004 0l0 23.811035l-95.937004 0z" fill-rule="evenodd"/><path fill="#000000" fill-opacity="0.0" d="m150.58005 170.38058l0 -5.763794" fill-rule="evenodd"/><path stroke="#000000" stroke-width="1.0" stroke-linejoin="round" stroke-linecap="butt" d="m150.58005 170.38058l0 -5.763794" fill-rule="evenodd"/><path fill="#000000" fill-opacity="0.0" d="m174.58005 170.38058l0 -5.763794" fill-rule="evenodd"/><path stroke="#000000" stroke-width="1.0" stroke-linejoin="round" stroke-linecap="butt" d="m174.58005 170.38058l0 -5.763794" fill-rule="evenodd"/><path fill="#000000" fill-opacity="0.0" d="m126.580055 170.38058l0 -5.763794" fill-rule="evenodd"/><path stroke="#000000" stroke-width="1.0" stroke-linejoin="round" stroke-linecap="butt" d="m126.580055 170.38058l0 -5.763794" fill-rule="evenodd"/><path fill="#000000" fill-opacity="0.0" d="m186.6751 170.38058l0 -5.763794" fill-rule="evenodd"/><path stroke="#000000" stroke-width="1.0" stroke-linejoin="round" stroke-linecap="butt" d="m186.6751 170.38058l0 -5.763794" fill-rule="evenodd"/><path fill="#000000" fill-opacity="0.0" d="m138.6751 170.38058l0 -5.763794" fill-rule="evenodd"/><path stroke="#000000" stroke-width="1.0" stroke-linejoin="round" stroke-linecap="butt" d="m138.6751 170.38058l0 -5.763794" fill-rule="evenodd"/><path fill="#000000" fill-opacity="0.0" d="m162.6751 170.38058l0 -5.763794" fill-rule="evenodd"/><path stroke="#000000" stroke-width="1.0" stroke-linejoin="round" stroke-linecap="butt" d="m162.6751 170.38058l0 -5.763794" fill-rule="evenodd"/><path fill="#000000" fill-opacity="0.0" d="m114.675095 170.38058l0 -5.763794" fill-rule="evenodd"/><path stroke="#000000" stroke-width="1.0" stroke-linejoin="round" stroke-linecap="butt" d="m114.675095 170.38058l0 -5.763794" fill-rule="evenodd"/><path fill="#000000" fill-opacity="0.0" d="m342.58005 74.01473l0 0" fill-rule="evenodd"/><path stroke="#000000" stroke-width="1.0" stroke-linejoin="round" stroke-linecap="butt" d="m342.58005 74.01473l0 0" fill-rule="evenodd"/><path fill="#000000" fill-opacity="0.0" d="m342.58005 74.01473l0 0" fill-rule="evenodd"/><path stroke="#000000" stroke-width="1.0" stroke-linejoin="round" stroke-linecap="butt" d="m342.58005 74.01473l0 0" fill-rule="evenodd"/><path fill="#000000" fill-opacity="0.0" d="m354.67508 74.01473l0 -5.7637863" fill-rule="evenodd"/><path stroke="#000000" stroke-width="1.0" stroke-linejoin="round" stroke-linecap="butt" d="m354.67508 74.01473l0 -5.7637863" fill-rule="evenodd"/><path fill="#d9d9d9" d="m294.61154 50.203705l95.93701 0l0 23.811028l-95.93701 0z" fill-rule="evenodd"/><path stroke="#000000" stroke-width="1.0" stroke-linejoin="round" stroke-linecap="butt" d="m294.61154 50.203705l95.93701 0l0 23.811028l-95.93701 0z" fill-rule="evenodd"/><path fill="#000000" fill-opacity="0.0" d="m342.58005 74.01473l0 -5.7637863" fill-rule="evenodd"/><path stroke="#000000" stroke-width="1.0" stroke-linejoin="round" stroke-linecap="butt" d="m342.58005 74.01473l0 -5.7637863" fill-rule="evenodd"/><path fill="#000000" fill-opacity="0.0" d="m366.58005 74.01473l0 -5.7637863" fill-rule="evenodd"/><path stroke="#000000" stroke-width="1.0" stroke-linejoin="round" stroke-linecap="butt" d="m366.58005 74.01473l0 -5.7637863" fill-rule="evenodd"/><path fill="#000000" fill-opacity="0.0" d="m318.58005 74.01473l0 -5.7637863" fill-rule="evenodd"/><path stroke="#000000" stroke-width="1.0" stroke-linejoin="round" stroke-linecap="butt" d="m318.58005 74.01473l0 -5.7637863" fill-rule="evenodd"/><path fill="#000000" fill-opacity="0.0" d="m378.67508 74.01473l0 -5.7637863" fill-rule="evenodd"/><path stroke="#000000" stroke-width="1.0" stroke-linejoin="round" stroke-linecap="butt" d="m378.67508 74.01473l0 -5.7637863" fill-rule="evenodd"/><path fill="#000000" fill-opacity="0.0" d="m330.67508 74.01473l0 -5.7637863" fill-rule="evenodd"/><path stroke="#000000" stroke-width="1.0" stroke-linejoin="round" stroke-linecap="butt" d="m330.67508 74.01473l0 -5.7637863" fill-rule="evenodd"/><path fill="#000000" fill-opacity="0.0" d="m354.67508 74.01473l0 -5.7637863" fill-rule="evenodd"/><path stroke="#000000" stroke-width="1.0" stroke-linejoin="round" stroke-linecap="butt" d="m354.67508 74.01473l0 -5.7637863" fill-rule="evenodd"/><path fill="#000000" fill-opacity="0.0" d="m306.67508 74.01473l0 -5.7637863" fill-rule="evenodd"/><path stroke="#000000" stroke-width="1.0" stroke-linejoin="round" stroke-linecap="butt" d="m306.67508 74.01473l0 -5.7637863" fill-rule="evenodd"/><path fill="#000000" fill-opacity="0.0" d="m34.367455 42.75853l68.25197 0l0 42.015747l-68.25197 0z" fill-rule="evenodd"/><path fill="#000000" fill-opacity="0.0" d="m-8.426511 157.73706l82.267715 0l0 23.81102l-82.267715 0z" fill-rule="evenodd"/><path fill="#000000" d="m30.513079 171.63695q0 -1.0 0.265625 -1.765625q0.28125 -0.78125 0.78125 -1.3125q0.5000019 -0.546875 1.2031269 -0.8125q0.71875 -0.28125 1.578125 -0.28125q0.375 0 0.734375 0.046875q0.375 0.046875 0.71875 0.140625l0 -3.296875l1.375 0l0 11.046875l-1.21875 0l-0.046875 -1.484375q-0.578125 0.828125 -1.25 1.234375q-0.65625 0.390625 -1.421875 0.390625q-0.671875 0 -1.1875 -0.28125q-0.5156269 -0.28125 -0.8593769 -0.796875q-0.328125 -0.515625 -0.5 -1.234375q-0.171875 -0.71875 -0.171875 -1.59375zm1.390625 -0.078125q0 1.421875 0.4062519 2.125q0.421875 0.6875 1.1875 0.6875q0.515625 0 1.09375 -0.453125q0.578125 -0.46875 1.203125 -1.375l0 -3.640625q-0.328125 -0.15625 -0.734375 -0.234375q-0.40625 -0.078125 -0.8125 -0.078125q-1.109375 0 -1.734375 0.71875q-0.6093769 0.71875 -0.6093769 2.25zm8.125002 -4.0l1.234375 0l0.046875 1.4375q0.6875 -0.828125 1.359375 -1.203125q0.6875 -0.375 1.375 -0.375q1.21875 0 1.84375 0.796875q0.625 0.78125 0.578125 2.328125l-1.375 0q0.03125 -1.03125 -0.296875 -1.484375q-0.328125 -0.46875 -0.953125 -0.46875q-0.265625 0 -0.546875 0.09375q-0.28125 0.09375 -0.578125 0.3125q-0.28125 0.21875 -0.609375 0.5625q-0.328125 0.328125 -0.703125 0.796875l0 5.046875l-1.375 0l0 -7.84375zm13.515625 7.84375l-0.03125 -1.0625q-0.640625 0.640625 -1.3125 0.921875q-0.65625 0.28125 -1.375 0.28125q-0.671875 0 -1.15625 -0.171875q-0.46875 -0.171875 -0.78125 -0.46875q-0.3125 -0.3125 -0.453125 -0.71875q-0.140625 -0.40625 -0.140625 -0.875q0 -1.1875 0.875 -1.84375q0.875 -0.671875 2.59375 -0.671875l1.625 0l0 -0.6875q0 -0.703125 -0.453125 -1.109375q-0.4375 -0.421875 -1.34375 -0.421875q-0.671875 0 -1.3125 0.15625q-0.640625 0.140625 -1.328125 0.40625l0 -1.21875q0.25 -0.09375 0.5625 -0.1875q0.328125 -0.09375 0.671875 -0.15625q0.359375 -0.078125 0.734375 -0.109375q0.390625 -0.046875 0.78125 -0.046875q0.703125 0 1.265625 0.15625q0.578125 0.15625 0.96875 0.484375q0.40625 0.3125 0.609375 0.796875q0.21875 0.484375 0.21875 1.140625l0 5.40625l-1.21875 0zm-0.15625 -3.578125l-1.71875 0q-0.515625 0 -0.890625 0.109375q-0.359375 0.09375 -0.59375 0.28125q-0.234375 0.1875 -0.34375 0.453125q-0.109375 0.265625 -0.109375 0.59375q0 0.21875 0.0625 0.4375q0.078125 0.203125 0.234375 0.359375q0.15625 0.15625 0.40625 0.25q0.25 0.09375 0.609375 0.09375q0.46875 0 1.0625 -0.28125q0.609375 -0.28125 1.28125 -0.90625l0 -1.390625zm11.171871 -4.265625l-1.1406212 7.84375l-1.640625 0l-1.140625 -3.28125l-0.21875 -0.796875l-0.265625 0.84375l-1.078125 3.234375l-1.609375 0l-1.125 -7.84375l1.328125 0l0.65625 5.328125l0.140625 1.1875l0.328125 -1.046875l1.140625 -3.515625l0.984375 0l1.21875 3.46875l0.359375 1.046875l0.109375 -1.109375l0.609375 -5.359375l1.3437462 0z" fill-rule="nonzero"/><path fill="#000000" fill-opacity="0.0" d="m102.48819 29.38845l0 187.08661" fill-rule="evenodd"/><path stroke="#000000" stroke-width="1.0" stroke-linejoin="round" stroke-linecap="butt" d="m102.48819 29.38845l0 187.08661" fill-rule="evenodd"/><path fill="#000000" fill-opacity="0.0" d="m198.48819 29.38845l0 187.08661" fill-rule="evenodd"/><path stroke="#000000" stroke-width="1.0" stroke-linejoin="round" stroke-linecap="butt" d="m198.48819 29.38845l0 187.08661" fill-rule="evenodd"/><path fill="#000000" fill-opacity="0.0" d="m109.5538 0.18110237l80.346466 0l0 42.015747l-80.346466 0z" fill-rule="evenodd"/><path fill="#000000" d="m127.24136 23.612103l1.65625 -0.140625q0.125 1.0 0.546875 1.640625q0.4375 0.640625 1.34375 1.046875q0.921875 0.390625 2.0625 0.390625q1.0 0 1.78125 -0.296875q0.78125 -0.296875 1.15625 -0.8125q0.375 -0.53125 0.375 -1.15625q0 -0.625 -0.375 -1.09375q-0.359375 -0.46875 -1.1875 -0.796875q-0.546875 -0.203125 -2.390625 -0.640625q-1.828125 -0.453125 -2.5625 -0.84375q-0.96875 -0.5 -1.4375 -1.234375q-0.46875 -0.75 -0.46875 -1.671875q0 -1.0 0.578125 -1.875q0.578125 -0.890625 1.671875 -1.34375q1.109375 -0.453125 2.453125 -0.453125q1.484375 0 2.609375 0.484375q1.140625 0.46875 1.75 1.40625q0.609375 0.921875 0.65625 2.09375l-1.6875 0.125q-0.140625 -1.265625 -0.9375 -1.90625q-0.78125 -0.65625 -2.3125 -0.65625q-1.609375 0 -2.34375 0.59375q-0.734375 0.59375 -0.734375 1.421875q0 0.71875 0.53125 1.171875q0.5 0.46875 2.65625 0.96875q2.15625 0.484375 2.953125 0.84375q1.171875 0.53125 1.71875 1.359375q0.5625 0.828125 0.5625 1.90625q0 1.0625 -0.609375 2.015625q-0.609375 0.9375 -1.75 1.46875q-1.140625 0.515625 -2.578125 0.515625q-1.8125 0 -3.046875 -0.53125q-1.21875 -0.53125 -1.921875 -1.59375q-0.6875 -1.0625 -0.71875 -2.40625zm16.412323 2.828125l0.234375 1.453125q-0.6875 0.140625 -1.234375 0.140625q-0.890625 0 -1.390625 -0.28125q-0.484375 -0.28125 -0.6875 -0.734375q-0.203125 -0.46875 -0.203125 -1.9375l0 -5.578125l-1.203125 0l0 -1.265625l1.203125 0l0 -2.390625l1.625 -0.984375l0 3.375l1.65625 0l0 1.265625l-1.65625 0l0 5.671875q0 0.6875 0.078125 0.890625q0.09375 0.203125 0.28125 0.328125q0.203125 0.109375 0.578125 0.109375q0.265625 0 0.71875 -0.0625zm7.917679 0.28125q-0.921875 0.765625 -1.765625 1.09375q-0.828125 0.3125 -1.796875 0.3125q-1.59375 0 -2.453125 -0.78125q-0.859375 -0.78125 -0.859375 -1.984375q0 -0.71875 0.328125 -1.296875q0.328125 -0.59375 0.84375 -0.9375q0.53125 -0.359375 1.1875 -0.546875q0.46875 -0.125 1.453125 -0.25q1.984375 -0.234375 2.921875 -0.5625q0.015625 -0.34375 0.015625 -0.421875q0 -1.0 -0.46875 -1.421875q-0.625 -0.546875 -1.875 -0.546875q-1.15625 0 -1.703125 0.40625q-0.546875 0.40625 -0.8125 1.421875l-1.609375 -0.21875q0.21875 -1.015625 0.71875 -1.640625q0.5 -0.640625 1.453125 -0.984375q0.953125 -0.34375 2.1875 -0.34375q1.25 0 2.015625 0.296875q0.78125 0.28125 1.140625 0.734375q0.375 0.4375 0.515625 1.109375q0.078125 0.421875 0.078125 1.515625l0 2.1875q0 2.28125 0.109375 2.890625q0.109375 0.59375 0.40625 1.15625l-1.703125 0q-0.265625 -0.515625 -0.328125 -1.1875zm-0.140625 -3.671875q-0.890625 0.375 -2.671875 0.625q-1.015625 0.140625 -1.4375 0.328125q-0.421875 0.1875 -0.65625 0.53125q-0.21875 0.34375 -0.21875 0.78125q0 0.65625 0.5 1.09375q0.5 0.4375 1.453125 0.4375q0.9375 0 1.671875 -0.40625q0.75 -0.421875 1.09375 -1.140625q0.265625 -0.5625 0.265625 -1.640625l0 -0.609375zm10.516342 1.3125l1.609375 0.21875q-0.265625 1.65625 -1.359375 2.609375q-1.078125 0.9375 -2.671875 0.9375q-1.984375 0 -3.1875 -1.296875q-1.203125 -1.296875 -1.203125 -3.71875q0 -1.578125 0.515625 -2.75q0.515625 -1.171875 1.578125 -1.75q1.0625 -0.59375 2.3125 -0.59375q1.578125 0 2.578125 0.796875q1.0 0.796875 1.28125 2.265625l-1.59375 0.234375q-0.234375 -0.96875 -0.8125 -1.453125q-0.578125 -0.5 -1.390625 -0.5q-1.234375 0 -2.015625 0.890625q-0.78125 0.890625 -0.78125 2.8125q0 1.953125 0.75 2.84375q0.75 0.875 1.953125 0.875q0.96875 0 1.609375 -0.59375q0.65625 -0.59375 0.828125 -1.828125zm3.015625 3.546875l0 -13.359375l1.640625 0l0 7.625l3.890625 -3.9375l2.109375 0l-3.6875 3.59375l4.0625 6.078125l-2.015625 0l-3.203125 -4.953125l-1.15625 1.125l0 3.828125l-1.640625 0z" fill-rule="nonzero"/><path fill="#000000" fill-opacity="0.0" d="m244.59541 5.159919l190.67717 0l0 42.015747l-190.67717 0z" fill-rule="evenodd"/><path fill="#000000" d="m282.1918 16.469042q0 0.734375 -0.125 1.40625q-0.109375 0.671875 -0.359375 1.25q-0.25 0.578125 -0.65625 1.046875q-0.390625 0.46875 -0.96875 0.8125q-0.578125 0.328125 -1.34375 0.515625q-0.765625 0.1875 -1.734375 0.1875l-2.1875 0l0 -10.218749l2.625 0q2.390625 0 3.5625 1.234375q1.1875 1.234375 1.1875 3.765624zm-1.46875 0.09375q0 -1.078124 -0.203125 -1.828124q-0.203125 -0.75 -0.625 -1.203125q-0.40625 -0.46875 -1.03125 -0.671875q-0.625 -0.21875 -1.46875 -0.21875l-1.1875 0l0 7.843749l1.03125 0q3.484375 0 3.484375 -3.921875zm3.609375 -2.718749l1.234375 0l0.046875 1.4375q0.6875 -0.828125 1.359375 -1.203125q0.6875 -0.375 1.375 -0.375q1.21875 0 1.84375 0.796875q0.625 0.78125 0.578125 2.328124l-1.375 0q0.03125 -1.031249 -0.296875 -1.484374q-0.328125 -0.46875 -0.953125 -0.46875q-0.265625 0 -0.546875 0.09375q-0.28125 0.09375 -0.578125 0.3125q-0.28125 0.21875 -0.609375 0.5625q-0.328125 0.32812405 -0.703125 0.79687405l0 5.046875l-1.375 0l0 -7.843749zm13.515625 7.843749l-0.03125 -1.0625q-0.640625 0.640625 -1.3125 0.921875q-0.65625 0.28125 -1.375 0.28125q-0.671875 0 -1.15625 -0.171875q-0.46875 -0.171875 -0.78125 -0.46875q-0.3125 -0.3125 -0.453125 -0.71875q-0.140625 -0.40625 -0.140625 -0.875q0 -1.1875 0.875 -1.84375q0.875 -0.671875 2.59375 -0.671875l1.625 0l0 -0.6875q0 -0.70312405 -0.453125 -1.109374q-0.4375 -0.421875 -1.34375 -0.421875q-0.671875 0 -1.3125 0.15625q-0.640625 0.140625 -1.328125 0.40625l0 -1.21875q0.25 -0.09375 0.5625 -0.1875q0.328125 -0.09375 0.671875 -0.15625q0.359375 -0.078125 0.734375 -0.109375q0.390625 -0.046875 0.78125 -0.046875q0.703125 0 1.265625 0.15625q0.578125 0.15625 0.96875 0.484375q0.40625 0.3125 0.609375 0.796875q0.21875 0.484375 0.21875 1.140624l0 5.40625l-1.21875 0zm-0.15625 -3.578125l-1.71875 0q-0.515625 0 -0.890625 0.109375q-0.359375 0.09375 -0.59375 0.28125q-0.234375 0.1875 -0.34375 0.453125q-0.109375 0.265625 -0.109375 0.59375q0 0.21875 0.0625 0.4375q0.078125 0.203125 0.234375 0.359375q0.15625 0.15625 0.40625 0.25q0.25 0.09375 0.609375 0.09375q0.46875 0 1.0625 -0.28125q0.609375 -0.28125 1.28125 -0.90625l0 -1.390625zm11.171875 -4.265624l-1.140625 7.843749l-1.640625 0l-1.140625 -3.28125l-0.21875 -0.796875l-0.265625 0.84375l-1.078125 3.234375l-1.609375 0l-1.125 -7.843749l1.328125 0l0.65625 5.328124l0.140625 1.1875l0.328125 -1.046875l1.140625 -3.515624l0.984375 0l1.21875 3.468749l0.359375 1.046875l0.109375 -1.109375l0.609375 -5.359374l1.34375 0zm17.296875 -1.9375q-1.078125 -0.21875 -1.84375 -0.21875q-1.84375 0 -1.84375 1.921875l0 1.375l3.4375 0l0 1.124999l-3.4375 0l0 5.578125l-1.375 0l0 -5.578125l-2.53125 0l0 -1.124999l2.53125 0l0 -1.296875q0 -3.140625 3.265625 -3.140625q0.8125 0 1.796875 0.1875l0 1.171875zm-8.21875 1.9375l0 0zm16.875 3.859374q0 0.90625 -0.265625 1.671875q-0.25 0.765625 -0.734375 1.3125q-0.484375 0.53125 -1.1875 0.84375q-0.6875 0.296875 -1.5625 0.296875q-0.84375 0 -1.515625 -0.265625q-0.671875 -0.265625 -1.140625 -0.765625q-0.453125 -0.515625 -0.703125 -1.265625q-0.25 -0.75 -0.25 -1.71875q0 -0.921875 0.25 -1.671875q0.265625 -0.74999905 0.75 -1.296874q0.484375 -0.546875 1.171875 -0.84375q0.703125 -0.296875 1.59375 -0.296875q0.84375 0 1.5 0.265625q0.671875 0.25 1.140625 0.765625q0.46875 0.5 0.703125 1.25q0.25 0.74999905 0.25 1.718749zm-1.390625 0.0625q0 -0.734375 -0.15625 -1.265625q-0.15625 -0.54687405 -0.453125 -0.90624905q-0.296875 -0.375 -0.734375 -0.546875q-0.421875 -0.1875 -0.9375 -0.1875q-0.609375 0 -1.046875 0.234375q-0.4375 0.234375 -0.71875 0.640625q-0.265625 0.39062405 -0.40625 0.92187405q-0.125 0.53125 -0.125 1.109375q0 0.71875 0.15625 1.265625q0.171875 0.546875 0.46875 0.921875q0.296875 0.359375 0.71875 0.546875q0.421875 0.171875 0.953125 0.171875q0.609375 0 1.03125 -0.234375q0.4375 -0.234375 0.71875 -0.625q0.28125 -0.40625 0.40625 -0.9375q0.125 -0.53125 0.125 -1.109375zm3.6875 -3.921874l1.234375 0l0.046875 1.4375q0.6875 -0.828125 1.359375 -1.203125q0.6875 -0.375 1.375 -0.375q1.21875 0 1.84375 0.796875q0.625 0.78125 0.578125 2.328124l-1.375 0q0.03125 -1.031249 -0.296875 -1.484374q-0.328125 -0.46875 -0.953125 -0.46875q-0.265625 0 -0.546875 0.09375q-0.28125 0.09375 -0.578125 0.3125q-0.28125 0.21875 -0.609375 0.5625q-0.328125 0.32812405 -0.703125 0.79687405l0 5.046875l-1.375 0l0 -7.843749zm23.8125 5.078124q0 0.71875 -0.296875 1.265625q-0.296875 0.546875 -0.828125 0.921875q-0.53125 0.359375 -1.28125 0.546875q-0.75 0.171875 -1.640625 0.171875q-0.40625 0 -0.8125 -0.03125q-0.40625 -0.03125 -0.78125 -0.078125q-0.359375 -0.046875 -0.6875 -0.109375q-0.328125 -0.0625 -0.59375 -0.140625l0 -1.34375q0.578125 0.21875 1.3125 0.34375q0.734375 0.125 1.65625 0.125q0.671875 0 1.140625 -0.09375q0.484375 -0.109375 0.78125 -0.3125q0.296875 -0.21875 0.4375 -0.515625q0.140625 -0.296875 0.140625 -0.671875q0 -0.421875 -0.234375 -0.703125q-0.234375 -0.296875 -0.609375 -0.53125q-0.375 -0.234375 -0.859375 -0.421875q-0.46875 -0.1875 -0.96875 -0.390625q-0.5 -0.203125 -0.984375 -0.4375q-0.484375 -0.25 -0.859375 -0.56249905q-0.375 -0.328125 -0.609375 -0.765625q-0.21875 -0.4375 -0.21875 -1.046875q0 -0.515625 0.21875 -1.015625q0.21875 -0.515625 0.671875 -0.90625q0.46875 -0.40625 1.1875 -0.640625q0.71875 -0.25 1.71875 -0.25q0.265625 0 0.5625 0.03125q0.296875 0.015625 0.609375 0.0625q0.3125 0.046875 0.609375 0.109375q0.296875 0.046875 0.5625 0.109375l0 1.25q-0.609375 -0.171875 -1.21875 -0.265625q-0.59375 -0.09375 -1.15625 -0.09375q-1.1875 0 -1.75 0.40625q-0.5625 0.390625 -0.5625 1.0625q0 0.421875 0.21875 0.71875q0.234375 0.296875 0.609375 0.53125q0.375 0.234375 0.859375 0.421875q0.484375 0.1875 0.984375 0.39062405q0.5 0.203125 0.96875 0.453125q0.484375 0.234375 0.859375 0.578125q0.375 0.328125 0.609375 0.78125q0.234375 0.4375 0.234375 1.046875zm1.859375 -1.0q0 -0.84375 0.21875 -1.59375q0.21875 -0.76562405 0.6875 -1.328124q0.46875 -0.578125 1.1875 -0.90625q0.734375 -0.34375 1.734375 -0.34375q0.40625 0 0.796875 0.0625q0.390625 0.0625 0.828125 0.1875l1.203125 -0.296875l0 11.187499l-1.375 0l0 -2.953125l0.078125 -1.6875q-1.109375 1.578125 -2.640625 1.578125q-0.6875 0 -1.203125 -0.28125q-0.5 -0.28125 -0.84375 -0.796875q-0.34375 -0.515625 -0.515625 -1.234375q-0.15625 -0.71875 -0.15625 -1.59375zm1.390625 -0.078125q0 0.65625 0.09375 1.1875q0.09375 0.515625 0.296875 0.875q0.203125 0.359375 0.5 0.5625q0.296875 0.1875 0.703125 0.1875q0.515625 0 1.09375 -0.453125q0.578125 -0.46875 1.203125 -1.375l0 -3.640624q-0.3125 -0.140625 -0.703125 -0.234375q-0.390625 -0.09375 -0.84375 -0.09375q-1.140625 0 -1.75 0.765625q-0.59375 0.74999905 -0.59375 2.218749zm14.109375 3.84375l-1.21875 0l-0.046875 -1.265625q-0.359375 0.40625 -0.671875 0.671875q-0.3125 0.265625 -0.625 0.4375q-0.3125 0.171875 -0.640625 0.234375q-0.3125 0.0625 -0.65625 0.0625q-1.21875 0 -1.84375 -0.703125q-0.609375 -0.71875 -0.609375 -2.15625l0 -5.124999l1.359375 0l0 5.015624q0 1.796875 1.359375 1.796875q0.25 0 0.484375 -0.0625q0.25 -0.078125 0.5 -0.265625q0.265625 -0.1875 0.5625 -0.5q0.3125 -0.3125 0.6875 -0.78125l0 -5.203124l1.359375 0l0 7.843749zm7.53125 0l-0.03125 -1.0625q-0.640625 0.640625 -1.3125 0.921875q-0.65625 0.28125 -1.375 0.28125q-0.671875 0 -1.15625 -0.171875q-0.46875 -0.171875 -0.78125 -0.46875q-0.3125 -0.3125 -0.453125 -0.71875q-0.140625 -0.40625 -0.140625 -0.875q0 -1.1875 0.875 -1.84375q0.875 -0.671875 2.59375 -0.671875l1.625 0l0 -0.6875q0 -0.70312405 -0.453125 -1.109374q-0.4375 -0.421875 -1.34375 -0.421875q-0.671875 0 -1.3125 0.15625q-0.640625 0.140625 -1.328125 0.40625l0 -1.21875q0.25 -0.09375 0.5625 -0.1875q0.328125 -0.09375 0.671875 -0.15625q0.359375 -0.078125 0.734375 -0.109375q0.390625 -0.046875 0.78125 -0.046875q0.703125 0 1.265625 0.15625q0.578125 0.15625 0.96875 0.484375q0.40625 0.3125 0.609375 0.796875q0.21875 0.484375 0.21875 1.140624l0 5.40625l-1.21875 0zm-0.15625 -3.578125l-1.71875 0q-0.515625 0 -0.890625 0.109375q-0.359375 0.09375 -0.59375 0.28125q-0.234375 0.1875 -0.34375 0.453125q-0.109375 0.265625 -0.109375 0.59375q0 0.21875 0.0625 0.4375q0.078125 0.203125 0.234375 0.359375q0.15625 0.15625 0.40625 0.25q0.25 0.09375 0.609375 0.09375q0.46875 0 1.0625 -0.28125q0.609375 -0.28125 1.28125 -0.90625l0 -1.390625zm4.234375 -4.265624l1.234375 0l0.046875 1.4375q0.6875 -0.828125 1.359375 -1.203125q0.6875 -0.375 1.375 -0.375q1.21875 0 1.84375 0.796875q0.625 0.78125 0.578125 2.328124l-1.375 0q0.03125 -1.031249 -0.296875 -1.484374q-0.328125 -0.46875 -0.953125 -0.46875q-0.265625 0 -0.546875 0.09375q-0.28125 0.09375 -0.578125 0.3125q-0.28125 0.21875 -0.609375 0.5625q-0.328125 0.32812405 -0.703125 0.79687405l0 5.046875l-1.375 0l0 -7.843749zm15.09375 3.499999q0 0.296875 -0.015625 0.5q0 0.1875 -0.015625 0.359375l-5.5 0q0 1.203125 0.671875 1.84375q0.671875 0.640625 1.9375 0.640625q0.34375 0 0.6875 -0.015625q0.34375 -0.03125 0.65625 -0.078125q0.328125 -0.046875 0.609375 -0.109375q0.296875 -0.0625 0.546875 -0.125l0 1.109375q-0.546875 0.15625 -1.25 0.25q-0.703125 0.109375 -1.453125 0.109375q-1.0 0 -1.734375 -0.265625q-0.71875 -0.28125 -1.1875 -0.796875q-0.46875 -0.53125 -0.6875 -1.28125q-0.21875 -0.75 -0.21875 -1.703125q0 -0.828125 0.234375 -1.5625q0.234375 -0.74999905 0.6875 -1.296874q0.46875 -0.5625 1.125 -0.890625q0.671875 -0.328125 1.515625 -0.328125q0.8125 0 1.4375 0.265625q0.640625 0.25 1.078125 0.71875q0.4375 0.46875 0.65625 1.15625q0.21875 0.67187405 0.21875 1.499999zm-1.40625 -0.1875q0.015625 -0.53125 -0.109375 -0.953125q-0.125 -0.43749905 -0.390625 -0.74999905q-0.25 -0.3125 -0.640625 -0.484375q-0.390625 -0.1875 -0.90625 -0.1875q-0.453125 0 -0.828125 0.171875q-0.359375 0.171875 -0.625 0.484375q-0.265625 0.3125 -0.4375 0.74999905q-0.15625 0.4375 -0.1875 0.96875l4.125 0z" fill-rule="nonzero"/><path fill="#000000" d="m318.96417 44.08779l-3.6875 -9.671875l1.734375 0l2.078125 5.796875q0.328125 0.9375 0.625 1.9375q0.203125 -0.765625 0.609375 -1.828125l2.140625 -5.90625l1.6875 0l-3.65625 9.671875l-1.53125 0zm10.21875 -1.46875l0.234375 1.453125q-0.6875 0.140625 -1.234375 0.140625q-0.890625 0 -1.390625 -0.28125q-0.484375 -0.28125 -0.6875 -0.734375q-0.203125 -0.46875 -0.203125 -1.9375l0 -5.578125l-1.203125 0l0 -1.265625l1.203125 0l0 -2.390625l1.625 -0.9843769l0 3.375002l1.65625 0l0 1.265625l-1.65625 0l0 5.671875q0 0.6875 0.078125 0.890625q0.09375 0.203125 0.28125 0.328125q0.203125 0.109375 0.578125 0.109375q0.265625 0 0.71875 -0.0625zm7.9176636 0.28125q-0.921875 0.765625 -1.765625 1.09375q-0.828125 0.3125 -1.796875 0.3125q-1.59375 0 -2.453125 -0.78125q-0.859375 -0.78125 -0.859375 -1.984375q0 -0.71875 0.328125 -1.296875q0.328125 -0.59375 0.84375 -0.9375q0.53125 -0.359375 1.1875 -0.546875q0.46875 -0.125 1.453125 -0.25q1.984375 -0.234375 2.921875 -0.5625q0.015625 -0.34375 0.015625 -0.421875q0 -1.0 -0.46875 -1.421875q-0.625 -0.546875 -1.875 -0.546875q-1.15625 0 -1.703125 0.40625q-0.546875 0.40625 -0.8125 1.421875l-1.609375 -0.21875q0.21875 -1.015625 0.71875 -1.640625q0.5 -0.640625 1.453125 -0.984375q0.953125 -0.34375 2.1875 -0.34375q1.25 0 2.015625 0.296875q0.78125 0.28125 1.140625 0.734375q0.375 0.4375 0.515625 1.109375q0.078125 0.421875 0.078125 1.515625l0 2.1875q0 2.28125 0.109375 2.890625q0.109375 0.59375 0.40625 1.15625l-1.703125 0q-0.265625 -0.515625 -0.328125 -1.1875zm-0.140625 -3.671875q-0.890625 0.375 -2.671875 0.625q-1.015625 0.140625 -1.4375 0.328125q-0.421875 0.1875 -0.65625 0.53125q-0.21875 0.34375 -0.21875 0.78125q0 0.65625 0.5 1.09375q0.5 0.4375 1.453125 0.4375q0.9375 0 1.671875 -0.40625q0.75 -0.421875 1.09375 -1.140625q0.265625 -0.5625 0.265625 -1.640625l0 -0.609375zm5.7038574 4.859375l-1.515625 0l0 -13.359377l1.640625 0l0 4.765627q1.046875 -1.296875 2.65625 -1.296875q0.890625 0 1.6875 0.359375q0.796875 0.359375 1.3125 1.015625q0.515625 0.640625 0.796875 1.5625q0.296875 0.921875 0.296875 1.96875q0 2.484375 -1.234375 3.84375q-1.21875 1.359375 -2.953125 1.359375q-1.703125 0 -2.6875 -1.4375l0 1.21875zm-0.015625 -4.90625q0 1.734375 0.484375 2.515625q0.765625 1.265625 2.09375 1.265625q1.078125 0 1.859375 -0.9375q0.78125 -0.9375 0.78125 -2.78125q0 -1.890625 -0.75 -2.796875q-0.75 -0.90625 -1.828125 -0.90625q-1.0625 0 -1.859375 0.9375q-0.78125 0.9375 -0.78125 2.703125zm8.844452 4.90625l0 -13.359377l1.640625 0l0 13.359377l-1.640625 0zm10.816711 -3.109375l1.6875 0.203125q-0.40625 1.484375 -1.484375 2.3125q-1.078125 0.8125 -2.765625 0.8125q-2.125 0 -3.375 -1.296875q-1.234375 -1.3125 -1.234375 -3.671875q0 -2.453125 1.25 -3.796875q1.265625 -1.34375 3.265625 -1.34375q1.9375 0 3.15625 1.328125q1.234375 1.3125 1.234375 3.703125q0 0.15625 0 0.4375l-7.21875 0q0.09375 1.59375 0.90625 2.453125q0.8125 0.84375 2.015625 0.84375q0.90625 0 1.546875 -0.46875q0.640625 -0.484375 1.015625 -1.515625zm-5.390625 -2.65625l5.40625 0q-0.109375 -1.21875 -0.625 -1.828125q-0.78125 -0.953125 -2.03125 -0.953125q-1.125 0 -1.90625 0.765625q-0.765625 0.75 -0.84375 2.015625z" fill-rule="nonzero"/><path fill="#d9d9d9" d="m102.61155 170.2748l95.937004 0l0 23.81102l-95.937004 0z" fill-rule="evenodd"/><path stroke="#000000" stroke-width="1.0" stroke-linejoin="round" stroke-linecap="butt" d="m102.61155 170.2748l95.937004 0l0 23.81102l-95.937004 0z" fill-rule="evenodd"/><path fill="#000000" fill-opacity="0.0" d="m150.58005 194.08582l0 -5.7637787" fill-rule="evenodd"/><path stroke="#000000" stroke-width="1.0" stroke-linejoin="round" stroke-linecap="butt" d="m150.58005 194.08582l0 -5.7637787" fill-rule="evenodd"/><path fill="#000000" fill-opacity="0.0" d="m174.58005 194.08582l0 -5.7637787" fill-rule="evenodd"/><path stroke="#000000" stroke-width="1.0" stroke-linejoin="round" stroke-linecap="butt" d="m174.58005 194.08582l0 -5.7637787" fill-rule="evenodd"/><path fill="#000000" fill-opacity="0.0" d="m126.580055 194.08582l0 -5.7637787" fill-rule="evenodd"/><path stroke="#000000" stroke-width="1.0" stroke-linejoin="round" stroke-linecap="butt" d="m126.580055 194.08582l0 -5.7637787" fill-rule="evenodd"/><path fill="#000000" fill-opacity="0.0" d="m186.6751 194.08582l0 -5.7637787" fill-rule="evenodd"/><path stroke="#000000" stroke-width="1.0" stroke-linejoin="round" stroke-linecap="butt" d="m186.6751 194.08582l0 -5.7637787" fill-rule="evenodd"/><path fill="#000000" fill-opacity="0.0" d="m138.6751 194.08582l0 -5.7637787" fill-rule="evenodd"/><path stroke="#000000" stroke-width="1.0" stroke-linejoin="round" stroke-linecap="butt" d="m138.6751 194.08582l0 -5.7637787" fill-rule="evenodd"/><path fill="#000000" fill-opacity="0.0" d="m162.6751 194.08582l0 -5.7637787" fill-rule="evenodd"/><path stroke="#000000" stroke-width="1.0" stroke-linejoin="round" stroke-linecap="butt" d="m162.6751 194.08582l0 -5.7637787" fill-rule="evenodd"/><path fill="#000000" fill-opacity="0.0" d="m114.675095 194.08582l0 -5.7637787" fill-rule="evenodd"/><path stroke="#000000" stroke-width="1.0" stroke-linejoin="round" stroke-linecap="butt" d="m114.675095 194.08582l0 -5.7637787" fill-rule="evenodd"/><path fill="#d9d9d9" d="m102.61155 50.569553l95.937004 0l0 23.811024l-95.937004 0z" fill-rule="evenodd"/><path stroke="#000000" stroke-width="1.0" stroke-linejoin="round" stroke-linecap="butt" d="m102.61155 50.569553l95.937004 0l0 23.811024l-95.937004 0z" fill-rule="evenodd"/><path fill="#000000" fill-opacity="0.0" d="m150.58005 74.38058l0 -5.7637787" fill-rule="evenodd"/><path stroke="#000000" stroke-width="1.0" stroke-linejoin="round" stroke-linecap="butt" d="m150.58005 74.38058l0 -5.7637787" fill-rule="evenodd"/><path fill="#000000" fill-opacity="0.0" d="m174.58005 74.38058l0 -5.7637787" fill-rule="evenodd"/><path stroke="#000000" stroke-width="1.0" stroke-linejoin="round" stroke-linecap="butt" d="m174.58005 74.38058l0 -5.7637787" fill-rule="evenodd"/><path fill="#000000" fill-opacity="0.0" d="m126.580055 74.38058l0 -5.7637787" fill-rule="evenodd"/><path stroke="#000000" stroke-width="1.0" stroke-linejoin="round" stroke-linecap="butt" d="m126.580055 74.38058l0 -5.7637787" fill-rule="evenodd"/><path fill="#000000" fill-opacity="0.0" d="m186.6751 74.38058l0 -5.7637787" fill-rule="evenodd"/><path stroke="#000000" stroke-width="1.0" stroke-linejoin="round" stroke-linecap="butt" d="m186.6751 74.38058l0 -5.7637787" fill-rule="evenodd"/><path fill="#000000" fill-opacity="0.0" d="m138.6751 74.38058l0 -5.7637787" fill-rule="evenodd"/><path stroke="#000000" stroke-width="1.0" stroke-linejoin="round" stroke-linecap="butt" d="m138.6751 74.38058l0 -5.7637787" fill-rule="evenodd"/><path fill="#000000" fill-opacity="0.0" d="m162.6751 74.38058l0 -5.7637787" fill-rule="evenodd"/><path stroke="#000000" stroke-width="1.0" stroke-linejoin="round" stroke-linecap="butt" d="m162.6751 74.38058l0 -5.7637787" fill-rule="evenodd"/><path fill="#000000" fill-opacity="0.0" d="m114.675095 74.38058l0 -5.7637787" fill-rule="evenodd"/><path stroke="#000000" stroke-width="1.0" stroke-linejoin="round" stroke-linecap="butt" d="m114.675095 74.38058l0 -5.7637787" fill-rule="evenodd"/><path fill="#000000" fill-opacity="0.0" d="m-6.699316 72.45319l82.267715 0l0 24.0l-82.267715 0z" fill-rule="evenodd"/><path fill="#000000" d="m21.2559 88.07256q0 0.40625 -0.140625 0.734375q-0.140625 0.328125 -0.390625 0.59375q-0.234375 0.25 -0.5625 0.4375q-0.3125 0.171875 -0.6875 0.296875q-0.359375 0.109375 -0.75 0.15625q-0.375 0.0625 -0.734375 0.0625q-0.796875 0 -1.46875 -0.078125q-0.671875 -0.0625 -1.3125 -0.21875l0 -1.25q0.6875 0.1875 1.359375 0.296875q0.6875 0.09375 1.359375 0.09375q0.984375 0 1.453125 -0.265625q0.46875 -0.265625 0.46875 -0.75q0 -0.21875 -0.078125 -0.375q-0.078125 -0.171875 -0.28125 -0.328125q-0.1875 -0.15625 -0.59375 -0.3125q-0.40625 -0.171875 -1.125 -0.375q-0.53125 -0.15625 -0.984375 -0.359375q-0.4375 -0.203125 -0.765625 -0.46875q-0.328125 -0.28125 -0.515625 -0.640625q-0.1875 -0.375 -0.1875 -0.875q0 -0.328125 0.140625 -0.71875q0.15625 -0.390625 0.515625 -0.71875q0.375 -0.34375 1.0 -0.5625q0.625 -0.21875 1.5625 -0.21875q0.46875 0 1.03125 0.046875q0.5625 0.046875 1.171875 0.171875l0 1.21875q-0.640625 -0.15625 -1.21875 -0.234375q-0.578125 -0.078125 -1.0 -0.078125q-0.5 0 -0.859375 0.078125q-0.34375 0.078125 -0.5625 0.21875q-0.203125 0.140625 -0.296875 0.328125q-0.09375 0.171875 -0.09375 0.390625q0 0.203125 0.078125 0.375q0.078125 0.171875 0.296875 0.34375q0.234375 0.15625 0.625 0.3125q0.40625 0.15625 1.046875 0.34375q0.6875 0.203125 1.15625 0.4375q0.484375 0.21875 0.78125 0.5q0.296875 0.265625 0.421875 0.609375q0.140625 0.34375 0.140625 0.78125zm2.1875 -1.625q0 -0.84375 0.21875 -1.59375q0.21875 -0.765625 0.6875 -1.328125q0.46875 -0.578125 1.1875 -0.90625q0.734375 -0.34375 1.734375 -0.34375q0.40625 0 0.796875 0.0625q0.390625 0.0625 0.828125 0.1875l1.203125 -0.296875l0 11.1875l-1.375 0l0 -2.953125l0.078125 -1.6875q-1.109375 1.578125 -2.640625 1.578125q-0.6875 0 -1.203125 -0.28125q-0.5 -0.28125 -0.84375 -0.796875q-0.34375 -0.515625 -0.515625 -1.234375q-0.15625 -0.71875 -0.15625 -1.59375zm1.390625 -0.078125q0 0.65625 0.09375 1.1875q0.09375 0.515625 0.296875 0.875q0.203125 0.359375 0.5 0.5625q0.296875 0.1875 0.703125 0.1875q0.515625 0 1.09375 -0.453125q0.578125 -0.46875 1.203125 -1.375l0 -3.640625q-0.3125 -0.140625 -0.703125 -0.234375q-0.390625 -0.09375 -0.84375 -0.09375q-1.140625 0 -1.75 0.765625q-0.59375 0.75 -0.59375 2.21875zm14.109377 3.84375l-1.21875 0l-0.046875 -1.265625q-0.359375 0.40625 -0.671875 0.671875q-0.3125 0.265625 -0.625 0.4375q-0.3125 0.171875 -0.640625 0.234375q-0.3125 0.0625 -0.65625 0.0625q-1.21875 0 -1.84375 -0.703125q-0.609375 -0.71875 -0.609375 -2.15625l0 -5.125l1.359375 0l0 5.015625q0 1.796875 1.359375 1.796875q0.25 0 0.484375 -0.0625q0.25 -0.078125 0.5 -0.265625q0.265625 -0.1875 0.5625 -0.5q0.3125 -0.3125 0.6875 -0.78125l0 -5.203125l1.359375 0l0 7.84375zm7.53125 0l-0.03125 -1.0625q-0.640625 0.640625 -1.3125 0.921875q-0.65625 0.28125 -1.375 0.28125q-0.671875 0 -1.15625 -0.171875q-0.46875 -0.171875 -0.78125 -0.46875q-0.3125 -0.3125 -0.453125 -0.71875q-0.140625 -0.40625 -0.140625 -0.875q0 -1.1875 0.875 -1.84375q0.875 -0.671875 2.59375 -0.671875l1.625 0l0 -0.6875q0 -0.703125 -0.453125 -1.109375q-0.4375 -0.421875 -1.34375 -0.421875q-0.671875 0 -1.3125 0.15625q-0.640625 0.140625 -1.328125 0.40625l0 -1.21875q0.25 -0.09375 0.5625 -0.1875q0.328125 -0.09375 0.671875 -0.15625q0.359375 -0.078125 0.734375 -0.109375q0.390625 -0.046875 0.78125 -0.046875q0.703125 0 1.265625 0.15625q0.578125 0.15625 0.96875 0.484375q0.40625 0.3125 0.609375 0.796875q0.21875 0.484375 0.21875 1.140625l0 5.40625l-1.21875 0zm-0.15625 -3.578125l-1.71875 0q-0.515625 0 -0.890625 0.109375q-0.359375 0.09375 -0.59375 0.28125q-0.234375 0.1875 -0.34375 0.453125q-0.109375 0.265625 -0.109375 0.59375q0 0.21875 0.0625 0.4375q0.078125 0.203125 0.234375 0.359375q0.15625 0.15625 0.40625 0.25q0.25 0.09375 0.609375 0.09375q0.46875 0 1.0625 -0.28125q0.609375 -0.28125 1.28125 -0.90625l0 -1.390625zm4.234375 -4.265625l1.234375 0l0.046875 1.4375q0.6875 -0.828125 1.359375 -1.203125q0.6875 -0.375 1.375 -0.375q1.21875 0 1.84375 0.796875q0.625 0.78125 0.578125 2.328125l-1.375 0q0.03125 -1.03125 -0.296875 -1.484375q-0.328125 -0.46875 -0.953125 -0.46875q-0.265625 0 -0.546875 0.09375q-0.28125 0.09375 -0.578125 0.3125q-0.28125 0.21875 -0.609375 0.5625q-0.328125 0.328125 -0.703125 0.796875l0 5.046875l-1.375 0l0 -7.84375zm15.093746 3.5q0 0.296875 -0.015625 0.5q0 0.1875 -0.015625 0.359375l-5.499996 0q0 1.203125 0.671875 1.84375q0.671875 0.640625 1.9375 0.640625q0.34375 0 0.6875 -0.015625q0.34375 -0.03125 0.6562462 -0.078125q0.328125 -0.046875 0.609375 -0.109375q0.296875 -0.0625 0.546875 -0.125l0 1.109375q-0.546875 0.15625 -1.2499962 0.25q-0.703125 0.109375 -1.453125 0.109375q-1.0 0 -1.734375 -0.265625q-0.71875 -0.28125 -1.1875 -0.796875q-0.46875 -0.53125 -0.6875 -1.28125q-0.21875 -0.75 -0.21875 -1.703125q0 -0.828125 0.234375 -1.5625q0.234375 -0.75 0.6875 -1.296875q0.46875 -0.5625 1.125 -0.890625q0.671875 -0.328125 1.515625 -0.328125q0.8125 0 1.4375 0.265625q0.6406212 0.25 1.0781212 0.71875q0.4375 0.46875 0.65625 1.15625q0.21875 0.671875 0.21875 1.5zm-1.40625 -0.1875q0.015625 -0.53125 -0.109375 -0.953125q-0.125 -0.4375 -0.3906212 -0.75q-0.25 -0.3125 -0.640625 -0.484375q-0.390625 -0.1875 -0.90625 -0.1875q-0.453125 0 -0.828125 0.171875q-0.359375 0.171875 -0.625 0.484375q-0.265625 0.3125 -0.4375 0.75q-0.15625 0.4375 -0.1875 0.96875l4.124996 0z" fill-rule="nonzero"/><path fill="#000000" fill-opacity="0.0" d="m390.61942 50.09938l95.93701 0l0 18.551178l-95.93701 0z" fill-rule="evenodd"/><path fill="#000000" d="m405.58817 60.648094q0 0.734375 -0.203125 1.3125q-0.203125 0.578125 -0.578125 0.984375q-0.375 0.390625 -0.90625 0.609375q-0.53125 0.21875 -1.203125 0.21875q-0.515625 0 -1.0625 -0.09375q-0.546875 -0.109375 -1.078125 -0.328125l0 -7.9375l1.015625 0l0 2.28125l-0.046875 1.09375q0.4375 -0.59375 0.9375 -0.828125q0.515625 -0.25 1.078125 -0.25q0.515625 0 0.890625 0.21875q0.375 0.203125 0.625 0.59375q0.265625 0.375 0.390625 0.921875q0.140625 0.53125 0.140625 1.203125zm-1.046875 0.046875q0 -0.46875 -0.078125 -0.84375q-0.0625 -0.390625 -0.203125 -0.65625q-0.140625 -0.28125 -0.375 -0.4375q-0.234375 -0.15625 -0.546875 -0.15625q-0.1875 0 -0.390625 0.0625q-0.203125 0.0625 -0.421875 0.203125q-0.203125 0.140625 -0.4375 0.375q-0.234375 0.234375 -0.515625 0.59375l0 2.84375q0.296875 0.125 0.609375 0.203125q0.3125 0.0625 0.59375 0.0625q0.359375 0 0.671875 -0.109375q0.328125 -0.125 0.5625 -0.375q0.25 -0.265625 0.390625 -0.6875q0.140625 -0.4375 0.140625 -1.078125zm7.7382812 0.015625q0 0.6875 -0.203125 1.265625q-0.1875 0.5625 -0.546875 0.96875q-0.359375 0.40625 -0.890625 0.640625q-0.515625 0.21875 -1.1875 0.21875q-0.625 0 -1.125 -0.1875q-0.5 -0.203125 -0.859375 -0.578125q-0.34375 -0.390625 -0.53125 -0.953125q-0.171875 -0.5625 -0.171875 -1.296875q0 -0.6875 0.1875 -1.25q0.1875 -0.5625 0.546875 -0.96875q0.375 -0.40625 0.890625 -0.625q0.53125 -0.234375 1.1875 -0.234375q0.625 0 1.125 0.203125q0.515625 0.1875 0.859375 0.5625q0.34375 0.375 0.53125 0.9375q0.1875 0.5625 0.1875 1.296875zm-1.046875 0.046875q0 -0.546875 -0.125 -0.953125q-0.109375 -0.40625 -0.34375 -0.671875q-0.21875 -0.28125 -0.546875 -0.421875q-0.3125 -0.140625 -0.703125 -0.140625q-0.453125 0 -0.78125 0.1875q-0.328125 0.171875 -0.53125 0.46875q-0.203125 0.296875 -0.3125 0.703125q-0.09375 0.390625 -0.09375 0.828125q0 0.546875 0.125 0.953125q0.125 0.40625 0.34375 0.6875q0.21875 0.265625 0.53125 0.40625q0.328125 0.140625 0.71875 0.140625q0.453125 0 0.78125 -0.171875q0.328125 -0.1875 0.53125 -0.484375q0.21875 -0.3125 0.3125 -0.703125q0.09375 -0.390625 0.09375 -0.828125zm7.2539062 2.9375l-0.921875 0l-0.03125 -0.953125q-0.265625 0.3125 -0.5 0.515625q-0.234375 0.203125 -0.46875 0.328125q-0.234375 0.109375 -0.484375 0.15625q-0.234375 0.0625 -0.5 0.0625q-0.90625 0 -1.375 -0.53125q-0.453125 -0.546875 -0.453125 -1.625l0 -3.84375l1.015625 0l0 3.765625q0 1.359375 1.03125 1.359375q0.1875 0 0.359375 -0.046875q0.171875 -0.0625 0.375 -0.203125q0.203125 -0.140625 0.421875 -0.375q0.21875 -0.234375 0.5 -0.59375l0 -3.90625l1.03125 0l0 5.890625zm1.8632812 -5.890625l0.90625 0l0.046875 0.953125q0.25 -0.296875 0.484375 -0.5q0.25 -0.203125 0.484375 -0.328125q0.234375 -0.125 0.46875 -0.171875q0.234375 -0.046875 0.5 -0.046875q0.90625 0 1.375 0.53125q0.46875 0.53125 0.46875 1.609375l0 3.84375l-1.03125 0l0 -3.75q0 -0.703125 -0.265625 -1.03125q-0.25 -0.328125 -0.75 -0.328125q-0.1875 0 -0.375 0.0625q-0.171875 0.046875 -0.375 0.1875q-0.1875 0.140625 -0.421875 0.375q-0.21875 0.234375 -0.5 0.578125l0 3.90625l-1.015625 0l0 -5.890625zm6.3007812 3.078125q0 -0.75 0.203125 -1.328125q0.203125 -0.59375 0.578125 -0.984375q0.390625 -0.40625 0.90625 -0.609375q0.53125 -0.21875 1.1875 -0.21875q0.28125 0 0.546875 0.03125q0.28125 0.03125 0.546875 0.109375l0 -2.46875l1.015625 0l0 8.28125l-0.90625 0l-0.03125 -1.109375q-0.4375 0.609375 -0.9375 0.921875q-0.484375 0.296875 -1.078125 0.296875q-0.5 0 -0.890625 -0.203125q-0.375 -0.21875 -0.640625 -0.59375q-0.25 -0.390625 -0.375 -0.921875q-0.125 -0.546875 -0.125 -1.203125zm1.046875 -0.078125q0 1.078125 0.3125 1.609375q0.3125 0.515625 0.890625 0.515625q0.375 0 0.796875 -0.34375q0.4375 -0.34375 0.921875 -1.03125l0 -2.734375q-0.25 -0.109375 -0.5625 -0.171875q-0.296875 -0.0625 -0.59375 -0.0625q-0.84375 0 -1.3125 0.546875q-0.453125 0.53125 -0.453125 1.671875zm10.503906 1.28125q0 0.3125 -0.109375 0.5625q-0.09375 0.25 -0.28125 0.4375q-0.1875 0.1875 -0.421875 0.328125q-0.234375 0.125 -0.515625 0.21875q-0.265625 0.09375 -0.5625 0.125q-0.28125 0.046875 -0.5625 0.046875q-0.59375 0 -1.09375 -0.0625q-0.5 -0.046875 -0.984375 -0.171875l0 -0.9375q0.515625 0.15625 1.03125 0.234375q0.515625 0.078125 1.015625 0.078125q0.734375 0 1.078125 -0.203125q0.359375 -0.203125 0.359375 -0.578125q0 -0.15625 -0.0625 -0.28125q-0.046875 -0.125 -0.203125 -0.234375q-0.140625 -0.109375 -0.453125 -0.234375q-0.3125 -0.125 -0.84375 -0.28125q-0.390625 -0.125 -0.734375 -0.265625q-0.328125 -0.15625 -0.578125 -0.359375q-0.25 -0.203125 -0.390625 -0.46875q-0.140625 -0.28125 -0.140625 -0.65625q0 -0.25 0.109375 -0.546875q0.125 -0.296875 0.390625 -0.546875q0.28125 -0.25 0.75 -0.40625q0.46875 -0.171875 1.171875 -0.171875q0.34375 0 0.765625 0.046875q0.421875 0.03125 0.875 0.125l0 0.90625q-0.46875 -0.125 -0.90625 -0.171875q-0.421875 -0.0625 -0.75 -0.0625q-0.375 0 -0.640625 0.0625q-0.25 0.0625 -0.421875 0.171875q-0.15625 0.09375 -0.234375 0.234375q-0.0625 0.125 -0.0625 0.28125q0 0.171875 0.0625 0.296875q0.0625 0.125 0.21875 0.25q0.171875 0.109375 0.46875 0.234375q0.296875 0.125 0.78125 0.265625q0.53125 0.15625 0.875 0.328125q0.359375 0.15625 0.578125 0.359375q0.234375 0.203125 0.328125 0.46875q0.09375 0.25 0.09375 0.578125z" fill-rule="nonzero"/><path fill="#000000" fill-opacity="0.0" d="m143.25412 60.632545l0 0c0 -1.1393585 1.0575867 -2.062992 2.3621979 -2.062992l0 0c1.3046112 0 2.3622131 0.9236336 2.3622131 2.062992l0 0c0 1.1393585 -1.0576019 2.062992 -2.3622131 2.062992l0 0c-1.3046112 0 -2.3621979 -0.9236336 -2.3621979 -2.062992z" fill-rule="evenodd"/><path fill="#000000" fill-opacity="0.0" d="m145.60832 124.207466l0 0c0 -1.1393585 0.52175903 -2.0629883 1.1653595 -2.0629883l0 0c0.30906677 0 0.605484 0.21734619 0.82403564 0.6042328c0.21853638 0.3868866 0.34132385 0.9116211 0.34132385 1.4587555l0 0c0 1.1393661 -0.5217438 2.062996 -1.1653595 2.062996l0 0c-0.64360046 0 -1.1653595 -0.92362976 -1.1653595 -2.062996z" fill-rule="evenodd"/><path fill="#000000" fill-opacity="0.0" d="m102.61942 50.09938l95.937004 0l0 18.551178l-95.937004 0z" fill-rule="evenodd"/><path fill="#000000" d="m120.48166 63.136845q-0.3125 0.078125 -0.640625 0.109375q-0.328125 0.046875 -0.671875 0.046875q-0.984375 0 -1.46875 -0.4375q-0.46875 -0.453125 -0.46875 -1.375l0 -2.734375l-1.46875 0l0 -0.75l1.46875 0l0 -1.4375l0.890625 -0.234375l0 1.671875l2.359375 0l0 0.75l-2.359375 0l0 2.65625q0 0.5625 0.296875 0.84375q0.3125 0.28125 0.890625 0.28125q0.25 0 0.546875 -0.03125q0.296875 -0.046875 0.625 -0.140625l0 0.78125zm6.186981 -2.578125q0 0.609375 -0.171875 1.125q-0.171875 0.5 -0.5 0.859375q-0.3125 0.359375 -0.78125 0.5625q-0.453125 0.203125 -1.046875 0.203125q-0.5625 0 -1.015625 -0.171875q-0.4375 -0.171875 -0.75 -0.515625q-0.296875 -0.34375 -0.46875 -0.84375q-0.15625 -0.5 -0.15625 -1.140625q0 -0.609375 0.171875 -1.109375q0.171875 -0.5 0.484375 -0.859375q0.328125 -0.375 0.78125 -0.5625q0.46875 -0.203125 1.0625 -0.203125q0.5625 0 1.0 0.171875q0.453125 0.171875 0.75 0.515625q0.3125 0.328125 0.46875 0.828125q0.171875 0.5 0.171875 1.140625zm-0.921875 0.046875q0 -0.484375 -0.109375 -0.84375q-0.109375 -0.359375 -0.3125 -0.59375q-0.1875 -0.25 -0.46875 -0.375q-0.28125 -0.125 -0.640625 -0.125q-0.390625 0 -0.6875 0.15625q-0.28125 0.15625 -0.46875 0.421875q-0.1875 0.265625 -0.28125 0.625q-0.078125 0.34375 -0.078125 0.734375q0 0.484375 0.109375 0.84375q0.109375 0.359375 0.296875 0.609375q0.203125 0.234375 0.484375 0.359375q0.28125 0.125 0.625 0.125q0.40625 0 0.6875 -0.15625q0.296875 -0.15625 0.484375 -0.421875q0.1875 -0.265625 0.265625 -0.609375q0.09375 -0.359375 0.09375 -0.75zm6.702606 -0.09375q0 0.6875 -0.203125 1.21875q-0.1875 0.515625 -0.53125 0.859375q-0.34375 0.34375 -0.8125 0.515625q-0.46875 0.171875 -1.015625 0.171875q-0.25 0 -0.5 -0.03125q-0.234375 -0.015625 -0.5 -0.078125l0 2.1875038l-0.90625 0l0 -7.359379l0.8125 0l0.0625 0.875q0.390625 -0.546875 0.828125 -0.75q0.4375 -0.21875 0.953125 -0.21875q0.453125 0 0.78125 0.1875q0.34375 0.1875 0.5625 0.53125q0.234375 0.328125 0.34375 0.8125q0.125 0.484375 0.125 1.078125zm-0.921875 0.03125q0 -0.40625 -0.0625 -0.75q-0.0625 -0.34375 -0.203125 -0.578125q-0.125 -0.25 -0.328125 -0.390625q-0.203125 -0.140625 -0.484375 -0.140625q-0.171875 0 -0.34375 0.0625q-0.171875 0.046875 -0.359375 0.1875q-0.1875 0.125 -0.40625 0.34375q-0.203125 0.203125 -0.453125 0.515625l0 2.53125q0.25 0.09375 0.53125 0.15625q0.28125 0.0625 0.53125 0.0625q0.734375 0 1.15625 -0.5q0.421875 -0.5 0.421875 -1.5zm7.343231 4.812504l-5.859375 0l0 -0.75l5.859375 0l0 0.75zm2.6088562 -8.750004l-1.546875 0l0 -0.75l2.46875 0l0 6.609375l1.546875 0l0 0.75l-4.1875 0l0 -0.75l1.71875 0l0 -5.859375zm8.499481 3.71875q0 0.203125 -0.015625 0.328125q0 0.125 -0.015625 0.234375l-3.65625 0q0 0.8125 0.4375 1.25q0.453125 0.421875 1.296875 0.421875q0.21875 0 0.453125 -0.015625q0.234375 -0.03125 0.4375 -0.0625q0.21875 -0.03125 0.40625 -0.0625q0.203125 -0.046875 0.375 -0.09375l0 0.75q-0.375 0.109375 -0.84375 0.171875q-0.46875 0.0625 -0.96875 0.0625q-0.65625 0 -1.140625 -0.171875q-0.484375 -0.1875 -0.796875 -0.53125q-0.3125 -0.359375 -0.46875 -0.859375q-0.140625 -0.5 -0.140625 -1.140625q0 -0.546875 0.15625 -1.03125q0.15625 -0.5 0.453125 -0.859375q0.3125 -0.375 0.75 -0.59375q0.453125 -0.21875 1.015625 -0.21875q0.546875 0 0.96875 0.171875q0.421875 0.171875 0.703125 0.484375q0.296875 0.3125 0.4375 0.765625q0.15625 0.453125 0.15625 1.0zm-0.953125 -0.125q0.015625 -0.34375 -0.0625 -0.625q-0.078125 -0.296875 -0.265625 -0.5q-0.171875 -0.21875 -0.4375 -0.328125q-0.25 -0.125 -0.59375 -0.125q-0.296875 0 -0.546875 0.125q-0.234375 0.109375 -0.421875 0.3125q-0.171875 0.203125 -0.28125 0.5q-0.109375 0.296875 -0.125 0.640625l2.734375 0zm7.030731 -3.5q-0.71875 -0.140625 -1.234375 -0.140625q-1.21875 0 -1.21875 1.28125l0 0.90625l2.296875 0l0 0.765625l-2.296875 0l0 3.703125l-0.921875 0l0 -3.703125l-1.671875 0l0 -0.765625l1.671875 0l0 -0.859375q0 -2.09375 2.171875 -2.09375q0.546875 0 1.203125 0.125l0 0.78125zm-5.46875 1.296875l0 0zm10.905731 5.140625q-0.3125 0.078125 -0.640625 0.109375q-0.328125 0.046875 -0.671875 0.046875q-0.984375 0 -1.46875 -0.4375q-0.46875 -0.453125 -0.46875 -1.375l0 -2.734375l-1.46875 0l0 -0.75l1.46875 0l0 -1.4375l0.890625 -0.234375l0 1.671875l2.359375 0l0 0.75l-2.359375 0l0 2.65625q0 0.5625 0.296875 0.84375q0.3125 0.28125 0.890625 0.28125q0.25 0 0.546875 -0.03125q0.296875 -0.046875 0.625 -0.140625l0 0.78125zm3.7026062 -1.5625q0.171875 0 0.328125 0.078125q0.15625 0.0625 0.265625 0.1875q0.125 0.109375 0.1875 0.265625q0.078125 0.15625 0.078125 0.34375q0 0.171875 -0.078125 0.328125q-0.0625 0.15625 -0.1875 0.28125q-0.109375 0.109375 -0.265625 0.171875q-0.15625 0.078125 -0.328125 0.078125q-0.1875 0 -0.34375 -0.078125q-0.15625 -0.0625 -0.28125 -0.171875q-0.109375 -0.125 -0.171875 -0.28125q-0.0625 -0.15625 -0.0625 -0.328125q0 -0.1875 0.0625 -0.34375q0.0625 -0.15625 0.171875 -0.265625q0.125 -0.125 0.28125 -0.1875q0.15625 -0.078125 0.34375 -0.078125zm8.515106 1.640625l-1.203125 0l-1.421875 -2.0l-1.390625 2.0l-1.171875 0l2.03125 -2.625l-1.9375 -2.59375l1.171875 0l1.359375 2.0l1.359375 -2.0l1.109375 0l-1.953125 2.609375l2.046875 2.609375zm5.483856 -3.359375l-4.484375 0l0 -0.765625l4.484375 0l0 0.765625zm0 1.8125l-4.484375 0l0 -0.765625l4.484375 0l0 0.765625zm5.874481 1.546875l-4.265625 0l0 -0.84375l1.75 0l0 -4.96875l-1.640625 0.890625l-0.328125 -0.765625l2.15625 -1.140625l0.8125 0l0 5.984375l1.515625 0l0 0.84375z" fill-rule="nonzero"/><path fill="#000000" fill-opacity="0.0" d="m147.58792 181.19583c58.332367 0 98.28677 -29.771652 116.664734 -59.543304c18.37793 -29.77166 15.179443 -59.54331 30.358887 -59.54331" fill-rule="evenodd"/><path stroke="#000000" stroke-width="1.0" stroke-linejoin="round" stroke-linecap="butt" d="m151.37769 181.15277l0.2814026 -0.005630493c0.44898987 -0.010757446 0.8968353 -0.02331543 1.3435516 -0.037628174c1.7868958 -0.057250977 3.5557556 -0.14265442 5.3064575 -0.25531006c3.501419 -0.22532654 6.930252 -0.55966187 10.285751 -0.9957733c6.7109833 -0.87220764 13.128555 -2.151474 19.246506 -3.779602c12.23587 -3.2562866 23.273132 -7.9080963 33.061813 -13.49028c19.577408 -11.164368 34.160507 -26.050186 43.349487 -40.93602c9.188965 -14.885826 12.983826 -29.771652 16.378876 -40.93602c1.6975098 -5.5821915 3.295105 -10.234016 5.416992 -13.490288c1.0609436 -1.6281357 2.2530212 -2.9073868 3.6541443 -3.7796059c0.35031128 -0.21805191 0.7136841 -0.41066742 1.0913086 -0.5769348c0.09442139 -0.04156494 0.18972778 -0.08148575 0.2859192 -0.11974335l0.15444946 -0.058174133" fill-rule="evenodd"/><path fill="#000000" stroke="#000000" stroke-width="1.0" stroke-linecap="butt" d="m148.08789 181.19014c-0.010314941 -0.90844727 0.7177582 -1.6532593 1.6262054 -1.6635742c0.90844727 -0.010314941 1.6532593 0.7177582 1.6635895 1.6262054c0.010314941 0.90844727 -0.7177582 1.6532593 -1.6262054 1.6635742c-0.90844727 0.0103302 -1.6532593 -0.7177429 -1.6635895 -1.6262054z" fill-rule="nonzero"/><path fill="#000000" stroke="#000000" stroke-width="1.0" stroke-linecap="butt" d="m291.23434 62.69176l-0.9170532 1.2993774l2.8536377 -1.6334229l-3.235962 -0.5830116z" fill-rule="evenodd"/><path fill="#ead1dc" d="m295.1798 91.755905l165.10236 0l0 18.551178l-165.10236 0z" fill-rule="evenodd"/><path stroke="#000000" stroke-width="1.0" stroke-linejoin="round" stroke-linecap="butt" d="m295.1798 91.755905l165.10236 0l0 18.551178l-165.10236 0z" fill-rule="evenodd"/><path fill="#000000" d="m325.481 99.19212l0 -0.171875q0 -0.171875 0.0625 -0.25q0.078125 -0.078125 0.1875 -0.078125q0.109375 0 0.171875 0.078125q0.078125 0.078125 0.078125 0.25l0 1.25q0 0.1875 -0.078125 0.265625q-0.0625 0.0625 -0.171875 0.0625q-0.109375 0 -0.171875 -0.0625q-0.0625 -0.078125 -0.078125 -0.234375q-0.03125 -0.484375 -0.515625 -0.875q-0.46875 -0.390625 -1.234375 -0.390625q-0.8125 0 -1.296875 0.421875q-0.484375 0.40625 -0.484375 0.984375q0 0.28125 0.125 0.53125q0.140625 0.234375 0.359375 0.390625q0.234375 0.140625 0.515625 0.234375q0.28125 0.09375 0.875 0.1875q1.0 0.171875 1.390625 0.34375q0.5 0.21875 0.765625 0.625q0.265625 0.40625 0.265625 0.953125q0 0.84375 -0.6875 1.4375q-0.671875 0.59375 -1.8125 0.59375q-1.28125 0 -2.046875 -0.796875l0 0.28125q0 0.171875 -0.078125 0.25q-0.0625 0.078125 -0.171875 0.078125q-0.109375 0 -0.1875 -0.078125q-0.0625 -0.078125 -0.0625 -0.25l0 -1.359375q0 -0.1875 0.0625 -0.25q0.078125 -0.078125 0.1875 -0.078125q0.109375 0 0.171875 0.078125q0.078125 0.0625 0.078125 0.21875q0.03125 0.53125 0.578125 0.984375q0.546875 0.4375 1.46875 0.4375q0.921875 0 1.453125 -0.453125q0.546875 -0.46875 0.546875 -1.109375q0 -0.390625 -0.203125 -0.6875q-0.203125 -0.296875 -0.609375 -0.484375q-0.28125 -0.109375 -1.171875 -0.265625q-1.21875 -0.203125 -1.765625 -0.625q-0.53125 -0.421875 -0.53125 -1.203125q0 -0.78125 0.609375 -1.328125q0.625 -0.5625 1.640625 -0.5625q1.03125 0 1.765625 0.65625zm7.357422 2.1875l0 -0.90625l1.140625 0q0.1875 0 0.265625 0.078125q0.078125 0.0625 0.078125 0.171875q0 0.109375 -0.078125 0.1875q-0.078125 0.0625 -0.265625 0.0625l-0.65625 0l0 6.34375l0.65625 0q0.1875 0 0.265625 0.0625q0.078125 0.078125 0.078125 0.1875q0 0.109375 -0.078125 0.171875q-0.078125 0.078125 -0.265625 0.078125l-2.34375 0q-0.171875 0 -0.25 -0.078125q-0.078125 -0.0625 -0.078125 -0.171875q0 -0.109375 0.078125 -0.1875q0.078125 -0.0625 0.25 -0.0625l1.203125 0l0 -2.96875q-0.828125 1.078125 -2.140625 1.078125q-1.109375 0 -1.875 -0.75q-0.75 -0.75 -0.75 -1.8125q0 -1.0625 0.75 -1.8125q0.765625 -0.75 1.875 -0.75q1.3125 0 2.140625 1.078125zm0 1.484375q0 -0.859375 -0.625 -1.453125q-0.625 -0.609375 -1.515625 -0.609375q-0.890625 0 -1.515625 0.609375q-0.609375 0.59375 -0.609375 1.453125q0 0.84375 0.609375 1.453125q0.625 0.609375 1.515625 0.609375q0.890625 0 1.515625 -0.609375q0.625 -0.609375 0.625 -1.453125zm6.966797 2.6875l0 -0.71875q-1.0 0.90625 -2.171875 0.90625q-0.71875 0 -1.09375 -0.390625q-0.484375 -0.515625 -0.484375 -1.203125l0 -3.171875l-0.671875 0q-0.171875 0 -0.25 -0.0625q-0.078125 -0.078125 -0.078125 -0.1875q0 -0.109375 0.078125 -0.171875q0.078125 -0.078125 0.25 -0.078125l1.15625 0l0 3.671875q0 0.484375 0.296875 0.796875q0.3125 0.3125 0.765625 0.3125q1.203125 0 2.203125 -1.109375l0 -3.171875l-0.90625 0q-0.171875 0 -0.25 -0.0625q-0.078125 -0.078125 -0.078125 -0.1875q0 -0.109375 0.078125 -0.171875q0.078125 -0.078125 0.25 -0.078125l1.40625 0l0 4.578125l0.40625 0q0.1875 0 0.25 0.078125q0.078125 0.0625 0.078125 0.171875q0 0.109375 -0.078125 0.1875q-0.0625 0.0625 -0.25 0.0625l-0.90625 0zm6.935547 0l0 -0.703125q-1.078125 0.890625 -2.296875 0.890625q-0.875 0 -1.375 -0.4375q-0.5 -0.453125 -0.5 -1.109375q0 -0.703125 0.65625 -1.234375q0.65625 -0.546875 1.921875 -0.546875q0.328125 0 0.71875 0.046875q0.40625 0.046875 0.875 0.140625l0 -0.796875q0 -0.40625 -0.375 -0.703125q-0.375 -0.296875 -1.125 -0.296875q-0.578125 0 -1.609375 0.328125q-0.1875 0.0625 -0.234375 0.0625q-0.09375 0 -0.171875 -0.0625q-0.0625 -0.078125 -0.0625 -0.1875q0 -0.09375 0.0625 -0.15625q0.078125 -0.09375 0.65625 -0.234375q0.921875 -0.25 1.390625 -0.25q0.921875 0 1.4375 0.46875q0.53125 0.453125 0.53125 1.03125l0 3.25l0.65625 0q0.1875 0 0.25 0.078125q0.078125 0.0625 0.078125 0.171875q0 0.109375 -0.078125 0.1875q-0.0625 0.0625 -0.25 0.0625l-1.15625 0zm0 -2.453125q-0.34375 -0.09375 -0.734375 -0.140625q-0.390625 -0.046875 -0.8125 -0.046875q-1.078125 0 -1.671875 0.453125q-0.453125 0.359375 -0.453125 0.828125q0 0.453125 0.34375 0.765625q0.34375 0.296875 1.015625 0.296875q0.640625 0 1.1875 -0.25q0.546875 -0.265625 1.125 -0.8125l0 -1.09375zm5.201172 -2.625l0 1.25q0.953125 -0.875 1.421875 -1.125q0.484375 -0.25 0.890625 -0.25q0.4375 0 0.8125 0.296875q0.390625 0.296875 0.390625 0.453125q0 0.109375 -0.078125 0.1875q-0.078125 0.0625 -0.1875 0.0625q-0.046875 0 -0.09375 -0.015625q-0.046875 -0.015625 -0.15625 -0.125q-0.203125 -0.203125 -0.359375 -0.28125q-0.140625 -0.078125 -0.296875 -0.078125q-0.3125 0 -0.78125 0.265625q-0.453125 0.25 -1.5625 1.25l0 2.6875l2.171875 0q0.1875 0 0.265625 0.078125q0.078125 0.0625 0.078125 0.171875q0 0.109375 -0.078125 0.1875q-0.078125 0.0625 -0.265625 0.0625l-3.859375 0q-0.171875 0 -0.25 -0.0625q-0.078125 -0.078125 -0.078125 -0.171875q0 -0.109375 0.078125 -0.171875q0.078125 -0.0625 0.25 -0.0625l1.1875 0l0 -4.109375l-0.90625 0q-0.171875 0 -0.25 -0.0625q-0.078125 -0.078125 -0.078125 -0.1875q0 -0.109375 0.078125 -0.171875q0.078125 -0.078125 0.25 -0.078125l1.40625 0zm10.451172 2.65625l-5.015625 0q0.125 0.953125 0.796875 1.546875q0.671875 0.578125 1.65625 0.578125q0.5625 0 1.15625 -0.171875q0.609375 -0.1875 0.984375 -0.5q0.109375 -0.078125 0.203125 -0.078125q0.09375 0 0.15625 0.078125q0.078125 0.0625 0.078125 0.171875q0 0.09375 -0.09375 0.1875q-0.28125 0.296875 -1.0 0.546875q-0.71875 0.25 -1.484375 0.25q-1.265625 0 -2.109375 -0.828125q-0.84375 -0.828125 -0.84375 -2.0q0 -1.078125 0.796875 -1.84375q0.796875 -0.765625 1.96875 -0.765625q1.203125 0 1.984375 0.796875q0.78125 0.78125 0.765625 2.03125zm-0.5 -0.5q-0.140625 -0.8125 -0.765625 -1.3125q-0.625 -0.515625 -1.484375 -0.515625q-0.859375 0 -1.484375 0.5q-0.625 0.5 -0.78125 1.328125l4.515625 0zm4.935547 -2.15625l0.203125 0q0.328125 0 0.5625 0.234375q0.234375 0.234375 0.234375 0.5625q0 0.34375 -0.234375 0.578125q-0.234375 0.21875 -0.5625 0.21875l-0.203125 0q-0.328125 0 -0.5625 -0.234375q-0.234375 -0.234375 -0.234375 -0.546875q0 -0.359375 0.234375 -0.578125q0.234375 -0.234375 0.5625 -0.234375zm0 3.671875l0.203125 0q0.328125 0 0.5625 0.234375q0.234375 0.21875 0.234375 0.546875q0 0.34375 -0.234375 0.578125q-0.234375 0.21875 -0.5625 0.21875l-0.203125 0q-0.328125 0 -0.5625 -0.21875q-0.234375 -0.234375 -0.234375 -0.5625q0 -0.34375 0.234375 -0.5625q0.234375 -0.234375 0.5625 -0.234375zm7.201172 -3.671875l0.203125 0q0.328125 0 0.5625 0.234375q0.234375 0.234375 0.234375 0.5625q0 0.34375 -0.234375 0.578125q-0.234375 0.21875 -0.5625 0.21875l-0.203125 0q-0.328125 0 -0.5625 -0.234375q-0.234375 -0.234375 -0.234375 -0.546875q0 -0.359375 0.234375 -0.578125q0.234375 -0.234375 0.5625 -0.234375zm0 3.671875l0.203125 0q0.328125 0 0.5625 0.234375q0.234375 0.21875 0.234375 0.546875q0 0.34375 -0.234375 0.578125q-0.234375 0.21875 -0.5625 0.21875l-0.203125 0q-0.328125 0 -0.5625 -0.21875q-0.234375 -0.234375 -0.234375 -0.5625q0 -0.34375 0.234375 -0.5625q0.234375 -0.234375 0.5625 -0.234375zm5.451172 -5.953125l0 3.265625q0.890625 -1.15625 2.140625 -1.15625q1.078125 0 1.84375 0.78125q0.78125 0.78125 0.78125 1.921875q0 1.140625 -0.78125 1.9375q-0.78125 0.796875 -1.84375 0.796875q-1.28125 0 -2.140625 -1.15625l0 0.96875l-1.15625 0q-0.171875 0 -0.25 -0.0625q-0.078125 -0.078125 -0.078125 -0.1875q0 -0.109375 0.078125 -0.171875q0.078125 -0.078125 0.25 -0.078125l0.65625 0l0 -6.359375l-0.65625 0q-0.171875 0 -0.25 -0.0625q-0.078125 -0.078125 -0.078125 -0.1875q0 -0.109375 0.078125 -0.171875q0.078125 -0.078125 0.25 -0.078125l1.15625 0zm4.265625 4.828125q0 -0.921875 -0.640625 -1.5625q-0.640625 -0.65625 -1.484375 -0.65625q-0.859375 0 -1.5 0.65625q-0.640625 0.640625 -0.640625 1.5625q0 0.9375 0.640625 1.59375q0.640625 0.640625 1.5 0.640625q0.84375 0 1.484375 -0.640625q0.640625 -0.65625 0.640625 -1.59375zm7.544922 0q0 1.125 -0.8125 1.921875q-0.8125 0.796875 -1.9375 0.796875q-1.15625 0 -1.96875 -0.796875q-0.796875 -0.796875 -0.796875 -1.921875q0 -1.125 0.796875 -1.921875q0.8125 -0.796875 1.96875 -0.796875q1.125 0 1.9375 0.796875q0.8125 0.796875 0.8125 1.921875zm-0.5 0q0 -0.921875 -0.671875 -1.5625q-0.65625 -0.65625 -1.59375 -0.65625q-0.9375 0 -1.59375 0.65625q-0.65625 0.640625 -0.65625 1.5625q0 0.921875 0.65625 1.578125q0.65625 0.65625 1.59375 0.65625q0.9375 0 1.59375 -0.65625q0.671875 -0.65625 0.671875 -1.578125zm6.623047 2.53125l0 -0.71875q-1.0 0.90625 -2.171875 0.90625q-0.71875 0 -1.09375 -0.390625q-0.484375 -0.515625 -0.484375 -1.203125l0 -3.171875l-0.671875 0q-0.171875 0 -0.25 -0.0625q-0.078125 -0.078125 -0.078125 -0.1875q0 -0.109375 0.078125 -0.171875q0.078125 -0.078125 0.25 -0.078125l1.15625 0l0 3.671875q0 0.484375 0.296875 0.796875q0.3125 0.3125 0.765625 0.3125q1.203125 0 2.203125 -1.109375l0 -3.171875l-0.90625 0q-0.171875 0 -0.25 -0.0625q-0.078125 -0.078125 -0.078125 -0.1875q0 -0.109375 0.078125 -0.171875q0.078125 -0.078125 0.25 -0.078125l1.40625 0l0 4.578125l0.40625 0q0.1875 0 0.25 0.078125q0.078125 0.0625 0.078125 0.171875q0 0.109375 -0.078125 0.1875q-0.0625 0.0625 -0.25 0.0625l-0.90625 0zm3.9355469 -5.078125l0 0.75q0.515625 -0.53125 0.921875 -0.71875q0.421875 -0.203125 0.9375 -0.203125q0.5625 0 1.03125 0.234375q0.328125 0.1875 0.59375 0.59375q0.265625 0.40625 0.265625 0.828125l0 3.09375l0.421875 0q0.171875 0 0.25 0.078125q0.078125 0.0625 0.078125 0.171875q0 0.109375 -0.078125 0.1875q-0.078125 0.0625 -0.25 0.0625l-1.328125 0q-0.171875 0 -0.25 -0.0625q-0.078125 -0.078125 -0.078125 -0.1875q0 -0.109375 0.078125 -0.171875q0.078125 -0.078125 0.25 -0.078125l0.421875 0l0 -3.015625q0 -0.515625 -0.390625 -0.875q-0.375 -0.359375 -1.015625 -0.359375q-0.484375 0 -0.84375 0.203125q-0.359375 0.1875 -1.015625 0.96875l0 3.078125l0.546875 0q0.1875 0 0.25 0.078125q0.078125 0.0625 0.078125 0.171875q0 0.109375 -0.078125 0.1875q-0.0625 0.0625 -0.25 0.0625l-1.59375 0q-0.1875 0 -0.265625 -0.0625q-0.0625 -0.078125 -0.0625 -0.1875q0 -0.109375 0.0625 -0.171875q0.078125 -0.078125 0.265625 -0.078125l0.546875 0l0 -4.078125l-0.40625 0q-0.1875 0 -0.265625 -0.0625q-0.0625 -0.078125 -0.0625 -0.1875q0 -0.109375 0.0625 -0.171875q0.078125 -0.078125 0.265625 -0.078125l0.90625 0zm11.201172 -2.28125l0 6.859375l0.65625 0q0.171875 0 0.25 0.078125q0.078125 0.0625 0.078125 0.171875q0 0.109375 -0.078125 0.1875q-0.078125 0.0625 -0.25 0.0625l-1.15625 0l0 -0.984375q-0.859375 1.171875 -2.171875 1.171875q-0.671875 0 -1.28125 -0.34375q-0.609375 -0.359375 -0.96875 -1.015625q-0.359375 -0.65625 -0.359375 -1.359375q0 -0.703125 0.359375 -1.34375q0.359375 -0.65625 0.96875 -1.015625q0.609375 -0.359375 1.28125 -0.359375q1.296875 0 2.171875 1.171875l0 -2.78125l-0.65625 0q-0.1875 0 -0.265625 -0.0625q-0.0625 -0.078125 -0.0625 -0.1875q0 -0.109375 0.0625 -0.171875q0.078125 -0.078125 0.265625 -0.078125l1.15625 0zm-0.5 4.828125q0 -0.9375 -0.640625 -1.578125q-0.625 -0.640625 -1.5 -0.640625q-0.875 0 -1.515625 0.640625q-0.625 0.640625 -0.625 1.578125q0 0.9375 0.625 1.59375q0.640625 0.640625 1.515625 0.640625q0.875 0 1.5 -0.640625q0.640625 -0.65625 0.640625 -1.59375zm6.919922 -2.21875q0 -0.171875 0.0625 -0.25q0.078125 -0.078125 0.171875 -0.078125q0.109375 0 0.171875 0.078125q0.078125 0.078125 0.078125 0.265625l0 0.84375q0 0.171875 -0.078125 0.25q-0.0625 0.078125 -0.171875 0.078125q-0.09375 0 -0.171875 -0.0625q-0.0625 -0.078125 -0.0625 -0.21875q-0.046875 -0.359375 -0.375 -0.578125q-0.46875 -0.328125 -1.265625 -0.328125q-0.828125 0 -1.28125 0.328125q-0.34375 0.25 -0.34375 0.5625q0 0.359375 0.40625 0.59375q0.28125 0.15625 1.0625 0.25q1.03125 0.109375 1.421875 0.25q0.578125 0.203125 0.84375 0.578125q0.28125 0.359375 0.28125 0.78125q0 0.625 -0.609375 1.109375q-0.59375 0.484375 -1.765625 0.484375q-1.15625 0 -1.90625 -0.59375q0 0.203125 -0.03125 0.265625q-0.015625 0.0625 -0.078125 0.109375q-0.0625 0.03125 -0.140625 0.03125q-0.09375 0 -0.171875 -0.078125q-0.0625 -0.078125 -0.0625 -0.25l0 -1.015625q0 -0.171875 0.0625 -0.25q0.0625 -0.078125 0.171875 -0.078125q0.109375 0 0.1875 0.078125q0.078125 0.0625 0.078125 0.1875q0 0.28125 0.125 0.453125q0.203125 0.28125 0.65625 0.46875q0.453125 0.1875 1.09375 0.1875q0.96875 0 1.4375 -0.359375q0.46875 -0.359375 0.46875 -0.75q0 -0.46875 -0.484375 -0.734375q-0.46875 -0.28125 -1.390625 -0.375q-0.921875 -0.09375 -1.328125 -0.234375q-0.390625 -0.15625 -0.609375 -0.453125q-0.21875 -0.3125 -0.21875 -0.671875q0 -0.625 0.609375 -1.0q0.625 -0.375 1.484375 -0.375q1.03125 0 1.671875 0.5zm5.513672 1.828125q0 -0.671875 0.171875 -1.421875q0.171875 -0.765625 0.671875 -1.75q0.5 -0.984375 0.734375 -1.203125q0.0625 -0.0625 0.15625 -0.0625q0.09375 0 0.171875 0.078125q0.078125 0.0625 0.078125 0.171875q0 0.046875 -0.046875 0.125q-0.640625 1.1875 -0.921875 2.15625q-0.265625 0.953125 -0.265625 1.90625q0 0.96875 0.265625 1.9375q0.28125 0.953125 0.921875 2.140625q0.046875 0.0625 0.046875 0.125q0 0.09375 -0.078125 0.171875q-0.078125 0.078125 -0.171875 0.078125q-0.09375 0 -0.15625 -0.078125q-0.21875 -0.1875 -0.71875 -1.15625q-0.484375 -0.96875 -0.671875 -1.703125q-0.1875 -0.75 -0.1875 -1.515625zm7.404297 0.015625q0 0.671875 -0.1875 1.421875q-0.171875 0.75 -0.671875 1.734375q-0.5 1.0 -0.71875 1.203125q-0.078125 0.078125 -0.15625 0.078125q-0.109375 0 -0.1875 -0.078125q-0.0625 -0.078125 -0.0625 -0.171875q0 -0.0625 0.046875 -0.125q0.640625 -1.1875 0.90625 -2.140625q0.28125 -0.96875 0.28125 -1.921875q0 -0.96875 -0.28125 -1.921875q-0.265625 -0.96875 -0.90625 -2.15625q-0.046875 -0.078125 -0.046875 -0.125q0 -0.109375 0.0625 -0.171875q0.078125 -0.078125 0.1875 -0.078125q0.078125 0 0.15625 0.0625q0.21875 0.203125 0.703125 1.171875q0.5 0.96875 0.6875 1.71875q0.1875 0.734375 0.1875 1.5z" fill-rule="nonzero"/><path fill="#000000" fill-opacity="0.0" d="m336.69162 60.76378c20.519684 0 41.039368 15.496063 41.039368 30.992126" fill-rule="evenodd"/><path stroke="#000000" stroke-width="1.0" stroke-linejoin="round" stroke-linecap="butt" d="m340.47766 60.93673l0.056396484 0.0048599243c1.2774658 0.11728287 2.5498962 0.29130936 3.8123474 0.5183029c2.5249023 0.45398712 5.009674 1.1198311 7.414337 1.9672737c4.8092957 1.6948814 9.297974 4.1161385 13.145416 7.021656c3.8474426 2.90551 7.05365 6.295273 9.298004 9.927162c1.1221619 1.8159485 2.0038757 3.692421 2.605011 5.599167c0.15029907 0.47668457 0.28305054 0.9552536 0.39764404 1.4352493c0.05734253 0.2400055 0.110076904 0.4803543 0.15820312 0.7210083l0.040527344 0.21289825" fill-rule="evenodd"/><path fill="#000000" stroke="#000000" stroke-width="1.0" stroke-linecap="butt" d="m337.1911 60.7866c0.04147339 -0.90756226 0.810791 -1.6096802 1.7183533 -1.568222c0.90756226 0.041461945 1.6096802 0.81079483 1.5682068 1.7183533c-0.04144287 0.90756226 -0.810791 1.6096802 -1.7183533 1.568222c-0.90756226 -0.04145813 -1.6096802 -0.81079483 -1.5682068 -1.7183533z" fill-rule="nonzero"/><path fill="#000000" stroke="#000000" stroke-width="1.0" stroke-linecap="butt" d="m377.40555 88.34431l-1.2262878 -1.0127182l1.4129028 2.969017l0.82611084 -3.1825867z" fill-rule="evenodd"/><path fill="#000000" fill-opacity="0.0" d="m102.61942 74.09938l95.937004 0l0 18.551178l-95.937004 0z" fill-rule="evenodd"/><path fill="#000000" d="m120.48166 87.13685q-0.3125 0.078125 -0.640625 0.109375q-0.328125 0.046875 -0.671875 0.046875q-0.984375 0 -1.46875 -0.4375q-0.46875 -0.453125 -0.46875 -1.375l0 -2.734375l-1.46875 0l0 -0.75l1.46875 0l0 -1.4375l0.890625 -0.234375l0 1.671875l2.359375 0l0 0.75l-2.359375 0l0 2.65625q0 0.5625 0.296875 0.84375q0.3125 0.28125 0.890625 0.28125q0.25 0 0.546875 -0.03125q0.296875 -0.046875 0.625 -0.140625l0 0.78125zm6.186981 -2.578125q0 0.609375 -0.171875 1.125q-0.171875 0.5 -0.5 0.859375q-0.3125 0.359375 -0.78125 0.5625q-0.453125 0.203125 -1.046875 0.203125q-0.5625 0 -1.015625 -0.171875q-0.4375 -0.171875 -0.75 -0.515625q-0.296875 -0.34375 -0.46875 -0.84375q-0.15625 -0.5 -0.15625 -1.140625q0 -0.609375 0.171875 -1.109375q0.171875 -0.5 0.484375 -0.859375q0.328125 -0.375 0.78125 -0.5625q0.46875 -0.203125 1.0625 -0.203125q0.5625 0 1.0 0.171875q0.453125 0.171875 0.75 0.515625q0.3125 0.328125 0.46875 0.828125q0.171875 0.5 0.171875 1.140625zm-0.921875 0.046875q0 -0.484375 -0.109375 -0.84375q-0.109375 -0.359375 -0.3125 -0.59375q-0.1875 -0.25 -0.46875 -0.375q-0.28125 -0.125 -0.640625 -0.125q-0.390625 0 -0.6875 0.15625q-0.28125 0.15625 -0.46875 0.421875q-0.1875 0.265625 -0.28125 0.625q-0.078125 0.34375 -0.078125 0.734375q0 0.484375 0.109375 0.84375q0.109375 0.359375 0.296875 0.609375q0.203125 0.234375 0.484375 0.359375q0.28125 0.125 0.625 0.125q0.40625 0 0.6875 -0.15625q0.296875 -0.15625 0.484375 -0.421875q0.1875 -0.265625 0.265625 -0.609375q0.09375 -0.359375 0.09375 -0.75zm6.702606 -0.09375q0 0.6875 -0.203125 1.21875q-0.1875 0.515625 -0.53125 0.859375q-0.34375 0.34375 -0.8125 0.515625q-0.46875 0.171875 -1.015625 0.171875q-0.25 0 -0.5 -0.03125q-0.234375 -0.015625 -0.5 -0.078125l0 2.1875l-0.90625 0l0 -7.359375l0.8125 0l0.0625 0.875q0.390625 -0.546875 0.828125 -0.75q0.4375 -0.21875 0.953125 -0.21875q0.453125 0 0.78125 0.1875q0.34375 0.1875 0.5625 0.53125q0.234375 0.328125 0.34375 0.8125q0.125 0.484375 0.125 1.078125zm-0.921875 0.03125q0 -0.40625 -0.0625 -0.75q-0.0625 -0.34375 -0.203125 -0.578125q-0.125 -0.25 -0.328125 -0.390625q-0.203125 -0.140625 -0.484375 -0.140625q-0.171875 0 -0.34375 0.0625q-0.171875 0.046875 -0.359375 0.1875q-0.1875 0.125 -0.40625 0.34375q-0.203125 0.203125 -0.453125 0.515625l0 2.53125q0.25 0.09375 0.53125 0.15625q0.28125 0.0625 0.53125 0.0625q0.734375 0 1.15625 -0.5q0.421875 -0.5 0.421875 -1.5zm7.343231 4.8125l-5.859375 0l0 -0.75l5.859375 0l0 0.75zm2.6088562 -8.75l-1.546875 0l0 -0.75l2.46875 0l0 6.609375l1.546875 0l0 0.75l-4.1875 0l0 -0.75l1.71875 0l0 -5.859375zm8.499481 3.71875q0 0.203125 -0.015625 0.328125q0 0.125 -0.015625 0.234375l-3.65625 0q0 0.8125 0.4375 1.25q0.453125 0.421875 1.296875 0.421875q0.21875 0 0.453125 -0.015625q0.234375 -0.03125 0.4375 -0.0625q0.21875 -0.03125 0.40625 -0.0625q0.203125 -0.046875 0.375 -0.09375l0 0.75q-0.375 0.109375 -0.84375 0.171875q-0.46875 0.0625 -0.96875 0.0625q-0.65625 0 -1.140625 -0.171875q-0.484375 -0.1875 -0.796875 -0.53125q-0.3125 -0.359375 -0.46875 -0.859375q-0.140625 -0.5 -0.140625 -1.140625q0 -0.546875 0.15625 -1.03125q0.15625 -0.5 0.453125 -0.859375q0.3125 -0.375 0.75 -0.59375q0.453125 -0.21875 1.015625 -0.21875q0.546875 0 0.96875 0.171875q0.421875 0.171875 0.703125 0.484375q0.296875 0.3125 0.4375 0.765625q0.15625 0.453125 0.15625 1.0zm-0.953125 -0.125q0.015625 -0.34375 -0.0625 -0.625q-0.078125 -0.296875 -0.265625 -0.5q-0.171875 -0.21875 -0.4375 -0.328125q-0.25 -0.125 -0.59375 -0.125q-0.296875 0 -0.546875 0.125q-0.234375 0.109375 -0.421875 0.3125q-0.171875 0.203125 -0.28125 0.5q-0.109375 0.296875 -0.125 0.640625l2.734375 0zm7.030731 -3.5q-0.71875 -0.140625 -1.234375 -0.140625q-1.21875 0 -1.21875 1.28125l0 0.90625l2.296875 0l0 0.765625l-2.296875 0l0 3.703125l-0.921875 0l0 -3.703125l-1.671875 0l0 -0.765625l1.671875 0l0 -0.859375q0 -2.09375 2.171875 -2.09375q0.546875 0 1.203125 0.125l0 0.78125zm-5.46875 1.296875l0 0zm10.905731 5.140625q-0.3125 0.078125 -0.640625 0.109375q-0.328125 0.046875 -0.671875 0.046875q-0.984375 0 -1.46875 -0.4375q-0.46875 -0.453125 -0.46875 -1.375l0 -2.734375l-1.46875 0l0 -0.75l1.46875 0l0 -1.4375l0.890625 -0.234375l0 1.671875l2.359375 0l0 0.75l-2.359375 0l0 2.65625q0 0.5625 0.296875 0.84375q0.3125 0.28125 0.890625 0.28125q0.25 0 0.546875 -0.03125q0.296875 -0.046875 0.625 -0.140625l0 0.78125zm3.7026062 -1.5625q0.171875 0 0.328125 0.078125q0.15625 0.0625 0.265625 0.1875q0.125 0.109375 0.1875 0.265625q0.078125 0.15625 0.078125 0.34375q0 0.171875 -0.078125 0.328125q-0.0625 0.15625 -0.1875 0.28125q-0.109375 0.109375 -0.265625 0.171875q-0.15625 0.078125 -0.328125 0.078125q-0.1875 0 -0.34375 -0.078125q-0.15625 -0.0625 -0.28125 -0.171875q-0.109375 -0.125 -0.171875 -0.28125q-0.0625 -0.15625 -0.0625 -0.328125q0 -0.1875 0.0625 -0.34375q0.0625 -0.15625 0.171875 -0.265625q0.125 -0.125 0.28125 -0.1875q0.15625 -0.078125 0.34375 -0.078125zm8.452606 -3.578125l-1.78125 4.671875q-0.28125 0.703125 -0.578125 1.21875q-0.296875 0.515625 -0.640625 0.84375q-0.34375 0.34375 -0.765625 0.5q-0.40625 0.15625 -0.921875 0.15625q-0.140625 0 -0.25 -0.015625q-0.109375 0 -0.234375 -0.015625l0 -0.8125q0.109375 0.015625 0.234375 0.015625q0.140625 0.015625 0.296875 0.015625q0.25 0 0.46875 -0.078125q0.21875 -0.0625 0.40625 -0.234375q0.1875 -0.15625 0.359375 -0.421875q0.1875 -0.25 0.359375 -0.625l-2.09375 -5.21875l1.03125 0l1.3125 3.453125l0.265625 0.8125l0.3125 -0.84375l1.21875 -3.421875l1.0 0zm5.546356 1.859375l-4.484375 0l0 -0.765625l4.484375 0l0 0.765625zm0 1.8125l-4.484375 0l0 -0.765625l4.484375 0l0 0.765625zm5.936981 1.546875l-4.484375 0l0 -0.8125l1.765625 -1.75q0.421875 -0.421875 0.6875 -0.734375q0.28125 -0.3125 0.421875 -0.5625q0.15625 -0.265625 0.203125 -0.484375q0.0625 -0.234375 0.0625 -0.5q0 -0.25 -0.078125 -0.46875q-0.0625 -0.234375 -0.203125 -0.40625q-0.140625 -0.171875 -0.375 -0.265625q-0.21875 -0.109375 -0.53125 -0.109375q-0.421875 0 -0.78125 0.203125q-0.34375 0.1875 -0.640625 0.484375l-0.5 -0.59375q0.375 -0.40625 0.875 -0.640625q0.515625 -0.25 1.171875 -0.25q0.453125 0 0.828125 0.140625q0.375 0.125 0.640625 0.390625q0.265625 0.25 0.40625 0.625q0.15625 0.359375 0.15625 0.828125q0 0.390625 -0.109375 0.71875q-0.09375 0.328125 -0.3125 0.671875q-0.203125 0.328125 -0.53125 0.6875q-0.3125 0.34375 -0.75 0.765625l-1.234375 1.203125l3.3125 0l0 0.859375z" fill-rule="nonzero"/><path fill="#d9d9d9" d="m102.61155 97.909386l95.937004 0l0 23.81102l-95.937004 0z" fill-rule="evenodd"/><path stroke="#000000" stroke-width="1.0" stroke-linejoin="round" stroke-linecap="butt" d="m102.61155 97.909386l95.937004 0l0 23.81102l-95.937004 0z" fill-rule="evenodd"/><path fill="#000000" fill-opacity="0.0" d="m150.58005 121.720406l0 -5.7637787" fill-rule="evenodd"/><path stroke="#000000" stroke-width="1.0" stroke-linejoin="round" stroke-linecap="butt" d="m150.58005 121.720406l0 -5.7637787" fill-rule="evenodd"/><path fill="#000000" fill-opacity="0.0" d="m174.58005 121.720406l0 -5.7637787" fill-rule="evenodd"/><path stroke="#000000" stroke-width="1.0" stroke-linejoin="round" stroke-linecap="butt" d="m174.58005 121.720406l0 -5.7637787" fill-rule="evenodd"/><path fill="#000000" fill-opacity="0.0" d="m126.580055 121.720406l0 -5.7637787" fill-rule="evenodd"/><path stroke="#000000" stroke-width="1.0" stroke-linejoin="round" stroke-linecap="butt" d="m126.580055 121.720406l0 -5.7637787" fill-rule="evenodd"/><path fill="#000000" fill-opacity="0.0" d="m186.6751 121.720406l0 -5.7637787" fill-rule="evenodd"/><path stroke="#000000" stroke-width="1.0" stroke-linejoin="round" stroke-linecap="butt" d="m186.6751 121.720406l0 -5.7637787" fill-rule="evenodd"/><path fill="#000000" fill-opacity="0.0" d="m138.6751 121.720406l0 -5.7637787" fill-rule="evenodd"/><path stroke="#000000" stroke-width="1.0" stroke-linejoin="round" stroke-linecap="butt" d="m138.6751 121.720406l0 -5.7637787" fill-rule="evenodd"/><path fill="#000000" fill-opacity="0.0" d="m162.6751 121.720406l0 -5.7637787" fill-rule="evenodd"/><path stroke="#000000" stroke-width="1.0" stroke-linejoin="round" stroke-linecap="butt" d="m162.6751 121.720406l0 -5.7637787" fill-rule="evenodd"/><path fill="#000000" fill-opacity="0.0" d="m114.675095 121.720406l0 -5.7637787" fill-rule="evenodd"/><path stroke="#000000" stroke-width="1.0" stroke-linejoin="round" stroke-linecap="butt" d="m114.675095 121.720406l0 -5.7637787" fill-rule="evenodd"/><path fill="#000000" fill-opacity="0.0" d="m102.61942 98.09938l95.937004 0l0 18.551178l-95.937004 0z" fill-rule="evenodd"/><path fill="#000000" d="m136.3887 110.085594q0 0.3125 -0.109375 0.5625q-0.09375 0.25 -0.28125 0.4375q-0.1875 0.1875 -0.421875 0.328125q-0.234375 0.125 -0.515625 0.21875q-0.265625 0.09375 -0.5625 0.125q-0.28125 0.046875 -0.5625 0.046875q-0.59375 0 -1.09375 -0.0625q-0.5 -0.046875 -0.984375 -0.171875l0 -0.9375q0.515625 0.15625 1.03125 0.234375q0.515625 0.078125 1.015625 0.078125q0.734375 0 1.078125 -0.203125q0.359375 -0.203125 0.359375 -0.578125q0 -0.15625 -0.0625 -0.28125q-0.046875 -0.125 -0.203125 -0.234375q-0.140625 -0.109375 -0.453125 -0.234375q-0.3125 -0.125 -0.84375 -0.28125q-0.390625 -0.125 -0.734375 -0.265625q-0.328125 -0.15625 -0.578125 -0.359375q-0.25 -0.203125 -0.390625 -0.46875q-0.140625 -0.28125 -0.140625 -0.65625q0 -0.25 0.109375 -0.546875q0.125 -0.296875 0.390625 -0.546875q0.28125 -0.25 0.75 -0.40625q0.46875 -0.171875 1.171875 -0.171875q0.34375 0 0.765625 0.046875q0.421875 0.03125 0.875 0.125l0 0.90625q-0.46875 -0.125 -0.90625 -0.171875q-0.421875 -0.0625 -0.75 -0.0625q-0.375 0 -0.640625 0.0625q-0.25 0.0625 -0.421875 0.171875q-0.15625 0.09375 -0.234375 0.234375q-0.0625 0.125 -0.0625 0.28125q0 0.171875 0.0625 0.296875q0.0625 0.125 0.21875 0.25q0.171875 0.109375 0.46875 0.234375q0.296875 0.125 0.78125 0.265625q0.53125 0.15625 0.875 0.328125q0.359375 0.15625 0.578125 0.359375q0.234375 0.203125 0.328125 0.46875q0.09375 0.25 0.09375 0.578125zm3.9414062 -3.4375l-1.734375 0l0 -0.84375l2.765625 0l0 5.046875l1.75 0l0 0.84375l-4.703125 0l0 -0.84375l1.921875 0l0 -4.203125zm0.359375 -3.296875q0.171875 0 0.3125 0.0625q0.15625 0.046875 0.265625 0.171875q0.109375 0.109375 0.171875 0.25q0.0625 0.140625 0.0625 0.3125q0 0.15625 -0.0625 0.3125q-0.0625 0.140625 -0.171875 0.25q-0.109375 0.109375 -0.265625 0.171875q-0.140625 0.0625 -0.3125 0.0625q-0.171875 0 -0.3125 -0.0625q-0.140625 -0.0625 -0.25 -0.171875q-0.109375 -0.109375 -0.171875 -0.25q-0.0625 -0.15625 -0.0625 -0.3125q0 -0.171875 0.0625 -0.3125q0.0625 -0.140625 0.171875 -0.25q0.109375 -0.125 0.25 -0.171875q0.140625 -0.0625 0.3125 -0.0625zm9.003906 8.34375l-4.734375 0l0 -0.734375l3.3125 -4.296875l-3.234375 0l0 -0.859375l4.46875 0l0 0.796875l-3.265625 4.234375l3.453125 0l0 0.859375zm6.8007812 -3.25q0 0.21875 -0.015625 0.359375q0 0.140625 0 0.28125l-4.140625 0q0 0.890625 0.5 1.375q0.515625 0.484375 1.453125 0.484375q0.265625 0 0.515625 -0.015625q0.265625 -0.015625 0.5 -0.046875q0.25 -0.046875 0.46875 -0.078125q0.21875 -0.046875 0.40625 -0.109375l0 0.84375q-0.421875 0.109375 -0.953125 0.1875q-0.515625 0.078125 -1.078125 0.078125q-0.75 0 -1.296875 -0.203125q-0.546875 -0.21875 -0.90625 -0.59375q-0.34375 -0.390625 -0.515625 -0.953125q-0.15625 -0.578125 -0.15625 -1.296875q0 -0.609375 0.171875 -1.15625q0.1875 -0.5625 0.53125 -0.984375q0.34375 -0.421875 0.828125 -0.65625q0.5 -0.25 1.140625 -0.25q0.609375 0 1.078125 0.1875q0.484375 0.1875 0.8125 0.546875q0.328125 0.359375 0.484375 0.875q0.171875 0.5 0.171875 1.125zm-1.0625 -0.15625q0.015625 -0.390625 -0.078125 -0.703125q-0.09375 -0.328125 -0.296875 -0.5625q-0.1875 -0.234375 -0.484375 -0.359375q-0.28125 -0.140625 -0.671875 -0.140625q-0.328125 0 -0.609375 0.125q-0.28125 0.125 -0.484375 0.359375q-0.1875 0.234375 -0.3125 0.5625q-0.125 0.328125 -0.15625 0.71875l3.09375 0zm7.5664062 -0.375l-5.03125 0l0 -0.859375l5.03125 0l0 0.859375zm0 2.03125l-5.03125 0l0 -0.859375l5.03125 0l0 0.859375zm6.6914062 1.75l-5.046875 0l0 -0.921875l1.984375 -1.96875q0.484375 -0.46875 0.78125 -0.8125q0.3125 -0.359375 0.484375 -0.640625q0.171875 -0.296875 0.21875 -0.546875q0.0625 -0.265625 0.0625 -0.578125q0 -0.28125 -0.078125 -0.53125q-0.0625 -0.25 -0.234375 -0.4375q-0.15625 -0.203125 -0.40625 -0.3125q-0.25 -0.109375 -0.59375 -0.109375q-0.5 0 -0.90625 0.21875q-0.390625 0.21875 -0.71875 0.5625l-0.5625 -0.671875q0.4375 -0.46875 1.0 -0.734375q0.5625 -0.28125 1.3125 -0.28125q0.515625 0 0.921875 0.15625q0.421875 0.15625 0.71875 0.4375q0.3125 0.28125 0.484375 0.703125q0.171875 0.421875 0.171875 0.9375q0 0.4375 -0.125 0.8125q-0.109375 0.375 -0.359375 0.75q-0.234375 0.375 -0.59375 0.78125q-0.359375 0.390625 -0.84375 0.859375l-1.390625 1.359375l3.71875 0l0 0.96875z" fill-rule="nonzero"/><path fill="#000000" fill-opacity="0.0" d="m78.54028 194.0971c-2.1873093 0 -3.960472 -1.7731628 -3.960472 -3.9604645l0 -15.842834c0 -2.187317 -1.7731628 -3.9604797 -3.960472 -3.9604797c2.1873093 0 3.960472 -1.7731628 3.960472 -3.9604645l0 -15.842834l0 0c0 -2.187317 1.7731628 -3.9604797 3.960472 -3.9604797l511.33923 0c1.050354 0 2.0577393 0.41726685 2.800476 1.1600037c0.7427368 0.74272156 1.1599731 1.7500916 1.1599731 2.800476l0 15.842834c0 2.1873016 1.7731934 3.9604645 3.9604492 3.9604645c-2.1872559 0 -3.9604492 1.7731628 -3.9604492 3.9604797l0 15.842834c0 2.1873016 -1.7731323 3.9604645 -3.9604492 3.9604645z" fill-rule="evenodd"/><path fill="#000000" fill-opacity="0.0" d="m78.54028 194.0971c-2.1873093 0 -3.960472 -1.7731628 -3.960472 -3.9604645l0 -15.842834c0 -2.187317 -1.7731628 -3.9604797 -3.960472 -3.9604797c2.1873093 0 3.960472 -1.7731628 3.960472 -3.9604645l0 -15.842834l0 0c0 -2.187317 1.7731628 -3.9604797 3.960472 -3.9604797m511.33923 0c1.050354 0 2.0577393 0.41726685 2.800476 1.1600037c0.7427368 0.74272156 1.1599731 1.7500916 1.1599731 2.800476l0 15.842834c0 2.1873016 1.7731934 3.9604645 3.9604492 3.9604645c-2.1872559 0 -3.9604492 1.7731628 -3.9604492 3.9604797l0 15.842834c0 2.1873016 -1.7731323 3.9604645 -3.9604492 3.9604645" fill-rule="evenodd"/><path stroke="#000000" stroke-width="1.0" stroke-linejoin="round" stroke-linecap="butt" d="m78.54028 194.0971c-2.1873093 0 -3.960472 -1.7731628 -3.960472 -3.9604645l0 -15.842834c0 -2.187317 -1.7731628 -3.9604797 -3.960472 -3.9604797c2.1873093 0 3.960472 -1.7731628 3.960472 -3.9604645l0 -15.842834l0 0c0 -2.187317 1.7731628 -3.9604797 3.960472 -3.9604797m511.33923 0c1.050354 0 2.0577393 0.41726685 2.800476 1.1600037c0.7427368 0.74272156 1.1599731 1.7500916 1.1599731 2.800476l0 15.842834c0 2.1873016 1.7731934 3.9604645 3.9604492 3.9604645c-2.1872559 0 -3.9604492 1.7731628 -3.9604492 3.9604797l0 15.842834c0 2.1873016 -1.7731323 3.9604645 -3.9604492 3.9604645" fill-rule="evenodd"/><path fill="#000000" fill-opacity="0.0" d="m150.43045 161.13875c0 -8.768982 18.666931 -9.584518 36.56299 -17.537964c17.896072 -7.9534607 35.02127 -23.044823 36.563004 -42.112907c1.5417328 -19.068092 -12.500015 -42.112907 -25.000015 -42.112907" fill-rule="evenodd"/><path stroke="#000000" stroke-width="1.0" stroke-linejoin="round" stroke-linecap="butt" d="m151.70953 157.5711l0.013977051 -0.017868042c0.16744995 -0.20787048 0.3501892 -0.41027832 0.5475769 -0.6076813c0.3948059 -0.39482117 0.84828186 -0.76960754 1.3556976 -1.128067c2.0296478 -1.4338837 4.9222565 -2.6064606 8.37413 -3.7535553c6.9037476 -2.2941895 16.04448 -4.4864197 24.992523 -8.46315c17.896057 -7.9534607 35.02127 -23.044815 36.56299 -42.112915c0.770874 -9.53405 -2.354126 -20.062271 -7.2343445 -28.206985c-2.4401093 -4.072357 -5.319031 -7.548828 -8.369156 -10.007225c-1.5250702 -1.2291946 -3.0929413 -2.203865 -4.6701813 -2.8712387c-0.3942871 -0.16684723 -0.7891998 -0.31448364 -1.1841583 -0.44208908l-0.15733337 -0.04883194" fill-rule="evenodd"/><path fill="#000000" stroke="#000000" stroke-width="1.0" stroke-linecap="butt" d="m150.5992 160.66809c-0.85520935 -0.30662537 -1.299942 -1.2484589 -0.99331665 -2.1036682c0.3066101 -0.8551941 1.2484436 -1.2999268 2.103653 -0.99331665c0.85520935 0.3066101 1.2999268 1.2484589 0.99331665 2.1036682c-0.3066101 0.8551941 -1.2484589 1.2999268 -2.103653 0.99331665z" fill-rule="nonzero"/><path fill="#000000" stroke="#000000" stroke-width="1.0" stroke-linecap="butt" d="m201.94125 59.9115l1.2867737 -0.93465805l-3.2277222 0.6269989l2.8756104 1.5944366z" fill-rule="evenodd"/></g></svg>