<?xml version="1.0" encoding="UTF-8" standalone="no"?>
<!DOCTYPE svg PUBLIC "-//W3C//DTD SVG 1.1//EN" "http://www.w3.org/Graphics/SVG/1.1/DTD/svg11.dtd">
<svg width="100%" height="100%" viewBox="0 0 800 800" version="1.1" xmlns="http://www.w3.org/2000/svg" xmlns:xlink="http://www.w3.org/1999/xlink" xml:space="preserve" xmlns:serif="http://www.serif.com/" style="fill-rule:evenodd;clip-rule:evenodd;stroke-linecap:round;stroke-linejoin:round;stroke-miterlimit:1.5;">
    <g transform="matrix(-1.35887,-0.000445055,0.000444912,-1.35844,747.706,553.178)">
        <path d="M265.478,7.627C238.357,8.902 220.22,24.062 225.975,50.189C231.472,75.145 239.078,100.61 221.228,117.52C205.337,132.575 163.98,137.641 135.816,168.237C106.138,200.48 93.301,243.56 91.951,265.17C90.564,287.391 88.634,333.66 116.087,355.456C136.041,371.299 159.534,388.032 188.052,388.096C214.303,388.154 281.055,390.184 311.668,391.876C335.943,393.218 369.088,365.812 369.185,337.368C369.268,313.206 341.58,270.315 312.153,273.622C265.302,278.887 246.418,303.924 209.737,301.778C176.457,299.831 177.541,277.153 178.845,251.626C179.675,235.392 205.127,199.809 218.467,182.818C236.187,160.249 273.865,153.142 288.781,120.221C297.798,100.32 310.863,71.487 309.807,49.128C308.161,14.284 285.015,6.708 265.478,7.627Z" style="fill:rgb(0,10,255);stroke:black;stroke-width:7.36px;"/>
    </g>
    <g transform="matrix(0.827499,0,0,0.827499,166.951,494.196)">
        <circle cx="281.631" cy="216.805" r="117.009" style="fill:rgb(0,15,255);stroke:black;stroke-width:12.08px;"/>
    </g>
</svg>
