<svg version="1.1" viewBox="0.0 0.0 232.70341207349082 259.4514435695538" fill="none" stroke="none" stroke-linecap="square" stroke-miterlimit="10" xmlns:xlink="http://www.w3.org/1999/xlink" xmlns="http://www.w3.org/2000/svg"><clipPath id="p.0"><path d="m0 0l232.70341 0l0 259.45145l-232.70341 0l0 -259.45145z" clip-rule="nonzero"/></clipPath><g clip-path="url(#p.0)"><path fill="#000000" fill-opacity="0.0" d="m0 0l232.70341 0l0 259.45145l-232.70341 0z" fill-rule="evenodd"/><path fill="#000000" fill-opacity="0.0" d="m80.81286 217.49869c-5.4646454 0 -9.894623 -4.4299774 -9.894623 -9.894623l0 -39.58084c0 -5.4646454 -4.42997 -9.894608 -9.894615 -9.894608c5.4646454 0 9.894615 -4.4299774 9.894615 -9.894623l0 -39.58085l0 0c0 -5.4646454 4.4299774 -9.894615 9.894623 -9.894615l180.642 0c2.6242065 0 5.1409607 1.0424652 6.9965515 2.8980637c1.8555908 1.8556061 2.8980713 4.3723373 2.8980713 6.9965515l0 39.58085c0 5.4646454 4.429962 9.894623 9.894592 9.894623c-5.46463 0 -9.894592 4.429962 -9.894592 9.894608l0 39.58084c0 5.4646454 -4.4299927 9.894623 -9.894623 9.894623z" fill-rule="evenodd"/><path fill="#000000" fill-opacity="0.0" d="m80.81286 217.49869c-5.4646454 0 -9.894623 -4.4299774 -9.894623 -9.894623l0 -39.58084c0 -5.4646454 -4.42997 -9.894608 -9.894615 -9.894608c5.4646454 0 9.894615 -4.4299774 9.894615 -9.894623l0 -39.58085l0 0c0 -5.4646454 4.4299774 -9.894615 9.894623 -9.894615m180.642 0c2.6242065 0 5.1409607 1.0424652 6.9965515 2.8980637c1.8555908 1.8556061 2.8980713 4.3723373 2.8980713 6.9965515l0 39.58085c0 5.4646454 4.429962 9.894623 9.894592 9.894623c-5.46463 0 -9.894592 4.429962 -9.894592 9.894608l0 39.58084c0 5.4646454 -4.4299927 9.894623 -9.894623 9.894623" fill-rule="evenodd"/><path stroke="#000000" stroke-width="1.0" stroke-linejoin="round" stroke-linecap="butt" d="m80.81286 217.49869c-5.4646454 0 -9.894623 -4.4299774 -9.894623 -9.894623l0 -39.58084c0 -5.4646454 -4.42997 -9.894608 -9.894615 -9.894608c5.4646454 0 9.894615 -4.4299774 9.894615 -9.894623l0 -39.58085l0 0c0 -5.4646454 4.4299774 -9.894615 9.894623 -9.894615m180.642 0c2.6242065 0 5.1409607 1.0424652 6.9965515 2.8980637c1.8555908 1.8556061 2.8980713 4.3723373 2.8980713 6.9965515l0 39.58085c0 5.4646454 4.429962 9.894623 9.894592 9.894623c-5.46463 0 -9.894592 4.429962 -9.894592 9.894608l0 39.58084c0 5.4646454 -4.4299927 9.894623 -9.894623 9.894623" fill-rule="evenodd"/><path fill="#000000" fill-opacity="0.0" d="m134.58005 146.38058l0 0" fill-rule="evenodd"/><path stroke="#000000" stroke-width="1.0" stroke-linejoin="round" stroke-linecap="butt" d="m134.58005 146.38058l0 0" fill-rule="evenodd"/><path fill="#000000" fill-opacity="0.0" d="m134.58005 146.38058l0 0" fill-rule="evenodd"/><path stroke="#000000" stroke-width="1.0" stroke-linejoin="round" stroke-linecap="butt" d="m134.58005 146.38058l0 0" fill-rule="evenodd"/><path fill="#000000" fill-opacity="0.0" d="m146.6751 146.38058l0 -5.763794" fill-rule="evenodd"/><path stroke="#000000" stroke-width="1.0" stroke-linejoin="round" stroke-linecap="butt" d="m146.6751 146.38058l0 -5.763794" fill-rule="evenodd"/><path fill="#000000" fill-opacity="0.0" d="m122.675095 146.38058l0 -5.763794" fill-rule="evenodd"/><path stroke="#000000" stroke-width="1.0" stroke-linejoin="round" stroke-linecap="butt" d="m122.675095 146.38058l0 -5.763794" fill-rule="evenodd"/><path fill="#d9d9d9" d="m86.61155 122.56956l95.937004 0l0 23.811028l-95.937004 0z" fill-rule="evenodd"/><path stroke="#000000" stroke-width="1.0" stroke-linejoin="round" stroke-linecap="butt" d="m86.61155 122.56956l95.937004 0l0 23.811028l-95.937004 0z" fill-rule="evenodd"/><path fill="#000000" fill-opacity="0.0" d="m134.58005 146.38058l0 -5.763794" fill-rule="evenodd"/><path stroke="#000000" stroke-width="1.0" stroke-linejoin="round" stroke-linecap="butt" d="m134.58005 146.38058l0 -5.763794" fill-rule="evenodd"/><path fill="#000000" fill-opacity="0.0" d="m158.58005 146.38058l0 -5.763794" fill-rule="evenodd"/><path stroke="#000000" stroke-width="1.0" stroke-linejoin="round" stroke-linecap="butt" d="m158.58005 146.38058l0 -5.763794" fill-rule="evenodd"/><path fill="#000000" fill-opacity="0.0" d="m110.580055 146.38058l0 -5.763794" fill-rule="evenodd"/><path stroke="#000000" stroke-width="1.0" stroke-linejoin="round" stroke-linecap="butt" d="m110.580055 146.38058l0 -5.763794" fill-rule="evenodd"/><path fill="#000000" fill-opacity="0.0" d="m170.6751 146.38058l0 -5.763794" fill-rule="evenodd"/><path stroke="#000000" stroke-width="1.0" stroke-linejoin="round" stroke-linecap="butt" d="m170.6751 146.38058l0 -5.763794" fill-rule="evenodd"/><path fill="#000000" fill-opacity="0.0" d="m122.675095 146.38058l0 -5.763794" fill-rule="evenodd"/><path stroke="#000000" stroke-width="1.0" stroke-linejoin="round" stroke-linecap="butt" d="m122.675095 146.38058l0 -5.763794" fill-rule="evenodd"/><path fill="#000000" fill-opacity="0.0" d="m146.6751 146.38058l0 -5.763794" fill-rule="evenodd"/><path stroke="#000000" stroke-width="1.0" stroke-linejoin="round" stroke-linecap="butt" d="m146.6751 146.38058l0 -5.763794" fill-rule="evenodd"/><path fill="#000000" fill-opacity="0.0" d="m98.675095 146.38058l0 -5.763794" fill-rule="evenodd"/><path stroke="#000000" stroke-width="1.0" stroke-linejoin="round" stroke-linecap="butt" d="m98.675095 146.38058l0 -5.763794" fill-rule="evenodd"/><path fill="#d9d9d9" d="m86.61155 146.38663l95.937004 0l0 23.81102l-95.937004 0z" fill-rule="evenodd"/><path stroke="#000000" stroke-width="1.0" stroke-linejoin="round" stroke-linecap="butt" d="m86.61155 146.38663l95.937004 0l0 23.81102l-95.937004 0z" fill-rule="evenodd"/><path fill="#000000" fill-opacity="0.0" d="m134.58005 170.19765l0 0" fill-rule="evenodd"/><path stroke="#000000" stroke-width="1.0" stroke-linejoin="round" stroke-linecap="butt" d="m134.58005 170.19765l0 0" fill-rule="evenodd"/><path fill="#000000" fill-opacity="0.0" d="m134.58005 170.19765l0 0" fill-rule="evenodd"/><path stroke="#000000" stroke-width="1.0" stroke-linejoin="round" stroke-linecap="butt" d="m134.58005 170.19765l0 0" fill-rule="evenodd"/><path fill="#000000" fill-opacity="0.0" d="m134.58005 170.19765l0 -5.7637787" fill-rule="evenodd"/><path stroke="#000000" stroke-width="1.0" stroke-linejoin="round" stroke-linecap="butt" d="m134.58005 170.19765l0 -5.7637787" fill-rule="evenodd"/><path fill="#000000" fill-opacity="0.0" d="m158.58005 170.19765l0 -5.7637787" fill-rule="evenodd"/><path stroke="#000000" stroke-width="1.0" stroke-linejoin="round" stroke-linecap="butt" d="m158.58005 170.19765l0 -5.7637787" fill-rule="evenodd"/><path fill="#000000" fill-opacity="0.0" d="m110.580055 170.19765l0 -5.7637787" fill-rule="evenodd"/><path stroke="#000000" stroke-width="1.0" stroke-linejoin="round" stroke-linecap="butt" d="m110.580055 170.19765l0 -5.7637787" fill-rule="evenodd"/><path fill="#000000" fill-opacity="0.0" d="m146.6751 170.19765l0 -5.7637787" fill-rule="evenodd"/><path stroke="#000000" stroke-width="1.0" stroke-linejoin="round" stroke-linecap="butt" d="m146.6751 170.19765l0 -5.7637787" fill-rule="evenodd"/><path fill="#000000" fill-opacity="0.0" d="m170.6751 170.19765l0 -5.7637787" fill-rule="evenodd"/><path stroke="#000000" stroke-width="1.0" stroke-linejoin="round" stroke-linecap="butt" d="m170.6751 170.19765l0 -5.7637787" fill-rule="evenodd"/><path fill="#000000" fill-opacity="0.0" d="m122.675095 170.19765l0 -5.7637787" fill-rule="evenodd"/><path stroke="#000000" stroke-width="1.0" stroke-linejoin="round" stroke-linecap="butt" d="m122.675095 170.19765l0 -5.7637787" fill-rule="evenodd"/><path fill="#000000" fill-opacity="0.0" d="m122.675095 170.19765l0 -5.7637787" fill-rule="evenodd"/><path stroke="#000000" stroke-width="1.0" stroke-linejoin="round" stroke-linecap="butt" d="m122.675095 170.19765l0 -5.7637787" fill-rule="evenodd"/><path fill="#000000" fill-opacity="0.0" d="m146.6751 170.19765l0 -5.7637787" fill-rule="evenodd"/><path stroke="#000000" stroke-width="1.0" stroke-linejoin="round" stroke-linecap="butt" d="m146.6751 170.19765l0 -5.7637787" fill-rule="evenodd"/><path fill="#000000" fill-opacity="0.0" d="m98.675095 170.19765l0 -5.7637787" fill-rule="evenodd"/><path stroke="#000000" stroke-width="1.0" stroke-linejoin="round" stroke-linecap="butt" d="m98.675095 170.19765l0 -5.7637787" fill-rule="evenodd"/><path fill="#d9d9d9" d="m86.61155 170.2037l95.937004 0l0 23.81102l-95.937004 0z" fill-rule="evenodd"/><path stroke="#000000" stroke-width="1.0" stroke-linejoin="round" stroke-linecap="butt" d="m86.61155 170.2037l95.937004 0l0 23.81102l-95.937004 0z" fill-rule="evenodd"/><path fill="#000000" fill-opacity="0.0" d="m134.58005 194.01472l0 0" fill-rule="evenodd"/><path stroke="#000000" stroke-width="1.0" stroke-linejoin="round" stroke-linecap="butt" d="m134.58005 194.01472l0 0" fill-rule="evenodd"/><path fill="#000000" fill-opacity="0.0" d="m134.58005 194.01472l0 0" fill-rule="evenodd"/><path stroke="#000000" stroke-width="1.0" stroke-linejoin="round" stroke-linecap="butt" d="m134.58005 194.01472l0 0" fill-rule="evenodd"/><path fill="#000000" fill-opacity="0.0" d="m134.58005 194.01472l0 -5.7637787" fill-rule="evenodd"/><path stroke="#000000" stroke-width="1.0" stroke-linejoin="round" stroke-linecap="butt" d="m134.58005 194.01472l0 -5.7637787" fill-rule="evenodd"/><path fill="#000000" fill-opacity="0.0" d="m158.58005 194.01472l0 -5.7637787" fill-rule="evenodd"/><path stroke="#000000" stroke-width="1.0" stroke-linejoin="round" stroke-linecap="butt" d="m158.58005 194.01472l0 -5.7637787" fill-rule="evenodd"/><path fill="#000000" fill-opacity="0.0" d="m110.580055 194.01472l0 -5.7637787" fill-rule="evenodd"/><path stroke="#000000" stroke-width="1.0" stroke-linejoin="round" stroke-linecap="butt" d="m110.580055 194.01472l0 -5.7637787" fill-rule="evenodd"/><path fill="#000000" fill-opacity="0.0" d="m146.6751 194.01472l0 -5.7637787" fill-rule="evenodd"/><path stroke="#000000" stroke-width="1.0" stroke-linejoin="round" stroke-linecap="butt" d="m146.6751 194.01472l0 -5.7637787" fill-rule="evenodd"/><path fill="#000000" fill-opacity="0.0" d="m170.6751 194.01472l0 -5.7637787" fill-rule="evenodd"/><path stroke="#000000" stroke-width="1.0" stroke-linejoin="round" stroke-linecap="butt" d="m170.6751 194.01472l0 -5.7637787" fill-rule="evenodd"/><path fill="#000000" fill-opacity="0.0" d="m122.675095 194.01472l0 -5.7637787" fill-rule="evenodd"/><path stroke="#000000" stroke-width="1.0" stroke-linejoin="round" stroke-linecap="butt" d="m122.675095 194.01472l0 -5.7637787" fill-rule="evenodd"/><path fill="#000000" fill-opacity="0.0" d="m122.675095 194.01472l0 -5.7637787" fill-rule="evenodd"/><path stroke="#000000" stroke-width="1.0" stroke-linejoin="round" stroke-linecap="butt" d="m122.675095 194.01472l0 -5.7637787" fill-rule="evenodd"/><path fill="#000000" fill-opacity="0.0" d="m146.6751 194.01472l0 -5.7637787" fill-rule="evenodd"/><path stroke="#000000" stroke-width="1.0" stroke-linejoin="round" stroke-linecap="butt" d="m146.6751 194.01472l0 -5.7637787" fill-rule="evenodd"/><path fill="#000000" fill-opacity="0.0" d="m98.675095 194.01472l0 -5.7637787" fill-rule="evenodd"/><path stroke="#000000" stroke-width="1.0" stroke-linejoin="round" stroke-linecap="butt" d="m98.675095 194.01472l0 -5.7637787" fill-rule="evenodd"/><path fill="#000000" fill-opacity="0.0" d="m8.6830225 44.8724l64.15748 0l0 23.81102l-64.15748 0z" fill-rule="evenodd"/><path fill="#000000" d="m27.324879 60.397285q0 0.40625 -0.140625 0.734375q-0.140625 0.328125 -0.390625 0.59375q-0.234375 0.25 -0.5625 0.4375q-0.3125 0.171875 -0.6875 0.296875q-0.359375 0.109375 -0.75 0.15625q-0.375 0.0625 -0.734375 0.0625q-0.796875 0 -1.46875 -0.078125q-0.671875 -0.0625 -1.3125 -0.21875l0 -1.25q0.6875 0.1875 1.359375 0.296875q0.6875 0.09375 1.359375 0.09375q0.984375 0 1.453125 -0.265625q0.46875 -0.265625 0.46875 -0.75q0 -0.21875 -0.078125 -0.375q-0.078125 -0.171875 -0.28125 -0.328125q-0.1875 -0.15625 -0.59375 -0.3125q-0.40625 -0.171875 -1.125 -0.375q-0.53125 -0.15625 -0.984375 -0.359375q-0.4375 -0.203125 -0.765625 -0.46875q-0.328125 -0.28125 -0.515625 -0.640625q-0.1875 -0.375 -0.1875 -0.875q0 -0.328125 0.140625 -0.71875q0.15625 -0.390625 0.515625 -0.71875q0.375 -0.34375 1.0 -0.5625q0.625 -0.21875 1.5625 -0.21875q0.46875 0 1.03125 0.046875q0.5625 0.046875 1.171875 0.171875l0 1.21875q-0.640625 -0.15625 -1.21875 -0.234375q-0.578125 -0.078125 -1.0 -0.078125q-0.5 0 -0.859375 0.078125q-0.34375 0.078125 -0.5625 0.21875q-0.203125 0.140625 -0.296875 0.328125q-0.09375 0.171875 -0.09375 0.390625q0 0.203125 0.078125 0.375q0.078125 0.171875 0.296875 0.34375q0.234375 0.15625 0.625 0.3125q0.40625 0.15625 1.046875 0.34375q0.6875 0.203125 1.15625 0.4375q0.484375 0.21875 0.78125 0.5q0.296875 0.265625 0.421875 0.609375q0.140625 0.34375 0.140625 0.78125zm5.25 -7.78125l-2.3125 0l0 -1.125l3.6875 0l0 9.90625l2.34375 0l0 1.140625l-6.296875 0l0 -1.140625l2.578125 0l0 -8.78125zm8.796875 3.203125l-2.3125 0l0 -1.125l3.6875 0l0 6.703125l2.34375 0l0 1.140625l-6.296875 0l0 -1.140625l2.578125 0l0 -5.578125zm0.484375 -4.421875q0.21875 0 0.40625 0.09375q0.203125 0.078125 0.34375 0.234375q0.15625 0.140625 0.234375 0.328125q0.078125 0.1875 0.078125 0.421875q0 0.21875 -0.078125 0.421875q-0.078125 0.1875 -0.234375 0.34375q-0.140625 0.140625 -0.34375 0.21875q-0.1875 0.078125 -0.40625 0.078125q-0.234375 0 -0.4375 -0.078125q-0.1875 -0.078125 -0.328125 -0.21875q-0.140625 -0.15625 -0.234375 -0.34375q-0.078125 -0.203125 -0.078125 -0.421875q0 -0.234375 0.078125 -0.421875q0.09375 -0.1875 0.234375 -0.328125q0.140625 -0.15625 0.328125 -0.234375q0.203125 -0.09375 0.4375 -0.09375zm11.734375 10.84375q-0.53125 0.203125 -1.09375 0.296875q-0.546875 0.109375 -1.140625 0.109375q-1.859375 0 -2.875 -1.0q-1.0 -1.015625 -1.0 -2.953125q0 -0.9375 0.28125 -1.6875q0.296875 -0.765625 0.8125 -1.296875q0.53125 -0.546875 1.25 -0.828125q0.734375 -0.296875 1.609375 -0.296875q0.609375 0 1.140625 0.09375q0.53125 0.078125 1.015625 0.265625l0 1.296875q-0.5 -0.265625 -1.03125 -0.375q-0.53125 -0.125 -1.09375 -0.125q-0.515625 0 -0.984375 0.203125q-0.46875 0.1875 -0.828125 0.5625q-0.34375 0.375 -0.546875 0.921875q-0.203125 0.53125 -0.203125 1.21875q0 1.421875 0.6875 2.125q0.703125 0.703125 1.921875 0.703125q0.5625 0 1.078125 -0.125q0.515625 -0.125 1.0 -0.375l0 1.265625zm9.328125 -4.046875q0 0.296875 -0.015625 0.5q0 0.1875 -0.015625 0.359375l-5.5 0q0 1.203125 0.671875 1.84375q0.671875 0.640625 1.9375 0.640625q0.34375 0 0.6875 -0.015625q0.34375 -0.03125 0.65625 -0.078125q0.328125 -0.046875 0.609375 -0.109375q0.296875 -0.0625 0.546875 -0.125l0 1.109375q-0.546875 0.15625 -1.25 0.25q-0.703125 0.109375 -1.453125 0.109375q-1.0 0 -1.734375 -0.265625q-0.71875 -0.28125 -1.1875 -0.796875q-0.46875 -0.53125 -0.6875 -1.28125q-0.21875 -0.75 -0.21875 -1.703125q0 -0.828125 0.234375 -1.5625q0.234375 -0.75 0.6875 -1.296875q0.46875 -0.5625 1.125 -0.890625q0.671875 -0.328125 1.515625 -0.328125q0.8125 0 1.4375 0.265625q0.640625 0.25 1.078125 0.71875q0.4375 0.46875 0.65625 1.15625q0.21875 0.671875 0.21875 1.5zm-1.40625 -0.1875q0.015625 -0.53125 -0.109375 -0.953125q-0.125 -0.4375 -0.390625 -0.75q-0.25 -0.3125 -0.640625 -0.484375q-0.390625 -0.1875 -0.90625 -0.1875q-0.453125 0 -0.828125 0.171875q-0.359375 0.171875 -0.625 0.484375q-0.265625 0.3125 -0.4375 0.75q-0.15625 0.4375 -0.1875 0.96875l4.125 0z" fill-rule="nonzero"/><path fill="#000000" fill-opacity="0.0" d="m0.6830223 144.78719l64.15748 0l0 23.811035l-64.15748 0z" fill-rule="evenodd"/><path fill="#000000" d="m18.153004 162.4527l-0.03125 -1.0625q-0.640625 0.640625 -1.3125 0.921875q-0.65625 0.28125 -1.374999 0.28125q-0.671875 0 -1.15625 -0.171875q-0.46875 -0.171875 -0.78125 -0.46875q-0.3125 -0.3125 -0.453125 -0.71875q-0.140625 -0.40625 -0.140625 -0.875q0 -1.1875 0.875 -1.84375q0.875 -0.671875 2.593749 -0.671875l1.625 0l0 -0.6875q0 -0.703125 -0.453125 -1.109375q-0.4375 -0.421875 -1.34375 -0.421875q-0.67187405 0 -1.312499 0.15625q-0.640625 0.140625 -1.328125 0.40625l0 -1.21875q0.25 -0.09375 0.5625 -0.1875q0.328125 -0.09375 0.671875 -0.15625q0.359375 -0.078125 0.734375 -0.109375q0.390625 -0.046875 0.78124905 -0.046875q0.703125 0 1.265625 0.15625q0.578125 0.15625 0.96875 0.484375q0.40625 0.3125 0.609375 0.796875q0.21875 0.484375 0.21875 1.140625l0 5.40625l-1.21875 0zm-0.15625 -3.578125l-1.71875 0q-0.51562405 0 -0.89062405 0.109375q-0.359375 0.09375 -0.59375 0.28125q-0.234375 0.1875 -0.34375 0.453125q-0.109375 0.265625 -0.109375 0.59375q0 0.21875 0.0625 0.4375q0.078125 0.203125 0.234375 0.359375q0.15625 0.15625 0.40625 0.25q0.25 0.09375 0.609375 0.09375q0.46874905 0 1.062499 -0.28125q0.609375 -0.28125 1.28125 -0.90625l0 -1.390625zm4.234375 -4.265625l1.234375 0l0.046875 1.4375q0.6875 -0.828125 1.359375 -1.203125q0.6875 -0.375 1.375 -0.375q1.21875 0 1.84375 0.796875q0.625 0.78125 0.578125 2.328125l-1.375 0q0.03125 -1.03125 -0.296875 -1.484375q-0.328125 -0.46875 -0.953125 -0.46875q-0.265625 0 -0.546875 0.09375q-0.28125 0.09375 -0.578125 0.3125q-0.28125 0.21875 -0.609375 0.5625q-0.328125 0.328125 -0.703125 0.796875l0 5.046875l-1.375 0l0 -7.84375zm8.796875 0l1.234375 0l0.046875 1.4375q0.6875 -0.828125 1.359375 -1.203125q0.6875 -0.375 1.375 -0.375q1.21875 0 1.84375 0.796875q0.625 0.78125 0.578125 2.328125l-1.375 0q0.03125 -1.03125 -0.296875 -1.484375q-0.328125 -0.46875 -0.953125 -0.46875q-0.265625 0 -0.546875 0.09375q-0.28125 0.09375 -0.578125 0.3125q-0.28125 0.21875 -0.609375 0.5625q-0.328125 0.328125 -0.703125 0.796875l0 5.046875l-1.375 0l0 -7.84375zm13.515625 7.84375l-0.03125 -1.0625q-0.640625 0.640625 -1.3125 0.921875q-0.65625 0.28125 -1.375 0.28125q-0.671875 0 -1.15625 -0.171875q-0.46875 -0.171875 -0.78125 -0.46875q-0.3125 -0.3125 -0.453125 -0.71875q-0.140625 -0.40625 -0.140625 -0.875q0 -1.1875 0.875 -1.84375q0.875 -0.671875 2.59375 -0.671875l1.625 0l0 -0.6875q0 -0.703125 -0.453125 -1.109375q-0.4375 -0.421875 -1.34375 -0.421875q-0.671875 0 -1.3125 0.15625q-0.640625 0.140625 -1.328125 0.40625l0 -1.21875q0.25 -0.09375 0.5625 -0.1875q0.328125 -0.09375 0.671875 -0.15625q0.359375 -0.078125 0.734375 -0.109375q0.390625 -0.046875 0.78125 -0.046875q0.703125 0 1.265625 0.15625q0.578125 0.15625 0.96875 0.484375q0.40625 0.3125 0.609375 0.796875q0.21875 0.484375 0.21875 1.140625l0 5.40625l-1.21875 0zm-0.15625 -3.578125l-1.71875 0q-0.515625 0 -0.890625 0.109375q-0.359375 0.09375 -0.59375 0.28125q-0.234375 0.1875 -0.34375 0.453125q-0.109375 0.265625 -0.109375 0.59375q0 0.21875 0.0625 0.4375q0.078125 0.203125 0.234375 0.359375q0.15625 0.15625 0.40625 0.25q0.25 0.09375 0.609375 0.09375q0.46875 0 1.0625 -0.28125q0.609375 -0.28125 1.28125 -0.90625l0 -1.390625zm10.890625 -4.265625l-2.671875 7.015625q-0.421875 1.078125 -0.859375 1.84375q-0.4375 0.78125 -0.96875 1.265625q-0.515625 0.5 -1.140625 0.734375q-0.625 0.234375 -1.40625 0.234375q-0.203125 0 -0.375 -0.015625q-0.15625 0 -0.34375 -0.015625l0 -1.234375q0.171875 0.03125 0.375 0.046875q0.203125 0.015625 0.421875 0.015625q0.375 0 0.703125 -0.109375q0.328125 -0.109375 0.609375 -0.359375q0.296875 -0.234375 0.5625 -0.625q0.265625 -0.390625 0.515625 -0.953125l-3.140625 -7.84375l1.546875 0l1.984375 5.1875l0.40625 1.21875l0.453125 -1.25l1.828125 -5.15625l1.5 0z" fill-rule="nonzero"/><path fill="#000000" fill-opacity="0.0" d="m86.48819 21.38845l0 214.89764" fill-rule="evenodd"/><path stroke="#000000" stroke-width="1.0" stroke-linejoin="round" stroke-linecap="butt" d="m86.48819 21.38845l0 214.89764" fill-rule="evenodd"/><path fill="#000000" fill-opacity="0.0" d="m182.48819 21.38845l0 214.89764" fill-rule="evenodd"/><path stroke="#000000" stroke-width="1.0" stroke-linejoin="round" stroke-linecap="butt" d="m182.48819 21.38845l0 214.89764" fill-rule="evenodd"/><path fill="#000000" fill-opacity="0.0" d="m93.5538 -7.8188977l80.346466 0l0 42.015747l-80.346466 0z" fill-rule="evenodd"/><path fill="#000000" d="m111.24136 15.6121025l1.65625 -0.140625q0.125 1.0 0.546875 1.640625q0.4375 0.640625 1.34375 1.046875q0.921875 0.390625 2.0625 0.390625q1.0 0 1.78125 -0.296875q0.78125 -0.296875 1.15625 -0.8125q0.375 -0.53125 0.375 -1.15625q0 -0.625 -0.375 -1.09375q-0.359375 -0.46875 -1.1875 -0.796875q-0.546875 -0.203125 -2.390625 -0.640625q-1.828125 -0.453125 -2.5625 -0.84375q-0.96875 -0.5 -1.4375 -1.234375q-0.46875 -0.75 -0.46875 -1.671875q0 -1.0 0.578125 -1.875q0.578125 -0.8906255 1.671875 -1.3437505q1.109375 -0.453125 2.453125 -0.453125q1.484375 0 2.609375 0.484375q1.140625 0.46875 1.75 1.4062505q0.609375 0.921875 0.65625 2.09375l-1.6875 0.125q-0.140625 -1.265625 -0.9375 -1.90625q-0.78125 -0.6562505 -2.3125 -0.6562505q-1.609375 0 -2.34375 0.5937505q-0.734375 0.59375 -0.734375 1.421875q0 0.71875 0.53125 1.171875q0.5 0.46875 2.65625 0.96875q2.15625 0.484375 2.953125 0.84375q1.171875 0.53125 1.71875 1.359375q0.5625 0.828125 0.5625 1.90625q0 1.0625 -0.609375 2.015625q-0.609375 0.9375 -1.75 1.46875q-1.140625 0.515625 -2.578125 0.515625q-1.8125 0 -3.046875 -0.53125q-1.21875 -0.53125 -1.921875 -1.59375q-0.6875 -1.0625 -0.71875 -2.40625zm16.412323 2.828125l0.234375 1.453125q-0.6875 0.140625 -1.234375 0.140625q-0.890625 0 -1.390625 -0.28125q-0.484375 -0.28125 -0.6875 -0.734375q-0.203125 -0.46875 -0.203125 -1.9375l0 -5.578125l-1.203125 0l0 -1.265625l1.203125 0l0 -2.3906255l1.625 -0.984375l0 3.3750005l1.65625 0l0 1.265625l-1.65625 0l0 5.671875q0 0.6875 0.078125 0.890625q0.09375 0.203125 0.28125 0.328125q0.203125 0.109375 0.578125 0.109375q0.265625 0 0.71875 -0.0625zm7.917679 0.28125q-0.921875 0.765625 -1.765625 1.09375q-0.828125 0.3125 -1.796875 0.3125q-1.59375 0 -2.453125 -0.78125q-0.859375 -0.78125 -0.859375 -1.984375q0 -0.71875 0.328125 -1.296875q0.328125 -0.59375 0.84375 -0.9375q0.53125 -0.359375 1.1875 -0.546875q0.46875 -0.125 1.453125 -0.25q1.984375 -0.234375 2.921875 -0.5625q0.015625 -0.34375 0.015625 -0.421875q0 -1.0 -0.46875 -1.421875q-0.625 -0.546875 -1.875 -0.546875q-1.15625 0 -1.703125 0.40625q-0.546875 0.40625 -0.8125 1.421875l-1.609375 -0.21875q0.21875 -1.015625 0.71875 -1.640625q0.5 -0.640625 1.453125 -0.984375q0.953125 -0.34375 2.1875 -0.34375q1.25 0 2.015625 0.296875q0.78125 0.28125 1.140625 0.734375q0.375 0.4375 0.515625 1.109375q0.078125 0.421875 0.078125 1.515625l0 2.1875q0 2.28125 0.109375 2.890625q0.109375 0.59375 0.40625 1.15625l-1.703125 0q-0.265625 -0.515625 -0.328125 -1.1875zm-0.140625 -3.671875q-0.890625 0.375 -2.671875 0.625q-1.015625 0.140625 -1.4375 0.328125q-0.421875 0.1875 -0.65625 0.53125q-0.21875 0.34375 -0.21875 0.78125q0 0.65625 0.5 1.09375q0.5 0.4375 1.453125 0.4375q0.9375 0 1.671875 -0.40625q0.75 -0.421875 1.09375 -1.140625q0.265625 -0.5625 0.265625 -1.640625l0 -0.609375zm10.516342 1.3125l1.609375 0.21875q-0.265625 1.65625 -1.359375 2.609375q-1.078125 0.9375 -2.671875 0.9375q-1.984375 0 -3.1875 -1.296875q-1.203125 -1.296875 -1.203125 -3.71875q0 -1.578125 0.515625 -2.75q0.515625 -1.171875 1.578125 -1.75q1.0625 -0.59375 2.3125 -0.59375q1.578125 0 2.578125 0.796875q1.0 0.796875 1.28125 2.265625l-1.59375 0.234375q-0.234375 -0.96875 -0.8125 -1.453125q-0.578125 -0.5 -1.390625 -0.5q-1.234375 0 -2.015625 0.890625q-0.78125 0.890625 -0.78125 2.8125q0 1.953125 0.75 2.84375q0.75 0.875 1.953125 0.875q0.96875 0 1.609375 -0.59375q0.65625 -0.59375 0.828125 -1.828125zm3.015625 3.546875l0 -13.359375l1.640625 0l0 7.6250005l3.890625 -3.9375l2.109375 0l-3.6875 3.59375l4.0625 6.078125l-2.015625 0l-3.203125 -4.953125l-1.15625 1.125l0 3.828125l-1.640625 0z" fill-rule="nonzero"/><path fill="#d9d9d9" d="m86.61155 99.01534l95.937004 0l0 23.811028l-95.937004 0z" fill-rule="evenodd"/><path stroke="#000000" stroke-width="1.0" stroke-linejoin="round" stroke-linecap="butt" d="m86.61155 99.01534l95.937004 0l0 23.811028l-95.937004 0z" fill-rule="evenodd"/><path fill="#000000" fill-opacity="0.0" d="m134.58005 122.82637l0 -5.7637787" fill-rule="evenodd"/><path stroke="#000000" stroke-width="1.0" stroke-linejoin="round" stroke-linecap="butt" d="m134.58005 122.82637l0 -5.7637787" fill-rule="evenodd"/><path fill="#000000" fill-opacity="0.0" d="m158.58005 122.82637l0 -5.7637787" fill-rule="evenodd"/><path stroke="#000000" stroke-width="1.0" stroke-linejoin="round" stroke-linecap="butt" d="m158.58005 122.82637l0 -5.7637787" fill-rule="evenodd"/><path fill="#000000" fill-opacity="0.0" d="m110.580055 122.82637l0 -5.7637787" fill-rule="evenodd"/><path stroke="#000000" stroke-width="1.0" stroke-linejoin="round" stroke-linecap="butt" d="m110.580055 122.82637l0 -5.7637787" fill-rule="evenodd"/><path fill="#000000" fill-opacity="0.0" d="m170.6751 122.82637l0 -5.7637787" fill-rule="evenodd"/><path stroke="#000000" stroke-width="1.0" stroke-linejoin="round" stroke-linecap="butt" d="m170.6751 122.82637l0 -5.7637787" fill-rule="evenodd"/><path fill="#000000" fill-opacity="0.0" d="m122.675095 122.82637l0 -5.7637787" fill-rule="evenodd"/><path stroke="#000000" stroke-width="1.0" stroke-linejoin="round" stroke-linecap="butt" d="m122.675095 122.82637l0 -5.7637787" fill-rule="evenodd"/><path fill="#000000" fill-opacity="0.0" d="m146.6751 122.82637l0 -5.7637787" fill-rule="evenodd"/><path stroke="#000000" stroke-width="1.0" stroke-linejoin="round" stroke-linecap="butt" d="m146.6751 122.82637l0 -5.7637787" fill-rule="evenodd"/><path fill="#000000" fill-opacity="0.0" d="m98.675095 122.82637l0 -5.7637787" fill-rule="evenodd"/><path stroke="#000000" stroke-width="1.0" stroke-linejoin="round" stroke-linecap="butt" d="m98.675095 122.82637l0 -5.7637787" fill-rule="evenodd"/><path fill="#d9d9d9" d="m86.61155 59.214005l95.937004 0l0 23.81102l-95.937004 0z" fill-rule="evenodd"/><path stroke="#000000" stroke-width="1.0" stroke-linejoin="round" stroke-linecap="butt" d="m86.61155 59.214005l95.937004 0l0 23.81102l-95.937004 0z" fill-rule="evenodd"/><path fill="#000000" fill-opacity="0.0" d="m134.58005 83.025024l0 -5.7637787" fill-rule="evenodd"/><path stroke="#000000" stroke-width="1.0" stroke-linejoin="round" stroke-linecap="butt" d="m134.58005 83.025024l0 -5.7637787" fill-rule="evenodd"/><path fill="#000000" fill-opacity="0.0" d="m158.58005 83.025024l0 -5.7637787" fill-rule="evenodd"/><path stroke="#000000" stroke-width="1.0" stroke-linejoin="round" stroke-linecap="butt" d="m158.58005 83.025024l0 -5.7637787" fill-rule="evenodd"/><path fill="#000000" fill-opacity="0.0" d="m110.580055 83.025024l0 -5.7637787" fill-rule="evenodd"/><path stroke="#000000" stroke-width="1.0" stroke-linejoin="round" stroke-linecap="butt" d="m110.580055 83.025024l0 -5.7637787" fill-rule="evenodd"/><path fill="#000000" fill-opacity="0.0" d="m170.6751 83.025024l0 -5.7637787" fill-rule="evenodd"/><path stroke="#000000" stroke-width="1.0" stroke-linejoin="round" stroke-linecap="butt" d="m170.6751 83.025024l0 -5.7637787" fill-rule="evenodd"/><path fill="#000000" fill-opacity="0.0" d="m122.675095 83.025024l0 -5.7637787" fill-rule="evenodd"/><path stroke="#000000" stroke-width="1.0" stroke-linejoin="round" stroke-linecap="butt" d="m122.675095 83.025024l0 -5.7637787" fill-rule="evenodd"/><path fill="#000000" fill-opacity="0.0" d="m146.6751 83.025024l0 -5.7637787" fill-rule="evenodd"/><path stroke="#000000" stroke-width="1.0" stroke-linejoin="round" stroke-linecap="butt" d="m146.6751 83.025024l0 -5.7637787" fill-rule="evenodd"/><path fill="#000000" fill-opacity="0.0" d="m98.675095 83.025024l0 -5.7637787" fill-rule="evenodd"/><path stroke="#000000" stroke-width="1.0" stroke-linejoin="round" stroke-linecap="butt" d="m98.675095 83.025024l0 -5.7637787" fill-rule="evenodd"/><path fill="#d9d9d9" d="m86.61155 35.906925l95.937004 0l0 23.811024l-95.937004 0z" fill-rule="evenodd"/><path stroke="#000000" stroke-width="1.0" stroke-linejoin="round" stroke-linecap="butt" d="m86.61155 35.906925l95.937004 0l0 23.811024l-95.937004 0z" fill-rule="evenodd"/><path fill="#000000" fill-opacity="0.0" d="m134.58005 59.71795l0 -5.7637787" fill-rule="evenodd"/><path stroke="#000000" stroke-width="1.0" stroke-linejoin="round" stroke-linecap="butt" d="m134.58005 59.71795l0 -5.7637787" fill-rule="evenodd"/><path fill="#000000" fill-opacity="0.0" d="m158.58005 59.71795l0 -5.7637787" fill-rule="evenodd"/><path stroke="#000000" stroke-width="1.0" stroke-linejoin="round" stroke-linecap="butt" d="m158.58005 59.71795l0 -5.7637787" fill-rule="evenodd"/><path fill="#000000" fill-opacity="0.0" d="m110.580055 59.71795l0 -5.7637787" fill-rule="evenodd"/><path stroke="#000000" stroke-width="1.0" stroke-linejoin="round" stroke-linecap="butt" d="m110.580055 59.71795l0 -5.7637787" fill-rule="evenodd"/><path fill="#000000" fill-opacity="0.0" d="m170.6751 59.71795l0 -5.7637787" fill-rule="evenodd"/><path stroke="#000000" stroke-width="1.0" stroke-linejoin="round" stroke-linecap="butt" d="m170.6751 59.71795l0 -5.7637787" fill-rule="evenodd"/><path fill="#000000" fill-opacity="0.0" d="m122.675095 59.71795l0 -5.7637787" fill-rule="evenodd"/><path stroke="#000000" stroke-width="1.0" stroke-linejoin="round" stroke-linecap="butt" d="m122.675095 59.71795l0 -5.7637787" fill-rule="evenodd"/><path fill="#000000" fill-opacity="0.0" d="m146.6751 59.71795l0 -5.7637787" fill-rule="evenodd"/><path stroke="#000000" stroke-width="1.0" stroke-linejoin="round" stroke-linecap="butt" d="m146.6751 59.71795l0 -5.7637787" fill-rule="evenodd"/><path fill="#000000" fill-opacity="0.0" d="m98.675095 59.71795l0 -5.7637787" fill-rule="evenodd"/><path stroke="#000000" stroke-width="1.0" stroke-linejoin="round" stroke-linecap="butt" d="m98.675095 59.71795l0 -5.7637787" fill-rule="evenodd"/><path fill="#d9d9d9" d="m86.61155 193.67798l95.937004 0l0 23.81102l-95.937004 0z" fill-rule="evenodd"/><path stroke="#000000" stroke-width="1.0" stroke-linejoin="round" stroke-linecap="butt" d="m86.61155 193.67798l95.937004 0l0 23.81102l-95.937004 0z" fill-rule="evenodd"/><path fill="#000000" fill-opacity="0.0" d="m134.58005 217.489l0 -5.7637787" fill-rule="evenodd"/><path stroke="#000000" stroke-width="1.0" stroke-linejoin="round" stroke-linecap="butt" d="m134.58005 217.489l0 -5.7637787" fill-rule="evenodd"/><path fill="#000000" fill-opacity="0.0" d="m158.58005 217.489l0 -5.7637787" fill-rule="evenodd"/><path stroke="#000000" stroke-width="1.0" stroke-linejoin="round" stroke-linecap="butt" d="m158.58005 217.489l0 -5.7637787" fill-rule="evenodd"/><path fill="#000000" fill-opacity="0.0" d="m110.580055 217.489l0 -5.7637787" fill-rule="evenodd"/><path stroke="#000000" stroke-width="1.0" stroke-linejoin="round" stroke-linecap="butt" d="m110.580055 217.489l0 -5.7637787" fill-rule="evenodd"/><path fill="#000000" fill-opacity="0.0" d="m170.6751 217.489l0 -5.7637787" fill-rule="evenodd"/><path stroke="#000000" stroke-width="1.0" stroke-linejoin="round" stroke-linecap="butt" d="m170.6751 217.489l0 -5.7637787" fill-rule="evenodd"/><path fill="#000000" fill-opacity="0.0" d="m122.675095 217.489l0 -5.7637787" fill-rule="evenodd"/><path stroke="#000000" stroke-width="1.0" stroke-linejoin="round" stroke-linecap="butt" d="m122.675095 217.489l0 -5.7637787" fill-rule="evenodd"/><path fill="#000000" fill-opacity="0.0" d="m146.6751 217.489l0 -5.7637787" fill-rule="evenodd"/><path stroke="#000000" stroke-width="1.0" stroke-linejoin="round" stroke-linecap="butt" d="m146.6751 217.489l0 -5.7637787" fill-rule="evenodd"/><path fill="#000000" fill-opacity="0.0" d="m98.675095 217.489l0 -5.7637787" fill-rule="evenodd"/><path stroke="#000000" stroke-width="1.0" stroke-linejoin="round" stroke-linecap="butt" d="m98.675095 217.489l0 -5.7637787" fill-rule="evenodd"/><path fill="#000000" fill-opacity="0.0" d="m132.97375 44.40843c0 4.125515 22.504913 -1.4790878 44.683746 8.251034c22.178848 9.730122 44.031616 34.794968 44.68376 64.72488c0.6521301 29.929916 -19.896362 64.724884 -39.79271 64.724884" fill-rule="evenodd"/><path stroke="#000000" stroke-width="1.0" stroke-linejoin="round" stroke-linecap="butt" d="m136.39961 46.029434l0.43707275 0.04037094c2.4563904 0.20675278 5.9625854 0.19701004 10.1618805 0.3624153c8.398575 0.3307991 19.569519 1.3621788 30.658936 6.2272377c22.178848 9.730125 44.031616 34.79497 44.68376 64.724884c0.32606506 14.964951 -4.6480255 31.14618 -12.190674 43.58615c-3.7713165 6.220001 -8.184799 11.504684 -12.898941 15.23436c-2.3570862 1.8648224 -4.789337 3.3409119 -7.254074 4.3507996c-1.2323761 0.50494385 -2.4728699 0.89334106 -3.7161407 1.1554871l-0.32214355 0.063797" fill-rule="evenodd"/><path fill="#000000" stroke="#000000" stroke-width="1.0" stroke-linecap="butt" d="m133.4257 44.62228c0.38858032 -0.8212166 1.3693085 -1.1719437 2.1905212 -0.78336716c0.821228 0.3885727 1.1719513 1.3693047 0.783371 2.1905212c-0.38856506 0.8212166 -1.3692932 1.1719437 -2.1905212 0.78336716c-0.82121277 -0.3885727 -1.171936 -1.3693008 -0.783371 -2.1905212z" fill-rule="nonzero"/><path fill="#000000" stroke="#000000" stroke-width="1.0" stroke-linecap="butt" d="m185.9593 181.77495l1.0095367 -1.2289124l-2.9653473 1.4205933l3.184723 0.81785583z" fill-rule="evenodd"/><path fill="#000000" fill-opacity="0.0" d="m87.50131 60.34646l94.99213 0l0 15.370079l-94.99213 0z" fill-rule="evenodd"/><path fill="#000000" d="m119.94334 64.56587l-1.9375 0l0 -0.9375l3.078125 0l0 8.265625l1.953125 0l0 0.9375l-5.234375 0l0 -0.9375l2.140625 0l0 -7.328125zm10.624748 4.65625q0 0.234375 -0.015625 0.40625q0 0.15625 -0.015625 0.296875l-4.5781326 0q0 1.0 0.546875 1.546875q0.5625 0.53125 1.6250076 0.53125q0.28125 0 0.5625 -0.015625q0.296875 -0.03125 0.5625 -0.0625q0.265625 -0.046875 0.5 -0.09375q0.25 -0.046875 0.453125 -0.109375l0 0.9375q-0.453125 0.125 -1.046875 0.203125q-0.578125 0.078125 -1.2031326 0.078125q-0.828125 0 -1.4375 -0.21875q-0.609375 -0.234375 -1.0 -0.65625q-0.390625 -0.4375 -0.578125 -1.0625q-0.171875 -0.625 -0.171875 -1.421875q0 -0.6875 0.1875 -1.296875q0.203125 -0.625 0.578125 -1.09375q0.390625 -0.46875 0.9375 -0.734375q0.5625 -0.28125 1.265625 -0.28125q0.6718826 0 1.2031326 0.21875q0.53125 0.21875 0.890625 0.609375q0.359375 0.390625 0.546875 0.953125q0.1875 0.5625 0.1875 1.265625zm-1.1875 -0.171875q0.03125 -0.421875 -0.078125 -0.78125q-0.109375 -0.375 -0.328125 -0.625q-0.21875 -0.265625 -0.546875 -0.40625q-0.3125 -0.15625 -0.7500076 -0.15625q-0.359375 0 -0.671875 0.15625q-0.3125 0.140625 -0.53125 0.40625q-0.21875 0.25 -0.359375 0.625q-0.125 0.359375 -0.15625 0.78125l3.4218826 0zm2.9997406 -2.75l1.0 0l0.046875 1.046875q0.28125 -0.328125 0.546875 -0.546875q0.28125 -0.234375 0.53125 -0.375q0.25 -0.140625 0.515625 -0.1875q0.28125 -0.0625 0.5625 -0.0625q1.015625 0 1.53125 0.609375q0.515625 0.59375 0.515625 1.78125l0 4.265625l-1.140625 0l0 -4.171875q0 -0.765625 -0.28125 -1.125q-0.28125 -0.375 -0.859375 -0.375q-0.203125 0 -0.40625 0.0625q-0.1875 0.0625 -0.40625 0.21875q-0.21875 0.140625 -0.46875 0.40625q-0.25 0.265625 -0.5625 0.65625l0 4.328125l-1.125 0l0 -6.53125zm12.749741 2.328125l-5.609375 0l0 -0.953125l5.609375 0l0 0.953125zm0 2.265625l-5.609375 0l0 -0.953125l5.609375 0l0 0.953125zm7.4216156 1.9375l-5.609375 0l0 -1.015625l2.203125 -2.1875q0.546875 -0.53125 0.875 -0.921875q0.34375 -0.390625 0.53125 -0.703125q0.1875 -0.328125 0.25 -0.609375q0.0625 -0.296875 0.0625 -0.625q0 -0.3125 -0.078125 -0.59375q-0.078125 -0.28125 -0.265625 -0.5q-0.171875 -0.21875 -0.453125 -0.34375q-0.28125 -0.125 -0.671875 -0.125q-0.53125 0 -0.984375 0.25q-0.4375 0.234375 -0.8125 0.625l-0.625 -0.75q0.484375 -0.515625 1.109375 -0.8125q0.640625 -0.3125 1.46875 -0.3125q0.5625 0 1.03125 0.171875q0.46875 0.171875 0.796875 0.5q0.34375 0.3125 0.53125 0.78125q0.1875 0.453125 0.1875 1.03125q0 0.484375 -0.140625 0.90625q-0.125 0.40625 -0.390625 0.828125q-0.265625 0.40625 -0.671875 0.859375q-0.390625 0.4375 -0.9375 0.96875l-1.546875 1.5l4.140625 0l0 1.078125z" fill-rule="nonzero"/><path fill="#000000" fill-opacity="0.0" d="m78.47213 83.026245c-2.1684647 0 -3.9263535 -1.7578888 -3.9263535 -3.9263535l0 -15.706348c0 -2.1684647 -1.7578888 -3.9263535 -3.9263535 -3.9263535c2.1684647 0 3.9263535 -1.757885 3.9263535 -3.9263496l0 -15.706352l0 0c0 -2.1684647 1.7578888 -3.9263496 3.9263535 -3.9263496l194.90875 0c1.0413208 0 2.0400085 0.41366577 2.7763367 1.1500015c0.73635864 0.73633194 1.1500244 1.7350159 1.1500244 2.776348l0 15.706352c0 2.1684647 1.7578735 3.9263496 3.9263306 3.9263496c-2.168457 0 -3.9263306 1.7578888 -3.9263306 3.9263535l0 15.706348c0 2.1684647 -1.757904 3.9263535 -3.926361 3.9263535z" fill-rule="evenodd"/><path fill="#000000" fill-opacity="0.0" d="m78.47213 83.026245c-2.1684647 0 -3.9263535 -1.7578888 -3.9263535 -3.9263535l0 -15.706348c0 -2.1684647 -1.7578888 -3.9263535 -3.9263535 -3.9263535c2.1684647 0 3.9263535 -1.757885 3.9263535 -3.9263496l0 -15.706352l0 0c0 -2.1684647 1.7578888 -3.9263496 3.9263535 -3.9263496m194.90875 0c1.0413208 0 2.0400085 0.41366577 2.7763367 1.1500015c0.73635864 0.73633194 1.1500244 1.7350159 1.1500244 2.776348l0 15.706352c0 2.1684647 1.7578735 3.9263496 3.9263306 3.9263496c-2.168457 0 -3.9263306 1.7578888 -3.9263306 3.9263535l0 15.706348c0 2.1684647 -1.757904 3.9263535 -3.926361 3.9263535" fill-rule="evenodd"/><path stroke="#000000" stroke-width="1.0" stroke-linejoin="round" stroke-linecap="butt" d="m78.47213 83.026245c-2.1684647 0 -3.9263535 -1.7578888 -3.9263535 -3.9263535l0 -15.706348c0 -2.1684647 -1.7578888 -3.9263535 -3.9263535 -3.9263535c2.1684647 0 3.9263535 -1.757885 3.9263535 -3.9263496l0 -15.706352l0 0c0 -2.1684647 1.7578888 -3.9263496 3.9263535 -3.9263496m194.90875 0c1.0413208 0 2.0400085 0.41366577 2.7763367 1.1500015c0.73635864 0.73633194 1.1500244 1.7350159 1.1500244 2.776348l0 15.706352c0 2.1684647 1.7578735 3.9263496 3.9263306 3.9263496c-2.168457 0 -3.9263306 1.7578888 -3.9263306 3.9263535l0 15.706348c0 2.1684647 -1.757904 3.9263535 -3.926361 3.9263535" fill-rule="evenodd"/><path fill="#000000" fill-opacity="0.0" d="m86.61942 146.3937l95.937004 0l0 18.551178l-95.937004 0z" fill-rule="evenodd"/><path fill="#000000" d="m137.19534 159.98929l-5.046875 0l0 -0.921875l1.984375 -1.96875q0.484375 -0.46875 0.78125 -0.8125q0.3125 -0.359375 0.484375 -0.640625q0.171875 -0.296875 0.21875 -0.546875q0.0625 -0.265625 0.0625 -0.578125q0 -0.28125 -0.078125 -0.53125q-0.0625 -0.25 -0.234375 -0.4375q-0.15625 -0.203125 -0.40625 -0.3125q-0.25 -0.109375 -0.59375 -0.109375q-0.5 0 -0.90625 0.21875q-0.390625 0.21875 -0.71875 0.5625l-0.5625 -0.671875q0.4375 -0.46875 1.0 -0.734375q0.5625 -0.28125 1.3125 -0.28125q0.515625 0 0.921875 0.15625q0.421875 0.15625 0.71875 0.4375q0.3125 0.28125 0.484375 0.703125q0.171875 0.421875 0.171875 0.9375q0 0.4375 -0.125 0.8125q-0.109375 0.375 -0.359375 0.75q-0.234375 0.375 -0.59375 0.78125q-0.359375 0.390625 -0.84375 0.859375l-1.390625 1.359375l3.71875 0l0 0.96875z" fill-rule="nonzero"/><path fill="#000000" fill-opacity="0.0" d="m86.61942 170.3937l95.937004 0l0 18.551178l-95.937004 0z" fill-rule="evenodd"/><path fill="#000000" d="m137.13284 183.98929l-4.8125 0l0 -0.953125l1.96875 0l0 -5.59375l-1.828125 1.0l-0.375 -0.859375l2.4375 -1.28125l0.890625 0l0 6.734375l1.71875 0l0 0.953125z" fill-rule="nonzero"/><path fill="#000000" fill-opacity="0.0" d="m86.61942 193.9479l95.937004 0l0 18.551178l-95.937004 0z" fill-rule="evenodd"/><path fill="#000000" d="m137.36722 203.71538q0 0.875 -0.171875 1.609375q-0.171875 0.71875 -0.53125 1.234375q-0.359375 0.515625 -0.890625 0.8125q-0.53125 0.28125 -1.25 0.28125q-0.609375 0 -1.109375 -0.234375q-0.5 -0.234375 -0.859375 -0.703125q-0.359375 -0.484375 -0.5625 -1.234375q-0.1875 -0.75 -0.1875 -1.765625q0 -0.875 0.171875 -1.59375q0.1875 -0.734375 0.53125 -1.25q0.359375 -0.53125 0.890625 -0.8125q0.546875 -0.28125 1.25 -0.28125q0.609375 0 1.109375 0.234375q0.515625 0.234375 0.875 0.71875q0.359375 0.484375 0.546875 1.234375q0.1875 0.734375 0.1875 1.75zm-1.03125 0.03125q0 -0.1875 -0.015625 -0.390625q-0.015625 -0.203125 -0.03125 -0.390625l-3.234375 2.421875q0.09375 0.296875 0.21875 0.5625q0.140625 0.25 0.328125 0.4375q0.1875 0.1875 0.421875 0.296875q0.25 0.09375 0.5625 0.09375q0.40625 0 0.71875 -0.1875q0.328125 -0.203125 0.5625 -0.578125q0.234375 -0.390625 0.34375 -0.953125q0.125 -0.5625 0.125 -1.3125zm-3.5 -0.0625q0 0.171875 0 0.359375q0 0.1875 0.03125 0.359375l3.234375 -2.40625q-0.09375 -0.296875 -0.234375 -0.53125q-0.125 -0.25 -0.3125 -0.421875q-0.1875 -0.1875 -0.4375 -0.28125q-0.234375 -0.109375 -0.53125 -0.109375q-0.390625 0 -0.71875 0.203125q-0.328125 0.1875 -0.5625 0.578125q-0.21875 0.375 -0.34375 0.9375q-0.125 0.5625 -0.125 1.3125z" fill-rule="nonzero"/><path fill="#000000" fill-opacity="0.0" d="m86.61942 122.83949l95.937004 0l0 18.551178l-95.937004 0z" fill-rule="evenodd"/><path fill="#000000" d="m137.05472 134.10696q0 0.5 -0.21875 0.953125q-0.203125 0.4375 -0.609375 0.765625q-0.40625 0.328125 -1.03125 0.53125q-0.625 0.1875 -1.4375 0.1875q-0.46875 0 -0.828125 -0.03125q-0.359375 -0.03125 -0.671875 -0.078125l0 -0.921875q0.359375 0.078125 0.765625 0.109375q0.40625 0.03125 0.828125 0.03125q0.5625 0 0.96875 -0.09375q0.40625 -0.109375 0.65625 -0.296875q0.265625 -0.203125 0.375 -0.46875q0.125 -0.28125 0.125 -0.625q0 -0.3125 -0.140625 -0.546875q-0.140625 -0.234375 -0.390625 -0.390625q-0.25 -0.171875 -0.609375 -0.25q-0.359375 -0.078125 -0.78125 -0.078125l-0.859375 0l0 -0.828125l0.875 0q0.34375 0 0.625 -0.09375q0.296875 -0.09375 0.5 -0.265625q0.203125 -0.171875 0.296875 -0.421875q0.109375 -0.25 0.109375 -0.5625q0 -0.609375 -0.375 -0.890625q-0.375 -0.28125 -1.09375 -0.28125q-0.390625 0 -0.796875 0.078125q-0.40625 0.0625 -0.875 0.21875l0 -0.890625q0.1875 -0.0625 0.40625 -0.109375q0.234375 -0.0625 0.453125 -0.09375q0.234375 -0.046875 0.453125 -0.0625q0.234375 -0.03125 0.4375 -0.03125q0.609375 0 1.0625 0.140625q0.46875 0.125 0.78125 0.375q0.3125 0.234375 0.46875 0.59375q0.15625 0.34375 0.15625 0.796875q0 0.65625 -0.34375 1.109375q-0.328125 0.4375 -0.921875 0.6875q0.3125 0.046875 0.59375 0.1875q0.296875 0.140625 0.515625 0.375q0.234375 0.21875 0.375 0.515625q0.15625 0.296875 0.15625 0.65625z" fill-rule="nonzero"/><path fill="#000000" fill-opacity="0.0" d="m86.61942 98.83949l95.937004 0l0 18.551178l-95.937004 0z" fill-rule="evenodd"/><path fill="#000000" d="m137.57034 110.74758l-1.296875 0l0 1.6875l-1.046875 0l0 -1.6875l-3.6875 0l0 -0.90625l3.265625 -5.0625l1.46875 0l0 5.0625l1.296875 0l0 0.90625zm-2.34375 -4.984375l-2.671875 4.078125l2.671875 0l0 -4.078125z" fill-rule="nonzero"/></g></svg>