<svg version="1.1" viewBox="0.0 0.0 395.8635170603674 167.61679790026247" fill="none" stroke="none" stroke-linecap="square" stroke-miterlimit="10" xmlns:xlink="http://www.w3.org/1999/xlink" xmlns="http://www.w3.org/2000/svg"><clipPath id="p.0"><path d="m0 0l395.86353 0l0 167.61679l-395.86353 0l0 -167.61679z" clip-rule="nonzero"/></clipPath><g clip-path="url(#p.0)"><path fill="#000000" fill-opacity="0.0" d="m0 0l395.86353 0l0 167.61679l-395.86353 0z" fill-rule="evenodd"/><path fill="#000000" fill-opacity="0.0" d="m234.25864 73.17726l0 0c-1.3334656 -9.42157 3.0445557 -18.748356 11.276291 -24.022655c8.23172 -5.2742996 18.87352 -5.5711174 27.409653 -0.76449966l0 0c3.0237427 -5.478092 8.558105 -9.260338 14.929047 -10.202679c6.370941 -0.94234467 12.830139 1.0658989 17.423828 5.4172745l0 0c2.5758667 -4.966793 7.633606 -8.303841 13.3784485 -8.826988c5.744873 -0.5231514 11.363831 1.8416405 14.863007 6.2552223l0 0c4.653656 -5.2647896 12.057739 -7.4814835 19.008453 -5.6909065c6.9507446 1.7905731 12.1996765 7.2668114 13.475616 14.059116l0 0c5.7015076 1.495224 10.450775 5.296276 13.020691 10.421085c2.5699158 5.124813 2.7084045 11.070652 0.3796692 16.301304l0 0c5.6143494 7.025337 6.9276733 16.386513 3.4498901 24.590103c-3.4777832 8.20359 -11.224152 14.017105 -20.348358 15.271034c-0.06430054 7.6993637 -4.456238 14.764214 -11.48291 18.471428c-7.0266724 3.7072296 -15.590881 3.4779358 -22.391571 -0.5994873l0 0c-2.896759 9.221313 -11.05011 16.006271 -20.93753 17.423523c-9.887451 1.4172363 -19.73642 -2.7872925 -25.29184 -10.797104l0 0c-6.8097534 3.948059 -14.980896 5.085373 -22.670197 3.1553802c-7.6892853 -1.9299927 -14.249008 -6.7647095 -18.199417 -13.413544l0 0c-6.958725 0.7829132 -13.686859 -2.683403 -16.84523 -8.678642c-3.1583862 -5.9952393 -2.0746765 -13.243149 2.713272 -18.146622l0 0c-6.207367 -3.5126114 -9.374725 -10.482803 -7.8504486 -17.275887c1.5242767 -6.793083 7.394806 -11.869728 14.5503235 -12.5826645z" fill-rule="evenodd"/><path fill="#000000" fill-opacity="0.0" d="m227.4212 103.39893l0 0c2.9292755 1.6576157 6.313278 2.409546 9.697647 2.1548386m4.432785 24.67102c1.4553986 -0.16374207 2.8819733 -0.51049805 4.24292 -1.031311m36.624664 11.2890625c-1.0236206 -1.4758911 -1.8806458 -3.0529938 -2.556488 -4.7044525m48.78763 -1.9222565l0 0c0.5281067 -1.6811829 0.8702698 -3.4114838 1.020813 -5.1620483m32.852386 -12.709244c0.06845093 -8.197159 -4.774048 -15.702568 -12.447571 -19.292427m29.345886 -20.567848c-1.2427063 2.7912903 -3.1398315 5.2674026 -5.5426025 7.2341995m-7.856598 -33.957317l0 0c0.21173096 1.1271858 0.3097229 2.271309 0.29260254 3.4165192m-32.776123 -11.784393l0 0c-1.1608582 1.3133049 -2.1172485 2.7809029 -2.8394165 4.3571014m-25.402313 -1.7859077l0 0c-0.6186218 1.1928635 -1.0805969 2.4551163 -1.3752136 3.7576828m-30.97815 1.0278206l0 0c1.8062439 1.0170784 3.4772644 2.2412415 4.976349 3.6455956m-43.661774 21.141693l0 0c0.18377686 1.2985382 0.47416687 2.58107 0.868454 3.835579" fill-rule="evenodd"/><path stroke="#000000" stroke-width="1.0" stroke-linejoin="round" stroke-linecap="butt" d="m234.25864 73.17726l0 0c-1.3334656 -9.42157 3.0445557 -18.748356 11.276291 -24.022655c8.23172 -5.2742996 18.87352 -5.5711174 27.409653 -0.76449966l0 0c3.0237427 -5.478092 8.558105 -9.260338 14.929047 -10.202679c6.370941 -0.94234467 12.830139 1.0658989 17.423828 5.4172745l0 0c2.5758667 -4.966793 7.633606 -8.303841 13.3784485 -8.826988c5.744873 -0.5231514 11.363831 1.8416405 14.863007 6.2552223l0 0c4.653656 -5.2647896 12.057739 -7.4814835 19.008453 -5.6909065c6.9507446 1.7905731 12.1996765 7.2668114 13.475616 14.059116l0 0c5.7015076 1.495224 10.450775 5.296276 13.020691 10.421085c2.5699158 5.124813 2.7084045 11.070652 0.3796692 16.301304l0 0c5.6143494 7.025337 6.9276733 16.386513 3.4498901 24.590103c-3.4777832 8.20359 -11.224152 14.017105 -20.348358 15.271034c-0.06430054 7.6993637 -4.456238 14.764214 -11.48291 18.471428c-7.0266724 3.7072296 -15.590881 3.4779358 -22.391571 -0.5994873l0 0c-2.896759 9.221313 -11.05011 16.006271 -20.93753 17.423523c-9.887451 1.4172363 -19.73642 -2.7872925 -25.29184 -10.797104l0 0c-6.8097534 3.948059 -14.980896 5.085373 -22.670197 3.1553802c-7.6892853 -1.9299927 -14.249008 -6.7647095 -18.199417 -13.413544l0 0c-6.958725 0.7829132 -13.686859 -2.683403 -16.84523 -8.678642c-3.1583862 -5.9952393 -2.0746765 -13.243149 2.713272 -18.146622l0 0c-6.207367 -3.5126114 -9.374725 -10.482803 -7.8504486 -17.275887c1.5242767 -6.793083 7.394806 -11.869728 14.5503235 -12.5826645z" fill-rule="evenodd"/><path stroke="#000000" stroke-width="1.0" stroke-linejoin="round" stroke-linecap="butt" d="m227.4212 103.39893l0 0c2.9292755 1.6576157 6.313278 2.409546 9.697647 2.1548386m4.432785 24.67102c1.4553986 -0.16374207 2.8819733 -0.51049805 4.24292 -1.031311m36.624664 11.2890625c-1.0236206 -1.4758911 -1.8806458 -3.0529938 -2.556488 -4.7044525m48.78763 -1.9222565l0 0c0.5281067 -1.6811829 0.8702698 -3.4114838 1.020813 -5.1620483m32.852386 -12.709244c0.06845093 -8.197159 -4.774048 -15.702568 -12.447571 -19.292427m29.345886 -20.567848c-1.2427063 2.7912903 -3.1398315 5.2674026 -5.5426025 7.2341995m-7.856598 -33.957317l0 0c0.21173096 1.1271858 0.3097229 2.271309 0.29260254 3.4165192m-32.776123 -11.784393l0 0c-1.1608582 1.3133049 -2.1172485 2.7809029 -2.8394165 4.3571014m-25.402313 -1.7859077l0 0c-0.6186218 1.1928635 -1.0805969 2.4551163 -1.3752136 3.7576828m-30.97815 1.0278206l0 0c1.8062439 1.0170784 3.4772644 2.2412415 4.976349 3.6455956m-43.661774 21.141693l0 0c0.18377686 1.2985382 0.47416687 2.58107 0.868454 3.835579" fill-rule="evenodd"/><path fill="#d9d9d9" d="m70.61155 66.56956l95.937004 0l0 23.81102l-95.937004 0z" fill-rule="evenodd"/><path stroke="#000000" stroke-width="1.0" stroke-linejoin="round" stroke-linecap="butt" d="m70.61155 66.56956l95.937004 0l0 23.81102l-95.937004 0z" fill-rule="evenodd"/><path fill="#000000" fill-opacity="0.0" d="m118.580055 90.38058l0 0" fill-rule="evenodd"/><path stroke="#000000" stroke-width="1.0" stroke-linejoin="round" stroke-linecap="butt" d="m118.580055 90.38058l0 0" fill-rule="evenodd"/><path fill="#000000" fill-opacity="0.0" d="m118.580055 90.38058l0 0" fill-rule="evenodd"/><path stroke="#000000" stroke-width="1.0" stroke-linejoin="round" stroke-linecap="butt" d="m118.580055 90.38058l0 0" fill-rule="evenodd"/><path fill="#000000" fill-opacity="0.0" d="m118.580055 90.38058l0 -5.7637787" fill-rule="evenodd"/><path stroke="#000000" stroke-width="1.0" stroke-linejoin="round" stroke-linecap="butt" d="m118.580055 90.38058l0 -5.7637787" fill-rule="evenodd"/><path fill="#000000" fill-opacity="0.0" d="m142.58005 90.38058l0 -5.7637787" fill-rule="evenodd"/><path stroke="#000000" stroke-width="1.0" stroke-linejoin="round" stroke-linecap="butt" d="m142.58005 90.38058l0 -5.7637787" fill-rule="evenodd"/><path fill="#000000" fill-opacity="0.0" d="m94.580055 90.38058l0 -5.7637787" fill-rule="evenodd"/><path stroke="#000000" stroke-width="1.0" stroke-linejoin="round" stroke-linecap="butt" d="m94.580055 90.38058l0 -5.7637787" fill-rule="evenodd"/><path fill="#000000" fill-opacity="0.0" d="m130.6751 90.38058l0 -5.7637787" fill-rule="evenodd"/><path stroke="#000000" stroke-width="1.0" stroke-linejoin="round" stroke-linecap="butt" d="m130.6751 90.38058l0 -5.7637787" fill-rule="evenodd"/><path fill="#000000" fill-opacity="0.0" d="m154.6751 90.38058l0 -5.7637787" fill-rule="evenodd"/><path stroke="#000000" stroke-width="1.0" stroke-linejoin="round" stroke-linecap="butt" d="m154.6751 90.38058l0 -5.7637787" fill-rule="evenodd"/><path fill="#000000" fill-opacity="0.0" d="m106.675095 90.38058l0 -5.7637787" fill-rule="evenodd"/><path stroke="#000000" stroke-width="1.0" stroke-linejoin="round" stroke-linecap="butt" d="m106.675095 90.38058l0 -5.7637787" fill-rule="evenodd"/><path fill="#000000" fill-opacity="0.0" d="m106.675095 90.38058l0 -5.7637787" fill-rule="evenodd"/><path stroke="#000000" stroke-width="1.0" stroke-linejoin="round" stroke-linecap="butt" d="m106.675095 90.38058l0 -5.7637787" fill-rule="evenodd"/><path fill="#000000" fill-opacity="0.0" d="m130.6751 90.38058l0 -5.7637787" fill-rule="evenodd"/><path stroke="#000000" stroke-width="1.0" stroke-linejoin="round" stroke-linecap="butt" d="m130.6751 90.38058l0 -5.7637787" fill-rule="evenodd"/><path fill="#000000" fill-opacity="0.0" d="m82.675095 90.38058l0 -5.7637787" fill-rule="evenodd"/><path stroke="#000000" stroke-width="1.0" stroke-linejoin="round" stroke-linecap="butt" d="m82.675095 90.38058l0 -5.7637787" fill-rule="evenodd"/><path fill="#d9d9d9" d="m262.61154 66.203705l95.93701 0l0 23.811028l-95.93701 0z" fill-rule="evenodd"/><path stroke="#000000" stroke-width="1.0" stroke-linejoin="round" stroke-linecap="butt" d="m262.61154 66.203705l95.93701 0l0 23.811028l-95.93701 0z" fill-rule="evenodd"/><path fill="#000000" fill-opacity="0.0" d="m310.58005 90.01473l0 0" fill-rule="evenodd"/><path stroke="#000000" stroke-width="1.0" stroke-linejoin="round" stroke-linecap="butt" d="m310.58005 90.01473l0 0" fill-rule="evenodd"/><path fill="#000000" fill-opacity="0.0" d="m310.58005 90.01473l0 0" fill-rule="evenodd"/><path stroke="#000000" stroke-width="1.0" stroke-linejoin="round" stroke-linecap="butt" d="m310.58005 90.01473l0 0" fill-rule="evenodd"/><path fill="#000000" fill-opacity="0.0" d="m310.58005 90.01473l0 -5.7637863" fill-rule="evenodd"/><path stroke="#000000" stroke-width="1.0" stroke-linejoin="round" stroke-linecap="butt" d="m310.58005 90.01473l0 -5.7637863" fill-rule="evenodd"/><path fill="#000000" fill-opacity="0.0" d="m334.58005 90.01473l0 -5.7637863" fill-rule="evenodd"/><path stroke="#000000" stroke-width="1.0" stroke-linejoin="round" stroke-linecap="butt" d="m334.58005 90.01473l0 -5.7637863" fill-rule="evenodd"/><path fill="#000000" fill-opacity="0.0" d="m286.58005 90.01473l0 -5.7637863" fill-rule="evenodd"/><path stroke="#000000" stroke-width="1.0" stroke-linejoin="round" stroke-linecap="butt" d="m286.58005 90.01473l0 -5.7637863" fill-rule="evenodd"/><path fill="#000000" fill-opacity="0.0" d="m322.67508 90.01473l0 -5.7637863" fill-rule="evenodd"/><path stroke="#000000" stroke-width="1.0" stroke-linejoin="round" stroke-linecap="butt" d="m322.67508 90.01473l0 -5.7637863" fill-rule="evenodd"/><path fill="#000000" fill-opacity="0.0" d="m346.67508 90.01473l0 -5.7637863" fill-rule="evenodd"/><path stroke="#000000" stroke-width="1.0" stroke-linejoin="round" stroke-linecap="butt" d="m346.67508 90.01473l0 -5.7637863" fill-rule="evenodd"/><path fill="#000000" fill-opacity="0.0" d="m298.67508 90.01473l0 -5.7637863" fill-rule="evenodd"/><path stroke="#000000" stroke-width="1.0" stroke-linejoin="round" stroke-linecap="butt" d="m298.67508 90.01473l0 -5.7637863" fill-rule="evenodd"/><path fill="#000000" fill-opacity="0.0" d="m298.67508 90.01473l0 -5.7637863" fill-rule="evenodd"/><path stroke="#000000" stroke-width="1.0" stroke-linejoin="round" stroke-linecap="butt" d="m298.67508 90.01473l0 -5.7637863" fill-rule="evenodd"/><path fill="#000000" fill-opacity="0.0" d="m322.67508 90.01473l0 -5.7637863" fill-rule="evenodd"/><path stroke="#000000" stroke-width="1.0" stroke-linejoin="round" stroke-linecap="butt" d="m322.67508 90.01473l0 -5.7637863" fill-rule="evenodd"/><path fill="#000000" fill-opacity="0.0" d="m274.67508 90.01473l0 -5.7637863" fill-rule="evenodd"/><path stroke="#000000" stroke-width="1.0" stroke-linejoin="round" stroke-linecap="butt" d="m274.67508 90.01473l0 -5.7637863" fill-rule="evenodd"/><path fill="#000000" fill-opacity="0.0" d="m2.367454 42.75853l68.25197 0l0 42.015747l-68.25197 0z" fill-rule="evenodd"/><path fill="#000000" fill-opacity="0.0" d="m310.58005 90.01473l0 -23.811028" fill-rule="evenodd"/><path stroke="#000000" stroke-width="1.0" stroke-linejoin="round" stroke-linecap="butt" d="m310.58005 90.01473l0 -23.811028" fill-rule="evenodd"/><path fill="#000000" fill-opacity="0.0" d="m-11.6640415 66.56956l82.267715 0l0 23.81102l-82.267715 0z" fill-rule="evenodd"/><path fill="#000000" d="m16.775549 80.17257q0 0.96875 -0.265625 1.75q-0.265625 0.765625 -0.765625 1.296875q-0.5 0.53125 -1.21875 0.828125q-0.703125 0.28125 -1.59375 0.28125q-0.6875 0 -1.421875 -0.125q-0.71875 -0.140625 -1.4375 -0.4375l0 -10.578125l1.359375 0l0 3.046875l-0.0625 1.453125q0.59375 -0.796875 1.25 -1.109375q0.671875 -0.328125 1.4375 -0.328125q0.671875 0 1.171875 0.28125q0.515625 0.28125 0.859375 0.796875q0.34375 0.5 0.515625 1.234375q0.171875 0.71875 0.171875 1.609375zm-1.390625 0.0625q0 -0.625 -0.09375 -1.140625q-0.078125 -0.515625 -0.28125 -0.875q-0.1875 -0.375 -0.5 -0.578125q-0.296875 -0.203125 -0.71875 -0.203125q-0.265625 0 -0.53125 0.078125q-0.265625 0.078125 -0.546875 0.28125q-0.28125 0.1875 -0.609375 0.5q-0.3125 0.3125 -0.671875 0.78125l0 3.8125q0.40625 0.15625 0.8125 0.25q0.421875 0.078125 0.796875 0.078125q0.46875 0 0.890625 -0.140625q0.421875 -0.15625 0.75 -0.5q0.328125 -0.34375 0.515625 -0.921875q0.1875 -0.578125 0.1875 -1.421875zm10.3125 0.015625q0 0.90625 -0.265625 1.671875q-0.25 0.765625 -0.734375 1.3125q-0.484375 0.53125 -1.1875 0.84375q-0.6875 0.296875 -1.5625 0.296875q-0.84375 0 -1.515625 -0.265625q-0.671875 -0.265625 -1.140625 -0.765625q-0.453125 -0.515625 -0.703125 -1.265625q-0.25 -0.75 -0.25 -1.71875q0 -0.921875 0.25 -1.671875q0.265625 -0.75 0.75 -1.296875q0.484375 -0.546875 1.171875 -0.84375q0.703125 -0.296875 1.59375 -0.296875q0.84375 0 1.5 0.265625q0.671875 0.25 1.140625 0.765625q0.46875 0.5 0.703125 1.25q0.25 0.75 0.25 1.71875zm-1.390625 0.0625q0 -0.734375 -0.15625 -1.265625q-0.15625 -0.546875 -0.453125 -0.90625q-0.296875 -0.375 -0.734375 -0.546875q-0.421875 -0.1875 -0.9375 -0.1875q-0.609375 0 -1.046875 0.234375q-0.4375 0.234375 -0.71875 0.640625q-0.265625 0.390625 -0.40625 0.921875q-0.125 0.53125 -0.125 1.109375q0 0.71875 0.15625 1.265625q0.171875 0.546875 0.46875 0.921875q0.296875 0.359375 0.71875 0.546875q0.421875 0.171875 0.953125 0.171875q0.609375 0 1.03125 -0.234375q0.4375 -0.234375 0.71875 -0.625q0.28125 -0.40625 0.40625 -0.9375q0.125 -0.53125 0.125 -1.109375zm10.437498 3.921875l-1.8125 0l-2.109373 -3.0l-2.09375 3.0l-1.765625 0l3.046875 -3.9375l-2.90625 -3.90625l1.75 0l2.0625 3.015625l2.015623 -3.015625l1.6875 0l-2.953123 3.9375l3.078123 3.90625zm9.265625 3.203125l-8.796875 0l0 -1.125l8.796875 0l0 1.125zm7.953125 -7.265625q0 1.046875 -0.296875 1.828125q-0.28125 0.78125 -0.796875 1.296875q-0.515625 0.515625 -1.21875 0.78125q-0.703125 0.25 -1.53125 0.25q-0.375 0 -0.75 -0.046875q-0.359375 -0.03125 -0.75 -0.125l0 3.28125l-1.359375 0l0 -11.046875l1.21875 0l0.078125 1.3125q0.59375 -0.8125 1.25 -1.125q0.671875 -0.328125 1.4375 -0.328125q0.671875 0 1.171875 0.28125q0.515625 0.28125 0.859375 0.796875q0.34375 0.5 0.515625 1.234375q0.171875 0.71875 0.171875 1.609375zm-1.390625 0.0625q0 -0.625 -0.09375 -1.140625q-0.078125 -0.515625 -0.28125 -0.875q-0.1875 -0.375 -0.5 -0.578125q-0.296875 -0.203125 -0.71875 -0.203125q-0.265625 0 -0.53125 0.078125q-0.265625 0.078125 -0.546875 0.28125q-0.28125 0.1875 -0.609375 0.5q-0.3125 0.3125 -0.671875 0.78125l0 3.8125q0.375 0.15625 0.78125 0.25q0.421875 0.078125 0.828125 0.078125q1.09375 0 1.71875 -0.734375q0.625 -0.75 0.625 -2.25zm9.8125 3.890625q-0.46875 0.125 -0.96875 0.171875q-0.484375 0.046875 -0.984375 0.046875q-1.484375 0 -2.21875 -0.671875q-0.71875 -0.671875 -0.71875 -2.046875l0 -4.09375l-2.1875 0l0 -1.140625l2.1875 0l0 -2.15625l1.359375 -0.359375l0 2.515625l3.53125 0l0 1.140625l-3.53125 0l0 3.984375q0 0.84375 0.453125 1.265625q0.453125 0.40625 1.328125 0.40625q0.375 0 0.8125 -0.046875q0.453125 -0.0625 0.9375 -0.1875l0 1.171875z" fill-rule="nonzero"/><path fill="#000000" fill-opacity="0.0" d="m262.61942 66.3937l47.968506 0l0 18.551186l-47.968506 0z" fill-rule="evenodd"/><path fill="#000000" d="m285.84976 79.98929l-4.8125 0l0 -0.953125l1.96875 0l0 -5.59375l-1.828125 1.0l-0.375 -0.859375l2.4375 -1.28125l0.890625 0l0 6.734375l1.71875 0l0 0.953125zm6.8320312 -3.828125q0 0.875 -0.171875 1.609375q-0.171875 0.71875 -0.53125 1.234375q-0.359375 0.515625 -0.890625 0.8125q-0.53125 0.28125 -1.25 0.28125q-0.609375 0 -1.109375 -0.234375q-0.5 -0.234375 -0.859375 -0.703125q-0.359375 -0.484375 -0.5625 -1.234375q-0.1875 -0.75 -0.1875 -1.765625q0 -0.875 0.171875 -1.59375q0.1875 -0.734375 0.53125 -1.25q0.359375 -0.53125 0.890625 -0.8125q0.546875 -0.28125 1.25 -0.28125q0.609375 0 1.109375 0.234375q0.515625 0.234375 0.875 0.71875q0.359375 0.484375 0.546875 1.234375q0.1875 0.734375 0.1875 1.75zm-1.03125 0.03125q0 -0.1875 -0.015625 -0.390625q-0.015625 -0.203125 -0.03125 -0.390625l-3.234375 2.421875q0.09375 0.296875 0.21875 0.5625q0.140625 0.25 0.328125 0.4375q0.1875 0.1875 0.421875 0.296875q0.25 0.09375 0.5625 0.09375q0.40625 0 0.71875 -0.1875q0.328125 -0.203125 0.5625 -0.578125q0.234375 -0.390625 0.34375 -0.953125q0.125 -0.5625 0.125 -1.3125zm-3.5 -0.0625q0 0.171875 0 0.359375q0 0.1875 0.03125 0.359375l3.234375 -2.40625q-0.09375 -0.296875 -0.234375 -0.53125q-0.125 -0.25 -0.3125 -0.421875q-0.1875 -0.1875 -0.4375 -0.28125q-0.234375 -0.109375 -0.53125 -0.109375q-0.390625 0 -0.71875 0.203125q-0.328125 0.1875 -0.5625 0.578125q-0.21875 0.375 -0.34375 0.9375q-0.125 0.5625 -0.125 1.3125z" fill-rule="nonzero"/><path fill="#000000" fill-opacity="0.0" d="m310.61942 66.3937l47.968506 0l0 18.551186l-47.968506 0z" fill-rule="evenodd"/><path fill="#000000" d="m333.91226 79.98929l-5.046875 0l0 -0.921875l1.984375 -1.96875q0.484375 -0.46875 0.78125 -0.8125q0.3125 -0.359375 0.484375 -0.640625q0.171875 -0.296875 0.21875 -0.546875q0.0625 -0.265625 0.0625 -0.578125q0 -0.28125 -0.078125 -0.53125q-0.0625 -0.25 -0.234375 -0.4375q-0.15625 -0.203125 -0.40625 -0.3125q-0.25 -0.109375 -0.59375 -0.109375q-0.5 0 -0.90625 0.21875q-0.390625 0.21875 -0.71875 0.5625l-0.5625 -0.671875q0.4375 -0.46875 1.0 -0.734375q0.5625 -0.28125 1.3125 -0.28125q0.515625 0 0.921875 0.15625q0.421875 0.15625 0.71875 0.4375q0.3125 0.28125 0.484375 0.703125q0.171875 0.421875 0.171875 0.9375q0 0.4375 -0.125 0.8125q-0.109375 0.375 -0.359375 0.75q-0.234375 0.375 -0.59375 0.78125q-0.359375 0.390625 -0.84375 0.859375l-1.390625 1.359375l3.71875 0l0 0.96875zm6.7695312 -3.828125q0 0.875 -0.171875 1.609375q-0.171875 0.71875 -0.53125 1.234375q-0.359375 0.515625 -0.890625 0.8125q-0.53125 0.28125 -1.25 0.28125q-0.609375 0 -1.109375 -0.234375q-0.5 -0.234375 -0.859375 -0.703125q-0.359375 -0.484375 -0.5625 -1.234375q-0.1875 -0.75 -0.1875 -1.765625q0 -0.875 0.171875 -1.59375q0.1875 -0.734375 0.53125 -1.25q0.359375 -0.53125 0.890625 -0.8125q0.546875 -0.28125 1.25 -0.28125q0.609375 0 1.109375 0.234375q0.515625 0.234375 0.875 0.71875q0.359375 0.484375 0.546875 1.234375q0.1875 0.734375 0.1875 1.75zm-1.03125 0.03125q0 -0.1875 -0.015625 -0.390625q-0.015625 -0.203125 -0.03125 -0.390625l-3.234375 2.421875q0.09375 0.296875 0.21875 0.5625q0.140625 0.25 0.328125 0.4375q0.1875 0.1875 0.421875 0.296875q0.25 0.09375 0.5625 0.09375q0.40625 0 0.71875 -0.1875q0.328125 -0.203125 0.5625 -0.578125q0.234375 -0.390625 0.34375 -0.953125q0.125 -0.5625 0.125 -1.3125zm-3.5 -0.0625q0 0.171875 0 0.359375q0 0.1875 0.03125 0.359375l3.234375 -2.40625q-0.09375 -0.296875 -0.234375 -0.53125q-0.125 -0.25 -0.3125 -0.421875q-0.1875 -0.1875 -0.4375 -0.28125q-0.234375 -0.109375 -0.53125 -0.109375q-0.390625 0 -0.71875 0.203125q-0.328125 0.1875 -0.5625 0.578125q-0.21875 0.375 -0.34375 0.9375q-0.125 0.5625 -0.125 1.3125z" fill-rule="nonzero"/><path fill="#000000" fill-opacity="0.0" d="m115.784775 75.480316c36.708664 0 55.06299 0.04724121 73.41733 0.09449005c18.354324 0.04724121 36.708664 0.09448242 73.41731 0.09448242" fill-rule="evenodd"/><path stroke="#000000" stroke-width="1.0" stroke-linejoin="round" stroke-linecap="butt" d="m119.574776 75.480934l9.1512375 0.0015029907c4.0508575 0.0013809204 7.8507843 0.0034179688 11.435608 0.005996704c7.1696625 0.0051651 13.478958 0.012550354 19.214691 0.021408081c11.471451 0.017715454 20.64862 0.04133606 29.82579 0.064964294c9.17717 0.023620605 18.354324 0.04724121 29.82579 0.064956665c5.735718 0.008857727 12.045029 0.016242981 19.214691 0.021408081c3.5848236 0.0025863647 7.3847504 0.0046157837 11.435608 0.005996704l9.51416 0.0015563965" fill-rule="evenodd"/><path fill="#000000" stroke="#000000" stroke-width="1.0" stroke-linecap="butt" d="m116.284775 75.4804c1.5258789E-4 -0.9085083 0.736763 -1.6448822 1.6452713 -1.6447296c0.9085083 1.449585E-4 1.6448822 0.7367554 1.6447296 1.6452637c-1.449585E-4 0.9085083 -0.736763 1.6448822 -1.6452713 1.6447296c-0.9085083 -1.449585E-4 -1.6448746 -0.7367554 -1.6447296 -1.6452637z" fill-rule="nonzero"/><path fill="#000000" stroke="#000000" stroke-width="1.0" stroke-linecap="butt" d="m259.19232 75.66873l-1.1247559 1.1243973l3.0899658 -1.1240768l-3.0895996 -1.1250916z" fill-rule="evenodd"/><path fill="#000000" fill-opacity="0.0" d="m70.48819 29.38845l0 91.40157" fill-rule="evenodd"/><path stroke="#000000" stroke-width="1.0" stroke-linejoin="round" stroke-linecap="butt" d="m70.48819 29.38845l0 91.40157" fill-rule="evenodd"/><path fill="#000000" fill-opacity="0.0" d="m166.48819 29.38845l0 91.40157" fill-rule="evenodd"/><path stroke="#000000" stroke-width="1.0" stroke-linejoin="round" stroke-linecap="butt" d="m166.48819 29.38845l0 91.40157" fill-rule="evenodd"/><path fill="#000000" fill-opacity="0.0" d="m77.5538 0.18110237l80.346466 0l0 42.015747l-80.346466 0z" fill-rule="evenodd"/><path fill="#000000" d="m95.24136 23.612103l1.65625 -0.140625q0.125 1.0 0.546875 1.640625q0.4375 0.640625 1.34375 1.046875q0.921875 0.390625 2.0625 0.390625q1.0 0 1.78125 -0.296875q0.78125 -0.296875 1.15625 -0.8125q0.375 -0.53125 0.375 -1.15625q0 -0.625 -0.375 -1.09375q-0.359375 -0.46875 -1.1875 -0.796875q-0.546875 -0.203125 -2.390625 -0.640625q-1.828125 -0.453125 -2.5625 -0.84375q-0.96875 -0.5 -1.4375 -1.234375q-0.46875 -0.75 -0.46875 -1.671875q0 -1.0 0.578125 -1.875q0.578125 -0.890625 1.671875 -1.34375q1.109375 -0.453125 2.453125 -0.453125q1.484375 0 2.609375 0.484375q1.140625 0.46875 1.75 1.40625q0.609375 0.921875 0.65625 2.09375l-1.6875 0.125q-0.140625 -1.265625 -0.9375 -1.90625q-0.78125 -0.65625 -2.3125 -0.65625q-1.609375 0 -2.34375 0.59375q-0.734375 0.59375 -0.734375 1.421875q0 0.71875 0.53125 1.171875q0.5 0.46875 2.65625 0.96875q2.15625 0.484375 2.953125 0.84375q1.171875 0.53125 1.71875 1.359375q0.5625 0.828125 0.5625 1.90625q0 1.0625 -0.609375 2.015625q-0.609375 0.9375 -1.75 1.46875q-1.140625 0.515625 -2.578125 0.515625q-1.8125 0 -3.046875 -0.53125q-1.21875 -0.53125 -1.921875 -1.59375q-0.6875 -1.0625 -0.71875 -2.40625zm16.412323 2.828125l0.234375 1.453125q-0.6875 0.140625 -1.234375 0.140625q-0.890625 0 -1.390625 -0.28125q-0.484375 -0.28125 -0.6875 -0.734375q-0.203125 -0.46875 -0.203125 -1.9375l0 -5.578125l-1.203125 0l0 -1.265625l1.203125 0l0 -2.390625l1.625 -0.984375l0 3.375l1.65625 0l0 1.265625l-1.65625 0l0 5.671875q0 0.6875 0.078125 0.890625q0.09375 0.203125 0.28125 0.328125q0.203125 0.109375 0.578125 0.109375q0.265625 0 0.71875 -0.0625zm7.917679 0.28125q-0.921875 0.765625 -1.765625 1.09375q-0.828125 0.3125 -1.796875 0.3125q-1.59375 0 -2.453125 -0.78125q-0.859375 -0.78125 -0.859375 -1.984375q0 -0.71875 0.328125 -1.296875q0.328125 -0.59375 0.84375 -0.9375q0.53125 -0.359375 1.1875 -0.546875q0.46875 -0.125 1.453125 -0.25q1.984375 -0.234375 2.921875 -0.5625q0.015625 -0.34375 0.015625 -0.421875q0 -1.0 -0.46875 -1.421875q-0.625 -0.546875 -1.875 -0.546875q-1.15625 0 -1.703125 0.40625q-0.546875 0.40625 -0.8125 1.421875l-1.609375 -0.21875q0.21875 -1.015625 0.71875 -1.640625q0.5 -0.640625 1.453125 -0.984375q0.953125 -0.34375 2.1875 -0.34375q1.25 0 2.015625 0.296875q0.78125 0.28125 1.140625 0.734375q0.375 0.4375 0.515625 1.109375q0.078125 0.421875 0.078125 1.515625l0 2.1875q0 2.28125 0.109375 2.890625q0.109375 0.59375 0.40625 1.15625l-1.703125 0q-0.265625 -0.515625 -0.328125 -1.1875zm-0.140625 -3.671875q-0.890625 0.375 -2.671875 0.625q-1.015625 0.140625 -1.4375 0.328125q-0.421875 0.1875 -0.65625 0.53125q-0.21875 0.34375 -0.21875 0.78125q0 0.65625 0.5 1.09375q0.5 0.4375 1.453125 0.4375q0.9375 0 1.671875 -0.40625q0.75 -0.421875 1.09375 -1.140625q0.265625 -0.5625 0.265625 -1.640625l0 -0.609375zm10.516342 1.3125l1.609375 0.21875q-0.265625 1.65625 -1.359375 2.609375q-1.078125 0.9375 -2.671875 0.9375q-1.984375 0 -3.1875 -1.296875q-1.203125 -1.296875 -1.203125 -3.71875q0 -1.578125 0.515625 -2.75q0.515625 -1.171875 1.578125 -1.75q1.0625 -0.59375 2.3125 -0.59375q1.578125 0 2.578125 0.796875q1.0 0.796875 1.28125 2.265625l-1.59375 0.234375q-0.234375 -0.96875 -0.8125 -1.453125q-0.578125 -0.5 -1.390625 -0.5q-1.234375 0 -2.015625 0.890625q-0.78125 0.890625 -0.78125 2.8125q0 1.953125 0.75 2.84375q0.75 0.875 1.953125 0.875q0.96875 0 1.609375 -0.59375q0.65625 -0.59375 0.828125 -1.828125zm3.015625 3.546875l0 -13.359375l1.640625 0l0 7.625l3.890625 -3.9375l2.109375 0l-3.6875 3.59375l4.0625 6.078125l-2.015625 0l-3.203125 -4.953125l-1.15625 1.125l0 3.828125l-1.640625 0z" fill-rule="nonzero"/><path fill="#000000" fill-opacity="0.0" d="m269.5538 0.18110237l80.346466 0l0 42.015747l-80.346466 0z" fill-rule="evenodd"/><path fill="#000000" d="m288.92697 27.908978l0 -13.359375l1.765625 0l0 5.484375l6.9375 0l0 -5.484375l1.765625 0l0 13.359375l-1.765625 0l0 -6.296875l-6.9375 0l0 6.296875l-1.765625 0zm19.832336 -3.109375l1.6875 0.203125q-0.40625 1.484375 -1.484375 2.3125q-1.078125 0.8125 -2.765625 0.8125q-2.125 0 -3.375 -1.296875q-1.234375 -1.3125 -1.234375 -3.671875q0 -2.453125 1.25 -3.796875q1.265625 -1.34375 3.265625 -1.34375q1.9375 0 3.15625 1.328125q1.234375 1.3125 1.234375 3.703125q0 0.15625 0 0.4375l-7.21875 0q0.09375 1.59375 0.90625 2.453125q0.8125 0.84375 2.015625 0.84375q0.90625 0 1.546875 -0.46875q0.640625 -0.484375 1.015625 -1.515625zm-5.390625 -2.65625l5.40625 0q-0.109375 -1.21875 -0.625 -1.828125q-0.78125 -0.953125 -2.03125 -0.953125q-1.125 0 -1.90625 0.765625q-0.765625 0.75 -0.84375 2.015625zm15.453827 4.578125q-0.921875 0.765625 -1.765625 1.09375q-0.828125 0.3125 -1.796875 0.3125q-1.59375 0 -2.453125 -0.78125q-0.859375 -0.78125 -0.859375 -1.984375q0 -0.71875 0.328125 -1.296875q0.328125 -0.59375 0.84375 -0.9375q0.53125 -0.359375 1.1875 -0.546875q0.46875 -0.125 1.453125 -0.25q1.984375 -0.234375 2.921875 -0.5625q0.015625 -0.34375 0.015625 -0.421875q0 -1.0 -0.46875 -1.421875q-0.625 -0.546875 -1.875 -0.546875q-1.15625 0 -1.703125 0.40625q-0.546875 0.40625 -0.8125 1.421875l-1.609375 -0.21875q0.21875 -1.015625 0.71875 -1.640625q0.5 -0.640625 1.453125 -0.984375q0.953125 -0.34375 2.1875 -0.34375q1.25 0 2.015625 0.296875q0.78125 0.28125 1.140625 0.734375q0.375 0.4375 0.515625 1.109375q0.078125 0.421875 0.078125 1.515625l0 2.1875q0 2.28125 0.109375 2.890625q0.109375 0.59375 0.40625 1.15625l-1.703125 0q-0.265625 -0.515625 -0.328125 -1.1875zm-0.140625 -3.671875q-0.890625 0.375 -2.671875 0.625q-1.015625 0.140625 -1.4375 0.328125q-0.421875 0.1875 -0.65625 0.53125q-0.21875 0.34375 -0.21875 0.78125q0 0.65625 0.5 1.09375q0.5 0.4375 1.453125 0.4375q0.9375 0 1.671875 -0.40625q0.75 -0.421875 1.09375 -1.140625q0.265625 -0.5625 0.265625 -1.640625l0 -0.609375zm4.2038574 8.5625l0 -13.375l1.484375 0l0 1.25q0.53125 -0.734375 1.1875 -1.09375q0.671875 -0.375 1.625 -0.375q1.234375 0 2.171875 0.640625q0.953125 0.625 1.4375 1.796875q0.484375 1.15625 0.484375 2.546875q0 1.484375 -0.53125 2.671875q-0.53125 1.1875 -1.546875 1.828125q-1.015625 0.625 -2.140625 0.625q-0.8125 0 -1.46875 -0.34375q-0.65625 -0.34375 -1.0625 -0.875l0 4.703125l-1.640625 0zm1.484375 -8.484375q0 1.859375 0.75 2.765625q0.765625 0.890625 1.828125 0.890625q1.09375 0 1.875 -0.921875q0.78125 -0.9375 0.78125 -2.875q0 -1.84375 -0.765625 -2.765625q-0.75 -0.921875 -1.8125 -0.921875q-1.046875 0 -1.859375 0.984375q-0.796875 0.96875 -0.796875 2.84375z" fill-rule="nonzero"/></g></svg>