<svg version="1.1" viewBox="0.0 0.0 368.257217847769 186.2782152230971" fill="none" stroke="none" stroke-linecap="square" stroke-miterlimit="10" xmlns:xlink="http://www.w3.org/1999/xlink" xmlns="http://www.w3.org/2000/svg"><clipPath id="p.0"><path d="m0 0l368.25723 0l0 186.27821l-368.25723 0l0 -186.27821z" clip-rule="nonzero"/></clipPath><g clip-path="url(#p.0)"><path fill="#000000" fill-opacity="0.0" d="m0 0l368.25723 0l0 186.27821l-368.25723 0z" fill-rule="evenodd"/><path fill="#000000" fill-opacity="0.0" d="m102.580055 138.38058l0 0" fill-rule="evenodd"/><path stroke="#000000" stroke-width="1.0" stroke-linejoin="round" stroke-linecap="butt" d="m102.580055 138.38058l0 0" fill-rule="evenodd"/><path fill="#000000" fill-opacity="0.0" d="m102.580055 138.38058l0 0" fill-rule="evenodd"/><path stroke="#000000" stroke-width="1.0" stroke-linejoin="round" stroke-linecap="butt" d="m102.580055 138.38058l0 0" fill-rule="evenodd"/><path fill="#d9d9d9" d="m54.61155 114.56956l95.937004 0l0 23.811028l-95.937004 0z" fill-rule="evenodd"/><path stroke="#000000" stroke-width="1.0" stroke-linejoin="round" stroke-linecap="butt" d="m54.61155 114.56956l95.937004 0l0 23.811028l-95.937004 0z" fill-rule="evenodd"/><path fill="#000000" fill-opacity="0.0" d="m102.580055 138.38058l0 -5.763794" fill-rule="evenodd"/><path stroke="#000000" stroke-width="1.0" stroke-linejoin="round" stroke-linecap="butt" d="m102.580055 138.38058l0 -5.763794" fill-rule="evenodd"/><path fill="#000000" fill-opacity="0.0" d="m126.580055 138.38058l0 -5.763794" fill-rule="evenodd"/><path stroke="#000000" stroke-width="1.0" stroke-linejoin="round" stroke-linecap="butt" d="m126.580055 138.38058l0 -5.763794" fill-rule="evenodd"/><path fill="#000000" fill-opacity="0.0" d="m78.580055 138.38058l0 -5.763794" fill-rule="evenodd"/><path stroke="#000000" stroke-width="1.0" stroke-linejoin="round" stroke-linecap="butt" d="m78.580055 138.38058l0 -5.763794" fill-rule="evenodd"/><path fill="#000000" fill-opacity="0.0" d="m138.6751 138.38058l0 -5.763794" fill-rule="evenodd"/><path stroke="#000000" stroke-width="1.0" stroke-linejoin="round" stroke-linecap="butt" d="m138.6751 138.38058l0 -5.763794" fill-rule="evenodd"/><path fill="#000000" fill-opacity="0.0" d="m90.675095 138.38058l0 -5.763794" fill-rule="evenodd"/><path stroke="#000000" stroke-width="1.0" stroke-linejoin="round" stroke-linecap="butt" d="m90.675095 138.38058l0 -5.763794" fill-rule="evenodd"/><path fill="#000000" fill-opacity="0.0" d="m114.675095 138.38058l0 -5.763794" fill-rule="evenodd"/><path stroke="#000000" stroke-width="1.0" stroke-linejoin="round" stroke-linecap="butt" d="m114.675095 138.38058l0 -5.763794" fill-rule="evenodd"/><path fill="#000000" fill-opacity="0.0" d="m66.675095 138.38058l0 -5.763794" fill-rule="evenodd"/><path stroke="#000000" stroke-width="1.0" stroke-linejoin="round" stroke-linecap="butt" d="m66.675095 138.38058l0 -5.763794" fill-rule="evenodd"/><path fill="#000000" fill-opacity="0.0" d="m294.58005 90.01473l0 0" fill-rule="evenodd"/><path stroke="#000000" stroke-width="1.0" stroke-linejoin="round" stroke-linecap="butt" d="m294.58005 90.01473l0 0" fill-rule="evenodd"/><path fill="#000000" fill-opacity="0.0" d="m294.58005 90.01473l0 0" fill-rule="evenodd"/><path stroke="#000000" stroke-width="1.0" stroke-linejoin="round" stroke-linecap="butt" d="m294.58005 90.01473l0 0" fill-rule="evenodd"/><path fill="#000000" fill-opacity="0.0" d="m306.67508 90.01473l0 -5.7637863" fill-rule="evenodd"/><path stroke="#000000" stroke-width="1.0" stroke-linejoin="round" stroke-linecap="butt" d="m306.67508 90.01473l0 -5.7637863" fill-rule="evenodd"/><path fill="#000000" fill-opacity="0.0" d="m282.67508 106.01473l0 -5.7637863" fill-rule="evenodd"/><path stroke="#000000" stroke-width="1.0" stroke-linejoin="round" stroke-linecap="butt" d="m282.67508 106.01473l0 -5.7637863" fill-rule="evenodd"/><path fill="#d9d9d9" d="m246.61154 66.203705l95.93701 0l0 23.811028l-95.93701 0z" fill-rule="evenodd"/><path stroke="#000000" stroke-width="1.0" stroke-linejoin="round" stroke-linecap="butt" d="m246.61154 66.203705l95.93701 0l0 23.811028l-95.93701 0z" fill-rule="evenodd"/><path fill="#000000" fill-opacity="0.0" d="m294.58005 90.01473l0 -5.7637863" fill-rule="evenodd"/><path stroke="#000000" stroke-width="1.0" stroke-linejoin="round" stroke-linecap="butt" d="m294.58005 90.01473l0 -5.7637863" fill-rule="evenodd"/><path fill="#000000" fill-opacity="0.0" d="m318.58005 90.01473l0 -5.7637863" fill-rule="evenodd"/><path stroke="#000000" stroke-width="1.0" stroke-linejoin="round" stroke-linecap="butt" d="m318.58005 90.01473l0 -5.7637863" fill-rule="evenodd"/><path fill="#000000" fill-opacity="0.0" d="m270.58005 90.01473l0 -5.7637863" fill-rule="evenodd"/><path stroke="#000000" stroke-width="1.0" stroke-linejoin="round" stroke-linecap="butt" d="m270.58005 90.01473l0 -5.7637863" fill-rule="evenodd"/><path fill="#000000" fill-opacity="0.0" d="m330.67508 90.01473l0 -5.7637863" fill-rule="evenodd"/><path stroke="#000000" stroke-width="1.0" stroke-linejoin="round" stroke-linecap="butt" d="m330.67508 90.01473l0 -5.7637863" fill-rule="evenodd"/><path fill="#000000" fill-opacity="0.0" d="m282.67508 90.01473l0 -5.7637863" fill-rule="evenodd"/><path stroke="#000000" stroke-width="1.0" stroke-linejoin="round" stroke-linecap="butt" d="m282.67508 90.01473l0 -5.7637863" fill-rule="evenodd"/><path fill="#000000" fill-opacity="0.0" d="m306.67508 90.01473l0 -5.7637863" fill-rule="evenodd"/><path stroke="#000000" stroke-width="1.0" stroke-linejoin="round" stroke-linecap="butt" d="m306.67508 90.01473l0 -5.7637863" fill-rule="evenodd"/><path fill="#000000" fill-opacity="0.0" d="m258.67508 90.01473l0 -5.7637863" fill-rule="evenodd"/><path stroke="#000000" stroke-width="1.0" stroke-linejoin="round" stroke-linecap="butt" d="m258.67508 90.01473l0 -5.7637863" fill-rule="evenodd"/><path fill="#000000" fill-opacity="0.0" d="m-13.632545 42.75853l68.25197 0l0 42.015747l-68.25197 0z" fill-rule="evenodd"/><path fill="#000000" fill-opacity="0.0" d="m-27.608013 114.36518l82.267715 0l0 23.811028l-82.267715 0z" fill-rule="evenodd"/><path fill="#000000" d="m36.581577 124.18694l-1.140625 7.8437576l-1.640625 0l-1.140625 -3.28125l-0.21875 -0.7968826l-0.265625 0.8437576l-1.078125 3.234375l-1.609375 0l-1.125 -7.8437576l1.328125 0l0.65625 5.3281326l0.140625 1.1875l0.328125 -1.046875l1.140625 -3.5156326l0.984375 0l1.21875 3.4687576l0.359375 1.046875l0.109375 -1.109375l0.609375 -5.3593826l1.34375 0zm8.59375 7.8437576l-1.875 0l-3.65625 -4.2031326l0 4.2031326l-1.359375 0l0 -11.046883l1.359375 0l0 6.78125l3.53125 -3.578125l1.796875 0l-3.6875 3.609375l3.890625 4.2343826z" fill-rule="nonzero"/><path fill="#000000" fill-opacity="0.0" d="m54.48819 29.38845l0 133.03937" fill-rule="evenodd"/><path stroke="#000000" stroke-width="1.0" stroke-linejoin="round" stroke-linecap="butt" d="m54.48819 29.38845l0 133.03937" fill-rule="evenodd"/><path fill="#000000" fill-opacity="0.0" d="m150.48819 29.38845l0 133.03937" fill-rule="evenodd"/><path stroke="#000000" stroke-width="1.0" stroke-linejoin="round" stroke-linecap="butt" d="m150.48819 29.38845l0 133.03937" fill-rule="evenodd"/><path fill="#000000" fill-opacity="0.0" d="m61.553806 0.18110237l80.346466 0l0 42.015747l-80.346466 0z" fill-rule="evenodd"/><path fill="#000000" d="m79.24136 23.612103l1.65625 -0.140625q0.125 1.0 0.546875 1.640625q0.4375 0.640625 1.34375 1.046875q0.921875 0.390625 2.0625 0.390625q1.0 0 1.78125 -0.296875q0.78125 -0.296875 1.15625 -0.8125q0.375 -0.53125 0.375 -1.15625q0 -0.625 -0.375 -1.09375q-0.359375 -0.46875 -1.1875 -0.796875q-0.546875 -0.203125 -2.390625 -0.640625q-1.828125 -0.453125 -2.5625 -0.84375q-0.96875 -0.5 -1.4375 -1.234375q-0.46875 -0.75 -0.46875 -1.671875q0 -1.0 0.578125 -1.875q0.578125 -0.890625 1.671875 -1.34375q1.109375 -0.453125 2.453125 -0.453125q1.484375 0 2.609375 0.484375q1.140625 0.46875 1.75 1.40625q0.609375 0.921875 0.65625 2.09375l-1.6875 0.125q-0.140625 -1.265625 -0.9375 -1.90625q-0.78125 -0.65625 -2.3125 -0.65625q-1.609375 0 -2.34375 0.59375q-0.734375 0.59375 -0.734375 1.421875q0 0.71875 0.53125 1.171875q0.5 0.46875 2.65625 0.96875q2.15625 0.484375 2.953125 0.84375q1.171875 0.53125 1.71875 1.359375q0.5625 0.828125 0.5625 1.90625q0 1.0625 -0.609375 2.015625q-0.609375 0.9375 -1.75 1.46875q-1.140625 0.515625 -2.578125 0.515625q-1.8125 0 -3.046875 -0.53125q-1.21875 -0.53125 -1.921875 -1.59375q-0.6875 -1.0625 -0.71875 -2.40625zm16.412323 2.828125l0.234375 1.453125q-0.6875 0.140625 -1.234375 0.140625q-0.890625 0 -1.390625 -0.28125q-0.484375 -0.28125 -0.6875 -0.734375q-0.203125 -0.46875 -0.203125 -1.9375l0 -5.578125l-1.203125 0l0 -1.265625l1.203125 0l0 -2.390625l1.625 -0.984375l0 3.375l1.65625 0l0 1.265625l-1.65625 0l0 5.671875q0 0.6875 0.078125 0.890625q0.09375 0.203125 0.28125 0.328125q0.203125 0.109375 0.578125 0.109375q0.265625 0 0.71875 -0.0625zm7.917679 0.28125q-0.921875 0.765625 -1.765625 1.09375q-0.828125 0.3125 -1.796875 0.3125q-1.59375 0 -2.453125 -0.78125q-0.859375 -0.78125 -0.859375 -1.984375q0 -0.71875 0.328125 -1.296875q0.328125 -0.59375 0.84375 -0.9375q0.53125 -0.359375 1.1875 -0.546875q0.46875 -0.125 1.453125 -0.25q1.984375 -0.234375 2.921875 -0.5625q0.015625 -0.34375 0.015625 -0.421875q0 -1.0 -0.46875 -1.421875q-0.625 -0.546875 -1.875 -0.546875q-1.15625 0 -1.703125 0.40625q-0.546875 0.40625 -0.8125 1.421875l-1.609375 -0.21875q0.21875 -1.015625 0.71875 -1.640625q0.5 -0.640625 1.453125 -0.984375q0.953125 -0.34375 2.1875 -0.34375q1.25 0 2.015625 0.296875q0.78125 0.28125 1.140625 0.734375q0.375 0.4375 0.515625 1.109375q0.078125 0.421875 0.078125 1.515625l0 2.1875q0 2.28125 0.109375 2.890625q0.109375 0.59375 0.40625 1.15625l-1.703125 0q-0.265625 -0.515625 -0.328125 -1.1875zm-0.140625 -3.671875q-0.890625 0.375 -2.671875 0.625q-1.015625 0.140625 -1.4375 0.328125q-0.421875 0.1875 -0.65625 0.53125q-0.21875 0.34375 -0.21875 0.78125q0 0.65625 0.5 1.09375q0.5 0.4375 1.453125 0.4375q0.9375 0 1.671875 -0.40625q0.75 -0.421875 1.09375 -1.140625q0.265625 -0.5625 0.265625 -1.640625l0 -0.609375zm10.516342 1.3125l1.609375 0.21875q-0.265625 1.65625 -1.359375 2.609375q-1.078125 0.9375 -2.671875 0.9375q-1.984375 0 -3.1875 -1.296875q-1.203125 -1.296875 -1.203125 -3.71875q0 -1.578125 0.515625 -2.75q0.515625 -1.171875 1.578125 -1.75q1.0625 -0.59375 2.3125 -0.59375q1.578125 0 2.578125 0.796875q1.0 0.796875 1.28125 2.265625l-1.59375 0.234375q-0.234375 -0.96875 -0.8125 -1.453125q-0.578125 -0.5 -1.390625 -0.5q-1.234375 0 -2.015625 0.890625q-0.78125 0.890625 -0.78125 2.8125q0 1.953125 0.75 2.84375q0.75 0.875 1.953125 0.875q0.96875 0 1.609375 -0.59375q0.65625 -0.59375 0.828125 -1.828125zm3.015625 3.546875l0 -13.359375l1.640625 0l0 7.625l3.890625 -3.9375l2.109375 0l-3.6875 3.59375l4.0625 6.078125l-2.015625 0l-3.203125 -4.953125l-1.15625 1.125l0 3.828125l-1.640625 0z" fill-rule="nonzero"/><path fill="#000000" fill-opacity="0.0" d="m253.5538 0.18110237l80.346466 0l0 42.015747l-80.346466 0z" fill-rule="evenodd"/><path fill="#000000" d="m272.92697 27.908978l0 -13.359375l1.765625 0l0 5.484375l6.9375 0l0 -5.484375l1.765625 0l0 13.359375l-1.765625 0l0 -6.296875l-6.9375 0l0 6.296875l-1.765625 0zm19.832336 -3.109375l1.6875 0.203125q-0.40625 1.484375 -1.484375 2.3125q-1.078125 0.8125 -2.765625 0.8125q-2.125 0 -3.375 -1.296875q-1.234375 -1.3125 -1.234375 -3.671875q0 -2.453125 1.25 -3.796875q1.265625 -1.34375 3.265625 -1.34375q1.9375 0 3.15625 1.328125q1.234375 1.3125 1.234375 3.703125q0 0.15625 0 0.4375l-7.21875 0q0.09375 1.59375 0.90625 2.453125q0.8125 0.84375 2.015625 0.84375q0.90625 0 1.546875 -0.46875q0.640625 -0.484375 1.015625 -1.515625zm-5.390625 -2.65625l5.40625 0q-0.109375 -1.21875 -0.625 -1.828125q-0.78125 -0.953125 -2.03125 -0.953125q-1.125 0 -1.90625 0.765625q-0.765625 0.75 -0.84375 2.015625zm15.453827 4.578125q-0.921875 0.765625 -1.765625 1.09375q-0.828125 0.3125 -1.796875 0.3125q-1.59375 0 -2.453125 -0.78125q-0.859375 -0.78125 -0.859375 -1.984375q0 -0.71875 0.328125 -1.296875q0.328125 -0.59375 0.84375 -0.9375q0.53125 -0.359375 1.1875 -0.546875q0.46875 -0.125 1.453125 -0.25q1.984375 -0.234375 2.921875 -0.5625q0.015625 -0.34375 0.015625 -0.421875q0 -1.0 -0.46875 -1.421875q-0.625 -0.546875 -1.875 -0.546875q-1.15625 0 -1.703125 0.40625q-0.546875 0.40625 -0.8125 1.421875l-1.609375 -0.21875q0.21875 -1.015625 0.71875 -1.640625q0.5 -0.640625 1.453125 -0.984375q0.953125 -0.34375 2.1875 -0.34375q1.25 0 2.015625 0.296875q0.78125 0.28125 1.140625 0.734375q0.375 0.4375 0.515625 1.109375q0.078125 0.421875 0.078125 1.515625l0 2.1875q0 2.28125 0.109375 2.890625q0.109375 0.59375 0.40625 1.15625l-1.703125 0q-0.265625 -0.515625 -0.328125 -1.1875zm-0.140625 -3.671875q-0.890625 0.375 -2.671875 0.625q-1.015625 0.140625 -1.4375 0.328125q-0.421875 0.1875 -0.65625 0.53125q-0.21875 0.34375 -0.21875 0.78125q0 0.65625 0.5 1.09375q0.5 0.4375 1.453125 0.4375q0.9375 0 1.671875 -0.40625q0.75 -0.421875 1.09375 -1.140625q0.265625 -0.5625 0.265625 -1.640625l0 -0.609375zm4.2038574 8.5625l0 -13.375l1.484375 0l0 1.25q0.53125 -0.734375 1.1875 -1.09375q0.671875 -0.375 1.625 -0.375q1.234375 0 2.171875 0.640625q0.953125 0.625 1.4375 1.796875q0.484375 1.15625 0.484375 2.546875q0 1.484375 -0.53125 2.671875q-0.53125 1.1875 -1.546875 1.828125q-1.015625 0.625 -2.140625 0.625q-0.8125 0 -1.46875 -0.34375q-0.65625 -0.34375 -1.0625 -0.875l0 4.703125l-1.640625 0zm1.484375 -8.484375q0 1.859375 0.75 2.765625q0.765625 0.890625 1.828125 0.890625q1.09375 0 1.875 -0.921875q0.78125 -0.9375 0.78125 -2.875q0 -1.84375 -0.765625 -2.765625q-0.75 -0.921875 -1.8125 -0.921875q-1.046875 0 -1.859375 0.984375q-0.796875 0.96875 -0.796875 2.84375z" fill-rule="nonzero"/><path fill="#d9d9d9" d="m54.61155 82.274796l95.937004 0l0 23.81102l-95.937004 0z" fill-rule="evenodd"/><path stroke="#000000" stroke-width="1.0" stroke-linejoin="round" stroke-linecap="butt" d="m54.61155 82.274796l95.937004 0l0 23.81102l-95.937004 0z" fill-rule="evenodd"/><path fill="#000000" fill-opacity="0.0" d="m102.580055 106.085815l0 -5.7637787" fill-rule="evenodd"/><path stroke="#000000" stroke-width="1.0" stroke-linejoin="round" stroke-linecap="butt" d="m102.580055 106.085815l0 -5.7637787" fill-rule="evenodd"/><path fill="#000000" fill-opacity="0.0" d="m126.580055 106.085815l0 -5.7637787" fill-rule="evenodd"/><path stroke="#000000" stroke-width="1.0" stroke-linejoin="round" stroke-linecap="butt" d="m126.580055 106.085815l0 -5.7637787" fill-rule="evenodd"/><path fill="#000000" fill-opacity="0.0" d="m78.580055 106.085815l0 -5.7637787" fill-rule="evenodd"/><path stroke="#000000" stroke-width="1.0" stroke-linejoin="round" stroke-linecap="butt" d="m78.580055 106.085815l0 -5.7637787" fill-rule="evenodd"/><path fill="#000000" fill-opacity="0.0" d="m138.6751 106.085815l0 -5.7637787" fill-rule="evenodd"/><path stroke="#000000" stroke-width="1.0" stroke-linejoin="round" stroke-linecap="butt" d="m138.6751 106.085815l0 -5.7637787" fill-rule="evenodd"/><path fill="#000000" fill-opacity="0.0" d="m90.675095 106.085815l0 -5.7637787" fill-rule="evenodd"/><path stroke="#000000" stroke-width="1.0" stroke-linejoin="round" stroke-linecap="butt" d="m90.675095 106.085815l0 -5.7637787" fill-rule="evenodd"/><path fill="#000000" fill-opacity="0.0" d="m114.675095 106.085815l0 -5.7637787" fill-rule="evenodd"/><path stroke="#000000" stroke-width="1.0" stroke-linejoin="round" stroke-linecap="butt" d="m114.675095 106.085815l0 -5.7637787" fill-rule="evenodd"/><path fill="#000000" fill-opacity="0.0" d="m66.675095 106.085815l0 -5.7637787" fill-rule="evenodd"/><path stroke="#000000" stroke-width="1.0" stroke-linejoin="round" stroke-linecap="butt" d="m66.675095 106.085815l0 -5.7637787" fill-rule="evenodd"/><path fill="#d9d9d9" d="m54.61155 50.569553l95.937004 0l0 23.811024l-95.937004 0z" fill-rule="evenodd"/><path stroke="#000000" stroke-width="1.0" stroke-linejoin="round" stroke-linecap="butt" d="m54.61155 50.569553l95.937004 0l0 23.811024l-95.937004 0z" fill-rule="evenodd"/><path fill="#000000" fill-opacity="0.0" d="m102.580055 74.38058l0 -5.7637787" fill-rule="evenodd"/><path stroke="#000000" stroke-width="1.0" stroke-linejoin="round" stroke-linecap="butt" d="m102.580055 74.38058l0 -5.7637787" fill-rule="evenodd"/><path fill="#000000" fill-opacity="0.0" d="m126.580055 74.38058l0 -5.7637787" fill-rule="evenodd"/><path stroke="#000000" stroke-width="1.0" stroke-linejoin="round" stroke-linecap="butt" d="m126.580055 74.38058l0 -5.7637787" fill-rule="evenodd"/><path fill="#000000" fill-opacity="0.0" d="m78.580055 74.38058l0 -5.7637787" fill-rule="evenodd"/><path stroke="#000000" stroke-width="1.0" stroke-linejoin="round" stroke-linecap="butt" d="m78.580055 74.38058l0 -5.7637787" fill-rule="evenodd"/><path fill="#000000" fill-opacity="0.0" d="m138.6751 74.38058l0 -5.7637787" fill-rule="evenodd"/><path stroke="#000000" stroke-width="1.0" stroke-linejoin="round" stroke-linecap="butt" d="m138.6751 74.38058l0 -5.7637787" fill-rule="evenodd"/><path fill="#000000" fill-opacity="0.0" d="m90.675095 74.38058l0 -5.7637787" fill-rule="evenodd"/><path stroke="#000000" stroke-width="1.0" stroke-linejoin="round" stroke-linecap="butt" d="m90.675095 74.38058l0 -5.7637787" fill-rule="evenodd"/><path fill="#000000" fill-opacity="0.0" d="m114.675095 74.38058l0 -5.7637787" fill-rule="evenodd"/><path stroke="#000000" stroke-width="1.0" stroke-linejoin="round" stroke-linecap="butt" d="m114.675095 74.38058l0 -5.7637787" fill-rule="evenodd"/><path fill="#000000" fill-opacity="0.0" d="m66.675095 74.38058l0 -5.7637787" fill-rule="evenodd"/><path stroke="#000000" stroke-width="1.0" stroke-linejoin="round" stroke-linecap="butt" d="m66.675095 74.38058l0 -5.7637787" fill-rule="evenodd"/><path fill="#000000" fill-opacity="0.0" d="m-9.929858 50.668938l64.15748 0l0 24.0l-64.15748 0z" fill-rule="evenodd"/><path fill="#000000" d="m20.415123 60.585186l1.234375 0l0.046875 1.4375q0.6875 -0.828125 1.359375 -1.203125q0.6875 -0.375 1.375 -0.375q1.21875 0 1.84375 0.796875q0.625 0.78125 0.578125 2.328125l-1.375 0q0.03125 -1.03125 -0.296875 -1.484375q-0.328125 -0.46875 -0.953125 -0.46875q-0.265625 0 -0.546875 0.09375q-0.28125 0.09375 -0.578125 0.3125q-0.28125 0.21875 -0.609375 0.5625q-0.328125 0.328125 -0.703125 0.796875l0 5.046879l-1.375 0l0 -7.843754zm14.5625 7.546879q-0.53125 0.203125 -1.09375 0.296875q-0.546875 0.109375 -1.140625 0.109375q-1.859375 0 -2.875 -1.0q-1.0 -1.015625 -1.0 -2.953125q0 -0.9375038 0.28125 -1.6875038q0.296875 -0.765625 0.8125 -1.296875q0.53125 -0.546875 1.25 -0.828125q0.734375 -0.296875 1.609375 -0.296875q0.609375 0 1.140625 0.09375q0.53125 0.078125 1.015625 0.265625l0 1.296875q-0.5 -0.265625 -1.03125 -0.375q-0.53125 -0.125 -1.09375 -0.125q-0.515625 0 -0.984375 0.203125q-0.46875 0.1875 -0.828125 0.5625q-0.34375 0.375 -0.546875 0.921875q-0.203125 0.53125 -0.203125 1.2187538q0 1.421875 0.6875 2.125q0.703125 0.703125 1.921875 0.703125q0.5625 0 1.078125 -0.125q0.515625 -0.125 1.0 -0.375l0 1.265625zm9.25 0.296875l-6.421875 0l0 -1.265625l2.625 0l0 -7.453129l-2.4375 1.328125l-0.5 -1.15625l3.25 -1.71875l1.203125 0l0 9.000004l2.28125 0l0 1.265625z" fill-rule="nonzero"/><path fill="#d9d9d9" d="m246.61154 89.909386l95.93701 0l0 23.81102l-95.93701 0z" fill-rule="evenodd"/><path stroke="#000000" stroke-width="1.0" stroke-linejoin="round" stroke-linecap="butt" d="m246.61154 89.909386l95.93701 0l0 23.81102l-95.93701 0z" fill-rule="evenodd"/><path fill="#000000" fill-opacity="0.0" d="m294.58005 113.720406l0 -5.7637787" fill-rule="evenodd"/><path stroke="#000000" stroke-width="1.0" stroke-linejoin="round" stroke-linecap="butt" d="m294.58005 113.720406l0 -5.7637787" fill-rule="evenodd"/><path fill="#000000" fill-opacity="0.0" d="m318.58005 113.720406l0 -5.7637787" fill-rule="evenodd"/><path stroke="#000000" stroke-width="1.0" stroke-linejoin="round" stroke-linecap="butt" d="m318.58005 113.720406l0 -5.7637787" fill-rule="evenodd"/><path fill="#000000" fill-opacity="0.0" d="m270.58005 113.720406l0 -5.7637787" fill-rule="evenodd"/><path stroke="#000000" stroke-width="1.0" stroke-linejoin="round" stroke-linecap="butt" d="m270.58005 113.720406l0 -5.7637787" fill-rule="evenodd"/><path fill="#000000" fill-opacity="0.0" d="m330.67508 113.720406l0 -5.7637787" fill-rule="evenodd"/><path stroke="#000000" stroke-width="1.0" stroke-linejoin="round" stroke-linecap="butt" d="m330.67508 113.720406l0 -5.7637787" fill-rule="evenodd"/><path fill="#000000" fill-opacity="0.0" d="m282.67508 113.720406l0 -5.7637787" fill-rule="evenodd"/><path stroke="#000000" stroke-width="1.0" stroke-linejoin="round" stroke-linecap="butt" d="m282.67508 113.720406l0 -5.7637787" fill-rule="evenodd"/><path fill="#000000" fill-opacity="0.0" d="m306.67508 113.720406l0 -5.7637787" fill-rule="evenodd"/><path stroke="#000000" stroke-width="1.0" stroke-linejoin="round" stroke-linecap="butt" d="m306.67508 113.720406l0 -5.7637787" fill-rule="evenodd"/><path fill="#000000" fill-opacity="0.0" d="m258.67508 113.720406l0 -5.7637787" fill-rule="evenodd"/><path stroke="#000000" stroke-width="1.0" stroke-linejoin="round" stroke-linecap="butt" d="m258.67508 113.720406l0 -5.7637787" fill-rule="evenodd"/><path fill="#d9d9d9" d="m246.61154 113.32074l95.93701 0l0 23.81102l-95.93701 0z" fill-rule="evenodd"/><path stroke="#000000" stroke-width="1.0" stroke-linejoin="round" stroke-linecap="butt" d="m246.61154 113.32074l95.93701 0l0 23.81102l-95.93701 0z" fill-rule="evenodd"/><path fill="#000000" fill-opacity="0.0" d="m294.58005 137.13176l0 -5.7637787" fill-rule="evenodd"/><path stroke="#000000" stroke-width="1.0" stroke-linejoin="round" stroke-linecap="butt" d="m294.58005 137.13176l0 -5.7637787" fill-rule="evenodd"/><path fill="#000000" fill-opacity="0.0" d="m318.58005 137.13176l0 -5.7637787" fill-rule="evenodd"/><path stroke="#000000" stroke-width="1.0" stroke-linejoin="round" stroke-linecap="butt" d="m318.58005 137.13176l0 -5.7637787" fill-rule="evenodd"/><path fill="#000000" fill-opacity="0.0" d="m270.58005 137.13176l0 -5.7637787" fill-rule="evenodd"/><path stroke="#000000" stroke-width="1.0" stroke-linejoin="round" stroke-linecap="butt" d="m270.58005 137.13176l0 -5.7637787" fill-rule="evenodd"/><path fill="#000000" fill-opacity="0.0" d="m330.67508 137.13176l0 -5.7637787" fill-rule="evenodd"/><path stroke="#000000" stroke-width="1.0" stroke-linejoin="round" stroke-linecap="butt" d="m330.67508 137.13176l0 -5.7637787" fill-rule="evenodd"/><path fill="#000000" fill-opacity="0.0" d="m282.67508 137.13176l0 -5.7637787" fill-rule="evenodd"/><path stroke="#000000" stroke-width="1.0" stroke-linejoin="round" stroke-linecap="butt" d="m282.67508 137.13176l0 -5.7637787" fill-rule="evenodd"/><path fill="#000000" fill-opacity="0.0" d="m306.67508 137.13176l0 -5.7637787" fill-rule="evenodd"/><path stroke="#000000" stroke-width="1.0" stroke-linejoin="round" stroke-linecap="butt" d="m306.67508 137.13176l0 -5.7637787" fill-rule="evenodd"/><path fill="#000000" fill-opacity="0.0" d="m258.67508 137.13176l0 -5.7637787" fill-rule="evenodd"/><path stroke="#000000" stroke-width="1.0" stroke-linejoin="round" stroke-linecap="butt" d="m258.67508 137.13176l0 -5.7637787" fill-rule="evenodd"/><path fill="#000000" fill-opacity="0.0" d="m99.93904 124.207466c36.67003 0 55.0054 -12.20472 73.34004 -24.409447c18.334656 -12.20472 36.668564 -24.409447 73.33711 -24.409447" fill-rule="evenodd"/><path stroke="#000000" stroke-width="1.0" stroke-linejoin="round" stroke-linecap="butt" stroke-dasharray="4.0,3.0" d="m103.72877 124.162445l0.4247055 -0.010108948c0.27550507 -0.00730896 0.54994965 -0.015327454 0.8233185 -0.024055481c0.5467377 -0.017463684 1.0892181 -0.037757874 1.6274872 -0.06085205c2.1531143 -0.09237671 4.23909 -0.22943878 6.2623825 -0.40821838c4.0466156 -0.3575592 7.8425446 -0.8819809 11.4236145 -1.5494232c7.1621475 -1.3348923 13.464836 -3.2418823 19.194557 -5.530266c11.459427 -4.5767746 20.626938 -10.679138 29.794266 -16.781494c9.167328 -6.1023636 18.334457 -12.204727 29.79332 -16.781502c5.7294617 -2.2883835 12.03183 -4.1953735 19.193619 -5.530266c3.5809174 -0.6674423 7.376663 -1.191864 11.42308 -1.5494232c2.0232086 -0.1787796 4.109085 -0.31584167 6.2621155 -0.40821838c0.5382538 -0.023094177 1.080719 -0.043388367 1.6274261 -0.06084442c0.2733612 -0.008735657 0.54777527 -0.01675415 0.82328796 -0.024055481l0.7873535 -0.018753052" fill-rule="evenodd"/><path fill="#000000" stroke="#000000" stroke-width="1.0" stroke-linecap="butt" d="m100.439 124.20153c-0.010795593 -0.90843964 0.71689606 -1.6536331 1.6253357 -1.6644287c0.90844727 -0.010795593 1.6536407 0.71689606 1.6644287 1.6253433c0.010795593 0.90843964 -0.71689606 1.6536331 -1.6253357 1.6644287c-0.90844727 0.010787964 -1.6536331 -0.71689606 -1.6644287 -1.6253433z" fill-rule="nonzero"/><path fill="#000000" stroke="#000000" stroke-width="1.0" stroke-linecap="butt" d="m243.18932 75.424965l-1.1125793 1.136467l3.077652 -1.1573334l-3.1015472 -1.091713z" fill-rule="evenodd"/><path fill="#000000" fill-opacity="0.0" d="m99.97853 60.632545c36.659943 0 54.989197 3.6850433 73.3199 7.370079c18.330704 3.6850433 36.662888 7.370079 73.32576 7.370079" fill-rule="evenodd"/><path stroke="#000000" stroke-width="1.0" stroke-linejoin="round" stroke-linecap="butt" d="m103.76851 60.64648l1.2463913 0.009975433c0.5465851 0.0052757263 1.0889053 0.011398315 1.627037 0.018371582c2.1525116 0.027893066 4.237892 0.06927872 6.2606354 0.12325668c4.045456 0.10795975 7.840309 0.26630402 11.420357 0.46782684c7.1600876 0.40305328 13.460945 0.9788399 19.189018 1.6697845c11.456146 1.3818932 20.621124 3.2244072 29.786484 5.066929c9.1653595 1.8425217 18.331085 3.6850433 29.7883 5.0669327c5.7286377 0.69094086 12.030151 1.2667313 19.190903 1.6697769c3.5804138 0.20153046 7.375595 0.3598709 11.4214325 0.46782684c2.0229187 0.053985596 4.10849 0.09536743 6.2611694 0.1232605c0.53819275 0.0069732666 1.0805511 0.01309967 1.6271973 0.018371582l1.6097107 0.012886047" fill-rule="evenodd"/><path fill="#000000" stroke="#000000" stroke-width="1.0" stroke-linecap="butt" d="m100.47853 60.634384c0.0033340454 -0.9085007 0.7425308 -1.6422806 1.6510315 -1.6389389c0.9085083 0.00333786 1.6422806 0.74253464 1.6389465 1.6510353c-0.0033416748 0.9085045 -0.74253845 1.6422806 -1.6510391 1.6389427c-0.9085007 -0.0033416748 -1.6422806 -0.74253845 -1.6389389 -1.6510391z" fill-rule="nonzero"/><path fill="#000000" stroke="#000000" stroke-width="1.0" stroke-linecap="butt" d="m243.19713 75.36167l-1.1281891 1.120964l3.0933685 -1.1146393l-3.0861359 -1.1345139z" fill-rule="evenodd"/><path fill="#000000" fill-opacity="0.0" d="m246.61942 113.510735l95.93701 0l0 18.551186l-95.93701 0z" fill-rule="evenodd"/><path fill="#000000" d="m294.2715 125.41883l-1.296875 0l0 1.6875l-1.046875 0l0 -1.6875l-3.6875 0l0 -0.90625l3.265625 -5.0625l1.46875 0l0 5.0625l1.296875 0l0 0.90625zm-2.34375 -4.984375l-2.671875 4.078125l2.671875 0l0 -4.078125zm8.566406 6.671875l-5.046875 0l0 -0.921875l1.984375 -1.96875q0.484375 -0.46875 0.78125 -0.8125q0.3125 -0.359375 0.484375 -0.640625q0.171875 -0.296875 0.21875 -0.546875q0.0625 -0.265625 0.0625 -0.578125q0 -0.28125 -0.078125 -0.53125q-0.0625 -0.25 -0.234375 -0.4375q-0.15625 -0.203125 -0.40625 -0.3125q-0.25 -0.109375 -0.59375 -0.109375q-0.5 0 -0.90625 0.21875q-0.390625 0.21875 -0.71875 0.5625l-0.5625 -0.671875q0.4375 -0.46875 1.0 -0.734375q0.5625 -0.28125 1.3125 -0.28125q0.515625 0 0.921875 0.15625q0.421875 0.15625 0.71875 0.4375q0.3125 0.28125 0.484375 0.703125q0.171875 0.421875 0.171875 0.9375q0 0.4375 -0.125 0.8125q-0.109375 0.375 -0.359375 0.75q-0.234375 0.375 -0.59375 0.78125q-0.359375 0.390625 -0.84375 0.859375l-1.390625 1.359375l3.71875 0l0 0.96875z" fill-rule="nonzero"/><path fill="#000000" fill-opacity="0.0" d="m246.61942 66.09938l95.93701 0l0 18.551178l-95.93701 0z" fill-rule="evenodd"/><path fill="#000000" d="m273.79105 78.085594q0 0.3125 -0.109375 0.5625q-0.09375 0.25 -0.28125 0.4375q-0.1875 0.1875 -0.421875 0.328125q-0.234375 0.125 -0.515625 0.21875q-0.265625 0.09375 -0.5625 0.125q-0.28125 0.046875 -0.5625 0.046875q-0.59375 0 -1.09375 -0.0625q-0.5 -0.046875 -0.984375 -0.171875l0 -0.9375q0.515625 0.15625 1.03125 0.234375q0.515625 0.078125 1.015625 0.078125q0.734375 0 1.078125 -0.203125q0.359375 -0.203125 0.359375 -0.578125q0 -0.15625 -0.0625 -0.28125q-0.046875 -0.125 -0.203125 -0.234375q-0.140625 -0.109375 -0.453125 -0.234375q-0.3125 -0.125 -0.84375 -0.28125q-0.390625 -0.125 -0.734375 -0.265625q-0.328125 -0.15625 -0.578125 -0.359375q-0.25 -0.203125 -0.390625 -0.46875q-0.140625 -0.28125 -0.140625 -0.65625q0 -0.25 0.109375 -0.546875q0.125 -0.296875 0.390625 -0.546875q0.28125 -0.25 0.75 -0.40625q0.46875 -0.171875 1.171875 -0.171875q0.34375 0 0.765625 0.046875q0.421875 0.03125 0.875 0.125l0 0.90625q-0.46875 -0.125 -0.90625 -0.171875q-0.421875 -0.0625 -0.75 -0.0625q-0.375 0 -0.640625 0.0625q-0.25 0.0625 -0.421875 0.171875q-0.15625 0.09375 -0.234375 0.234375q-0.0625 0.125 -0.0625 0.28125q0 0.171875 0.0625 0.296875q0.0625 0.125 0.21875 0.25q0.171875 0.109375 0.46875 0.234375q0.296875 0.125 0.78125 0.265625q0.53125 0.15625 0.875 0.328125q0.359375 0.15625 0.578125 0.359375q0.234375 0.203125 0.328125 0.46875q0.09375 0.25 0.09375 0.578125zm6.6757812 1.53125q-0.34375 0.078125 -0.71875 0.109375q-0.359375 0.046875 -0.734375 0.046875q-1.109375 0 -1.65625 -0.5q-0.546875 -0.5 -0.546875 -1.53125l0 -3.078125l-1.640625 0l0 -0.859375l1.640625 0l0 -1.609375l1.015625 -0.265625l0 1.875l2.640625 0l0 0.859375l-2.640625 0l0 2.984375q0 0.640625 0.328125 0.953125q0.34375 0.3125 1.0 0.3125q0.28125 0 0.609375 -0.046875q0.34375 -0.046875 0.703125 -0.140625l0 0.890625zm2.0976562 -5.8125l0.9375 0l0.03125 1.09375q0.515625 -0.625 1.015625 -0.90625q0.515625 -0.28125 1.03125 -0.28125q0.921875 0 1.390625 0.59375q0.46875 0.578125 0.4375 1.75l-1.03125 0q0.015625 -0.765625 -0.234375 -1.109375q-0.234375 -0.359375 -0.703125 -0.359375q-0.203125 0 -0.421875 0.078125q-0.203125 0.0625 -0.421875 0.234375q-0.21875 0.15625 -0.46875 0.40625q-0.25 0.25 -0.53125 0.609375l0 3.78125l-1.03125 0l0 -5.890625zm11.488281 2.90625q0 0.6875 -0.203125 1.265625q-0.1875 0.5625 -0.546875 0.96875q-0.359375 0.40625 -0.890625 0.640625q-0.515625 0.21875 -1.1875 0.21875q-0.625 0 -1.125 -0.1875q-0.5 -0.203125 -0.859375 -0.578125q-0.34375 -0.390625 -0.53125 -0.953125q-0.171875 -0.5625 -0.171875 -1.296875q0 -0.6875 0.1875 -1.25q0.1875 -0.5625 0.546875 -0.96875q0.375 -0.40625 0.890625 -0.625q0.53125 -0.234375 1.1875 -0.234375q0.625 0 1.125 0.203125q0.515625 0.1875 0.859375 0.5625q0.34375 0.375 0.53125 0.9375q0.1875 0.5625 0.1875 1.296875zm-1.046875 0.046875q0 -0.546875 -0.125 -0.953125q-0.109375 -0.40625 -0.34375 -0.671875q-0.21875 -0.28125 -0.546875 -0.421875q-0.3125 -0.140625 -0.703125 -0.140625q-0.453125 0 -0.78125 0.1875q-0.328125 0.171875 -0.53125 0.46875q-0.203125 0.296875 -0.3125 0.703125q-0.09375 0.390625 -0.09375 0.828125q0 0.546875 0.125 0.953125q0.125 0.40625 0.34375 0.6875q0.21875 0.265625 0.53125 0.40625q0.328125 0.140625 0.71875 0.140625q0.453125 0 0.78125 -0.171875q0.328125 -0.1875 0.53125 -0.484375q0.21875 -0.3125 0.3125 -0.703125q0.09375 -0.390625 0.09375 -0.828125zm2.5195312 -2.953125l0.90625 0l0.046875 0.953125q0.25 -0.296875 0.484375 -0.5q0.25 -0.203125 0.484375 -0.328125q0.234375 -0.125 0.46875 -0.171875q0.234375 -0.046875 0.5 -0.046875q0.90625 0 1.375 0.53125q0.46875 0.53125 0.46875 1.609375l0 3.84375l-1.03125 0l0 -3.75q0 -0.703125 -0.265625 -1.03125q-0.25 -0.328125 -0.75 -0.328125q-0.1875 0 -0.375 0.0625q-0.171875 0.046875 -0.375 0.1875q-0.1875 0.140625 -0.421875 0.375q-0.21875 0.234375 -0.5 0.578125l0 3.90625l-1.015625 0l0 -5.890625zm10.832031 0.84375q0.171875 0.203125 0.25 0.484375q0.09375 0.265625 0.09375 0.578125q0 0.453125 -0.171875 0.84375q-0.15625 0.375 -0.46875 0.640625q-0.296875 0.265625 -0.71875 0.421875q-0.421875 0.140625 -0.9375 0.140625q-0.375 0 -0.703125 -0.078125q-0.3125 -0.078125 -0.5 -0.1875q-0.109375 0.15625 -0.1875 0.3125q-0.078125 0.140625 -0.078125 0.3125q0 0.234375 0.21875 0.375q0.21875 0.140625 0.5625 0.15625l1.546875 0.0625q0.4375 0.015625 0.8125 0.109375q0.375 0.09375 0.640625 0.28125q0.265625 0.1875 0.40625 0.46875q0.15625 0.28125 0.15625 0.640625q0 0.390625 -0.171875 0.734375q-0.171875 0.359375 -0.53125 0.625q-0.34375 0.265625 -0.890625 0.421875q-0.546875 0.171875 -1.296875 0.171875q-0.71875 0 -1.21875 -0.125q-0.5 -0.109375 -0.828125 -0.3125q-0.3125 -0.203125 -0.46875 -0.484375q-0.140625 -0.28125 -0.140625 -0.609375q0 -0.421875 0.203125 -0.75q0.203125 -0.328125 0.609375 -0.625q-0.140625 -0.0625 -0.265625 -0.171875q-0.109375 -0.109375 -0.1875 -0.234375q-0.0625 -0.125 -0.09375 -0.265625q-0.03125 -0.140625 -0.03125 -0.28125q0 -0.375 0.171875 -0.6875q0.1875 -0.3125 0.4375 -0.59375q-0.125 -0.140625 -0.203125 -0.265625q-0.078125 -0.140625 -0.140625 -0.28125q-0.0625 -0.15625 -0.09375 -0.328125q-0.03125 -0.171875 -0.03125 -0.390625q0 -0.453125 0.15625 -0.828125q0.171875 -0.390625 0.46875 -0.65625q0.3125 -0.265625 0.734375 -0.40625q0.421875 -0.15625 0.9375 -0.15625q0.21875 0 0.40625 0.03125q0.203125 0.015625 0.359375 0.0625l2.140625 0l0 0.84375l-0.953125 0zm-3.53125 5.890625q0 0.421875 0.421875 0.609375q0.4375 0.1875 1.21875 0.1875q0.484375 0 0.8125 -0.09375q0.328125 -0.078125 0.53125 -0.21875q0.203125 -0.140625 0.28125 -0.328125q0.09375 -0.1875 0.09375 -0.375q0 -0.359375 -0.296875 -0.53125q-0.28125 -0.171875 -0.890625 -0.203125l-1.53125 -0.046875q-0.1875 0.125 -0.328125 0.25q-0.125 0.125 -0.203125 0.25q-0.0625 0.125 -0.09375 0.25q-0.015625 0.125 -0.015625 0.25zm0.3125 -4.8125q0 0.28125 0.09375 0.515625q0.09375 0.234375 0.25 0.40625q0.171875 0.15625 0.40625 0.25q0.234375 0.09375 0.515625 0.09375q0.296875 0 0.53125 -0.09375q0.25 -0.109375 0.40625 -0.28125q0.15625 -0.1875 0.234375 -0.40625q0.09375 -0.234375 0.09375 -0.484375q0 -0.28125 -0.09375 -0.515625q-0.09375 -0.234375 -0.265625 -0.390625q-0.15625 -0.171875 -0.390625 -0.25q-0.234375 -0.09375 -0.515625 -0.09375q-0.3125 0 -0.546875 0.109375q-0.234375 0.09375 -0.40625 0.265625q-0.15625 0.171875 -0.234375 0.40625q-0.078125 0.234375 -0.078125 0.46875zm10.457031 0.1875l-5.03125 0l0 -0.859375l5.03125 0l0 0.859375zm0 2.03125l-5.03125 0l0 -0.859375l5.03125 0l0 0.859375zm6.6914062 1.75l-5.046875 0l0 -0.921875l1.984375 -1.96875q0.484375 -0.46875 0.78125 -0.8125q0.3125 -0.359375 0.484375 -0.640625q0.171875 -0.296875 0.21875 -0.546875q0.0625 -0.265625 0.0625 -0.578125q0 -0.28125 -0.078125 -0.53125q-0.0625 -0.25 -0.234375 -0.4375q-0.15625 -0.203125 -0.40625 -0.3125q-0.25 -0.109375 -0.59375 -0.109375q-0.5 0 -0.90625 0.21875q-0.390625 0.21875 -0.71875 0.5625l-0.5625 -0.671875q0.4375 -0.46875 1.0 -0.734375q0.5625 -0.28125 1.3125 -0.28125q0.515625 0 0.921875 0.15625q0.421875 0.15625 0.71875 0.4375q0.3125 0.28125 0.484375 0.703125q0.171875 0.421875 0.171875 0.9375q0 0.4375 -0.125 0.8125q-0.109375 0.375 -0.359375 0.75q-0.234375 0.375 -0.59375 0.78125q-0.359375 0.390625 -0.84375 0.859375l-1.390625 1.359375l3.71875 0l0 0.96875z" fill-rule="nonzero"/><path fill="#000000" fill-opacity="0.0" d="m246.61942 90.09938l95.93701 0l0 18.551178l-95.93701 0z" fill-rule="evenodd"/><path fill="#000000" d="m281.18558 97.804344l-0.859375 5.890625l-1.234375 0l-0.84375 -2.46875l-0.171875 -0.59375l-0.203125 0.640625l-0.8125 2.421875l-1.203125 0l-0.84375 -5.890625l1.0 0l0.484375 4.0l0.109375 0.890625l0.25 -0.78125l0.859375 -2.640625l0.734375 0l0.921875 2.609375l0.25 0.78125l0.09375 -0.828125l0.453125 -4.03125l1.015625 0zm6.1132812 2.640625q0 0.21875 -0.015625 0.359375q0 0.140625 0 0.28125l-4.140625 0q0 0.890625 0.5 1.375q0.515625 0.484375 1.453125 0.484375q0.265625 0 0.515625 -0.015625q0.265625 -0.015625 0.5 -0.046875q0.25 -0.046875 0.46875 -0.078125q0.21875 -0.046875 0.40625 -0.109375l0 0.84375q-0.421875 0.109375 -0.953125 0.1875q-0.515625 0.078125 -1.078125 0.078125q-0.75 0 -1.296875 -0.203125q-0.546875 -0.21875 -0.90625 -0.59375q-0.34375 -0.390625 -0.515625 -0.953125q-0.15625 -0.578125 -0.15625 -1.296875q0 -0.609375 0.171875 -1.15625q0.1875 -0.5625 0.53125 -0.984375q0.34375 -0.421875 0.828125 -0.65625q0.5 -0.25 1.140625 -0.25q0.609375 0 1.078125 0.1875q0.484375 0.1875 0.8125 0.546875q0.328125 0.359375 0.484375 0.875q0.171875 0.5 0.171875 1.125zm-1.0625 -0.15625q0.015625 -0.390625 -0.078125 -0.703125q-0.09375 -0.328125 -0.296875 -0.5625q-0.1875 -0.234375 -0.484375 -0.359375q-0.28125 -0.140625 -0.671875 -0.140625q-0.328125 0 -0.609375 0.125q-0.28125 0.125 -0.484375 0.359375q-0.1875 0.234375 -0.3125 0.5625q-0.125 0.328125 -0.15625 0.71875l3.09375 0zm6.4726562 3.40625l-0.03125 -0.796875q-0.46875 0.484375 -0.96875 0.703125q-0.5 0.203125 -1.046875 0.203125q-0.5 0 -0.859375 -0.125q-0.359375 -0.140625 -0.59375 -0.359375q-0.21875 -0.234375 -0.328125 -0.53125q-0.109375 -0.3125 -0.109375 -0.671875q0 -0.875 0.65625 -1.375q0.65625 -0.5 1.953125 -0.5l1.21875 0l0 -0.515625q0 -0.53125 -0.34375 -0.84375q-0.328125 -0.3125 -1.015625 -0.3125q-0.5 0 -0.984375 0.109375q-0.484375 0.109375 -1.0 0.328125l0 -0.921875q0.203125 -0.078125 0.4375 -0.140625q0.234375 -0.0625 0.5 -0.109375q0.265625 -0.0625 0.546875 -0.09375q0.296875 -0.03125 0.578125 -0.03125q0.546875 0 0.96875 0.125q0.421875 0.109375 0.71875 0.34375q0.296875 0.234375 0.453125 0.609375q0.15625 0.359375 0.15625 0.84375l0 4.0625l-0.90625 0zm-0.109375 -2.671875l-1.296875 0q-0.375 0 -0.65625 0.078125q-0.28125 0.0625 -0.453125 0.203125q-0.171875 0.140625 -0.265625 0.34375q-0.078125 0.1875 -0.078125 0.4375q0 0.171875 0.046875 0.328125q0.0625 0.15625 0.171875 0.28125q0.125 0.109375 0.3125 0.1875q0.1875 0.0625 0.453125 0.0625q0.34375 0 0.796875 -0.203125q0.46875 -0.21875 0.96875 -0.6875l0 -1.03125zm8.222656 2.671875l-1.40625 0l-2.734375 -3.15625l0 3.15625l-1.03125 0l0 -8.28125l1.03125 0l0 5.09375l2.640625 -2.703125l1.34375 0l-2.765625 2.71875l2.921875 3.171875zm6.1757812 -3.78125l-5.03125 0l0 -0.859375l5.03125 0l0 0.859375zm0 2.03125l-5.03125 0l0 -0.859375l5.03125 0l0 0.859375zm6.6289062 1.75l-4.8125 0l0 -0.953125l1.96875 0l0 -5.59375l-1.828125 1.0l-0.375 -0.859375l2.4375 -1.28125l0.890625 0l0 6.734375l1.71875 0l0 0.953125z" fill-rule="nonzero"/><path fill="#000000" fill-opacity="0.0" d="m95.25412 60.632545l0 0c0 -1.1393585 1.0575943 -2.062992 2.3622055 -2.062992l0 0c1.3046112 0 2.3622055 0.9236336 2.3622055 2.062992l0 0c0 1.1393585 -1.0575943 2.062992 -2.3622055 2.062992l0 0c-1.3046112 0 -2.3622055 -0.9236336 -2.3622055 -2.062992z" fill-rule="evenodd"/><path fill="#000000" fill-opacity="0.0" d="m97.60833 124.207466l0 0c0 -1.1393585 0.5217438 -2.0629883 1.1653519 -2.0629883l0 0c0.3090744 0 0.605484 0.21734619 0.824028 0.6042328c0.21855164 0.3868866 0.34133148 0.9116211 0.34133148 1.4587555l0 0c0 1.1393661 -0.5217514 2.062996 -1.1653595 2.062996l0 0c-0.6436081 0 -1.1653519 -0.92362976 -1.1653519 -2.062996z" fill-rule="evenodd"/><path fill="#000000" fill-opacity="0.0" d="m-9.929858 82.66894l64.15748 0l0 24.0l-64.15748 0z" fill-rule="evenodd"/><path fill="#000000" d="m20.415123 92.58519l1.234375 0l0.046875 1.4375q0.6875 -0.828125 1.359375 -1.203125q0.6875 -0.375 1.375 -0.375q1.21875 0 1.84375 0.796875q0.625 0.78125 0.578125 2.328125l-1.375 0q0.03125 -1.03125 -0.296875 -1.484375q-0.328125 -0.46875 -0.953125 -0.46875q-0.265625 0 -0.546875 0.09375q-0.28125 0.09375 -0.578125 0.3125q-0.28125 0.21875 -0.609375 0.5625q-0.328125 0.328125 -0.703125 0.796875l0 5.046875l-1.375 0l0 -7.84375zm14.5625 7.546875q-0.53125 0.203125 -1.09375 0.296875q-0.546875 0.109375 -1.140625 0.109375q-1.859375 0 -2.875 -1.0q-1.0 -1.015625 -1.0 -2.953125q0 -0.9375 0.28125 -1.6875q0.296875 -0.765625 0.8125 -1.296875q0.53125 -0.546875 1.25 -0.828125q0.734375 -0.296875 1.609375 -0.296875q0.609375 0 1.140625 0.09375q0.53125 0.078125 1.015625 0.265625l0 1.296875q-0.5 -0.265625 -1.03125 -0.375q-0.53125 -0.125 -1.09375 -0.125q-0.515625 0 -0.984375 0.203125q-0.46875 0.1875 -0.828125 0.5625q-0.34375 0.375 -0.546875 0.921875q-0.203125 0.53125 -0.203125 1.21875q0 1.421875 0.6875 2.125q0.703125 0.703125 1.921875 0.703125q0.5625 0 1.078125 -0.125q0.515625 -0.125 1.0 -0.375l0 1.265625zm9.328125 0.296875l-6.71875 0l0 -1.21875l2.640625 -2.625q0.640625 -0.640625 1.046875 -1.109375q0.40625 -0.46875 0.625 -0.859375q0.234375 -0.390625 0.3125 -0.734375q0.078125 -0.34375 0.078125 -0.734375q0 -0.375 -0.109375 -0.71875q-0.09375 -0.34375 -0.3125 -0.59375q-0.203125 -0.265625 -0.546875 -0.40625q-0.328125 -0.15625 -0.796875 -0.15625q-0.640625 0 -1.171875 0.296875q-0.53125 0.28125 -0.984375 0.75l-0.75 -0.90625q0.578125 -0.609375 1.328125 -0.96875q0.765625 -0.375 1.765625 -0.375q0.671875 0 1.234375 0.203125q0.5625 0.203125 0.96875 0.59375q0.40625 0.375 0.625 0.9375q0.21875 0.546875 0.21875 1.25q0 0.578125 -0.15625 1.078125q-0.15625 0.5 -0.46875 1.0q-0.3125 0.5 -0.796875 1.03125q-0.484375 0.53125 -1.140625 1.15625l-1.84375 1.8125l4.953125 0l0 1.296875z" fill-rule="nonzero"/><path fill="#000000" fill-opacity="0.0" d="m99.973755 91.72143c36.661423 0 54.992126 -4.0866165 73.32283 -8.173233c18.330719 -4.086609 36.661423 -8.173225 73.32283 -8.173225" fill-rule="evenodd"/><path stroke="#000000" stroke-width="1.0" stroke-linejoin="round" stroke-linecap="butt" d="m103.76372 91.70598l1.2466049 -0.011062622c0.546608 -0.005859375 1.0889511 -0.0126571655 1.6271057 -0.020385742c2.1526108 -0.030921936 4.238083 -0.07682037 6.26091 -0.1366806c4.045639 -0.11972809 7.8406677 -0.29532623 11.420891 -0.5188141c7.160431 -0.44696808 13.461609 -1.0855026 19.189957 -1.8517456c11.456696 -1.5324783 20.622055 -3.5757828 29.7874 -5.619095c9.1653595 -2.0433044 18.330719 -4.086609 29.7874 -5.619095c5.728348 -0.76623535 12.029526 -1.4047699 19.189972 -1.8517456c3.5802155 -0.22348785 7.375244 -0.39907837 11.420883 -0.51880646c2.0228271 -0.05986023 4.108307 -0.10575867 6.26091 -0.13668823c0.538147 -0.0077285767 1.0804901 -0.014526367 1.6271057 -0.020370483l1.6094971 -0.014289856" fill-rule="evenodd"/><path fill="#000000" stroke="#000000" stroke-width="1.0" stroke-linecap="butt" d="m100.47375 91.71939c-0.0037002563 -0.9085007 0.7297821 -1.647995 1.6382828 -1.6516953c0.9085007 -0.0037078857 1.6479874 0.7297745 1.6516953 1.6382751c0.0037002563 0.9085007 -0.7297821 1.647995 -1.6382828 1.6516953c-0.9085007 0.0037078857 -1.6479874 -0.7297745 -1.6516953 -1.6382751z" fill-rule="nonzero"/><path fill="#000000" stroke="#000000" stroke-width="1.0" stroke-linecap="butt" d="m243.19235 75.3872l-1.1205597 1.1285934l3.0857391 -1.1356049l-3.0937653 -1.1135483z" fill-rule="evenodd"/></g></svg>