<svg version="1.1" viewBox="0.0 0.0 220.77165354330708 250.4488188976378" fill="none" stroke="none" stroke-linecap="square" stroke-miterlimit="10" xmlns:xlink="http://www.w3.org/1999/xlink" xmlns="http://www.w3.org/2000/svg"><clipPath id="p.0"><path d="m0 0l220.77165 0l0 250.44882l-220.77165 0l0 -250.44882z" clip-rule="nonzero"/></clipPath><g clip-path="url(#p.0)"><path fill="#000000" fill-opacity="0.0" d="m0 0l220.77165 0l0 250.44882l-220.77165 0z" fill-rule="evenodd"/><path fill="#000000" fill-opacity="0.0" d="m102.580055 66.38058l0 0" fill-rule="evenodd"/><path stroke="#000000" stroke-width="1.0" stroke-linejoin="round" stroke-linecap="butt" d="m102.580055 66.38058l0 0" fill-rule="evenodd"/><path fill="#000000" fill-opacity="0.0" d="m102.580055 66.38058l0 0" fill-rule="evenodd"/><path stroke="#000000" stroke-width="1.0" stroke-linejoin="round" stroke-linecap="butt" d="m102.580055 66.38058l0 0" fill-rule="evenodd"/><path fill="#000000" fill-opacity="0.0" d="m114.675095 90.38058l0 -5.7637787" fill-rule="evenodd"/><path stroke="#000000" stroke-width="1.0" stroke-linejoin="round" stroke-linecap="butt" d="m114.675095 90.38058l0 -5.7637787" fill-rule="evenodd"/><path fill="#000000" fill-opacity="0.0" d="m90.675095 90.38058l0 -5.7637787" fill-rule="evenodd"/><path stroke="#000000" stroke-width="1.0" stroke-linejoin="round" stroke-linecap="butt" d="m90.675095 90.38058l0 -5.7637787" fill-rule="evenodd"/><path fill="#d9d9d9" d="m54.61155 42.569553l95.937004 0l0 23.811024l-95.937004 0z" fill-rule="evenodd"/><path stroke="#000000" stroke-width="1.0" stroke-linejoin="round" stroke-linecap="butt" d="m54.61155 42.569553l95.937004 0l0 23.811024l-95.937004 0z" fill-rule="evenodd"/><path fill="#000000" fill-opacity="0.0" d="m102.580055 66.38058l0 -5.7637787" fill-rule="evenodd"/><path stroke="#000000" stroke-width="1.0" stroke-linejoin="round" stroke-linecap="butt" d="m102.580055 66.38058l0 -5.7637787" fill-rule="evenodd"/><path fill="#000000" fill-opacity="0.0" d="m126.580055 66.38058l0 -5.7637787" fill-rule="evenodd"/><path stroke="#000000" stroke-width="1.0" stroke-linejoin="round" stroke-linecap="butt" d="m126.580055 66.38058l0 -5.7637787" fill-rule="evenodd"/><path fill="#000000" fill-opacity="0.0" d="m78.580055 66.38058l0 -5.7637787" fill-rule="evenodd"/><path stroke="#000000" stroke-width="1.0" stroke-linejoin="round" stroke-linecap="butt" d="m78.580055 66.38058l0 -5.7637787" fill-rule="evenodd"/><path fill="#000000" fill-opacity="0.0" d="m138.6751 66.38058l0 -5.7637787" fill-rule="evenodd"/><path stroke="#000000" stroke-width="1.0" stroke-linejoin="round" stroke-linecap="butt" d="m138.6751 66.38058l0 -5.7637787" fill-rule="evenodd"/><path fill="#000000" fill-opacity="0.0" d="m90.675095 66.38058l0 -5.7637787" fill-rule="evenodd"/><path stroke="#000000" stroke-width="1.0" stroke-linejoin="round" stroke-linecap="butt" d="m90.675095 66.38058l0 -5.7637787" fill-rule="evenodd"/><path fill="#000000" fill-opacity="0.0" d="m114.675095 66.38058l0 -5.7637787" fill-rule="evenodd"/><path stroke="#000000" stroke-width="1.0" stroke-linejoin="round" stroke-linecap="butt" d="m114.675095 66.38058l0 -5.7637787" fill-rule="evenodd"/><path fill="#000000" fill-opacity="0.0" d="m66.675095 66.38058l0 -5.7637787" fill-rule="evenodd"/><path stroke="#000000" stroke-width="1.0" stroke-linejoin="round" stroke-linecap="butt" d="m66.675095 66.38058l0 -5.7637787" fill-rule="evenodd"/><path fill="#d9d9d9" d="m54.61155 66.38663l95.937004 0l0 23.811028l-95.937004 0z" fill-rule="evenodd"/><path stroke="#000000" stroke-width="1.0" stroke-linejoin="round" stroke-linecap="butt" d="m54.61155 66.38663l95.937004 0l0 23.811028l-95.937004 0z" fill-rule="evenodd"/><path fill="#000000" fill-opacity="0.0" d="m102.580055 90.197655l0 0" fill-rule="evenodd"/><path stroke="#000000" stroke-width="1.0" stroke-linejoin="round" stroke-linecap="butt" d="m102.580055 90.197655l0 0" fill-rule="evenodd"/><path fill="#000000" fill-opacity="0.0" d="m102.580055 90.197655l0 0" fill-rule="evenodd"/><path stroke="#000000" stroke-width="1.0" stroke-linejoin="round" stroke-linecap="butt" d="m102.580055 90.197655l0 0" fill-rule="evenodd"/><path fill="#000000" fill-opacity="0.0" d="m102.580055 90.197655l0 -5.7637787" fill-rule="evenodd"/><path stroke="#000000" stroke-width="1.0" stroke-linejoin="round" stroke-linecap="butt" d="m102.580055 90.197655l0 -5.7637787" fill-rule="evenodd"/><path fill="#000000" fill-opacity="0.0" d="m126.580055 90.197655l0 -5.7637787" fill-rule="evenodd"/><path stroke="#000000" stroke-width="1.0" stroke-linejoin="round" stroke-linecap="butt" d="m126.580055 90.197655l0 -5.7637787" fill-rule="evenodd"/><path fill="#000000" fill-opacity="0.0" d="m78.580055 90.197655l0 -5.7637787" fill-rule="evenodd"/><path stroke="#000000" stroke-width="1.0" stroke-linejoin="round" stroke-linecap="butt" d="m78.580055 90.197655l0 -5.7637787" fill-rule="evenodd"/><path fill="#000000" fill-opacity="0.0" d="m114.675095 90.197655l0 -5.7637787" fill-rule="evenodd"/><path stroke="#000000" stroke-width="1.0" stroke-linejoin="round" stroke-linecap="butt" d="m114.675095 90.197655l0 -5.7637787" fill-rule="evenodd"/><path fill="#000000" fill-opacity="0.0" d="m138.6751 90.197655l0 -5.7637787" fill-rule="evenodd"/><path stroke="#000000" stroke-width="1.0" stroke-linejoin="round" stroke-linecap="butt" d="m138.6751 90.197655l0 -5.7637787" fill-rule="evenodd"/><path fill="#000000" fill-opacity="0.0" d="m90.675095 90.197655l0 -5.7637787" fill-rule="evenodd"/><path stroke="#000000" stroke-width="1.0" stroke-linejoin="round" stroke-linecap="butt" d="m90.675095 90.197655l0 -5.7637787" fill-rule="evenodd"/><path fill="#000000" fill-opacity="0.0" d="m90.675095 90.197655l0 -5.7637787" fill-rule="evenodd"/><path stroke="#000000" stroke-width="1.0" stroke-linejoin="round" stroke-linecap="butt" d="m90.675095 90.197655l0 -5.7637787" fill-rule="evenodd"/><path fill="#000000" fill-opacity="0.0" d="m114.675095 90.197655l0 -5.7637787" fill-rule="evenodd"/><path stroke="#000000" stroke-width="1.0" stroke-linejoin="round" stroke-linecap="butt" d="m114.675095 90.197655l0 -5.7637787" fill-rule="evenodd"/><path fill="#000000" fill-opacity="0.0" d="m66.675095 90.197655l0 -5.7637787" fill-rule="evenodd"/><path stroke="#000000" stroke-width="1.0" stroke-linejoin="round" stroke-linecap="butt" d="m66.675095 90.197655l0 -5.7637787" fill-rule="evenodd"/><path fill="#000000" fill-opacity="0.0" d="m-13.632545 42.75853l68.25197 0l0 42.015747l-68.25197 0z" fill-rule="evenodd"/><path fill="#000000" fill-opacity="0.0" d="m-18.993612 53.49269l64.15748 0l0 23.81102l-64.15748 0z" fill-rule="evenodd"/><path fill="#000000" d="m20.148245 63.314453l1.234375 0l0.046875 1.4375q0.6875 -0.828125 1.359375 -1.203125q0.6875 -0.375 1.375 -0.375q1.21875 0 1.84375 0.796875q0.625 0.78125 0.578125 2.328125l-1.375 0q0.03125 -1.03125 -0.296875 -1.484375q-0.328125 -0.46875 -0.953125 -0.46875q-0.265625 0 -0.546875 0.09375q-0.28125 0.09375 -0.578125 0.3125q-0.28125 0.21875 -0.609375 0.5625q-0.328125 0.328125 -0.703125 0.796875l0 5.046875l-1.375 0l0 -7.84375zm14.562498 7.546875q-0.53125 0.203125 -1.09375 0.296875q-0.546875 0.109375 -1.140625 0.109375q-1.8593731 0 -2.874998 -1.0q-1.0 -1.015625 -1.0 -2.953125q0 -0.9375 0.28125 -1.6875q0.296875 -0.765625 0.8125 -1.296875q0.53125 -0.546875 1.25 -0.828125q0.734375 -0.296875 1.6093731 -0.296875q0.609375 0 1.140625 0.09375q0.53125 0.078125 1.015625 0.265625l0 1.296875q-0.5 -0.265625 -1.03125 -0.375q-0.53125 -0.125 -1.09375 -0.125q-0.515625 0 -0.9843731 0.203125q-0.46875 0.1875 -0.828125 0.5625q-0.34375 0.375 -0.546875 0.921875q-0.203125 0.53125 -0.203125 1.21875q0 1.421875 0.6875 2.125q0.703125 0.703125 1.9218731 0.703125q0.5625 0 1.078125 -0.125q0.515625 -0.125 1.0 -0.375l0 1.265625z" fill-rule="nonzero"/><path fill="#000000" fill-opacity="0.0" d="m54.619423 66.3937l95.937004 0l0 18.551186l-95.937004 0z" fill-rule="evenodd"/><path fill="#000000" d="m102.271515 78.30179l-1.296875 0l0 1.6875l-1.046875 0l0 -1.6875l-3.6875 0l0 -0.90625l3.265625 -5.0625l1.46875 0l0 5.0625l1.296875 0l0 0.90625zm-2.34375 -4.984375l-2.671875 4.078125l2.671875 0l0 -4.078125zm8.566406 6.671875l-5.046875 0l0 -0.921875l1.984375 -1.96875q0.484375 -0.46875 0.78125 -0.8125q0.3125 -0.359375 0.484375 -0.640625q0.171875 -0.296875 0.21875 -0.546875q0.0625 -0.265625 0.0625 -0.578125q0 -0.28125 -0.078125 -0.53125q-0.0625 -0.25 -0.234375 -0.4375q-0.15625 -0.203125 -0.40625 -0.3125q-0.25 -0.109375 -0.59375 -0.109375q-0.5 0 -0.90625 0.21875q-0.390625 0.21875 -0.71875 0.5625l-0.5625 -0.671875q0.4375 -0.46875 1.0 -0.734375q0.5625 -0.28125 1.3125 -0.28125q0.515625 0 0.921875 0.15625q0.421875 0.15625 0.71875 0.4375q0.3125 0.28125 0.484375 0.703125q0.171875 0.421875 0.171875 0.9375q0 0.4375 -0.125 0.8125q-0.109375 0.375 -0.359375 0.75q-0.234375 0.375 -0.59375 0.78125q-0.359375 0.390625 -0.84375 0.859375l-1.390625 1.359375l3.71875 0l0 0.96875z" fill-rule="nonzero"/><path fill="#000000" fill-opacity="0.0" d="m54.48819 21.38845l0 202.99213" fill-rule="evenodd"/><path stroke="#000000" stroke-width="1.0" stroke-linejoin="round" stroke-linecap="butt" d="m54.48819 21.38845l0 202.99213" fill-rule="evenodd"/><path fill="#000000" fill-opacity="0.0" d="m150.48819 21.38845l0 202.99213" fill-rule="evenodd"/><path stroke="#000000" stroke-width="1.0" stroke-linejoin="round" stroke-linecap="butt" d="m150.48819 21.38845l0 202.99213" fill-rule="evenodd"/><path fill="#000000" fill-opacity="0.0" d="m61.553806 -7.8188977l80.346466 0l0 42.015747l-80.346466 0z" fill-rule="evenodd"/><path fill="#000000" d="m79.24136 15.6121025l1.65625 -0.140625q0.125 1.0 0.546875 1.640625q0.4375 0.640625 1.34375 1.046875q0.921875 0.390625 2.0625 0.390625q1.0 0 1.78125 -0.296875q0.78125 -0.296875 1.15625 -0.8125q0.375 -0.53125 0.375 -1.15625q0 -0.625 -0.375 -1.09375q-0.359375 -0.46875 -1.1875 -0.796875q-0.546875 -0.203125 -2.390625 -0.640625q-1.828125 -0.453125 -2.5625 -0.84375q-0.96875 -0.5 -1.4375 -1.234375q-0.46875 -0.75 -0.46875 -1.671875q0 -1.0 0.578125 -1.875q0.578125 -0.8906255 1.671875 -1.3437505q1.109375 -0.453125 2.453125 -0.453125q1.484375 0 2.609375 0.484375q1.140625 0.46875 1.75 1.4062505q0.609375 0.921875 0.65625 2.09375l-1.6875 0.125q-0.140625 -1.265625 -0.9375 -1.90625q-0.78125 -0.6562505 -2.3125 -0.6562505q-1.609375 0 -2.34375 0.5937505q-0.734375 0.59375 -0.734375 1.421875q0 0.71875 0.53125 1.171875q0.5 0.46875 2.65625 0.96875q2.15625 0.484375 2.953125 0.84375q1.171875 0.53125 1.71875 1.359375q0.5625 0.828125 0.5625 1.90625q0 1.0625 -0.609375 2.015625q-0.609375 0.9375 -1.75 1.46875q-1.140625 0.515625 -2.578125 0.515625q-1.8125 0 -3.046875 -0.53125q-1.21875 -0.53125 -1.921875 -1.59375q-0.6875 -1.0625 -0.71875 -2.40625zm16.412323 2.828125l0.234375 1.453125q-0.6875 0.140625 -1.234375 0.140625q-0.890625 0 -1.390625 -0.28125q-0.484375 -0.28125 -0.6875 -0.734375q-0.203125 -0.46875 -0.203125 -1.9375l0 -5.578125l-1.203125 0l0 -1.265625l1.203125 0l0 -2.3906255l1.625 -0.984375l0 3.3750005l1.65625 0l0 1.265625l-1.65625 0l0 5.671875q0 0.6875 0.078125 0.890625q0.09375 0.203125 0.28125 0.328125q0.203125 0.109375 0.578125 0.109375q0.265625 0 0.71875 -0.0625zm7.917679 0.28125q-0.921875 0.765625 -1.765625 1.09375q-0.828125 0.3125 -1.796875 0.3125q-1.59375 0 -2.453125 -0.78125q-0.859375 -0.78125 -0.859375 -1.984375q0 -0.71875 0.328125 -1.296875q0.328125 -0.59375 0.84375 -0.9375q0.53125 -0.359375 1.1875 -0.546875q0.46875 -0.125 1.453125 -0.25q1.984375 -0.234375 2.921875 -0.5625q0.015625 -0.34375 0.015625 -0.421875q0 -1.0 -0.46875 -1.421875q-0.625 -0.546875 -1.875 -0.546875q-1.15625 0 -1.703125 0.40625q-0.546875 0.40625 -0.8125 1.421875l-1.609375 -0.21875q0.21875 -1.015625 0.71875 -1.640625q0.5 -0.640625 1.453125 -0.984375q0.953125 -0.34375 2.1875 -0.34375q1.25 0 2.015625 0.296875q0.78125 0.28125 1.140625 0.734375q0.375 0.4375 0.515625 1.109375q0.078125 0.421875 0.078125 1.515625l0 2.1875q0 2.28125 0.109375 2.890625q0.109375 0.59375 0.40625 1.15625l-1.703125 0q-0.265625 -0.515625 -0.328125 -1.1875zm-0.140625 -3.671875q-0.890625 0.375 -2.671875 0.625q-1.015625 0.140625 -1.4375 0.328125q-0.421875 0.1875 -0.65625 0.53125q-0.21875 0.34375 -0.21875 0.78125q0 0.65625 0.5 1.09375q0.5 0.4375 1.453125 0.4375q0.9375 0 1.671875 -0.40625q0.75 -0.421875 1.09375 -1.140625q0.265625 -0.5625 0.265625 -1.640625l0 -0.609375zm10.516342 1.3125l1.609375 0.21875q-0.265625 1.65625 -1.359375 2.609375q-1.078125 0.9375 -2.671875 0.9375q-1.984375 0 -3.1875 -1.296875q-1.203125 -1.296875 -1.203125 -3.71875q0 -1.578125 0.515625 -2.75q0.515625 -1.171875 1.578125 -1.75q1.0625 -0.59375 2.3125 -0.59375q1.578125 0 2.578125 0.796875q1.0 0.796875 1.28125 2.265625l-1.59375 0.234375q-0.234375 -0.96875 -0.8125 -1.453125q-0.578125 -0.5 -1.390625 -0.5q-1.234375 0 -2.015625 0.890625q-0.78125 0.890625 -0.78125 2.8125q0 1.953125 0.75 2.84375q0.75 0.875 1.953125 0.875q0.96875 0 1.609375 -0.59375q0.65625 -0.59375 0.828125 -1.828125zm3.015625 3.546875l0 -13.359375l1.640625 0l0 7.6250005l3.890625 -3.9375l2.109375 0l-3.6875 3.59375l4.0625 6.078125l-2.015625 0l-3.203125 -4.953125l-1.15625 1.125l0 3.828125l-1.640625 0z" fill-rule="nonzero"/><path fill="#000000" fill-opacity="0.0" d="m46.540745 90.097115c-2.1873093 0 -3.960472 -1.7731628 -3.960472 -3.960472l0 -15.842834c0 -2.1873093 -1.7731628 -3.960472 -3.960472 -3.960472c2.1873093 0 3.960472 -1.7731628 3.960472 -3.960476l0 -15.842834l0 0c0 -2.1873093 1.7731628 -3.960472 3.960472 -3.960472l415.18173 0c1.0503845 0 2.0577393 0.41726303 2.800476 1.159996c0.7427368 0.742733 1.1600037 1.7500954 1.1600037 2.800476l0 15.842834c0 2.187313 1.7731628 3.960476 3.9604797 3.960476c-2.187317 0 -3.9604797 1.7731628 -3.9604797 3.960472l0 15.842834c0 2.1873093 -1.7731628 3.960472 -3.9604797 3.960472z" fill-rule="evenodd"/><path fill="#000000" fill-opacity="0.0" d="m46.540745 90.097115c-2.1873093 0 -3.960472 -1.7731628 -3.960472 -3.960472l0 -15.842834c0 -2.1873093 -1.7731628 -3.960472 -3.960472 -3.960472c2.1873093 0 3.960472 -1.7731628 3.960472 -3.960476l0 -15.842834l0 0c0 -2.1873093 1.7731628 -3.960472 3.960472 -3.960472m415.18173 0c1.0503845 0 2.0577393 0.41726303 2.800476 1.159996c0.7427368 0.742733 1.1600037 1.7500954 1.1600037 2.800476l0 15.842834c0 2.187313 1.7731628 3.960476 3.9604797 3.960476c-2.187317 0 -3.9604797 1.7731628 -3.9604797 3.960472l0 15.842834c0 2.1873093 -1.7731628 3.960472 -3.9604797 3.960472" fill-rule="evenodd"/><path stroke="#000000" stroke-width="1.0" stroke-linejoin="round" stroke-linecap="butt" d="m46.540745 90.097115c-2.1873093 0 -3.960472 -1.7731628 -3.960472 -3.960472l0 -15.842834c0 -2.1873093 -1.7731628 -3.960472 -3.960472 -3.960472c2.1873093 0 3.960472 -1.7731628 3.960472 -3.960476l0 -15.842834l0 0c0 -2.1873093 1.7731628 -3.960472 3.960472 -3.960472m415.18173 0c1.0503845 0 2.0577393 0.41726303 2.800476 1.159996c0.7427368 0.742733 1.1600037 1.7500954 1.1600037 2.800476l0 15.842834c0 2.187313 1.7731628 3.960476 3.9604797 3.960476c-2.187317 0 -3.9604797 1.7731628 -3.9604797 3.960472l0 15.842834c0 2.1873093 -1.7731628 3.960472 -3.9604797 3.960472" fill-rule="evenodd"/><path fill="#000000" fill-opacity="0.0" d="m54.619423 42.3937l95.937004 0l0 18.551182l-95.937004 0z" fill-rule="evenodd"/><path fill="#000000" d="m82.166046 52.942417q0 0.734375 -0.203125 1.3125q-0.203125 0.578125 -0.578125 0.984375q-0.375 0.390625 -0.90625 0.609375q-0.53125 0.21875 -1.203125 0.21875q-0.515625 0 -1.0625 -0.09375q-0.546875 -0.109375 -1.078125 -0.328125l0 -7.9375l1.015625 0l0 2.28125l-0.046875 1.09375q0.4375 -0.59375 0.9375 -0.828125q0.515625 -0.25 1.078125 -0.25q0.515625 0 0.890625 0.21875q0.375 0.203125 0.625 0.59375q0.265625 0.375 0.390625 0.921875q0.140625 0.53125 0.140625 1.203125zm-1.046875 0.046875q0 -0.46875 -0.078125 -0.84375q-0.0625 -0.390625 -0.203125 -0.65625q-0.140625 -0.28125 -0.375 -0.4375q-0.234375 -0.15625 -0.546875 -0.15625q-0.1875 0 -0.390625 0.0625q-0.203125 0.0625 -0.421875 0.203125q-0.203125 0.140625 -0.4375 0.375q-0.234375 0.234375 -0.515625 0.59375l0 2.84375q0.296875 0.125 0.609375 0.203125q0.3125 0.0625 0.59375 0.0625q0.359375 0 0.671875 -0.109375q0.328125 -0.125 0.5625 -0.375q0.25 -0.265625 0.390625 -0.6875q0.140625 -0.4375 0.140625 -1.078125zm7.7382812 0.015625q0 0.6875 -0.203125 1.265625q-0.1875 0.5625 -0.546875 0.96875q-0.359375 0.40625 -0.890625 0.640625q-0.515625 0.21875 -1.1875 0.21875q-0.625 0 -1.125 -0.1875q-0.5 -0.203125 -0.859375 -0.578125q-0.34375 -0.390625 -0.53125 -0.953125q-0.171875 -0.5625 -0.171875 -1.296875q0 -0.6875 0.1875 -1.25q0.1875 -0.5625 0.546875 -0.96875q0.375 -0.40625 0.890625 -0.625q0.53125 -0.234375 1.1875 -0.234375q0.625 0 1.125 0.203125q0.515625 0.1875 0.859375 0.5625q0.34375 0.375 0.53125 0.9375q0.1875 0.5625 0.1875 1.296875zm-1.046875 0.046875q0 -0.546875 -0.125 -0.953125q-0.109375 -0.40625 -0.34375 -0.671875q-0.21875 -0.28125 -0.546875 -0.421875q-0.3125 -0.140625 -0.703125 -0.140625q-0.453125 0 -0.78125 0.1875q-0.328125 0.171875 -0.53125 0.46875q-0.203125 0.296875 -0.3125 0.703125q-0.09375 0.390625 -0.09375 0.828125q0 0.546875 0.125 0.953125q0.125 0.40625 0.34375 0.6875q0.21875 0.265625 0.53125 0.40625q0.328125 0.140625 0.71875 0.140625q0.453125 0 0.78125 -0.171875q0.328125 -0.1875 0.53125 -0.484375q0.21875 -0.3125 0.3125 -0.703125q0.09375 -0.390625 0.09375 -0.828125zm2.7539062 -2.953125l0.9375 0l0.03125 1.09375q0.515625 -0.625 1.015625 -0.90625q0.515625 -0.28125 1.03125 -0.28125q0.921875 0 1.390625 0.59375q0.46875 0.578125 0.4375 1.75l-1.03125 0q0.015625 -0.765625 -0.234375 -1.109375q-0.234375 -0.359375 -0.703125 -0.359375q-0.203125 0 -0.421875 0.078125q-0.203125 0.0625 -0.421875 0.234375q-0.21875 0.15625 -0.46875 0.40625q-0.25 0.25 -0.53125 0.609375l0 3.78125l-1.03125 0l0 -5.890625zm6.5976562 0l0.9375 0l0.03125 1.09375q0.515625 -0.625 1.015625 -0.90625q0.515625 -0.28125 1.03125 -0.28125q0.921875 0 1.390625 0.59375q0.46875 0.578125 0.4375 1.75l-1.03125 0q0.015625 -0.765625 -0.234375 -1.109375q-0.234375 -0.359375 -0.703125 -0.359375q-0.203125 0 -0.421875 0.078125q-0.203125 0.0625 -0.421875 0.234375q-0.21875 0.15625 -0.46875 0.40625q-0.25 0.25 -0.53125 0.609375l0 3.78125l-1.03125 0l0 -5.890625zm11.488281 2.90625q0 0.6875 -0.203125 1.265625q-0.1875 0.5625 -0.546875 0.96875q-0.359375 0.40625 -0.890625 0.640625q-0.515625 0.21875 -1.1875 0.21875q-0.625 0 -1.125 -0.1875q-0.5 -0.203125 -0.859375 -0.578125q-0.34375 -0.390625 -0.53125 -0.953125q-0.171875 -0.5625 -0.171875 -1.296875q0 -0.6875 0.1875 -1.25q0.1875 -0.5625 0.546875 -0.96875q0.375 -0.40625 0.890625 -0.625q0.53125 -0.234375 1.1875 -0.234375q0.625 0 1.125 0.203125q0.515625 0.1875 0.859375 0.5625q0.34375 0.375 0.53125 0.9375q0.1875 0.5625 0.1875 1.296875zm-1.046875 0.046875q0 -0.546875 -0.125 -0.953125q-0.109375 -0.40625 -0.34375 -0.671875q-0.21875 -0.28125 -0.546875 -0.421875q-0.3125 -0.140625 -0.703125 -0.140625q-0.453125 0 -0.78125 0.1875q-0.328125 0.171875 -0.53125 0.46875q-0.203125 0.296875 -0.3125 0.703125q-0.09375 0.390625 -0.09375 0.828125q0 0.546875 0.125 0.953125q0.125 0.40625 0.34375 0.6875q0.21875 0.265625 0.53125 0.40625q0.328125 0.140625 0.71875 0.140625q0.453125 0 0.78125 -0.171875q0.328125 -0.1875 0.53125 -0.484375q0.21875 -0.3125 0.3125 -0.703125q0.09375 -0.390625 0.09375 -0.828125zm7.9726562 -2.953125l-0.859375 5.890625l-1.234375 0l-0.84375 -2.46875l-0.171875 -0.59375l-0.203125 0.640625l-0.8125 2.421875l-1.203125 0l-0.84375 -5.890625l1.0 0l0.484375 4.0l0.109375 0.890625l0.25 -0.78125l0.859375 -2.640625l0.734375 0l0.921875 2.609375l0.25 0.78125l0.09375 -0.828125l0.453125 -4.03125l1.015625 0zm6.019539 2.109375l-5.0312576 0l0 -0.859375l5.0312576 0l0 0.859375zm0 2.03125l-5.0312576 0l0 -0.859375l5.0312576 0l0 0.859375zm6.6913986 1.75l-5.0468674 0l0 -0.921875l1.984375 -1.96875q0.484375 -0.46875 0.78125 -0.8125q0.3125 -0.359375 0.484375 -0.640625q0.171875 -0.296875 0.21875 -0.546875q0.0625 -0.265625 0.0625 -0.578125q0 -0.28125 -0.078125 -0.53125q-0.0625 -0.25 -0.234375 -0.4375q-0.15625 -0.203125 -0.40625 -0.3125q-0.25 -0.109375 -0.59375 -0.109375q-0.5 0 -0.90625 0.21875q-0.390625 0.21875 -0.71875 0.5625l-0.5625 -0.671875q0.4375 -0.46875 1.0 -0.734375q0.5625 -0.28125 1.3125 -0.28125q0.515625 0 0.921875 0.15625q0.421875 0.15625 0.71875 0.4375q0.3125 0.28125 0.484375 0.703125q0.171875 0.421875 0.171875 0.9375q0 0.4375 -0.125 0.8125q-0.109375 0.375 -0.359375 0.75q-0.234375 0.375 -0.59375 0.78125q-0.359375 0.390625 -0.84375 0.859375l-1.390625 1.359375l3.7187424 0l0 0.96875z" fill-rule="nonzero"/><path fill="#000000" fill-opacity="0.0" d="m114.675095 122.38058l0 -5.7637787" fill-rule="evenodd"/><path stroke="#000000" stroke-width="1.0" stroke-linejoin="round" stroke-linecap="butt" d="m114.675095 122.38058l0 -5.7637787" fill-rule="evenodd"/><path fill="#000000" fill-opacity="0.0" d="m90.675095 122.38058l0 -5.7637787" fill-rule="evenodd"/><path stroke="#000000" stroke-width="1.0" stroke-linejoin="round" stroke-linecap="butt" d="m90.675095 122.38058l0 -5.7637787" fill-rule="evenodd"/><path fill="#d9d9d9" d="m54.61155 98.38663l95.937004 0l0 23.811028l-95.937004 0z" fill-rule="evenodd"/><path stroke="#000000" stroke-width="1.0" stroke-linejoin="round" stroke-linecap="butt" d="m54.61155 98.38663l95.937004 0l0 23.811028l-95.937004 0z" fill-rule="evenodd"/><path fill="#000000" fill-opacity="0.0" d="m102.580055 122.197655l0 0" fill-rule="evenodd"/><path stroke="#000000" stroke-width="1.0" stroke-linejoin="round" stroke-linecap="butt" d="m102.580055 122.197655l0 0" fill-rule="evenodd"/><path fill="#000000" fill-opacity="0.0" d="m102.580055 122.197655l0 0" fill-rule="evenodd"/><path stroke="#000000" stroke-width="1.0" stroke-linejoin="round" stroke-linecap="butt" d="m102.580055 122.197655l0 0" fill-rule="evenodd"/><path fill="#000000" fill-opacity="0.0" d="m102.580055 122.197655l0 -5.7637787" fill-rule="evenodd"/><path stroke="#000000" stroke-width="1.0" stroke-linejoin="round" stroke-linecap="butt" d="m102.580055 122.197655l0 -5.7637787" fill-rule="evenodd"/><path fill="#000000" fill-opacity="0.0" d="m126.580055 122.197655l0 -5.7637787" fill-rule="evenodd"/><path stroke="#000000" stroke-width="1.0" stroke-linejoin="round" stroke-linecap="butt" d="m126.580055 122.197655l0 -5.7637787" fill-rule="evenodd"/><path fill="#000000" fill-opacity="0.0" d="m78.580055 122.197655l0 -5.7637787" fill-rule="evenodd"/><path stroke="#000000" stroke-width="1.0" stroke-linejoin="round" stroke-linecap="butt" d="m78.580055 122.197655l0 -5.7637787" fill-rule="evenodd"/><path fill="#000000" fill-opacity="0.0" d="m114.675095 122.197655l0 -5.7637787" fill-rule="evenodd"/><path stroke="#000000" stroke-width="1.0" stroke-linejoin="round" stroke-linecap="butt" d="m114.675095 122.197655l0 -5.7637787" fill-rule="evenodd"/><path fill="#000000" fill-opacity="0.0" d="m138.6751 122.197655l0 -5.7637787" fill-rule="evenodd"/><path stroke="#000000" stroke-width="1.0" stroke-linejoin="round" stroke-linecap="butt" d="m138.6751 122.197655l0 -5.7637787" fill-rule="evenodd"/><path fill="#000000" fill-opacity="0.0" d="m90.675095 122.197655l0 -5.7637787" fill-rule="evenodd"/><path stroke="#000000" stroke-width="1.0" stroke-linejoin="round" stroke-linecap="butt" d="m90.675095 122.197655l0 -5.7637787" fill-rule="evenodd"/><path fill="#000000" fill-opacity="0.0" d="m90.675095 122.197655l0 -5.7637787" fill-rule="evenodd"/><path stroke="#000000" stroke-width="1.0" stroke-linejoin="round" stroke-linecap="butt" d="m90.675095 122.197655l0 -5.7637787" fill-rule="evenodd"/><path fill="#000000" fill-opacity="0.0" d="m114.675095 122.197655l0 -5.7637787" fill-rule="evenodd"/><path stroke="#000000" stroke-width="1.0" stroke-linejoin="round" stroke-linecap="butt" d="m114.675095 122.197655l0 -5.7637787" fill-rule="evenodd"/><path fill="#000000" fill-opacity="0.0" d="m66.675095 122.197655l0 -5.7637787" fill-rule="evenodd"/><path stroke="#000000" stroke-width="1.0" stroke-linejoin="round" stroke-linecap="butt" d="m66.675095 122.197655l0 -5.7637787" fill-rule="evenodd"/><path fill="#000000" fill-opacity="0.0" d="m114.675095 184.20906l0 -5.7637787" fill-rule="evenodd"/><path stroke="#000000" stroke-width="1.0" stroke-linejoin="round" stroke-linecap="butt" d="m114.675095 184.20906l0 -5.7637787" fill-rule="evenodd"/><path fill="#000000" fill-opacity="0.0" d="m90.675095 184.20906l0 -5.7637787" fill-rule="evenodd"/><path stroke="#000000" stroke-width="1.0" stroke-linejoin="round" stroke-linecap="butt" d="m90.675095 184.20906l0 -5.7637787" fill-rule="evenodd"/><path fill="#d9d9d9" d="m54.61155 160.2151l95.937004 0l0 23.811035l-95.937004 0z" fill-rule="evenodd"/><path stroke="#000000" stroke-width="1.0" stroke-linejoin="round" stroke-linecap="butt" d="m54.61155 160.2151l95.937004 0l0 23.811035l-95.937004 0z" fill-rule="evenodd"/><path fill="#000000" fill-opacity="0.0" d="m102.580055 184.02614l0 0" fill-rule="evenodd"/><path stroke="#000000" stroke-width="1.0" stroke-linejoin="round" stroke-linecap="butt" d="m102.580055 184.02614l0 0" fill-rule="evenodd"/><path fill="#000000" fill-opacity="0.0" d="m102.580055 184.02614l0 0" fill-rule="evenodd"/><path stroke="#000000" stroke-width="1.0" stroke-linejoin="round" stroke-linecap="butt" d="m102.580055 184.02614l0 0" fill-rule="evenodd"/><path fill="#000000" fill-opacity="0.0" d="m102.580055 184.02614l0 -5.7637787" fill-rule="evenodd"/><path stroke="#000000" stroke-width="1.0" stroke-linejoin="round" stroke-linecap="butt" d="m102.580055 184.02614l0 -5.7637787" fill-rule="evenodd"/><path fill="#000000" fill-opacity="0.0" d="m126.580055 184.02614l0 -5.7637787" fill-rule="evenodd"/><path stroke="#000000" stroke-width="1.0" stroke-linejoin="round" stroke-linecap="butt" d="m126.580055 184.02614l0 -5.7637787" fill-rule="evenodd"/><path fill="#000000" fill-opacity="0.0" d="m78.580055 184.02614l0 -5.7637787" fill-rule="evenodd"/><path stroke="#000000" stroke-width="1.0" stroke-linejoin="round" stroke-linecap="butt" d="m78.580055 184.02614l0 -5.7637787" fill-rule="evenodd"/><path fill="#000000" fill-opacity="0.0" d="m114.675095 184.02614l0 -5.7637787" fill-rule="evenodd"/><path stroke="#000000" stroke-width="1.0" stroke-linejoin="round" stroke-linecap="butt" d="m114.675095 184.02614l0 -5.7637787" fill-rule="evenodd"/><path fill="#000000" fill-opacity="0.0" d="m138.6751 184.02614l0 -5.7637787" fill-rule="evenodd"/><path stroke="#000000" stroke-width="1.0" stroke-linejoin="round" stroke-linecap="butt" d="m138.6751 184.02614l0 -5.7637787" fill-rule="evenodd"/><path fill="#000000" fill-opacity="0.0" d="m90.675095 184.02614l0 -5.7637787" fill-rule="evenodd"/><path stroke="#000000" stroke-width="1.0" stroke-linejoin="round" stroke-linecap="butt" d="m90.675095 184.02614l0 -5.7637787" fill-rule="evenodd"/><path fill="#000000" fill-opacity="0.0" d="m90.675095 184.02614l0 -5.7637787" fill-rule="evenodd"/><path stroke="#000000" stroke-width="1.0" stroke-linejoin="round" stroke-linecap="butt" d="m90.675095 184.02614l0 -5.7637787" fill-rule="evenodd"/><path fill="#000000" fill-opacity="0.0" d="m114.675095 184.02614l0 -5.7637787" fill-rule="evenodd"/><path stroke="#000000" stroke-width="1.0" stroke-linejoin="round" stroke-linecap="butt" d="m114.675095 184.02614l0 -5.7637787" fill-rule="evenodd"/><path fill="#000000" fill-opacity="0.0" d="m66.675095 184.02614l0 -5.7637787" fill-rule="evenodd"/><path stroke="#000000" stroke-width="1.0" stroke-linejoin="round" stroke-linecap="butt" d="m66.675095 184.02614l0 -5.7637787" fill-rule="evenodd"/><path fill="#000000" fill-opacity="0.0" d="m99.94226 108.20473c37.807007 0 69.28726 -8.133858 75.61403 -16.267723c6.326767 -8.133858 -12.499924 -16.267715 -24.999863 -16.267715" fill-rule="evenodd"/><path stroke="#000000" stroke-width="1.0" stroke-linejoin="round" stroke-linecap="butt" d="m103.73215 108.17673l1.483078 -0.024780273c0.5808182 -0.011642456 1.159874 -0.025161743 1.737114 -0.040550232c2.3089066 -0.061569214 4.588516 -0.15290833 6.8342133 -0.27205658c4.491394 -0.23830414 8.84716 -0.5877991 13.030533 -1.0326233c8.366737 -0.8896408 16.043892 -2.160553 22.737267 -3.6856537c13.386795 -3.0501938 22.838547 -7.1171265 26.001938 -11.184059c3.1633759 -4.066925 0.038406372 -8.133858 -5.439926 -11.1840515c-2.739151 -1.5251007 -6.0666504 -2.7960129 -9.490601 -3.6856537c-1.7119598 -0.44482422 -3.448059 -0.79431915 -5.1467743 -1.0326157c-0.42468262 -0.059577942 -0.84703064 -0.112205505 -1.2660675 -0.15763092l-0.23435974 -0.023475647" fill-rule="evenodd"/><path fill="#000000" stroke="#000000" stroke-width="1.0" stroke-linecap="butt" d="m100.442245 108.20103c-0.006713867 -0.9084778 0.72431946 -1.6503906 1.6327972 -1.6571045c0.9084854 -0.006713867 1.6503983 0.72431946 1.6571121 1.6327972c0.006713867 0.9084854 -0.72431946 1.6503983 -1.6328049 1.6571121c-0.9084778 0.006713867 -1.6503906 -0.72431946 -1.6571045 -1.6328049z" fill-rule="nonzero"/><path fill="#000000" stroke="#000000" stroke-width="1.0" stroke-linecap="butt" d="m153.97856 75.85358l1.1834259 -1.0624771l-3.1457672 0.95680237l3.024826 1.2891083z" fill-rule="evenodd"/><path fill="#000000" fill-opacity="0.0" d="m99.94226 172.20473c0 -6.6614227 24.813423 -5.9989777 49.556335 -13.322861c24.742905 -7.323883 49.415283 -22.63411 49.556335 -41.606285c0.14103699 -18.972176 -24.249252 -41.606293 -48.498505 -41.606293" fill-rule="evenodd"/><path stroke="#000000" stroke-width="1.0" stroke-linejoin="round" stroke-linecap="butt" d="m102.257385 169.20401l0.13788605 -0.07481384c0.5268936 -0.27833557 1.1324692 -0.53926086 1.8106918 -0.78652954c2.7128677 -0.98908997 6.587761 -1.7596741 11.23587 -2.550949c9.296219 -1.58255 21.685303 -3.2478943 34.056763 -6.909851c24.74292 -7.323883 49.415283 -22.63411 49.556335 -41.606285c0.07052612 -9.486092 -5.991791 -19.887665 -15.10289 -27.917717c-4.5555573 -4.0150146 -9.873306 -7.4371643 -15.567749 -9.855553c-2.8472137 -1.209198 -5.7885895 -2.16745 -8.77597 -2.8234024c-1.4936829 -0.32798004 -2.9988708 -0.5803833 -4.5095215 -0.75079346c-0.18884277 -0.02130127 -0.37774658 -0.0413208 -0.5667572 -0.060043335l-0.55171204 -0.050865173" fill-rule="evenodd"/><path fill="#000000" stroke="#000000" stroke-width="1.0" stroke-linecap="butt" d="m100.24768 171.80885c-0.71930695 -0.55496216 -0.85253143 -1.5879669 -0.29756927 -2.3072662c0.55496216 -0.7193146 1.5879593 -0.85253906 2.3072662 -0.2975769c0.71930695 0.55496216 0.85253906 1.5879517 0.2975769 2.3072662c-0.55496216 0.7193146 -1.5879669 0.85253906 -2.3072739 0.2975769z" fill-rule="nonzero"/><path fill="#000000" stroke="#000000" stroke-width="1.0" stroke-linecap="butt" d="m153.98032 75.81721l1.1720734 -1.074997l-3.1354218 0.99018097l3.0383606 1.2568893z" fill-rule="evenodd"/><path fill="#000000" fill-opacity="0.0" d="m-18.269773 109.49269l64.15748 0l0 23.81102l-64.15748 0z" fill-rule="evenodd"/><path fill="#000000" d="m27.247084 123.0957q0 0.96875 -0.265625 1.75q-0.265625 0.765625 -0.765625 1.296875q-0.5 0.53125 -1.21875 0.828125q-0.703125 0.28125 -1.59375 0.28125q-0.6875 0 -1.421875 -0.125q-0.71875 -0.140625 -1.4375 -0.4375l0 -10.578125l1.359375 0l0 3.046875l-0.0625 1.453125q0.59375 -0.796875 1.25 -1.109375q0.671875 -0.328125 1.4375 -0.328125q0.671875 0 1.171875 0.28125q0.515625 0.28125 0.859375 0.796875q0.34375 0.5 0.515625 1.234375q0.171875 0.71875 0.171875 1.609375zm-1.390625 0.0625q0 -0.625 -0.09375 -1.140625q-0.078125 -0.515625 -0.28125 -0.875q-0.1875 -0.375 -0.5 -0.578125q-0.296875 -0.203125 -0.71875 -0.203125q-0.265625 0 -0.53125 0.078125q-0.265625 0.078125 -0.546875 0.28125q-0.28125 0.1875 -0.609375 0.5q-0.3125 0.3125 -0.671875 0.78125l0 3.8125q0.40625 0.15625 0.8125 0.25q0.421875 0.078125 0.796875 0.078125q0.46875 0 0.890625 -0.140625q0.421875 -0.15625 0.75 -0.5q0.328125 -0.34375 0.515625 -0.921875q0.1875 -0.578125 0.1875 -1.421875zm10.031252 4.0l-6.421877 0l0 -1.265625l2.625002 0l0 -7.453125l-2.437502 1.328125l-0.5 -1.15625l3.250002 -1.71875l1.203125 0l0 9.0l2.28125 0l0 1.265625z" fill-rule="nonzero"/><path fill="#000000" fill-opacity="0.0" d="m-18.269773 171.68309l64.15748 0l0 23.81102l-64.15748 0z" fill-rule="evenodd"/><path fill="#000000" d="m27.247084 185.2861q0 0.96875 -0.265625 1.75q-0.265625 0.765625 -0.765625 1.296875q-0.5 0.53125 -1.21875 0.828125q-0.703125 0.28125 -1.59375 0.28125q-0.6875 0 -1.421875 -0.125q-0.71875 -0.140625 -1.4375 -0.4375l0 -10.578125l1.359375 0l0 3.046875l-0.0625 1.453125q0.59375 -0.796875 1.25 -1.109375q0.671875 -0.328125 1.4375 -0.328125q0.671875 0 1.171875 0.28125q0.515625 0.28125 0.859375 0.796875q0.34375 0.5 0.515625 1.234375q0.171875 0.71875 0.171875 1.609375zm-1.390625 0.0625q0 -0.625 -0.09375 -1.140625q-0.078125 -0.515625 -0.28125 -0.875q-0.1875 -0.375 -0.5 -0.578125q-0.296875 -0.203125 -0.71875 -0.203125q-0.265625 0 -0.53125 0.078125q-0.265625 0.078125 -0.546875 0.28125q-0.28125 0.1875 -0.609375 0.5q-0.3125 0.3125 -0.671875 0.78125l0 3.8125q0.40625 0.15625 0.8125 0.25q0.421875 0.078125 0.796875 0.078125q0.46875 0 0.890625 -0.140625q0.421875 -0.15625 0.75 -0.5q0.328125 -0.34375 0.515625 -0.921875q0.1875 -0.578125 0.1875 -1.421875zm10.109377 4.0l-6.718752 0l0 -1.21875l2.640625 -2.625q0.6406269 -0.640625 1.0468769 -1.109375q0.40625 -0.46875 0.625 -0.859375q0.234375 -0.390625 0.3125 -0.734375q0.078125 -0.34375 0.078125 -0.734375q0 -0.375 -0.109375 -0.71875q-0.09375 -0.34375 -0.3125 -0.59375q-0.203125 -0.265625 -0.546875 -0.40625q-0.328125 -0.15625 -0.796875 -0.15625q-0.6406269 0 -1.1718769 0.296875q-0.53125 0.28125 -0.984375 0.75l-0.75 -0.90625q0.578125 -0.609375 1.328125 -0.96875q0.765625 -0.375 1.7656269 -0.375q0.671875 0 1.234375 0.203125q0.5625 0.203125 0.96875 0.59375q0.40625 0.375 0.625 0.9375q0.21875 0.546875 0.21875 1.25q0 0.578125 -0.15625 1.078125q-0.15625 0.5 -0.46875 1.0q-0.3125 0.5 -0.796875 1.03125q-0.484375 0.53125 -1.140625 1.15625l-1.8437519 1.8125l4.953127 0l0 1.296875z" fill-rule="nonzero"/><path fill="#000000" fill-opacity="0.0" d="m114.675095 207.8849l0 -5.7637787" fill-rule="evenodd"/><path stroke="#000000" stroke-width="1.0" stroke-linejoin="round" stroke-linecap="butt" d="m114.675095 207.8849l0 -5.7637787" fill-rule="evenodd"/><path fill="#000000" fill-opacity="0.0" d="m90.675095 207.8849l0 -5.7637787" fill-rule="evenodd"/><path stroke="#000000" stroke-width="1.0" stroke-linejoin="round" stroke-linecap="butt" d="m90.675095 207.8849l0 -5.7637787" fill-rule="evenodd"/><path fill="#d9d9d9" d="m54.61155 183.89095l95.937004 0l0 23.811035l-95.937004 0z" fill-rule="evenodd"/><path stroke="#000000" stroke-width="1.0" stroke-linejoin="round" stroke-linecap="butt" d="m54.61155 183.89095l95.937004 0l0 23.811035l-95.937004 0z" fill-rule="evenodd"/><path fill="#000000" fill-opacity="0.0" d="m102.580055 207.70198l0 0" fill-rule="evenodd"/><path stroke="#000000" stroke-width="1.0" stroke-linejoin="round" stroke-linecap="butt" d="m102.580055 207.70198l0 0" fill-rule="evenodd"/><path fill="#000000" fill-opacity="0.0" d="m102.580055 207.70198l0 0" fill-rule="evenodd"/><path stroke="#000000" stroke-width="1.0" stroke-linejoin="round" stroke-linecap="butt" d="m102.580055 207.70198l0 0" fill-rule="evenodd"/><path fill="#000000" fill-opacity="0.0" d="m102.580055 207.70198l0 -5.7637787" fill-rule="evenodd"/><path stroke="#000000" stroke-width="1.0" stroke-linejoin="round" stroke-linecap="butt" d="m102.580055 207.70198l0 -5.7637787" fill-rule="evenodd"/><path fill="#000000" fill-opacity="0.0" d="m126.580055 207.70198l0 -5.7637787" fill-rule="evenodd"/><path stroke="#000000" stroke-width="1.0" stroke-linejoin="round" stroke-linecap="butt" d="m126.580055 207.70198l0 -5.7637787" fill-rule="evenodd"/><path fill="#000000" fill-opacity="0.0" d="m78.580055 207.70198l0 -5.7637787" fill-rule="evenodd"/><path stroke="#000000" stroke-width="1.0" stroke-linejoin="round" stroke-linecap="butt" d="m78.580055 207.70198l0 -5.7637787" fill-rule="evenodd"/><path fill="#000000" fill-opacity="0.0" d="m114.675095 207.70198l0 -5.7637787" fill-rule="evenodd"/><path stroke="#000000" stroke-width="1.0" stroke-linejoin="round" stroke-linecap="butt" d="m114.675095 207.70198l0 -5.7637787" fill-rule="evenodd"/><path fill="#000000" fill-opacity="0.0" d="m138.6751 207.70198l0 -5.7637787" fill-rule="evenodd"/><path stroke="#000000" stroke-width="1.0" stroke-linejoin="round" stroke-linecap="butt" d="m138.6751 207.70198l0 -5.7637787" fill-rule="evenodd"/><path fill="#000000" fill-opacity="0.0" d="m90.675095 207.70198l0 -5.7637787" fill-rule="evenodd"/><path stroke="#000000" stroke-width="1.0" stroke-linejoin="round" stroke-linecap="butt" d="m90.675095 207.70198l0 -5.7637787" fill-rule="evenodd"/><path fill="#000000" fill-opacity="0.0" d="m90.675095 207.70198l0 -5.7637787" fill-rule="evenodd"/><path stroke="#000000" stroke-width="1.0" stroke-linejoin="round" stroke-linecap="butt" d="m90.675095 207.70198l0 -5.7637787" fill-rule="evenodd"/><path fill="#000000" fill-opacity="0.0" d="m114.675095 207.70198l0 -5.7637787" fill-rule="evenodd"/><path stroke="#000000" stroke-width="1.0" stroke-linejoin="round" stroke-linecap="butt" d="m114.675095 207.70198l0 -5.7637787" fill-rule="evenodd"/><path fill="#000000" fill-opacity="0.0" d="m66.675095 207.70198l0 -5.7637787" fill-rule="evenodd"/><path stroke="#000000" stroke-width="1.0" stroke-linejoin="round" stroke-linecap="butt" d="m66.675095 207.70198l0 -5.7637787" fill-rule="evenodd"/><path fill="#000000" fill-opacity="0.0" d="m114.675095 146.38058l0 -5.763794" fill-rule="evenodd"/><path stroke="#000000" stroke-width="1.0" stroke-linejoin="round" stroke-linecap="butt" d="m114.675095 146.38058l0 -5.763794" fill-rule="evenodd"/><path fill="#000000" fill-opacity="0.0" d="m90.675095 146.38058l0 -5.763794" fill-rule="evenodd"/><path stroke="#000000" stroke-width="1.0" stroke-linejoin="round" stroke-linecap="butt" d="m90.675095 146.38058l0 -5.763794" fill-rule="evenodd"/><path fill="#d9d9d9" d="m54.61155 122.38663l95.937004 0l0 23.81102l-95.937004 0z" fill-rule="evenodd"/><path stroke="#000000" stroke-width="1.0" stroke-linejoin="round" stroke-linecap="butt" d="m54.61155 122.38663l95.937004 0l0 23.81102l-95.937004 0z" fill-rule="evenodd"/><path fill="#000000" fill-opacity="0.0" d="m102.580055 146.19765l0 0" fill-rule="evenodd"/><path stroke="#000000" stroke-width="1.0" stroke-linejoin="round" stroke-linecap="butt" d="m102.580055 146.19765l0 0" fill-rule="evenodd"/><path fill="#000000" fill-opacity="0.0" d="m102.580055 146.19765l0 0" fill-rule="evenodd"/><path stroke="#000000" stroke-width="1.0" stroke-linejoin="round" stroke-linecap="butt" d="m102.580055 146.19765l0 0" fill-rule="evenodd"/><path fill="#000000" fill-opacity="0.0" d="m102.580055 146.19765l0 -5.7637787" fill-rule="evenodd"/><path stroke="#000000" stroke-width="1.0" stroke-linejoin="round" stroke-linecap="butt" d="m102.580055 146.19765l0 -5.7637787" fill-rule="evenodd"/><path fill="#000000" fill-opacity="0.0" d="m126.580055 146.19765l0 -5.7637787" fill-rule="evenodd"/><path stroke="#000000" stroke-width="1.0" stroke-linejoin="round" stroke-linecap="butt" d="m126.580055 146.19765l0 -5.7637787" fill-rule="evenodd"/><path fill="#000000" fill-opacity="0.0" d="m78.580055 146.19765l0 -5.7637787" fill-rule="evenodd"/><path stroke="#000000" stroke-width="1.0" stroke-linejoin="round" stroke-linecap="butt" d="m78.580055 146.19765l0 -5.7637787" fill-rule="evenodd"/><path fill="#000000" fill-opacity="0.0" d="m114.675095 146.19765l0 -5.7637787" fill-rule="evenodd"/><path stroke="#000000" stroke-width="1.0" stroke-linejoin="round" stroke-linecap="butt" d="m114.675095 146.19765l0 -5.7637787" fill-rule="evenodd"/><path fill="#000000" fill-opacity="0.0" d="m138.6751 146.19765l0 -5.7637787" fill-rule="evenodd"/><path stroke="#000000" stroke-width="1.0" stroke-linejoin="round" stroke-linecap="butt" d="m138.6751 146.19765l0 -5.7637787" fill-rule="evenodd"/><path fill="#000000" fill-opacity="0.0" d="m90.675095 146.19765l0 -5.7637787" fill-rule="evenodd"/><path stroke="#000000" stroke-width="1.0" stroke-linejoin="round" stroke-linecap="butt" d="m90.675095 146.19765l0 -5.7637787" fill-rule="evenodd"/><path fill="#000000" fill-opacity="0.0" d="m90.675095 146.19765l0 -5.7637787" fill-rule="evenodd"/><path stroke="#000000" stroke-width="1.0" stroke-linejoin="round" stroke-linecap="butt" d="m90.675095 146.19765l0 -5.7637787" fill-rule="evenodd"/><path fill="#000000" fill-opacity="0.0" d="m114.675095 146.19765l0 -5.7637787" fill-rule="evenodd"/><path stroke="#000000" stroke-width="1.0" stroke-linejoin="round" stroke-linecap="butt" d="m114.675095 146.19765l0 -5.7637787" fill-rule="evenodd"/><path fill="#000000" fill-opacity="0.0" d="m66.675095 146.19765l0 -5.7637787" fill-rule="evenodd"/><path stroke="#000000" stroke-width="1.0" stroke-linejoin="round" stroke-linecap="butt" d="m66.675095 146.19765l0 -5.7637787" fill-rule="evenodd"/><path fill="#000000" fill-opacity="0.0" d="m46.540745 207.9256c-2.1873093 0 -3.960472 -1.7731628 -3.960472 -3.9604797l0 -15.842834c0 -2.1873016 -1.7731628 -3.9604645 -3.960472 -3.9604645c2.1873093 0 3.960472 -1.7731628 3.960472 -3.9604797l0 -15.842834l0 0c0 -2.1873016 1.7731628 -3.9604645 3.960472 -3.9604645l415.18173 0c1.0503845 0 2.0577393 0.4172516 2.800476 1.1599884c0.7427368 0.7427368 1.1600037 1.7500916 1.1600037 2.800476l0 15.842834c0 2.187317 1.7731628 3.9604797 3.9604797 3.9604797c-2.187317 0 -3.9604797 1.7731628 -3.9604797 3.9604645l0 15.842834c0 2.187317 -1.7731628 3.9604797 -3.9604797 3.9604797z" fill-rule="evenodd"/><path fill="#000000" fill-opacity="0.0" d="m46.540745 207.9256c-2.1873093 0 -3.960472 -1.7731628 -3.960472 -3.9604797l0 -15.842834c0 -2.1873016 -1.7731628 -3.9604645 -3.960472 -3.9604645c2.1873093 0 3.960472 -1.7731628 3.960472 -3.9604797l0 -15.842834l0 0c0 -2.1873016 1.7731628 -3.9604645 3.960472 -3.9604645m415.18173 0c1.0503845 0 2.0577393 0.4172516 2.800476 1.1599884c0.7427368 0.7427368 1.1600037 1.7500916 1.1600037 2.800476l0 15.842834c0 2.187317 1.7731628 3.9604797 3.9604797 3.9604797c-2.187317 0 -3.9604797 1.7731628 -3.9604797 3.9604645l0 15.842834c0 2.187317 -1.7731628 3.9604797 -3.9604797 3.9604797" fill-rule="evenodd"/><path stroke="#000000" stroke-width="1.0" stroke-linejoin="round" stroke-linecap="butt" d="m46.540745 207.9256c-2.1873093 0 -3.960472 -1.7731628 -3.960472 -3.9604797l0 -15.842834c0 -2.1873016 -1.7731628 -3.9604645 -3.960472 -3.9604645c2.1873093 0 3.960472 -1.7731628 3.960472 -3.9604797l0 -15.842834l0 0c0 -2.1873016 1.7731628 -3.9604645 3.960472 -3.9604645m415.18173 0c1.0503845 0 2.0577393 0.4172516 2.800476 1.1599884c0.7427368 0.7427368 1.1600037 1.7500916 1.1600037 2.800476l0 15.842834c0 2.187317 1.7731628 3.9604797 3.9604797 3.9604797c-2.187317 0 -3.9604797 1.7731628 -3.9604797 3.9604645l0 15.842834c0 2.187317 -1.7731628 3.9604797 -3.9604797 3.9604797" fill-rule="evenodd"/><path fill="#000000" fill-opacity="0.0" d="m46.540745 146.0971c-2.1873093 0 -3.960472 -1.7731628 -3.960472 -3.9604645l0 -15.842834c0 -2.1873093 -1.7731628 -3.960472 -3.960472 -3.960472c2.1873093 0 3.960472 -1.7731628 3.960472 -3.960472l0 -15.842842l0 0c0 -2.1873016 1.7731628 -3.9604645 3.960472 -3.9604645l415.18173 0c1.0503845 0 2.0577393 0.41725922 2.800476 1.1599884c0.7427368 0.7427368 1.1600037 1.7500992 1.1600037 2.800476l0 15.842842c0 2.1873093 1.7731628 3.960472 3.9604797 3.960472c-2.187317 0 -3.9604797 1.7731628 -3.9604797 3.960472l0 15.842834c0 2.1873016 -1.7731628 3.9604645 -3.9604797 3.9604645z" fill-rule="evenodd"/><path fill="#000000" fill-opacity="0.0" d="m46.540745 146.0971c-2.1873093 0 -3.960472 -1.7731628 -3.960472 -3.9604645l0 -15.842834c0 -2.1873093 -1.7731628 -3.960472 -3.960472 -3.960472c2.1873093 0 3.960472 -1.7731628 3.960472 -3.960472l0 -15.842842l0 0c0 -2.1873016 1.7731628 -3.9604645 3.960472 -3.9604645m415.18173 0c1.0503845 0 2.0577393 0.41725922 2.800476 1.1599884c0.7427368 0.7427368 1.1600037 1.7500992 1.1600037 2.800476l0 15.842842c0 2.1873093 1.7731628 3.960472 3.9604797 3.960472c-2.187317 0 -3.9604797 1.7731628 -3.9604797 3.960472l0 15.842834c0 2.1873016 -1.7731628 3.9604645 -3.9604797 3.9604645" fill-rule="evenodd"/><path stroke="#000000" stroke-width="1.0" stroke-linejoin="round" stroke-linecap="butt" d="m46.540745 146.0971c-2.1873093 0 -3.960472 -1.7731628 -3.960472 -3.9604645l0 -15.842834c0 -2.1873093 -1.7731628 -3.960472 -3.960472 -3.960472c2.1873093 0 3.960472 -1.7731628 3.960472 -3.960472l0 -15.842842l0 0c0 -2.1873016 1.7731628 -3.9604645 3.960472 -3.9604645m415.18173 0c1.0503845 0 2.0577393 0.41725922 2.800476 1.1599884c0.7427368 0.7427368 1.1600037 1.7500992 1.1600037 2.800476l0 15.842842c0 2.1873093 1.7731628 3.960472 3.9604797 3.960472c-2.187317 0 -3.9604797 1.7731628 -3.9604797 3.960472l0 15.842834c0 2.1873016 -1.7731628 3.9604645 -3.9604797 3.9604645" fill-rule="evenodd"/><path fill="#000000" fill-opacity="0.0" d="m101.73753 136.17323c0 -6.5604706 23.490189 -6.61261 46.84906 -13.120934c23.358856 -6.5083237 46.58641 -19.472832 46.849045 -35.691505c0.26264954 -16.218666 -22.439606 -35.6915 -44.87921 -35.6915" fill-rule="evenodd"/><path stroke="#000000" stroke-width="1.0" stroke-linejoin="round" stroke-linecap="butt" d="m103.98965 133.12494l0.06965637 -0.041000366c0.49865723 -0.28598022 1.0717545 -0.5560303 1.7135468 -0.813324c2.5671997 -1.029129 6.2334366 -1.8540802 10.629639 -2.6773987c8.792404 -1.6466293 20.504662 -3.2867584 32.18409 -6.5409164c23.358871 -6.5083237 46.586426 -19.472832 46.84906 -35.691498c0.1313324 -8.109337 -5.4785767 -17.032219 -13.926254 -23.927757c-4.2238464 -3.447773 -9.15712 -6.388714 -14.436935 -8.467705c-2.6399078 -1.0394974 -5.3664246 -1.8635101 -8.134216 -2.4276466c-1.3839111 -0.28207016 -2.7781067 -0.4991684 -4.1769714 -0.64575195c-0.17485046 -0.018325806 -0.34977722 -0.03554535 -0.5247803 -0.051651l-0.25621033 -0.021945953" fill-rule="evenodd"/><path fill="#000000" stroke="#000000" stroke-width="1.0" stroke-linecap="butt" d="m102.034645 135.77107c-0.7307129 -0.53985596 -0.8854294 -1.5698547 -0.34557343 -2.3005676c0.53985596 -0.7307129 1.5698624 -0.88542175 2.3005676 -0.3455658c0.7307129 0.53985596 0.885437 1.5698547 0.34557343 2.3005676c-0.53985596 0.7307129 -1.5698547 0.885437 -2.3005676 0.3455658z" fill-rule="nonzero"/><path fill="#000000" stroke="#000000" stroke-width="1.0" stroke-linecap="butt" d="m153.98027 51.818344l1.1724396 -1.0746078l-3.1357574 0.98913574l3.0379333 1.257904z" fill-rule="evenodd"/><path fill="#000000" fill-opacity="0.0" d="m100.28871 195.79527c0 -10.132782 27.085709 -9.306122 54.45024 -20.265549c27.364548 -10.959442 55.00792 -33.70497 54.45024 -61.93022c-0.55766296 -28.225243 -29.316376 -61.93021 -58.632767 -61.93021" fill-rule="evenodd"/><path stroke="#000000" stroke-width="1.0" stroke-linejoin="round" stroke-linecap="butt" d="m101.674644 192.26778l0.14641571 -0.1603241c0.11074066 -0.11721802 0.22718048 -0.23249817 0.34920502 -0.34599304c0.24406433 -0.22697449 0.51047516 -0.44673157 0.7984314 -0.6599121c0.5759201 -0.42643738 1.2380142 -0.8266907 1.9797363 -1.2063446c2.9668503 -1.518692 7.2077026 -2.707779 12.303703 -3.922699c10.191986 -2.4298706 23.80455 -4.9630737 37.486816 -10.442795c27.364532 -10.959427 55.007904 -33.704956 54.450256 -61.930206c-0.27885437 -14.112625 -7.6079407 -29.595177 -18.53189 -41.549576c-5.46196 -5.9771957 -11.822632 -11.072353 -18.6501 -14.673214c-3.4137268 -1.8004341 -6.9441376 -3.2272873 -10.537277 -4.204033c-1.7965698 -0.4883728 -3.6087952 -0.86421967 -5.4299774 -1.1179771c-0.45529175 -0.063438416 -0.9111328 -0.11924362 -1.3674469 -0.16727066c-0.22814941 -0.02401352 -0.45640564 -0.046081543 -0.68478394 -0.066185l-0.0075531006 -6.0272217E-4" fill-rule="evenodd"/><path fill="#000000" stroke="#000000" stroke-width="1.0" stroke-linecap="butt" d="m100.47156 195.32991c-0.8455887 -0.3322296 -1.2617493 -1.2870331 -0.9295273 -2.1326141c0.33222198 -0.84558105 1.2870255 -1.2617493 2.1326141 -0.92951965c0.84558105 0.33221436 1.2617493 1.2870178 0.92951965 2.1325989c-0.33222198 0.8455963 -1.2870255 1.2617493 -2.1326065 0.9295349z" fill-rule="nonzero"/><path fill="#000000" stroke="#000000" stroke-width="1.0" stroke-linecap="butt" d="m153.98018 51.820644l1.1731415 -1.073822l-3.1364136 0.98703l3.037094 1.2599449z" fill-rule="evenodd"/></g></svg>