<svg version="1.1" viewBox="0.0 0.0 232.17060367454067 183.49343832020998" fill="none" stroke="none" stroke-linecap="square" stroke-miterlimit="10" xmlns:xlink="http://www.w3.org/1999/xlink" xmlns="http://www.w3.org/2000/svg"><clipPath id="p.0"><path d="m0 0l232.17061 0l0 183.49344l-232.17061 0l0 -183.49344z" clip-rule="nonzero"/></clipPath><g clip-path="url(#p.0)"><path fill="#000000" fill-opacity="0.0" d="m0 0l232.17061 0l0 183.49344l-232.17061 0z" fill-rule="evenodd"/><path fill="#000000" fill-opacity="0.0" d="m118.580055 90.38058l0 0" fill-rule="evenodd"/><path stroke="#000000" stroke-width="1.0" stroke-linejoin="round" stroke-linecap="butt" d="m118.580055 90.38058l0 0" fill-rule="evenodd"/><path fill="#000000" fill-opacity="0.0" d="m118.580055 90.38058l0 0" fill-rule="evenodd"/><path stroke="#000000" stroke-width="1.0" stroke-linejoin="round" stroke-linecap="butt" d="m118.580055 90.38058l0 0" fill-rule="evenodd"/><path fill="#000000" fill-opacity="0.0" d="m130.6751 90.38058l0 -5.7637787" fill-rule="evenodd"/><path stroke="#000000" stroke-width="1.0" stroke-linejoin="round" stroke-linecap="butt" d="m130.6751 90.38058l0 -5.7637787" fill-rule="evenodd"/><path fill="#000000" fill-opacity="0.0" d="m106.675095 90.38058l0 -5.7637787" fill-rule="evenodd"/><path stroke="#000000" stroke-width="1.0" stroke-linejoin="round" stroke-linecap="butt" d="m106.675095 90.38058l0 -5.7637787" fill-rule="evenodd"/><path fill="#d9d9d9" d="m70.61155 66.56956l95.937004 0l0 23.81102l-95.937004 0z" fill-rule="evenodd"/><path stroke="#000000" stroke-width="1.0" stroke-linejoin="round" stroke-linecap="butt" d="m70.61155 66.56956l95.937004 0l0 23.81102l-95.937004 0z" fill-rule="evenodd"/><path fill="#000000" fill-opacity="0.0" d="m118.580055 90.38058l0 -5.7637787" fill-rule="evenodd"/><path stroke="#000000" stroke-width="1.0" stroke-linejoin="round" stroke-linecap="butt" d="m118.580055 90.38058l0 -5.7637787" fill-rule="evenodd"/><path fill="#000000" fill-opacity="0.0" d="m142.58005 90.38058l0 -5.7637787" fill-rule="evenodd"/><path stroke="#000000" stroke-width="1.0" stroke-linejoin="round" stroke-linecap="butt" d="m142.58005 90.38058l0 -5.7637787" fill-rule="evenodd"/><path fill="#000000" fill-opacity="0.0" d="m94.580055 90.38058l0 -5.7637787" fill-rule="evenodd"/><path stroke="#000000" stroke-width="1.0" stroke-linejoin="round" stroke-linecap="butt" d="m94.580055 90.38058l0 -5.7637787" fill-rule="evenodd"/><path fill="#000000" fill-opacity="0.0" d="m154.6751 90.38058l0 -5.7637787" fill-rule="evenodd"/><path stroke="#000000" stroke-width="1.0" stroke-linejoin="round" stroke-linecap="butt" d="m154.6751 90.38058l0 -5.7637787" fill-rule="evenodd"/><path fill="#000000" fill-opacity="0.0" d="m106.675095 90.38058l0 -5.7637787" fill-rule="evenodd"/><path stroke="#000000" stroke-width="1.0" stroke-linejoin="round" stroke-linecap="butt" d="m106.675095 90.38058l0 -5.7637787" fill-rule="evenodd"/><path fill="#000000" fill-opacity="0.0" d="m130.6751 90.38058l0 -5.7637787" fill-rule="evenodd"/><path stroke="#000000" stroke-width="1.0" stroke-linejoin="round" stroke-linecap="butt" d="m130.6751 90.38058l0 -5.7637787" fill-rule="evenodd"/><path fill="#000000" fill-opacity="0.0" d="m82.675095 90.38058l0 -5.7637787" fill-rule="evenodd"/><path stroke="#000000" stroke-width="1.0" stroke-linejoin="round" stroke-linecap="butt" d="m82.675095 90.38058l0 -5.7637787" fill-rule="evenodd"/><path fill="#d9d9d9" d="m70.61155 90.38663l95.937004 0l0 23.811028l-95.937004 0z" fill-rule="evenodd"/><path stroke="#000000" stroke-width="1.0" stroke-linejoin="round" stroke-linecap="butt" d="m70.61155 90.38663l95.937004 0l0 23.811028l-95.937004 0z" fill-rule="evenodd"/><path fill="#000000" fill-opacity="0.0" d="m118.580055 114.197655l0 0" fill-rule="evenodd"/><path stroke="#000000" stroke-width="1.0" stroke-linejoin="round" stroke-linecap="butt" d="m118.580055 114.197655l0 0" fill-rule="evenodd"/><path fill="#000000" fill-opacity="0.0" d="m118.580055 114.197655l0 0" fill-rule="evenodd"/><path stroke="#000000" stroke-width="1.0" stroke-linejoin="round" stroke-linecap="butt" d="m118.580055 114.197655l0 0" fill-rule="evenodd"/><path fill="#000000" fill-opacity="0.0" d="m118.580055 114.197655l0 -5.7637787" fill-rule="evenodd"/><path stroke="#000000" stroke-width="1.0" stroke-linejoin="round" stroke-linecap="butt" d="m118.580055 114.197655l0 -5.7637787" fill-rule="evenodd"/><path fill="#000000" fill-opacity="0.0" d="m142.58005 114.197655l0 -5.7637787" fill-rule="evenodd"/><path stroke="#000000" stroke-width="1.0" stroke-linejoin="round" stroke-linecap="butt" d="m142.58005 114.197655l0 -5.7637787" fill-rule="evenodd"/><path fill="#000000" fill-opacity="0.0" d="m94.580055 114.197655l0 -5.7637787" fill-rule="evenodd"/><path stroke="#000000" stroke-width="1.0" stroke-linejoin="round" stroke-linecap="butt" d="m94.580055 114.197655l0 -5.7637787" fill-rule="evenodd"/><path fill="#000000" fill-opacity="0.0" d="m130.6751 114.197655l0 -5.7637787" fill-rule="evenodd"/><path stroke="#000000" stroke-width="1.0" stroke-linejoin="round" stroke-linecap="butt" d="m130.6751 114.197655l0 -5.7637787" fill-rule="evenodd"/><path fill="#000000" fill-opacity="0.0" d="m154.6751 114.197655l0 -5.7637787" fill-rule="evenodd"/><path stroke="#000000" stroke-width="1.0" stroke-linejoin="round" stroke-linecap="butt" d="m154.6751 114.197655l0 -5.7637787" fill-rule="evenodd"/><path fill="#000000" fill-opacity="0.0" d="m106.675095 114.197655l0 -5.7637787" fill-rule="evenodd"/><path stroke="#000000" stroke-width="1.0" stroke-linejoin="round" stroke-linecap="butt" d="m106.675095 114.197655l0 -5.7637787" fill-rule="evenodd"/><path fill="#000000" fill-opacity="0.0" d="m106.675095 114.197655l0 -5.7637787" fill-rule="evenodd"/><path stroke="#000000" stroke-width="1.0" stroke-linejoin="round" stroke-linecap="butt" d="m106.675095 114.197655l0 -5.7637787" fill-rule="evenodd"/><path fill="#000000" fill-opacity="0.0" d="m130.6751 114.197655l0 -5.7637787" fill-rule="evenodd"/><path stroke="#000000" stroke-width="1.0" stroke-linejoin="round" stroke-linecap="butt" d="m130.6751 114.197655l0 -5.7637787" fill-rule="evenodd"/><path fill="#000000" fill-opacity="0.0" d="m82.675095 114.197655l0 -5.7637787" fill-rule="evenodd"/><path stroke="#000000" stroke-width="1.0" stroke-linejoin="round" stroke-linecap="butt" d="m82.675095 114.197655l0 -5.7637787" fill-rule="evenodd"/><path fill="#d9d9d9" d="m70.61155 114.203705l95.937004 0l0 23.81102l-95.937004 0z" fill-rule="evenodd"/><path stroke="#000000" stroke-width="1.0" stroke-linejoin="round" stroke-linecap="butt" d="m70.61155 114.203705l95.937004 0l0 23.81102l-95.937004 0z" fill-rule="evenodd"/><path fill="#000000" fill-opacity="0.0" d="m118.580055 138.01472l0 0" fill-rule="evenodd"/><path stroke="#000000" stroke-width="1.0" stroke-linejoin="round" stroke-linecap="butt" d="m118.580055 138.01472l0 0" fill-rule="evenodd"/><path fill="#000000" fill-opacity="0.0" d="m118.580055 138.01472l0 0" fill-rule="evenodd"/><path stroke="#000000" stroke-width="1.0" stroke-linejoin="round" stroke-linecap="butt" d="m118.580055 138.01472l0 0" fill-rule="evenodd"/><path fill="#000000" fill-opacity="0.0" d="m118.580055 138.01472l0 -5.7637787" fill-rule="evenodd"/><path stroke="#000000" stroke-width="1.0" stroke-linejoin="round" stroke-linecap="butt" d="m118.580055 138.01472l0 -5.7637787" fill-rule="evenodd"/><path fill="#000000" fill-opacity="0.0" d="m142.58005 138.01472l0 -5.7637787" fill-rule="evenodd"/><path stroke="#000000" stroke-width="1.0" stroke-linejoin="round" stroke-linecap="butt" d="m142.58005 138.01472l0 -5.7637787" fill-rule="evenodd"/><path fill="#000000" fill-opacity="0.0" d="m94.580055 138.01472l0 -5.7637787" fill-rule="evenodd"/><path stroke="#000000" stroke-width="1.0" stroke-linejoin="round" stroke-linecap="butt" d="m94.580055 138.01472l0 -5.7637787" fill-rule="evenodd"/><path fill="#000000" fill-opacity="0.0" d="m130.6751 138.01472l0 -5.7637787" fill-rule="evenodd"/><path stroke="#000000" stroke-width="1.0" stroke-linejoin="round" stroke-linecap="butt" d="m130.6751 138.01472l0 -5.7637787" fill-rule="evenodd"/><path fill="#000000" fill-opacity="0.0" d="m154.6751 138.01472l0 -5.7637787" fill-rule="evenodd"/><path stroke="#000000" stroke-width="1.0" stroke-linejoin="round" stroke-linecap="butt" d="m154.6751 138.01472l0 -5.7637787" fill-rule="evenodd"/><path fill="#000000" fill-opacity="0.0" d="m106.675095 138.01472l0 -5.7637787" fill-rule="evenodd"/><path stroke="#000000" stroke-width="1.0" stroke-linejoin="round" stroke-linecap="butt" d="m106.675095 138.01472l0 -5.7637787" fill-rule="evenodd"/><path fill="#000000" fill-opacity="0.0" d="m106.675095 138.01472l0 -5.7637787" fill-rule="evenodd"/><path stroke="#000000" stroke-width="1.0" stroke-linejoin="round" stroke-linecap="butt" d="m106.675095 138.01472l0 -5.7637787" fill-rule="evenodd"/><path fill="#000000" fill-opacity="0.0" d="m130.6751 138.01472l0 -5.7637787" fill-rule="evenodd"/><path stroke="#000000" stroke-width="1.0" stroke-linejoin="round" stroke-linecap="butt" d="m130.6751 138.01472l0 -5.7637787" fill-rule="evenodd"/><path fill="#000000" fill-opacity="0.0" d="m82.675095 138.01472l0 -5.7637787" fill-rule="evenodd"/><path stroke="#000000" stroke-width="1.0" stroke-linejoin="round" stroke-linecap="butt" d="m82.675095 138.01472l0 -5.7637787" fill-rule="evenodd"/><path fill="#000000" fill-opacity="0.0" d="m2.367454 42.75853l68.25197 0l0 42.015747l-68.25197 0z" fill-rule="evenodd"/><path fill="#000000" fill-opacity="0.0" d="m6.454068 114.197655l64.15748 0l0 23.811028l-64.15748 0z" fill-rule="evenodd"/><path fill="#000000" d="m51.970924 127.80067q0 1.0468674 -0.296875 1.8281174q-0.28125 0.78125 -0.796875 1.296875q-0.515625 0.515625 -1.21875 0.78125q-0.703125 0.25 -1.53125 0.25q-0.375 0 -0.75 -0.046875q-0.359375 -0.03125 -0.75 -0.125l0 3.28125l-1.359375 0l0 -11.046867l1.21875 0l0.078125 1.3125q0.59375 -0.8125 1.25 -1.125q0.671875 -0.328125 1.4375 -0.328125q0.671875 0 1.171875 0.28125q0.515625 0.28125 0.859375 0.796875q0.34375 0.5 0.515625 1.234375q0.171875 0.71875 0.171875 1.609375zm-1.390625 0.0625q0 -0.625 -0.09375 -1.140625q-0.078125 -0.515625 -0.28125 -0.875q-0.1875 -0.375 -0.5 -0.578125q-0.296875 -0.203125 -0.71875 -0.203125q-0.265625 0 -0.53125 0.078125q-0.265625 0.078125 -0.546875 0.28125q-0.28125 0.1875 -0.609375 0.5q-0.3125 0.3125 -0.671875 0.78125l0 3.8124924q0.375 0.15625 0.78125 0.25q0.421875 0.078125 0.828125 0.078125q1.09375 0 1.71875 -0.734375q0.625 -0.75 0.625 -2.2499924zm9.8125 3.8906174q-0.46875 0.125 -0.96875 0.171875q-0.484375 0.046875 -0.984375 0.046875q-1.484375 0 -2.21875 -0.671875q-0.71875 -0.671875 -0.71875 -2.046875l0 -4.0937424l-2.1875 0l0 -1.140625l2.1875 0l0 -2.15625l1.359375 -0.359375l0 2.515625l3.53125 0l0 1.140625l-3.53125 0l0 3.9843674q0 0.84375 0.453125 1.265625q0.453125 0.40625 1.328125 0.40625q0.375 0 0.8125 -0.046875q0.453125 -0.0625 0.9375 -0.1875l0 1.171875z" fill-rule="nonzero"/><path fill="#000000" fill-opacity="0.0" d="m118.580055 138.01472l0 -23.81102" fill-rule="evenodd"/><path stroke="#000000" stroke-width="1.0" stroke-linejoin="round" stroke-linecap="butt" d="m118.580055 138.01472l0 -23.81102" fill-rule="evenodd"/><path fill="#000000" fill-opacity="0.0" d="m6.454068 90.38663l64.15748 0l0 23.811028l-64.15748 0z" fill-rule="evenodd"/><path fill="#000000" d="m61.1428 108.05214l-1.8125 0l-2.109375 -3.0l-2.09375 3.0l-1.765625 0l3.046875 -3.9375l-2.90625 -3.90625l1.75 0l2.0625 3.015625l2.015625 -3.015625l1.6875 0l-2.953125 3.9375l3.078125 3.90625z" fill-rule="nonzero"/><path fill="#000000" fill-opacity="0.0" d="m6.454068 66.57036l64.15748 0l0 23.81102l-64.15748 0z" fill-rule="evenodd"/><path fill="#000000" d="m19.205301 76.39212l1.234375 0l0.046875 1.4375q0.6875 -0.828125 1.359375 -1.203125q0.6875 -0.375 1.375 -0.375q1.21875 0 1.84375 0.796875q0.625 0.78125 0.578125 2.328125l-1.375 0q0.03125 -1.03125 -0.296875 -1.484375q-0.328125 -0.46875 -0.953125 -0.46875q-0.265625 0 -0.546875 0.09375q-0.28125 0.09375 -0.578125 0.3125q-0.28125 0.21875 -0.609375 0.5625q-0.328125 0.328125 -0.703125 0.796875l0 5.046875l-1.375 0l0 -7.84375zm15.093748 3.5q0 0.296875 -0.015625 0.5q0 0.1875 -0.015625 0.359375l-5.499998 0q0 1.203125 0.671875 1.84375q0.671875 0.640625 1.9375 0.640625q0.34375 0 0.6874981 -0.015625q0.34375 -0.03125 0.65625 -0.078125q0.328125 -0.046875 0.609375 -0.109375q0.296875 -0.0625 0.546875 -0.125l0 1.109375q-0.546875 0.15625 -1.25 0.25q-0.7031231 0.109375 -1.4531231 0.109375q-1.0 0 -1.734375 -0.265625q-0.71875 -0.28125 -1.1875 -0.796875q-0.46875 -0.53125 -0.6875 -1.28125q-0.21875 -0.75 -0.21875 -1.703125q0 -0.828125 0.234375 -1.5625q0.234375 -0.75 0.6875 -1.296875q0.46875 -0.5625 1.125 -0.890625q0.671875 -0.328125 1.515625 -0.328125q0.8125 0 1.4374981 0.265625q0.640625 0.25 1.078125 0.71875q0.4375 0.46875 0.65625 1.15625q0.21875 0.671875 0.21875 1.5zm-1.40625 -0.1875q0.015625 -0.53125 -0.109375 -0.953125q-0.125 -0.4375 -0.390625 -0.75q-0.25 -0.3125 -0.6406231 -0.484375q-0.390625 -0.1875 -0.90625 -0.1875q-0.453125 0 -0.828125 0.171875q-0.359375 0.171875 -0.625 0.484375q-0.265625 0.3125 -0.4375 0.75q-0.15625 0.4375 -0.1875 0.96875l4.124998 0zm10.546875 -5.25q-1.078125 -0.21875 -1.84375 -0.21875q-1.84375 0 -1.84375 1.921875l0 1.375l3.4375 0l0 1.125l-3.4375 0l0 5.578125l-1.375 0l0 -5.578125l-2.53125 0l0 -1.125l2.53125 0l0 -1.296875q0 -3.140625 3.265625 -3.140625q0.8125 0 1.796875 0.1875l0 1.171875zm-8.21875 1.9375l0 0zm17.59375 11.046875l-8.796875 0l0 -1.125l8.796875 0l0 1.125zm8.328125 -3.203125l-1.8125 0l-2.109375 -3.0l-2.09375 3.0l-1.765625 0l3.046875 -3.9375l-2.90625 -3.90625l1.75 0l2.0625 3.015625l2.015625 -3.015625l1.6875 0l-2.953125 3.9375l3.078125 3.90625z" fill-rule="nonzero"/><path fill="#000000" fill-opacity="0.0" d="m70.61942 90.3937l95.937004 0l0 18.551186l-95.937004 0z" fill-rule="evenodd"/><path fill="#000000" d="m121.36722 100.16116q0 0.875 -0.171875 1.609375q-0.171875 0.71875 -0.53125 1.234375q-0.359375 0.515625 -0.890625 0.8125q-0.53125 0.28125 -1.25 0.28125q-0.609375 0 -1.109375 -0.234375q-0.5 -0.234375 -0.859375 -0.703125q-0.359375 -0.484375 -0.5625 -1.234375q-0.1875 -0.75 -0.1875 -1.765625q0 -0.875 0.171875 -1.59375q0.1875 -0.734375 0.53125 -1.25q0.359375 -0.53125 0.890625 -0.8125q0.546875 -0.28125 1.25 -0.28125q0.609375 0 1.109375 0.234375q0.515625 0.234375 0.875 0.71875q0.359375 0.484375 0.546875 1.234375q0.1875 0.734375 0.1875 1.75zm-1.03125 0.03125q0 -0.1875 -0.015625 -0.390625q-0.015625 -0.203125 -0.03125 -0.390625l-3.234375 2.421875q0.09375 0.296875 0.21875 0.5625q0.140625 0.25 0.328125 0.4375q0.1875 0.1875 0.421875 0.296875q0.25 0.09375 0.5625 0.09375q0.40625 0 0.71875 -0.1875q0.328125 -0.203125 0.5625 -0.578125q0.234375 -0.390625 0.34375 -0.953125q0.125 -0.5625 0.125 -1.3125zm-3.5 -0.0625q0 0.171875 0 0.359375q0 0.1875 0.03125 0.359375l3.234375 -2.40625q-0.09375 -0.296875 -0.234375 -0.53125q-0.125 -0.25 -0.3125 -0.421875q-0.1875 -0.1875 -0.4375 -0.28125q-0.234375 -0.109375 -0.53125 -0.109375q-0.390625 0 -0.71875 0.203125q-0.328125 0.1875 -0.5625 0.578125q-0.21875 0.375 -0.34375 0.9375q-0.125 0.5625 -0.125 1.3125z" fill-rule="nonzero"/><path fill="#000000" fill-opacity="0.0" d="m70.61942 114.3937l47.968506 0l0 18.551186l-47.968506 0z" fill-rule="evenodd"/><path fill="#000000" d="m97.1486 127.98929l-4.8125 0l0 -0.953125l1.96875 0l0 -5.59375l-1.828125 1.0l-0.375 -0.859375l2.4375 -1.28125l0.890625 0l0 6.734375l1.71875 0l0 0.953125z" fill-rule="nonzero"/><path fill="#000000" fill-opacity="0.0" d="m118.61942 114.3937l47.9685 0l0 18.551186l-47.9685 0z" fill-rule="evenodd"/><path fill="#000000" d="m145.21109 127.98929l-5.046875 0l0 -0.921875l1.984375 -1.96875q0.484375 -0.46875 0.78125 -0.8125q0.3125 -0.359375 0.484375 -0.640625q0.171875 -0.296875 0.21875 -0.546875q0.0625 -0.265625 0.0625 -0.578125q0 -0.28125 -0.078125 -0.53125q-0.0625 -0.25 -0.234375 -0.4375q-0.15625 -0.203125 -0.40625 -0.3125q-0.25 -0.109375 -0.59375 -0.109375q-0.5 0 -0.90625 0.21875q-0.390625 0.21875 -0.71875 0.5625l-0.5625 -0.671875q0.4375 -0.46875 1.0 -0.734375q0.5625 -0.28125 1.3125 -0.28125q0.515625 0 0.921875 0.15625q0.421875 0.15625 0.71875 0.4375q0.3125 0.28125 0.484375 0.703125q0.171875 0.421875 0.171875 0.9375q0 0.4375 -0.125 0.8125q-0.109375 0.375 -0.359375 0.75q-0.234375 0.375 -0.59375 0.78125q-0.359375 0.390625 -0.84375 0.859375l-1.390625 1.359375l3.71875 0l0 0.96875z" fill-rule="nonzero"/><path fill="#000000" fill-opacity="0.0" d="m115.784775 75.480316c44.10762 0 81.86879 6.047241 88.21524 12.09449c6.346466 6.047241 -18.721786 12.094482 -37.44359 12.094482" fill-rule="evenodd"/><path stroke="#000000" stroke-width="1.0" stroke-linejoin="round" stroke-linecap="butt" d="m119.574745 75.495766l0.3257599 0.0020828247c1.3652039 0.011627197 2.7234497 0.028968811 4.0739594 0.051856995c2.7010193 0.045768738 5.371147 0.11367798 8.004219 0.20226288c5.266159 0.17716217 10.384201 0.43701172 15.3051605 0.76771545c9.841904 0.6614151 18.895462 1.6063004 26.768997 2.740158c15.747055 2.2677155 26.773956 5.291336 29.947174 8.314964c3.173233 3.0236206 -1.5072174 6.047241 -9.321213 8.314957c-3.9069824 1.1338577 -8.597351 2.078743 -13.481094 2.740158c-2.441864 0.33071136 -4.932068 0.5905533 -7.396881 0.76771545c-1.2323761 0.0885849 -2.458435 0.15649414 -3.6688995 0.20226288l-0.14901733 0.004966736" fill-rule="evenodd"/><path fill="#000000" stroke="#000000" stroke-width="1.0" stroke-linecap="butt" d="m116.284775 75.48235c0.0037002563 -0.9085007 0.74318695 -1.641983 1.6516876 -1.6382828c0.9085007 0.0037078857 1.641983 0.7431946 1.6382828 1.6516953c-0.0037002563 0.9085007 -0.7431946 1.641983 -1.6516953 1.6382828c-0.9085007 -0.0037078857 -1.641983 -0.7431946 -1.6382751 -1.6516953z" fill-rule="nonzero"/><path fill="#000000" stroke="#000000" stroke-width="1.0" stroke-linecap="butt" d="m169.98291 99.604866l1.103241 -1.1455231l-3.0680695 1.1824646l3.1103516 1.0663071z" fill-rule="evenodd"/><path fill="#000000" fill-opacity="0.0" d="m70.488556 21.38845l0 150.99213" fill-rule="evenodd"/><path stroke="#000000" stroke-width="1.0" stroke-linejoin="round" stroke-linecap="butt" d="m70.488556 21.38845l0 150.99213" fill-rule="evenodd"/><path fill="#000000" fill-opacity="0.0" d="m166.48856 21.38845l0 150.99213" fill-rule="evenodd"/><path stroke="#000000" stroke-width="1.0" stroke-linejoin="round" stroke-linecap="butt" d="m166.48856 21.38845l0 150.99213" fill-rule="evenodd"/><path fill="#000000" fill-opacity="0.0" d="m77.5538 -7.8188977l80.346466 0l0 42.015747l-80.346466 0z" fill-rule="evenodd"/><path fill="#000000" d="m95.24136 15.6121025l1.65625 -0.140625q0.125 1.0 0.546875 1.640625q0.4375 0.640625 1.34375 1.046875q0.921875 0.390625 2.0625 0.390625q1.0 0 1.78125 -0.296875q0.78125 -0.296875 1.15625 -0.8125q0.375 -0.53125 0.375 -1.15625q0 -0.625 -0.375 -1.09375q-0.359375 -0.46875 -1.1875 -0.796875q-0.546875 -0.203125 -2.390625 -0.640625q-1.828125 -0.453125 -2.5625 -0.84375q-0.96875 -0.5 -1.4375 -1.234375q-0.46875 -0.75 -0.46875 -1.671875q0 -1.0 0.578125 -1.875q0.578125 -0.8906255 1.671875 -1.3437505q1.109375 -0.453125 2.453125 -0.453125q1.484375 0 2.609375 0.484375q1.140625 0.46875 1.75 1.4062505q0.609375 0.921875 0.65625 2.09375l-1.6875 0.125q-0.140625 -1.265625 -0.9375 -1.90625q-0.78125 -0.6562505 -2.3125 -0.6562505q-1.609375 0 -2.34375 0.5937505q-0.734375 0.59375 -0.734375 1.421875q0 0.71875 0.53125 1.171875q0.5 0.46875 2.65625 0.96875q2.15625 0.484375 2.953125 0.84375q1.171875 0.53125 1.71875 1.359375q0.5625 0.828125 0.5625 1.90625q0 1.0625 -0.609375 2.015625q-0.609375 0.9375 -1.75 1.46875q-1.140625 0.515625 -2.578125 0.515625q-1.8125 0 -3.046875 -0.53125q-1.21875 -0.53125 -1.921875 -1.59375q-0.6875 -1.0625 -0.71875 -2.40625zm16.412323 2.828125l0.234375 1.453125q-0.6875 0.140625 -1.234375 0.140625q-0.890625 0 -1.390625 -0.28125q-0.484375 -0.28125 -0.6875 -0.734375q-0.203125 -0.46875 -0.203125 -1.9375l0 -5.578125l-1.203125 0l0 -1.265625l1.203125 0l0 -2.3906255l1.625 -0.984375l0 3.3750005l1.65625 0l0 1.265625l-1.65625 0l0 5.671875q0 0.6875 0.078125 0.890625q0.09375 0.203125 0.28125 0.328125q0.203125 0.109375 0.578125 0.109375q0.265625 0 0.71875 -0.0625zm7.917679 0.28125q-0.921875 0.765625 -1.765625 1.09375q-0.828125 0.3125 -1.796875 0.3125q-1.59375 0 -2.453125 -0.78125q-0.859375 -0.78125 -0.859375 -1.984375q0 -0.71875 0.328125 -1.296875q0.328125 -0.59375 0.84375 -0.9375q0.53125 -0.359375 1.1875 -0.546875q0.46875 -0.125 1.453125 -0.25q1.984375 -0.234375 2.921875 -0.5625q0.015625 -0.34375 0.015625 -0.421875q0 -1.0 -0.46875 -1.421875q-0.625 -0.546875 -1.875 -0.546875q-1.15625 0 -1.703125 0.40625q-0.546875 0.40625 -0.8125 1.421875l-1.609375 -0.21875q0.21875 -1.015625 0.71875 -1.640625q0.5 -0.640625 1.453125 -0.984375q0.953125 -0.34375 2.1875 -0.34375q1.25 0 2.015625 0.296875q0.78125 0.28125 1.140625 0.734375q0.375 0.4375 0.515625 1.109375q0.078125 0.421875 0.078125 1.515625l0 2.1875q0 2.28125 0.109375 2.890625q0.109375 0.59375 0.40625 1.15625l-1.703125 0q-0.265625 -0.515625 -0.328125 -1.1875zm-0.140625 -3.671875q-0.890625 0.375 -2.671875 0.625q-1.015625 0.140625 -1.4375 0.328125q-0.421875 0.1875 -0.65625 0.53125q-0.21875 0.34375 -0.21875 0.78125q0 0.65625 0.5 1.09375q0.5 0.4375 1.453125 0.4375q0.9375 0 1.671875 -0.40625q0.75 -0.421875 1.09375 -1.140625q0.265625 -0.5625 0.265625 -1.640625l0 -0.609375zm10.516342 1.3125l1.609375 0.21875q-0.265625 1.65625 -1.359375 2.609375q-1.078125 0.9375 -2.671875 0.9375q-1.984375 0 -3.1875 -1.296875q-1.203125 -1.296875 -1.203125 -3.71875q0 -1.578125 0.515625 -2.75q0.515625 -1.171875 1.578125 -1.75q1.0625 -0.59375 2.3125 -0.59375q1.578125 0 2.578125 0.796875q1.0 0.796875 1.28125 2.265625l-1.59375 0.234375q-0.234375 -0.96875 -0.8125 -1.453125q-0.578125 -0.5 -1.390625 -0.5q-1.234375 0 -2.015625 0.890625q-0.78125 0.890625 -0.78125 2.8125q0 1.953125 0.75 2.84375q0.75 0.875 1.953125 0.875q0.96875 0 1.609375 -0.59375q0.65625 -0.59375 0.828125 -1.828125zm3.015625 3.546875l0 -13.359375l1.640625 0l0 7.6250005l3.890625 -3.9375l2.109375 0l-3.6875 3.59375l4.0625 6.078125l-2.015625 0l-3.203125 -4.953125l-1.15625 1.125l0 3.828125l-1.640625 0z" fill-rule="nonzero"/><path fill="#d9d9d9" d="m70.61155 42.79245l95.937004 0l0 23.81102l-95.937004 0z" fill-rule="evenodd"/><path stroke="#000000" stroke-width="1.0" stroke-linejoin="round" stroke-linecap="butt" d="m70.61155 42.79245l95.937004 0l0 23.81102l-95.937004 0z" fill-rule="evenodd"/><path fill="#000000" fill-opacity="0.0" d="m118.580055 66.60347l0 -5.763775" fill-rule="evenodd"/><path stroke="#000000" stroke-width="1.0" stroke-linejoin="round" stroke-linecap="butt" d="m118.580055 66.60347l0 -5.763775" fill-rule="evenodd"/><path fill="#000000" fill-opacity="0.0" d="m142.58005 66.60347l0 -5.763775" fill-rule="evenodd"/><path stroke="#000000" stroke-width="1.0" stroke-linejoin="round" stroke-linecap="butt" d="m142.58005 66.60347l0 -5.763775" fill-rule="evenodd"/><path fill="#000000" fill-opacity="0.0" d="m94.580055 66.60347l0 -5.763775" fill-rule="evenodd"/><path stroke="#000000" stroke-width="1.0" stroke-linejoin="round" stroke-linecap="butt" d="m94.580055 66.60347l0 -5.763775" fill-rule="evenodd"/><path fill="#000000" fill-opacity="0.0" d="m154.6751 66.60347l0 -5.763775" fill-rule="evenodd"/><path stroke="#000000" stroke-width="1.0" stroke-linejoin="round" stroke-linecap="butt" d="m154.6751 66.60347l0 -5.763775" fill-rule="evenodd"/><path fill="#000000" fill-opacity="0.0" d="m106.675095 66.60347l0 -5.763775" fill-rule="evenodd"/><path stroke="#000000" stroke-width="1.0" stroke-linejoin="round" stroke-linecap="butt" d="m106.675095 66.60347l0 -5.763775" fill-rule="evenodd"/><path fill="#000000" fill-opacity="0.0" d="m130.6751 66.60347l0 -5.763775" fill-rule="evenodd"/><path stroke="#000000" stroke-width="1.0" stroke-linejoin="round" stroke-linecap="butt" d="m130.6751 66.60347l0 -5.763775" fill-rule="evenodd"/><path fill="#000000" fill-opacity="0.0" d="m82.675095 66.60347l0 -5.763775" fill-rule="evenodd"/><path stroke="#000000" stroke-width="1.0" stroke-linejoin="round" stroke-linecap="butt" d="m82.675095 66.60347l0 -5.763775" fill-rule="evenodd"/><path fill="#000000" fill-opacity="0.0" d="m-8.543307 42.569553l79.149605 0l0 23.811024l-79.149605 0z" fill-rule="evenodd"/><path fill="#000000" d="m10.4031725 52.391315l1.234375 0l0.046875 1.4375q0.6875 -0.828125 1.359375 -1.203125q0.6875 -0.375 1.375 -0.375q1.21875 0 1.843751 0.796875q0.625 0.78125 0.578125 2.328125l-1.375001 0q0.03125 -1.03125 -0.296875 -1.484375q-0.328125 -0.46875 -0.953125 -0.46875q-0.265625 0 -0.546875 0.09375q-0.28125 0.09375 -0.578125 0.3125q-0.28125 0.21875 -0.609375 0.5625q-0.328125 0.328125 -0.703125 0.796875l0 5.046875l-1.375 0l0 -7.84375zm15.093751 3.5q0 0.296875 -0.015625 0.5q0 0.1875 -0.015625 0.359375l-5.5 0q0 1.203125 0.671875 1.84375q0.671875 0.640625 1.9375 0.640625q0.34375 0 0.6875 -0.015625q0.34375 -0.03125 0.65625 -0.078125q0.328125 -0.046875 0.609375 -0.109375q0.296875 -0.0625 0.546875 -0.125l0 1.109375q-0.546875 0.15625 -1.25 0.25q-0.703125 0.109375 -1.453125 0.109375q-1.0 0 -1.734375 -0.265625q-0.71875 -0.28125 -1.1875 -0.796875q-0.46875 -0.53125 -0.6875 -1.28125q-0.21875 -0.75 -0.21875 -1.703125q0 -0.828125 0.234375 -1.5625q0.234375 -0.75 0.6875 -1.296875q0.46875 -0.5625 1.125 -0.890625q0.671875 -0.328125 1.515625 -0.328125q0.8125 0 1.4375 0.265625q0.640625 0.25 1.078125 0.71875q0.4375 0.46875 0.65625 1.15625q0.21875 0.671875 0.21875 1.5zm-1.40625 -0.1875q0.015625 -0.53125 -0.109375 -0.953125q-0.125 -0.4375 -0.390625 -0.75q-0.25 -0.3125 -0.640625 -0.484375q-0.390625 -0.1875 -0.90625 -0.1875q-0.453125 0 -0.828125 0.171875q-0.359375 0.171875 -0.625 0.484375q-0.265625 0.3125 -0.4375 0.75q-0.15625 0.4375 -0.1875 0.96875l4.125 0zm10.546873 -5.25q-1.078125 -0.21875 -1.84375 -0.21875q-1.8437481 0 -1.8437481 1.921875l0 1.375l3.437498 0l0 1.125l-3.437498 0l0 5.578125l-1.375 0l0 -5.578125l-2.53125 0l0 -1.125l2.53125 0l0 -1.296875q0 -3.140625 3.265623 -3.140625q0.8125 0 1.796875 0.1875l0 1.171875zm-8.218748 1.9375l0 0zm17.593748 11.046875l-8.796875 0l0 -1.125l8.796875 0l0 1.125zm7.953125 -7.265625q0 1.046875 -0.296875 1.828125q-0.28125 0.78125 -0.796875 1.296875q-0.515625 0.515625 -1.21875 0.78125q-0.703125 0.25 -1.53125 0.25q-0.375 0 -0.75 -0.046875q-0.359375 -0.03125 -0.75 -0.125l0 3.28125l-1.359375 0l0 -11.046875l1.21875 0l0.078125 1.3125q0.59375 -0.8125 1.25 -1.125q0.671875 -0.328125 1.4375 -0.328125q0.671875 0 1.171875 0.28125q0.515625 0.28125 0.859375 0.796875q0.34375 0.5 0.515625 1.234375q0.171875 0.71875 0.171875 1.609375zm-1.390625 0.0625q0 -0.625 -0.09375 -1.140625q-0.078125 -0.515625 -0.28125 -0.875q-0.1875 -0.375 -0.5 -0.578125q-0.296875 -0.203125 -0.71875 -0.203125q-0.265625 0 -0.53125 0.078125q-0.265625 0.078125 -0.546875 0.28125q-0.28125 0.1875 -0.609375 0.5q-0.3125 0.3125 -0.671875 0.78125l0 3.8125q0.375 0.15625 0.78125 0.25q0.421875 0.078125 0.828125 0.078125q1.09375 0 1.71875 -0.734375q0.625 -0.75 0.625 -2.25zm9.8125 3.890625q-0.46875 0.125 -0.96875 0.171875q-0.484375 0.046875 -0.984375 0.046875q-1.484375 0 -2.21875 -0.671875q-0.71875 -0.671875 -0.71875 -2.046875l0 -4.09375l-2.1875 0l0 -1.140625l2.1875 0l0 -2.15625l1.359375 -0.359375l0 2.515625l3.53125 0l0 1.140625l-3.53125 0l0 3.984375q0 0.84375 0.453125 1.265625q0.453125 0.40625 1.328125 0.40625q0.375 0 0.8125 -0.046875q0.453125 -0.0625 0.9375 -0.1875l0 1.171875z" fill-rule="nonzero"/><path fill="#000000" fill-opacity="0.0" d="m115.7769 51.495045c0 4.5660133 25.2137 3.5489464 50.4028 9.132027c25.189102 5.5830803 50.353607 17.766308 50.4028 32.74107c0.049179077 14.97477 -25.016983 32.741074 -50.03395 32.741074" fill-rule="evenodd"/><path stroke="#000000" stroke-width="1.0" stroke-linejoin="round" stroke-linecap="butt" d="m118.83639 53.731926l0.29588318 0.085617065c0.3069687 0.08457565 0.6331787 0.16629791 0.97785187 0.24554825c2.7573624 0.6339798 6.6962357 1.1093826 11.422272 1.6165657c9.452057 1.0143738 22.05275 2.1558762 34.64731 4.9474144c25.189102 5.5830803 50.353622 17.766308 50.402786 32.74107c0.02458191 7.487381 -6.2296295 15.672653 -15.617142 21.986076c-4.693756 3.1567154 -10.170837 5.845459 -16.03804 7.745041c-2.9335785 0.9497833 -5.9647064 1.7022705 -9.044235 2.2173233c-1.5397491 0.25751495 -3.0915833 0.45567322 -4.649399 0.5894623c-0.38945007 0.033447266 -0.7792816 0.06285858 -1.1693726 0.08818054l-0.090408325 0.005393982" fill-rule="evenodd"/><path fill="#000000" stroke="#000000" stroke-width="1.0" stroke-linecap="butt" d="m116.18053 51.790146c0.5362091 -0.7333946 1.5654297 -0.8932495 2.2988205 -0.3570404c0.73339844 0.5362053 0.8932495 1.565422 0.3570404 2.2988167c-0.5362015 0.73339844 -1.565422 0.8932495 -2.2988129 0.35704422c-0.73339844 -0.5362091 -0.8932495 -1.5654259 -0.35704803 -2.2988205z" fill-rule="nonzero"/><path fill="#000000" stroke="#000000" stroke-width="1.0" stroke-linecap="butt" d="m169.97389 125.99962l1.0880432 -1.1599808l-3.0522308 1.2228317l3.1241608 1.0251923z" fill-rule="evenodd"/></g></svg>