<svg version="1.1" viewBox="0.0 0.0 423.1994750656168 244.45931758530185" fill="none" stroke="none" stroke-linecap="square" stroke-miterlimit="10" xmlns:xlink="http://www.w3.org/1999/xlink" xmlns="http://www.w3.org/2000/svg"><clipPath id="p.0"><path d="m0 0l423.19946 0l0 244.45932l-423.19946 0l0 -244.45932z" clip-rule="nonzero"/></clipPath><g clip-path="url(#p.0)"><path fill="#000000" fill-opacity="0.0" d="m0 0l423.19946 0l0 244.45932l-423.19946 0z" fill-rule="evenodd"/><path fill="#000000" fill-opacity="0.0" d="m118.580055 138.38058l0 0" fill-rule="evenodd"/><path stroke="#000000" stroke-width="1.0" stroke-linejoin="round" stroke-linecap="butt" d="m118.580055 138.38058l0 0" fill-rule="evenodd"/><path fill="#000000" fill-opacity="0.0" d="m118.580055 138.38058l0 0" fill-rule="evenodd"/><path stroke="#000000" stroke-width="1.0" stroke-linejoin="round" stroke-linecap="butt" d="m118.580055 138.38058l0 0" fill-rule="evenodd"/><path fill="#d9d9d9" d="m70.61155 114.56956l95.937004 0l0 23.811028l-95.937004 0z" fill-rule="evenodd"/><path stroke="#000000" stroke-width="1.0" stroke-linejoin="round" stroke-linecap="butt" d="m70.61155 114.56956l95.937004 0l0 23.811028l-95.937004 0z" fill-rule="evenodd"/><path fill="#000000" fill-opacity="0.0" d="m118.580055 138.38058l0 -5.763794" fill-rule="evenodd"/><path stroke="#000000" stroke-width="1.0" stroke-linejoin="round" stroke-linecap="butt" d="m118.580055 138.38058l0 -5.763794" fill-rule="evenodd"/><path fill="#000000" fill-opacity="0.0" d="m142.58005 138.38058l0 -5.763794" fill-rule="evenodd"/><path stroke="#000000" stroke-width="1.0" stroke-linejoin="round" stroke-linecap="butt" d="m142.58005 138.38058l0 -5.763794" fill-rule="evenodd"/><path fill="#000000" fill-opacity="0.0" d="m94.580055 138.38058l0 -5.763794" fill-rule="evenodd"/><path stroke="#000000" stroke-width="1.0" stroke-linejoin="round" stroke-linecap="butt" d="m94.580055 138.38058l0 -5.763794" fill-rule="evenodd"/><path fill="#000000" fill-opacity="0.0" d="m154.6751 138.38058l0 -5.763794" fill-rule="evenodd"/><path stroke="#000000" stroke-width="1.0" stroke-linejoin="round" stroke-linecap="butt" d="m154.6751 138.38058l0 -5.763794" fill-rule="evenodd"/><path fill="#000000" fill-opacity="0.0" d="m106.675095 138.38058l0 -5.763794" fill-rule="evenodd"/><path stroke="#000000" stroke-width="1.0" stroke-linejoin="round" stroke-linecap="butt" d="m106.675095 138.38058l0 -5.763794" fill-rule="evenodd"/><path fill="#000000" fill-opacity="0.0" d="m130.6751 138.38058l0 -5.763794" fill-rule="evenodd"/><path stroke="#000000" stroke-width="1.0" stroke-linejoin="round" stroke-linecap="butt" d="m130.6751 138.38058l0 -5.763794" fill-rule="evenodd"/><path fill="#000000" fill-opacity="0.0" d="m82.675095 138.38058l0 -5.763794" fill-rule="evenodd"/><path stroke="#000000" stroke-width="1.0" stroke-linejoin="round" stroke-linecap="butt" d="m82.675095 138.38058l0 -5.763794" fill-rule="evenodd"/><path fill="#000000" fill-opacity="0.0" d="m310.58005 74.01473l0 0" fill-rule="evenodd"/><path stroke="#000000" stroke-width="1.0" stroke-linejoin="round" stroke-linecap="butt" d="m310.58005 74.01473l0 0" fill-rule="evenodd"/><path fill="#000000" fill-opacity="0.0" d="m310.58005 74.01473l0 0" fill-rule="evenodd"/><path stroke="#000000" stroke-width="1.0" stroke-linejoin="round" stroke-linecap="butt" d="m310.58005 74.01473l0 0" fill-rule="evenodd"/><path fill="#000000" fill-opacity="0.0" d="m322.67508 74.01473l0 -5.7637863" fill-rule="evenodd"/><path stroke="#000000" stroke-width="1.0" stroke-linejoin="round" stroke-linecap="butt" d="m322.67508 74.01473l0 -5.7637863" fill-rule="evenodd"/><path fill="#000000" fill-opacity="0.0" d="m298.67508 90.01473l0 -5.7637863" fill-rule="evenodd"/><path stroke="#000000" stroke-width="1.0" stroke-linejoin="round" stroke-linecap="butt" d="m298.67508 90.01473l0 -5.7637863" fill-rule="evenodd"/><path fill="#d9d9d9" d="m262.61154 50.203705l95.93701 0l0 23.811028l-95.93701 0z" fill-rule="evenodd"/><path stroke="#000000" stroke-width="1.0" stroke-linejoin="round" stroke-linecap="butt" d="m262.61154 50.203705l95.93701 0l0 23.811028l-95.93701 0z" fill-rule="evenodd"/><path fill="#000000" fill-opacity="0.0" d="m310.58005 74.01473l0 -5.7637863" fill-rule="evenodd"/><path stroke="#000000" stroke-width="1.0" stroke-linejoin="round" stroke-linecap="butt" d="m310.58005 74.01473l0 -5.7637863" fill-rule="evenodd"/><path fill="#000000" fill-opacity="0.0" d="m334.58005 74.01473l0 -5.7637863" fill-rule="evenodd"/><path stroke="#000000" stroke-width="1.0" stroke-linejoin="round" stroke-linecap="butt" d="m334.58005 74.01473l0 -5.7637863" fill-rule="evenodd"/><path fill="#000000" fill-opacity="0.0" d="m286.58005 74.01473l0 -5.7637863" fill-rule="evenodd"/><path stroke="#000000" stroke-width="1.0" stroke-linejoin="round" stroke-linecap="butt" d="m286.58005 74.01473l0 -5.7637863" fill-rule="evenodd"/><path fill="#000000" fill-opacity="0.0" d="m346.67508 74.01473l0 -5.7637863" fill-rule="evenodd"/><path stroke="#000000" stroke-width="1.0" stroke-linejoin="round" stroke-linecap="butt" d="m346.67508 74.01473l0 -5.7637863" fill-rule="evenodd"/><path fill="#000000" fill-opacity="0.0" d="m298.67508 74.01473l0 -5.7637863" fill-rule="evenodd"/><path stroke="#000000" stroke-width="1.0" stroke-linejoin="round" stroke-linecap="butt" d="m298.67508 74.01473l0 -5.7637863" fill-rule="evenodd"/><path fill="#000000" fill-opacity="0.0" d="m322.67508 74.01473l0 -5.7637863" fill-rule="evenodd"/><path stroke="#000000" stroke-width="1.0" stroke-linejoin="round" stroke-linecap="butt" d="m322.67508 74.01473l0 -5.7637863" fill-rule="evenodd"/><path fill="#000000" fill-opacity="0.0" d="m274.67508 74.01473l0 -5.7637863" fill-rule="evenodd"/><path stroke="#000000" stroke-width="1.0" stroke-linejoin="round" stroke-linecap="butt" d="m274.67508 74.01473l0 -5.7637863" fill-rule="evenodd"/><path fill="#000000" fill-opacity="0.0" d="m2.367454 42.75853l68.25197 0l0 42.015747l-68.25197 0z" fill-rule="evenodd"/><path fill="#000000" fill-opacity="0.0" d="m-24.426512 125.73706l82.267715 0l0 23.81102l-82.267715 0z" fill-rule="evenodd"/><path fill="#000000" d="m21.231829 143.2932q-0.46875 0.125 -0.96875 0.171875q-0.484375 0.046875 -0.984375 0.046875q-1.484375 0 -2.21875 -0.671875q-0.71875 -0.671875 -0.71875 -2.046875l0 -4.09375l-2.187499 0l0 -1.140625l2.187499 0l0 -2.15625l1.359375 -0.359375l0 2.515625l3.53125 0l0 1.140625l-3.53125 0l0 3.984375q0 0.84375 0.453125 1.265625q0.453125 0.40625 1.328125 0.40625q0.375 0 0.8125 -0.046875q0.453125 -0.0625 0.9375 -0.1875l0 1.171875zm9.296875 -3.875q0 0.90625 -0.265625 1.671875q-0.25 0.765625 -0.734375 1.3125q-0.484375 0.53125 -1.1875 0.84375q-0.6875 0.296875 -1.5625 0.296875q-0.84375 0 -1.515625 -0.265625q-0.671875 -0.265625 -1.140625 -0.765625q-0.453125 -0.515625 -0.703125 -1.265625q-0.25 -0.75 -0.25 -1.71875q0 -0.921875 0.25 -1.671875q0.265625 -0.75 0.75 -1.296875q0.484375 -0.546875 1.171875 -0.84375q0.703125 -0.296875 1.59375 -0.296875q0.84375 0 1.5 0.265625q0.671875 0.25 1.140625 0.765625q0.46875 0.5 0.703125 1.25q0.25 0.75 0.25 1.71875zm-1.390625 0.0625q0 -0.734375 -0.15625 -1.265625q-0.15625 -0.546875 -0.453125 -0.90625q-0.296875 -0.375 -0.734375 -0.546875q-0.421875 -0.1875 -0.9375 -0.1875q-0.609375 0 -1.046875 0.234375q-0.4375 0.234375 -0.71875 0.640625q-0.265625 0.390625 -0.40625 0.921875q-0.125 0.53125 -0.125 1.109375q0 0.71875 0.15625 1.265625q0.171875 0.546875 0.46875 0.921875q0.296875 0.359375 0.71875 0.546875q0.421875 0.171875 0.953125 0.171875q0.609375 0 1.03125 -0.234375q0.4375 -0.234375 0.71875 -0.625q0.28125 -0.40625 0.40625 -0.9375q0.125 -0.53125 0.125 -1.109375zm10.062502 -0.140625q0 0.96875 -0.265625 1.75q-0.265625 0.765625 -0.765625 1.296875q-0.5 0.53125 -1.21875 0.828125q-0.703125 0.28125 -1.59375 0.28125q-0.6875 0 -1.421875 -0.125q-0.71875 -0.140625 -1.4375 -0.4375l0 -10.578125l1.359375 0l0 3.046875l-0.0625 1.453125q0.59375 -0.796875 1.25 -1.109375q0.671875 -0.328125 1.4375 -0.328125q0.671875 0 1.171875 0.28125q0.515625 0.28125 0.859375 0.796875q0.34375 0.5 0.515625 1.234375q0.171875 0.71875 0.171875 1.609375zm-1.390625 0.0625q0 -0.625 -0.09375 -1.140625q-0.078125 -0.515625 -0.28125 -0.875q-0.1875 -0.375 -0.5 -0.578125q-0.296875 -0.203125 -0.71875 -0.203125q-0.265625 0 -0.53125 0.078125q-0.265625 0.078125 -0.546875 0.28125q-0.28125 0.1875 -0.609375 0.5q-0.3125 0.3125 -0.671875 0.78125l0 3.8125q0.40625 0.15625 0.8125 0.25q0.421875 0.078125 0.796875 0.078125q0.46875 0 0.890625 -0.140625q0.421875 -0.15625 0.75 -0.5q0.328125 -0.34375 0.515625 -0.921875q0.1875 -0.578125 0.1875 -1.421875zm8.796875 -3.84375l0 7.703125q0 0.828125 -0.234375 1.453125q-0.234375 0.640625 -0.671875 1.078125q-0.4375 0.4375 -1.078125 0.65625q-0.625 0.234375 -1.421875 0.234375q-0.578125 0 -1.140625 -0.109375q-0.546875 -0.09375 -0.984375 -0.28125l0 -1.296875q0.234375 0.125 0.515625 0.21875q0.28125 0.109375 0.5625 0.171875q0.296875 0.078125 0.59375 0.109375q0.296875 0.03125 0.578125 0.03125q0.890625 0 1.390625 -0.5625q0.515625 -0.5625 0.515625 -1.65625l0 -6.625l-3.84375 0l0 -1.125l5.21875 0zm-0.8125 -3.296875q0.21875 0 0.40625 0.09375q0.203125 0.078125 0.34375 0.234375q0.15625 0.140625 0.234375 0.34375q0.078125 0.1875 0.078125 0.40625q0 0.21875 -0.078125 0.421875q-0.078125 0.1875 -0.234375 0.34375q-0.140625 0.140625 -0.34375 0.21875q-0.1875 0.078125 -0.40625 0.078125q-0.234375 0 -0.4375 -0.078125q-0.1875 -0.078125 -0.328125 -0.21875q-0.140625 -0.15625 -0.234375 -0.34375q-0.078125 -0.203125 -0.078125 -0.421875q0 -0.21875 0.078125 -0.40625q0.09375 -0.203125 0.234375 -0.34375q0.140625 -0.15625 0.328125 -0.234375q0.203125 -0.09375 0.4375 -0.09375z" fill-rule="nonzero"/><path fill="#000000" fill-opacity="0.0" d="m70.48819 29.38845l0 174.86615" fill-rule="evenodd"/><path stroke="#000000" stroke-width="1.0" stroke-linejoin="round" stroke-linecap="butt" d="m70.48819 29.38845l0 174.86615" fill-rule="evenodd"/><path fill="#000000" fill-opacity="0.0" d="m166.48819 29.38845l0 174.86615" fill-rule="evenodd"/><path stroke="#000000" stroke-width="1.0" stroke-linejoin="round" stroke-linecap="butt" d="m166.48819 29.38845l0 174.86615" fill-rule="evenodd"/><path fill="#000000" fill-opacity="0.0" d="m77.5538 0.18110237l80.346466 0l0 42.015747l-80.346466 0z" fill-rule="evenodd"/><path fill="#000000" d="m95.24136 23.612103l1.65625 -0.140625q0.125 1.0 0.546875 1.640625q0.4375 0.640625 1.34375 1.046875q0.921875 0.390625 2.0625 0.390625q1.0 0 1.78125 -0.296875q0.78125 -0.296875 1.15625 -0.8125q0.375 -0.53125 0.375 -1.15625q0 -0.625 -0.375 -1.09375q-0.359375 -0.46875 -1.1875 -0.796875q-0.546875 -0.203125 -2.390625 -0.640625q-1.828125 -0.453125 -2.5625 -0.84375q-0.96875 -0.5 -1.4375 -1.234375q-0.46875 -0.75 -0.46875 -1.671875q0 -1.0 0.578125 -1.875q0.578125 -0.890625 1.671875 -1.34375q1.109375 -0.453125 2.453125 -0.453125q1.484375 0 2.609375 0.484375q1.140625 0.46875 1.75 1.40625q0.609375 0.921875 0.65625 2.09375l-1.6875 0.125q-0.140625 -1.265625 -0.9375 -1.90625q-0.78125 -0.65625 -2.3125 -0.65625q-1.609375 0 -2.34375 0.59375q-0.734375 0.59375 -0.734375 1.421875q0 0.71875 0.53125 1.171875q0.5 0.46875 2.65625 0.96875q2.15625 0.484375 2.953125 0.84375q1.171875 0.53125 1.71875 1.359375q0.5625 0.828125 0.5625 1.90625q0 1.0625 -0.609375 2.015625q-0.609375 0.9375 -1.75 1.46875q-1.140625 0.515625 -2.578125 0.515625q-1.8125 0 -3.046875 -0.53125q-1.21875 -0.53125 -1.921875 -1.59375q-0.6875 -1.0625 -0.71875 -2.40625zm16.412323 2.828125l0.234375 1.453125q-0.6875 0.140625 -1.234375 0.140625q-0.890625 0 -1.390625 -0.28125q-0.484375 -0.28125 -0.6875 -0.734375q-0.203125 -0.46875 -0.203125 -1.9375l0 -5.578125l-1.203125 0l0 -1.265625l1.203125 0l0 -2.390625l1.625 -0.984375l0 3.375l1.65625 0l0 1.265625l-1.65625 0l0 5.671875q0 0.6875 0.078125 0.890625q0.09375 0.203125 0.28125 0.328125q0.203125 0.109375 0.578125 0.109375q0.265625 0 0.71875 -0.0625zm7.917679 0.28125q-0.921875 0.765625 -1.765625 1.09375q-0.828125 0.3125 -1.796875 0.3125q-1.59375 0 -2.453125 -0.78125q-0.859375 -0.78125 -0.859375 -1.984375q0 -0.71875 0.328125 -1.296875q0.328125 -0.59375 0.84375 -0.9375q0.53125 -0.359375 1.1875 -0.546875q0.46875 -0.125 1.453125 -0.25q1.984375 -0.234375 2.921875 -0.5625q0.015625 -0.34375 0.015625 -0.421875q0 -1.0 -0.46875 -1.421875q-0.625 -0.546875 -1.875 -0.546875q-1.15625 0 -1.703125 0.40625q-0.546875 0.40625 -0.8125 1.421875l-1.609375 -0.21875q0.21875 -1.015625 0.71875 -1.640625q0.5 -0.640625 1.453125 -0.984375q0.953125 -0.34375 2.1875 -0.34375q1.25 0 2.015625 0.296875q0.78125 0.28125 1.140625 0.734375q0.375 0.4375 0.515625 1.109375q0.078125 0.421875 0.078125 1.515625l0 2.1875q0 2.28125 0.109375 2.890625q0.109375 0.59375 0.40625 1.15625l-1.703125 0q-0.265625 -0.515625 -0.328125 -1.1875zm-0.140625 -3.671875q-0.890625 0.375 -2.671875 0.625q-1.015625 0.140625 -1.4375 0.328125q-0.421875 0.1875 -0.65625 0.53125q-0.21875 0.34375 -0.21875 0.78125q0 0.65625 0.5 1.09375q0.5 0.4375 1.453125 0.4375q0.9375 0 1.671875 -0.40625q0.75 -0.421875 1.09375 -1.140625q0.265625 -0.5625 0.265625 -1.640625l0 -0.609375zm10.516342 1.3125l1.609375 0.21875q-0.265625 1.65625 -1.359375 2.609375q-1.078125 0.9375 -2.671875 0.9375q-1.984375 0 -3.1875 -1.296875q-1.203125 -1.296875 -1.203125 -3.71875q0 -1.578125 0.515625 -2.75q0.515625 -1.171875 1.578125 -1.75q1.0625 -0.59375 2.3125 -0.59375q1.578125 0 2.578125 0.796875q1.0 0.796875 1.28125 2.265625l-1.59375 0.234375q-0.234375 -0.96875 -0.8125 -1.453125q-0.578125 -0.5 -1.390625 -0.5q-1.234375 0 -2.015625 0.890625q-0.78125 0.890625 -0.78125 2.8125q0 1.953125 0.75 2.84375q0.75 0.875 1.953125 0.875q0.96875 0 1.609375 -0.59375q0.65625 -0.59375 0.828125 -1.828125zm3.015625 3.546875l0 -13.359375l1.640625 0l0 7.625l3.890625 -3.9375l2.109375 0l-3.6875 3.59375l4.0625 6.078125l-2.015625 0l-3.203125 -4.953125l-1.15625 1.125l0 3.828125l-1.640625 0z" fill-rule="nonzero"/><path fill="#000000" fill-opacity="0.0" d="m212.59541 5.159919l190.67717 0l0 42.015747l-190.67717 0z" fill-rule="evenodd"/><path fill="#000000" d="m258.53555 20.337168q-1.234375 0.515625 -2.578125 0.515625q-2.15625 0 -3.328125 -1.296875q-1.15625 -1.296875 -1.15625 -3.828124q0 -1.21875 0.3125 -2.203125q0.328125 -1.0 0.921875 -1.6875q0.59375 -0.703125 1.4375 -1.078125q0.84375 -0.375 1.890625 -0.375q0.71875 0 1.328125 0.125q0.609375 0.125 1.171875 0.375l0 1.359375q-0.5625 -0.296875 -1.15625 -0.453125q-0.59375 -0.171875 -1.296875 -0.171875q-0.71875 0 -1.296875 0.28125q-0.578125 0.265625 -0.984375 0.78125q-0.40625 0.5 -0.625 1.25q-0.21875 0.734375 -0.21875 1.671875q0 1.984374 0.796875 2.999999q0.8125 1.0 2.359375 1.0q0.65625 0 1.25 -0.140625q0.609375 -0.15625 1.171875 -0.4375l0 1.3125zm7.3125 0.390625l-0.03125 -1.0625q-0.640625 0.640625 -1.3125 0.921875q-0.65625 0.28125 -1.375 0.28125q-0.671875 0 -1.15625 -0.171875q-0.46875 -0.171875 -0.78125 -0.46875q-0.3125 -0.3125 -0.453125 -0.71875q-0.140625 -0.40625 -0.140625 -0.875q0 -1.1875 0.875 -1.84375q0.875 -0.671875 2.59375 -0.671875l1.625 0l0 -0.68749905q0 -0.703125 -0.453125 -1.109375q-0.4375 -0.421875 -1.34375 -0.421875q-0.671875 0 -1.3125 0.15625q-0.640625 0.140625 -1.328125 0.40625l0 -1.21875q0.25 -0.09375 0.5625 -0.1875q0.328125 -0.09375 0.671875 -0.15625q0.359375 -0.078125 0.734375 -0.109375q0.390625 -0.046875 0.78125 -0.046875q0.703125 0 1.265625 0.15625q0.578125 0.15625 0.96875 0.484375q0.40625 0.3125 0.609375 0.796875q0.21875 0.484375 0.21875 1.140625l0 5.406249l-1.21875 0zm-0.15625 -3.578125l-1.71875 0q-0.515625 0 -0.890625 0.109375q-0.359375 0.09375 -0.59375 0.28125q-0.234375 0.1875 -0.34375 0.453125q-0.109375 0.265625 -0.109375 0.59375q0 0.21875 0.0625 0.4375q0.078125 0.203125 0.234375 0.359375q0.15625 0.15625 0.40625 0.25q0.25 0.09375 0.609375 0.09375q0.46875 0 1.0625 -0.28125q0.609375 -0.28125 1.28125 -0.90625l0 -1.390625zm6.578125 -6.343749l-2.3125 0l0 -1.125l3.6875 0l0 9.906249l2.34375 0l0 1.140625l-6.296875 0l0 -1.140625l2.578125 0l0 -8.781249zm12.21875 9.624999q-0.53125 0.203125 -1.09375 0.296875q-0.546875 0.109375 -1.140625 0.109375q-1.859375 0 -2.875 -1.0q-1.0 -1.015625 -1.0 -2.953125q0 -0.93749905 0.28125 -1.687499q0.296875 -0.765625 0.8125 -1.296875q0.53125 -0.546875 1.25 -0.828125q0.734375 -0.296875 1.609375 -0.296875q0.609375 0 1.140625 0.09375q0.53125 0.078125 1.015625 0.265625l0 1.296875q-0.5 -0.265625 -1.03125 -0.375q-0.53125 -0.125 -1.09375 -0.125q-0.515625 0 -0.984375 0.203125q-0.46875 0.1875 -0.828125 0.5625q-0.34375 0.375 -0.546875 0.921875q-0.203125 0.53124905 -0.203125 1.218749q0 1.421875 0.6875 2.125q0.703125 0.703125 1.921875 0.703125q0.5625 0 1.078125 -0.125q0.515625 -0.125 1.0 -0.375l0 1.265625zm9.015625 0.296875l-1.21875 0l-0.046875 -1.265625q-0.359375 0.40625 -0.671875 0.671875q-0.3125 0.265625 -0.625 0.4375q-0.3125 0.171875 -0.640625 0.234375q-0.3125 0.0625 -0.65625 0.0625q-1.21875 0 -1.84375 -0.703125q-0.609375 -0.71875 -0.609375 -2.15625l0 -5.124999l1.359375 0l0 5.015624q0 1.796875 1.359375 1.796875q0.25 0 0.484375 -0.0625q0.25 -0.078125 0.5 -0.265625q0.265625 -0.1875 0.5625 -0.5q0.3125 -0.3125 0.6875 -0.78125l0 -5.203124l1.359375 0l0 7.843749zm5.15625 -9.921874l-2.3125 0l0 -1.125l3.6875 0l0 9.906249l2.34375 0l0 1.140625l-6.296875 0l0 -1.140625l2.578125 0l0 -8.781249zm11.171875 9.921874l-0.03125 -1.0625q-0.640625 0.640625 -1.3125 0.921875q-0.65625 0.28125 -1.375 0.28125q-0.671875 0 -1.15625 -0.171875q-0.46875 -0.171875 -0.78125 -0.46875q-0.3125 -0.3125 -0.453125 -0.71875q-0.140625 -0.40625 -0.140625 -0.875q0 -1.1875 0.875 -1.84375q0.875 -0.671875 2.59375 -0.671875l1.625 0l0 -0.68749905q0 -0.703125 -0.453125 -1.109375q-0.4375 -0.421875 -1.34375 -0.421875q-0.671875 0 -1.3125 0.15625q-0.640625 0.140625 -1.328125 0.40625l0 -1.21875q0.25 -0.09375 0.5625 -0.1875q0.328125 -0.09375 0.671875 -0.15625q0.359375 -0.078125 0.734375 -0.109375q0.390625 -0.046875 0.78125 -0.046875q0.703125 0 1.265625 0.15625q0.578125 0.15625 0.96875 0.484375q0.40625 0.3125 0.609375 0.796875q0.21875 0.484375 0.21875 1.140625l0 5.406249l-1.21875 0zm-0.15625 -3.578125l-1.71875 0q-0.515625 0 -0.890625 0.109375q-0.359375 0.09375 -0.59375 0.28125q-0.234375 0.1875 -0.34375 0.453125q-0.109375 0.265625 -0.109375 0.59375q0 0.21875 0.0625 0.4375q0.078125 0.203125 0.234375 0.359375q0.15625 0.15625 0.40625 0.25q0.25 0.09375 0.609375 0.09375q0.46875 0 1.0625 -0.28125q0.609375 -0.28125 1.28125 -0.90625l0 -1.390625zm10.234375 3.46875q-0.46875 0.125 -0.96875 0.171875q-0.484375 0.046875 -0.984375 0.046875q-1.484375 0 -2.21875 -0.671875q-0.71875 -0.671875 -0.71875 -2.046875l0 -4.093749l-2.1875 0l0 -1.140625l2.1875 0l0 -2.15625l1.359375 -0.359375l0 2.515625l3.53125 0l0 1.140625l-3.53125 0l0 3.984374q0 0.84375 0.453125 1.265625q0.453125 0.40625 1.328125 0.40625q0.375 0 0.8125 -0.046875q0.453125 -0.0625 0.9375 -0.1875l0 1.171875zm9.09375 -4.234375q0 0.296875 -0.015625 0.5q0 0.1875 -0.015625 0.359375l-5.5 0q0 1.203125 0.671875 1.84375q0.671875 0.640625 1.9375 0.640625q0.34375 0 0.6875 -0.015625q0.34375 -0.03125 0.65625 -0.078125q0.328125 -0.046875 0.609375 -0.109375q0.296875 -0.0625 0.546875 -0.125l0 1.109375q-0.546875 0.15625 -1.25 0.25q-0.703125 0.109375 -1.453125 0.109375q-1.0 0 -1.734375 -0.265625q-0.71875 -0.28125 -1.1875 -0.796875q-0.46875 -0.53125 -0.6875 -1.28125q-0.21875 -0.75 -0.21875 -1.703125q0 -0.82812405 0.234375 -1.562499q0.234375 -0.75 0.6875 -1.296875q0.46875 -0.5625 1.125 -0.890625q0.671875 -0.328125 1.515625 -0.328125q0.8125 0 1.4375 0.265625q0.640625 0.25 1.078125 0.71875q0.4375 0.46875 0.65625 1.15625q0.21875 0.671875 0.21875 1.499999zm-1.40625 -0.1875q0.015625 -0.53124905 -0.109375 -0.95312405q-0.125 -0.4375 -0.390625 -0.75q-0.25 -0.3125 -0.640625 -0.484375q-0.390625 -0.1875 -0.90625 -0.1875q-0.453125 0 -0.828125 0.171875q-0.359375 0.171875 -0.625 0.484375q-0.265625 0.3125 -0.4375 0.75q-0.15625 0.4375 -0.1875 0.96874905l4.125 0zm19.34375 -5.249999q-1.078125 -0.21875 -1.84375 -0.21875q-1.84375 0 -1.84375 1.921875l0 1.375l3.4375 0l0 1.125l-3.4375 0l0 5.578124l-1.375 0l0 -5.578124l-2.53125 0l0 -1.125l2.53125 0l0 -1.296875q0 -3.140625 3.265625 -3.140625q0.8125 0 1.796875 0.1875l0 1.171875zm-8.21875 1.9375l0 0zm16.875 3.859374q0 0.90625 -0.265625 1.671875q-0.25 0.765625 -0.734375 1.3125q-0.484375 0.53125 -1.1875 0.84375q-0.6875 0.296875 -1.5625 0.296875q-0.84375 0 -1.515625 -0.265625q-0.671875 -0.265625 -1.140625 -0.765625q-0.453125 -0.515625 -0.703125 -1.265625q-0.25 -0.75 -0.25 -1.71875q0 -0.92187405 0.25 -1.671874q0.265625 -0.75 0.75 -1.296875q0.484375 -0.546875 1.171875 -0.84375q0.703125 -0.296875 1.59375 -0.296875q0.84375 0 1.5 0.265625q0.671875 0.25 1.140625 0.765625q0.46875 0.5 0.703125 1.25q0.25 0.75 0.25 1.718749zm-1.390625 0.0625q0 -0.734375 -0.15625 -1.265624q-0.15625 -0.546875 -0.453125 -0.90625q-0.296875 -0.375 -0.734375 -0.546875q-0.421875 -0.1875 -0.9375 -0.1875q-0.609375 0 -1.046875 0.234375q-0.4375 0.234375 -0.71875 0.640625q-0.265625 0.390625 -0.40625 0.921875q-0.125 0.53124905 -0.125 1.109374q0 0.71875 0.15625 1.265625q0.171875 0.546875 0.46875 0.921875q0.296875 0.359375 0.71875 0.546875q0.421875 0.171875 0.953125 0.171875q0.609375 0 1.03125 -0.234375q0.4375 -0.234375 0.71875 -0.625q0.28125 -0.40625 0.40625 -0.9375q0.125 -0.53125 0.125 -1.109375zm3.6875 -3.921874l1.234375 0l0.046875 1.4375q0.6875 -0.828125 1.359375 -1.203125q0.6875 -0.375 1.375 -0.375q1.21875 0 1.84375 0.796875q0.625 0.78125 0.578125 2.328125l-1.375 0q0.03125 -1.03125 -0.296875 -1.484375q-0.328125 -0.46875 -0.953125 -0.46875q-0.265625 0 -0.546875 0.09375q-0.28125 0.09375 -0.578125 0.3125q-0.28125 0.21875 -0.609375 0.5625q-0.328125 0.328125 -0.703125 0.796875l0 5.046874l-1.375 0l0 -7.843749z" fill-rule="nonzero"/><path fill="#000000" d="m262.4819 42.487793l-1.359375 0l-0.203125 -6.375l-0.09375 -2.4375l-0.46875 1.421875l-1.515625 4.0625l-0.953125 0l-1.4375 -3.90625l-0.48439026 -1.578125l-0.03125 2.546875l-0.171875 6.265625l-1.3125 0l0.5 -10.21875l1.6406403 0l1.375 3.84375l0.453125 1.296875l0.421875 -1.296875l1.453125 -3.84375l1.6875 0l0.5 10.21875zm8.453125 -3.984375q0 0.90625 -0.265625 1.671875q-0.25 0.765625 -0.734375 1.3125q-0.484375 0.53125 -1.1875 0.84375q-0.6875 0.296875 -1.5625 0.296875q-0.84375 0 -1.515625 -0.265625q-0.671875 -0.265625 -1.140625 -0.765625q-0.453125 -0.515625 -0.703125 -1.265625q-0.25 -0.75 -0.25 -1.71875q0 -0.921875 0.25 -1.671875q0.265625 -0.75 0.75 -1.296875q0.484375 -0.546875 1.171875 -0.84375q0.703125 -0.296875 1.59375 -0.296875q0.84375 0 1.5 0.265625q0.671875 0.25 1.140625 0.765625q0.46875 0.5 0.703125 1.25q0.25 0.75 0.25 1.71875zm-1.390625 0.0625q0 -0.734375 -0.15625 -1.265625q-0.15625 -0.546875 -0.453125 -0.90625q-0.296875 -0.375 -0.734375 -0.546875q-0.421875 -0.1875 -0.9375 -0.1875q-0.609375 0 -1.046875 0.234375q-0.4375 0.234375 -0.71875 0.640625q-0.265625 0.390625 -0.40625 0.921875q-0.125 0.53125 -0.125 1.109375q0 0.71875 0.15625 1.265625q0.171875 0.546875 0.46875 0.921875q0.296875 0.359375 0.71875 0.546875q0.421875 0.171875 0.953125 0.171875q0.609375 0 1.03125 -0.234375q0.4375 -0.234375 0.71875 -0.625q0.28125 -0.40625 0.40625 -0.9375q0.125 -0.53125 0.125 -1.109375zm2.96875 0.15625q0 -1.0 0.265625 -1.765625q0.28125 -0.78125 0.78125 -1.3125q0.5 -0.546875 1.203125 -0.8125q0.71875 -0.28125 1.578125 -0.28125q0.375 0 0.734375 0.046875q0.375 0.046875 0.71875 0.140625l0 -3.296877l1.375 0l0 11.046877l-1.21875 0l-0.046875 -1.484375q-0.578125 0.828125 -1.25 1.234375q-0.65625 0.390625 -1.421875 0.390625q-0.671875 0 -1.1875 -0.28125q-0.515625 -0.28125 -0.859375 -0.796875q-0.328125 -0.515625 -0.5 -1.234375q-0.171875 -0.71875 -0.171875 -1.59375zm1.390625 -0.078125q0 1.421875 0.40625 2.125q0.421875 0.6875 1.1875 0.6875q0.515625 0 1.09375 -0.453125q0.578125 -0.46875 1.203125 -1.375l0 -3.640625q-0.328125 -0.15625 -0.734375 -0.234375q-0.40625 -0.078125 -0.8125 -0.078125q-1.109375 0 -1.734375 0.71875q-0.609375 0.71875 -0.609375 2.25zm14.109375 3.84375l-1.21875 0l-0.046875 -1.265625q-0.359375 0.40625 -0.671875 0.671875q-0.3125 0.265625 -0.625 0.4375q-0.3125 0.171875 -0.640625 0.234375q-0.3125 0.0625 -0.65625 0.0625q-1.21875 0 -1.84375 -0.703125q-0.609375 -0.71875 -0.609375 -2.15625l0 -5.125l1.359375 0l0 5.015625q0 1.796875 1.359375 1.796875q0.25 0 0.484375 -0.0625q0.25 -0.078125 0.5 -0.265625q0.265625 -0.1875 0.5625 -0.5q0.3125 -0.3125 0.6875 -0.78125l0 -5.203125l1.359375 0l0 7.84375zm5.15625 -9.921875l-2.3125 0l0 -1.1250019l3.6875 0l0 9.906252l2.34375 0l0 1.140625l-6.296875 0l0 -1.140625l2.578125 0l0 -8.78125zm12.953125 5.9375q0 0.90625 -0.265625 1.671875q-0.25 0.765625 -0.734375 1.3125q-0.484375 0.53125 -1.1875 0.84375q-0.6875 0.296875 -1.5625 0.296875q-0.84375 0 -1.515625 -0.265625q-0.671875 -0.265625 -1.140625 -0.765625q-0.453125 -0.515625 -0.703125 -1.265625q-0.25 -0.75 -0.25 -1.71875q0 -0.921875 0.25 -1.671875q0.265625 -0.75 0.75 -1.296875q0.484375 -0.546875 1.171875 -0.84375q0.703125 -0.296875 1.59375 -0.296875q0.84375 0 1.5 0.265625q0.671875 0.25 1.140625 0.765625q0.46875 0.5 0.703125 1.25q0.25 0.75 0.25 1.71875zm-1.390625 0.0625q0 -0.734375 -0.15625 -1.265625q-0.15625 -0.546875 -0.453125 -0.90625q-0.296875 -0.375 -0.734375 -0.546875q-0.421875 -0.1875 -0.9375 -0.1875q-0.609375 0 -1.046875 0.234375q-0.4375 0.234375 -0.71875 0.640625q-0.265625 0.390625 -0.40625 0.921875q-0.125 0.53125 -0.125 1.109375q0 0.71875 0.15625 1.265625q0.171875 0.546875 0.46875 0.921875q0.296875 0.359375 0.71875 0.546875q0.421875 0.171875 0.953125 0.171875q0.609375 0 1.03125 -0.234375q0.4375 -0.234375 0.71875 -0.625q0.28125 -0.40625 0.40625 -0.9375q0.125 -0.53125 0.125 -1.109375z" fill-rule="nonzero"/><path fill="#000000" d="m315.94644 42.487793l-3.6875 -9.671875l1.734375 0l2.078125 5.796875q0.328125 0.9375 0.625 1.9375q0.203125 -0.765625 0.609375 -1.828125l2.140625 -5.90625l1.6875 0l-3.65625 9.671875l-1.53125 0zm10.21875 -1.46875l0.234375 1.453125q-0.6875 0.140625 -1.234375 0.140625q-0.890625 0 -1.390625 -0.28125q-0.484375 -0.28125 -0.6875 -0.734375q-0.203125 -0.46875 -0.203125 -1.9375l0 -5.578125l-1.203125 0l0 -1.265625l1.203125 0l0 -2.390627l1.625 -0.984375l0 3.375002l1.65625 0l0 1.265625l-1.65625 0l0 5.671875q0 0.6875 0.078125 0.890625q0.09375 0.203125 0.28125 0.328125q0.203125 0.109375 0.578125 0.109375q0.265625 0 0.71875 -0.0625zm7.917694 0.28125q-0.921875 0.765625 -1.765625 1.09375q-0.828125 0.3125 -1.796875 0.3125q-1.59375 0 -2.453125 -0.78125q-0.859375 -0.78125 -0.859375 -1.984375q0 -0.71875 0.328125 -1.296875q0.328125 -0.59375 0.84375 -0.9375q0.53125 -0.359375 1.1875 -0.546875q0.46875 -0.125 1.453125 -0.25q1.984375 -0.234375 2.921875 -0.5625q0.015625 -0.34375 0.015625 -0.421875q0 -1.0 -0.46875 -1.421875q-0.625 -0.546875 -1.875 -0.546875q-1.15625 0 -1.703125 0.40625q-0.546875 0.40625 -0.8125 1.421875l-1.609375 -0.21875q0.21875 -1.015625 0.71875 -1.640625q0.5 -0.640625 1.453125 -0.984375q0.953125 -0.34375 2.1875 -0.34375q1.25 0 2.015625 0.296875q0.78125 0.28125 1.140625 0.734375q0.375 0.4375 0.515625 1.109375q0.078125 0.421875 0.078125 1.515625l0 2.1875q0 2.28125 0.109375 2.890625q0.109375 0.59375 0.40625 1.15625l-1.703125 0q-0.265625 -0.515625 -0.328125 -1.1875zm-0.140625 -3.671875q-0.890625 0.375 -2.671875 0.625q-1.015625 0.140625 -1.4375 0.328125q-0.421875 0.1875 -0.65625 0.53125q-0.21875 0.34375 -0.21875 0.78125q0 0.65625 0.5 1.09375q0.5 0.4375 1.453125 0.4375q0.9375 0 1.671875 -0.40625q0.75 -0.421875 1.09375 -1.140625q0.265625 -0.5625 0.265625 -1.640625l0 -0.609375zm5.703827 4.859375l-1.515625 0l0 -13.359377l1.640625 0l0 4.765627q1.046875 -1.296875 2.65625 -1.296875q0.890625 0 1.6875 0.359375q0.796875 0.359375 1.3125 1.015625q0.515625 0.640625 0.796875 1.5625q0.296875 0.921875 0.296875 1.96875q0 2.484375 -1.234375 3.84375q-1.21875 1.359375 -2.953125 1.359375q-1.703125 0 -2.6875 -1.4375l0 1.21875zm-0.015625 -4.90625q0 1.734375 0.484375 2.515625q0.765625 1.265625 2.09375 1.265625q1.078125 0 1.859375 -0.9375q0.78125 -0.9375 0.78125 -2.78125q0 -1.890625 -0.75 -2.796875q-0.75 -0.90625 -1.828125 -0.90625q-1.0625 0 -1.859375 0.9375q-0.78125 0.9375 -0.78125 2.703125zm8.844452 4.90625l0 -13.359377l1.640625 0l0 13.359377l-1.640625 0zm10.816711 -3.109375l1.6875 0.203125q-0.40625 1.484375 -1.484375 2.3125q-1.078125 0.8125 -2.765625 0.8125q-2.125 0 -3.375 -1.296875q-1.234375 -1.3125 -1.234375 -3.671875q0 -2.453125 1.25 -3.796875q1.265625 -1.34375 3.265625 -1.34375q1.9375 0 3.15625 1.328125q1.234375 1.3125 1.234375 3.703125q0 0.15625 0 0.4375l-7.21875 0q0.09375 1.59375 0.90625 2.453125q0.8125 0.84375 2.015625 0.84375q0.90625 0 1.546875 -0.46875q0.640625 -0.484375 1.015625 -1.515625zm-5.390625 -2.65625l5.40625 0q-0.109375 -1.21875 -0.625 -1.828125q-0.78125 -0.953125 -2.03125 -0.953125q-1.125 0 -1.90625 0.765625q-0.765625 0.75 -0.84375 2.015625z" fill-rule="nonzero"/><path fill="#d9d9d9" d="m70.61155 138.2748l95.937004 0l0 23.81102l-95.937004 0z" fill-rule="evenodd"/><path stroke="#000000" stroke-width="1.0" stroke-linejoin="round" stroke-linecap="butt" d="m70.61155 138.2748l95.937004 0l0 23.81102l-95.937004 0z" fill-rule="evenodd"/><path fill="#000000" fill-opacity="0.0" d="m118.580055 162.08582l0 -5.7637787" fill-rule="evenodd"/><path stroke="#000000" stroke-width="1.0" stroke-linejoin="round" stroke-linecap="butt" d="m118.580055 162.08582l0 -5.7637787" fill-rule="evenodd"/><path fill="#000000" fill-opacity="0.0" d="m142.58005 162.08582l0 -5.7637787" fill-rule="evenodd"/><path stroke="#000000" stroke-width="1.0" stroke-linejoin="round" stroke-linecap="butt" d="m142.58005 162.08582l0 -5.7637787" fill-rule="evenodd"/><path fill="#000000" fill-opacity="0.0" d="m94.580055 162.08582l0 -5.7637787" fill-rule="evenodd"/><path stroke="#000000" stroke-width="1.0" stroke-linejoin="round" stroke-linecap="butt" d="m94.580055 162.08582l0 -5.7637787" fill-rule="evenodd"/><path fill="#000000" fill-opacity="0.0" d="m154.6751 162.08582l0 -5.7637787" fill-rule="evenodd"/><path stroke="#000000" stroke-width="1.0" stroke-linejoin="round" stroke-linecap="butt" d="m154.6751 162.08582l0 -5.7637787" fill-rule="evenodd"/><path fill="#000000" fill-opacity="0.0" d="m106.675095 162.08582l0 -5.7637787" fill-rule="evenodd"/><path stroke="#000000" stroke-width="1.0" stroke-linejoin="round" stroke-linecap="butt" d="m106.675095 162.08582l0 -5.7637787" fill-rule="evenodd"/><path fill="#000000" fill-opacity="0.0" d="m130.6751 162.08582l0 -5.7637787" fill-rule="evenodd"/><path stroke="#000000" stroke-width="1.0" stroke-linejoin="round" stroke-linecap="butt" d="m130.6751 162.08582l0 -5.7637787" fill-rule="evenodd"/><path fill="#000000" fill-opacity="0.0" d="m82.675095 162.08582l0 -5.7637787" fill-rule="evenodd"/><path stroke="#000000" stroke-width="1.0" stroke-linejoin="round" stroke-linecap="butt" d="m82.675095 162.08582l0 -5.7637787" fill-rule="evenodd"/><path fill="#d9d9d9" d="m70.61155 50.569553l95.937004 0l0 23.811024l-95.937004 0z" fill-rule="evenodd"/><path stroke="#000000" stroke-width="1.0" stroke-linejoin="round" stroke-linecap="butt" d="m70.61155 50.569553l95.937004 0l0 23.811024l-95.937004 0z" fill-rule="evenodd"/><path fill="#000000" fill-opacity="0.0" d="m118.580055 74.38058l0 -5.7637787" fill-rule="evenodd"/><path stroke="#000000" stroke-width="1.0" stroke-linejoin="round" stroke-linecap="butt" d="m118.580055 74.38058l0 -5.7637787" fill-rule="evenodd"/><path fill="#000000" fill-opacity="0.0" d="m142.58005 74.38058l0 -5.7637787" fill-rule="evenodd"/><path stroke="#000000" stroke-width="1.0" stroke-linejoin="round" stroke-linecap="butt" d="m142.58005 74.38058l0 -5.7637787" fill-rule="evenodd"/><path fill="#000000" fill-opacity="0.0" d="m94.580055 74.38058l0 -5.7637787" fill-rule="evenodd"/><path stroke="#000000" stroke-width="1.0" stroke-linejoin="round" stroke-linecap="butt" d="m94.580055 74.38058l0 -5.7637787" fill-rule="evenodd"/><path fill="#000000" fill-opacity="0.0" d="m154.6751 74.38058l0 -5.7637787" fill-rule="evenodd"/><path stroke="#000000" stroke-width="1.0" stroke-linejoin="round" stroke-linecap="butt" d="m154.6751 74.38058l0 -5.7637787" fill-rule="evenodd"/><path fill="#000000" fill-opacity="0.0" d="m106.675095 74.38058l0 -5.7637787" fill-rule="evenodd"/><path stroke="#000000" stroke-width="1.0" stroke-linejoin="round" stroke-linecap="butt" d="m106.675095 74.38058l0 -5.7637787" fill-rule="evenodd"/><path fill="#000000" fill-opacity="0.0" d="m130.6751 74.38058l0 -5.7637787" fill-rule="evenodd"/><path stroke="#000000" stroke-width="1.0" stroke-linejoin="round" stroke-linecap="butt" d="m130.6751 74.38058l0 -5.7637787" fill-rule="evenodd"/><path fill="#000000" fill-opacity="0.0" d="m82.675095 74.38058l0 -5.7637787" fill-rule="evenodd"/><path stroke="#000000" stroke-width="1.0" stroke-linejoin="round" stroke-linecap="butt" d="m82.675095 74.38058l0 -5.7637787" fill-rule="evenodd"/><path fill="#000000" fill-opacity="0.0" d="m6.2057905 50.549473l64.157486 0l0 23.999996l-64.157486 0z" fill-rule="evenodd"/><path fill="#000000" d="m33.019524 68.30947l0 -5.640625q0 -0.359375 -0.03125 -0.59375q-0.015625 -0.234375 -0.078125 -0.375q-0.0625 -0.140625 -0.15625 -0.1875q-0.078125 -0.0625 -0.21875 -0.0625q-0.15625 0 -0.296875 0.09375q-0.125 0.09375 -0.28125 0.3125q-0.140625 0.203125 -0.328125 0.5625q-0.1875 0.34375 -0.4375 0.84375l0 5.046875l-1.234375 0l0 -5.484375q0 -0.4375 -0.03125 -0.703125q-0.03125 -0.265625 -0.09375 -0.40625q-0.046875 -0.15625 -0.140625 -0.203125q-0.09375 -0.0625 -0.234375 -0.0625q-0.140625 0 -0.265625 0.078125q-0.125 0.078125 -0.28125 0.28125q-0.140625 0.203125 -0.328125 0.5625q-0.1875 0.34375 -0.453125 0.890625l0 5.046875l-1.25 0l0 -7.84375l1.046875 0l0.0625 1.484375q0.203125 -0.4375 0.390625 -0.75q0.1875 -0.3125 0.390625 -0.5q0.203125 -0.203125 0.4375 -0.28125q0.234375 -0.09375 0.515625 -0.09375q0.625 0 0.953125 0.421875q0.328125 0.40625 0.328125 1.265625q0.1875 -0.40625 0.359375 -0.71875q0.1875 -0.3125 0.390625 -0.53125q0.21875 -0.21875 0.46875 -0.328125q0.25 -0.109375 0.578125 -0.109375q1.46875 0 1.46875 2.265625l0 5.71875l-1.25 0zm10.03125 -3.984375q0 0.90625 -0.265625 1.671875q-0.25 0.765625 -0.734375 1.3125q-0.484375 0.53125 -1.1875 0.84375q-0.6875 0.296875 -1.5625 0.296875q-0.84375 0 -1.515625 -0.265625q-0.671875 -0.265625 -1.140625 -0.765625q-0.453125 -0.515625 -0.703125 -1.265625q-0.25 -0.75 -0.25 -1.71875q0 -0.921875 0.25 -1.671875q0.265625 -0.75 0.75 -1.296875q0.484375 -0.546875 1.171875 -0.84375q0.703125 -0.296875 1.59375 -0.296875q0.84375 0 1.5 0.265625q0.671875 0.25 1.140625 0.765625q0.46875 0.5 0.703125 1.25q0.25 0.75 0.25 1.71875zm-1.390625 0.0625q0 -0.734375 -0.15625 -1.265625q-0.15625 -0.546875 -0.453125 -0.90625q-0.296875 -0.375 -0.734375 -0.546875q-0.421875 -0.1875 -0.9375 -0.1875q-0.609375 0 -1.046875 0.234375q-0.4375 0.234375 -0.71875 0.640625q-0.265625 0.390625 -0.40625 0.921875q-0.125 0.53125 -0.125 1.109375q0 0.71875 0.15625 1.265625q0.171875 0.546875 0.46875 0.921875q0.296875 0.359375 0.71875 0.546875q0.421875 0.171875 0.953125 0.171875q0.609375 0 1.03125 -0.234375q0.4375 -0.234375 0.71875 -0.625q0.28125 -0.40625 0.40625 -0.9375q0.125 -0.53125 0.125 -1.109375zm2.96875 0.15625q0 -1.0 0.265625 -1.765625q0.28125 -0.78125 0.78125 -1.3125q0.5 -0.546875 1.203125 -0.8125q0.71875 -0.28125 1.578125 -0.28125q0.375 0 0.734375 0.046875q0.375 0.046875 0.71875 0.140625l0 -3.296875l1.375 0l0 11.046875l-1.21875 0l-0.046875 -1.484375q-0.578125 0.828125 -1.25 1.234375q-0.65625 0.390625 -1.421875 0.390625q-0.671875 0 -1.1875 -0.28125q-0.515625 -0.28125 -0.859375 -0.796875q-0.328125 -0.515625 -0.5 -1.234375q-0.171875 -0.71875 -0.171875 -1.59375zm1.390625 -0.078125q0 1.421875 0.40625 2.125q0.421875 0.6875 1.1875 0.6875q0.515625 0 1.09375 -0.453125q0.578125 -0.46875 1.203125 -1.375l0 -3.640625q-0.328125 -0.15625 -0.734375 -0.234375q-0.40625 -0.078125 -0.8125 -0.078125q-1.109375 0 -1.734375 0.71875q-0.609375 0.71875 -0.609375 2.25zm14.234375 0.734375q0 0.671875 -0.28125 1.265625q-0.265625 0.59375 -0.8125 1.03125q-0.546875 0.4375 -1.375 0.703125q-0.828125 0.25 -1.9375 0.25q-0.609375 0 -1.09375 -0.046875q-0.484375 -0.03125 -0.90625 -0.09375l0 -1.21875q0.484375 0.078125 1.015625 0.125q0.546875 0.046875 1.109375 0.046875q0.765625 0 1.3125 -0.125q0.546875 -0.140625 0.890625 -0.390625q0.34375 -0.265625 0.5 -0.625q0.15625 -0.375 0.15625 -0.84375q0 -0.421875 -0.1875 -0.734375q-0.1875 -0.3125 -0.53125 -0.515625q-0.34375 -0.21875 -0.8125 -0.3125q-0.46875 -0.109375 -1.03125 -0.109375l-1.171875 0l0 -1.125l1.1875 0q0.453125 0 0.828125 -0.109375q0.390625 -0.125 0.65625 -0.34375q0.265625 -0.234375 0.40625 -0.5625q0.15625 -0.34375 0.15625 -0.765625q0 -0.8125 -0.5 -1.1875q-0.5 -0.375 -1.46875 -0.375q-0.515625 0 -1.0625 0.109375q-0.546875 0.09375 -1.171875 0.296875l0 -1.1875q0.265625 -0.09375 0.5625 -0.171875q0.296875 -0.078125 0.59375 -0.125q0.3125 -0.046875 0.609375 -0.078125q0.296875 -0.03125 0.5625 -0.03125q0.8125 0 1.421875 0.1875q0.625 0.171875 1.03125 0.5q0.421875 0.328125 0.625 0.796875q0.21875 0.46875 0.21875 1.046875q0 0.875 -0.453125 1.46875q-0.4375 0.59375 -1.21875 0.953125q0.390625 0.0625 0.78125 0.25q0.390625 0.1875 0.6875 0.484375q0.3125 0.28125 0.5 0.6875q0.203125 0.390625 0.203125 0.875z" fill-rule="nonzero"/><path fill="#d9d9d9" d="m262.61154 73.909386l95.93701 0l0 23.81102l-95.93701 0z" fill-rule="evenodd"/><path stroke="#000000" stroke-width="1.0" stroke-linejoin="round" stroke-linecap="butt" d="m262.61154 73.909386l95.93701 0l0 23.81102l-95.93701 0z" fill-rule="evenodd"/><path fill="#000000" fill-opacity="0.0" d="m310.58005 97.720406l0 -5.7637787" fill-rule="evenodd"/><path stroke="#000000" stroke-width="1.0" stroke-linejoin="round" stroke-linecap="butt" d="m310.58005 97.720406l0 -5.7637787" fill-rule="evenodd"/><path fill="#000000" fill-opacity="0.0" d="m334.58005 97.720406l0 -5.7637787" fill-rule="evenodd"/><path stroke="#000000" stroke-width="1.0" stroke-linejoin="round" stroke-linecap="butt" d="m334.58005 97.720406l0 -5.7637787" fill-rule="evenodd"/><path fill="#000000" fill-opacity="0.0" d="m286.58005 97.720406l0 -5.7637787" fill-rule="evenodd"/><path stroke="#000000" stroke-width="1.0" stroke-linejoin="round" stroke-linecap="butt" d="m286.58005 97.720406l0 -5.7637787" fill-rule="evenodd"/><path fill="#000000" fill-opacity="0.0" d="m346.67508 97.720406l0 -5.7637787" fill-rule="evenodd"/><path stroke="#000000" stroke-width="1.0" stroke-linejoin="round" stroke-linecap="butt" d="m346.67508 97.720406l0 -5.7637787" fill-rule="evenodd"/><path fill="#000000" fill-opacity="0.0" d="m298.67508 97.720406l0 -5.7637787" fill-rule="evenodd"/><path stroke="#000000" stroke-width="1.0" stroke-linejoin="round" stroke-linecap="butt" d="m298.67508 97.720406l0 -5.7637787" fill-rule="evenodd"/><path fill="#000000" fill-opacity="0.0" d="m322.67508 97.720406l0 -5.7637787" fill-rule="evenodd"/><path stroke="#000000" stroke-width="1.0" stroke-linejoin="round" stroke-linecap="butt" d="m322.67508 97.720406l0 -5.7637787" fill-rule="evenodd"/><path fill="#000000" fill-opacity="0.0" d="m274.67508 97.720406l0 -5.7637787" fill-rule="evenodd"/><path stroke="#000000" stroke-width="1.0" stroke-linejoin="round" stroke-linecap="butt" d="m274.67508 97.720406l0 -5.7637787" fill-rule="evenodd"/><path fill="#000000" fill-opacity="0.0" d="m115.93904 124.207466c43.971313 0 81.61586 -16.20472 87.94263 -32.409447c6.326767 -16.20472 -18.66423 -32.409447 -37.32846 -32.409447" fill-rule="evenodd"/><path stroke="#000000" stroke-width="1.0" stroke-linejoin="round" stroke-linecap="butt" d="m119.72882 124.16677l0.3132248 -0.0062789917c1.3609848 -0.031158447 2.7150269 -0.07763672 4.061371 -0.13896179c2.6926804 -0.12264252 5.3545303 -0.30462646 7.9794846 -0.54200745c5.249893 -0.4747467 10.352112 -1.1710434 15.257858 -2.0572357c9.811508 -1.7723923 18.837097 -4.3043823 26.686295 -7.342766c15.698395 -6.0767746 26.691223 -14.179138 29.854614 -22.281494c3.1633759 -8.102364 -1.5026703 -16.204727 -9.292618 -22.281502c-3.8949432 -3.0383835 -8.570877 -5.5703735 -13.43959 -7.342762c-2.4343567 -0.88619614 -4.916916 -1.5824928 -7.374115 -2.0572433c-1.2286072 -0.23737335 -2.4508972 -0.4193611 -3.6576385 -0.54200363l-0.14175415 -0.013553619" fill-rule="evenodd"/><path fill="#000000" stroke="#000000" stroke-width="1.0" stroke-linecap="butt" d="m116.43901 124.2021c-0.009757996 -0.9084549 0.7187805 -1.6528168 1.6272354 -1.6625748c0.9084549 -0.009750366 1.6528168 0.71878815 1.6625748 1.627243c0.009757996 0.9084549 -0.71878815 1.6528168 -1.627243 1.6625671c-0.9084549 0.009757996 -1.6528091 -0.7187805 -1.6625671 -1.6272354z" fill-rule="nonzero"/><path fill="#000000" stroke="#000000" stroke-width="1.0" stroke-linecap="butt" d="m169.97595 59.560963l1.1797333 -1.0665894l-3.1424255 0.9677391l3.0292969 1.2785797z" fill-rule="evenodd"/><path fill="#000000" fill-opacity="0.0" d="m358.61942 74.09938l95.93701 0l0 18.551178l-95.93701 0z" fill-rule="evenodd"/><path fill="#000000" d="m372.76004 87.69497l0 -4.21875q0 -0.28125 -0.03125 -0.453125q-0.015625 -0.1875 -0.0625 -0.28125q-0.046875 -0.109375 -0.109375 -0.140625q-0.0625 -0.046875 -0.171875 -0.046875q-0.109375 0 -0.21875 0.078125q-0.09375 0.0625 -0.21875 0.21875q-0.109375 0.15625 -0.25 0.421875q-0.125 0.265625 -0.3125 0.640625l0 3.78125l-0.9375 0l0 -4.109375q0 -0.328125 -0.015625 -0.515625q-0.015625 -0.203125 -0.0625 -0.3125q-0.046875 -0.125 -0.125 -0.15625q-0.0625 -0.046875 -0.15625 -0.046875q-0.109375 0 -0.203125 0.0625q-0.09375 0.0625 -0.21875 0.21875q-0.109375 0.140625 -0.25 0.40625q-0.140625 0.265625 -0.328125 0.671875l0 3.78125l-0.9375 0l0 -5.890625l0.78125 0l0.046875 1.125q0.140625 -0.328125 0.28125 -0.5625q0.15625 -0.234375 0.296875 -0.375q0.15625 -0.15625 0.328125 -0.21875q0.171875 -0.0625 0.390625 -0.0625q0.46875 0 0.71875 0.3125q0.25 0.296875 0.25 0.953125q0.140625 -0.296875 0.265625 -0.53125q0.140625 -0.25 0.296875 -0.40625q0.15625 -0.15625 0.34375 -0.234375q0.1875 -0.09375 0.4375 -0.09375q1.109375 0 1.109375 1.703125l0 4.28125l-0.9375 0zm7.1289062 0l-0.921875 0l-0.03125 -0.953125q-0.265625 0.3125 -0.5 0.515625q-0.234375 0.203125 -0.46875 0.328125q-0.234375 0.109375 -0.484375 0.15625q-0.234375 0.0625 -0.5 0.0625q-0.90625 0 -1.375 -0.53125q-0.453125 -0.546875 -0.453125 -1.625l0 -3.84375l1.015625 0l0 3.765625q0 1.359375 1.03125 1.359375q0.1875 0 0.359375 -0.046875q0.171875 -0.0625 0.375 -0.203125q0.203125 -0.140625 0.421875 -0.375q0.21875 -0.234375 0.5 -0.59375l0 -3.90625l1.03125 0l0 5.890625zm3.8632812 -7.4375l-1.734375 0l0 -0.84375l2.765625 0l0 7.4375l1.75 0l0 0.84375l-4.703125 0l0 -0.84375l1.921875 0l0 -6.59375z" fill-rule="nonzero"/><path fill="#000000" fill-opacity="0.0" d="m358.61942 50.09938l95.93701 0l0 18.551178l-95.93701 0z" fill-rule="evenodd"/><path fill="#000000" d="m372.33817 63.69497l-0.03125 -0.796875q-0.46875 0.484375 -0.96875 0.703125q-0.5 0.203125 -1.046875 0.203125q-0.5 0 -0.859375 -0.125q-0.359375 -0.140625 -0.59375 -0.359375q-0.21875 -0.234375 -0.328125 -0.53125q-0.109375 -0.3125 -0.109375 -0.671875q0 -0.875 0.65625 -1.375q0.65625 -0.5 1.953125 -0.5l1.21875 0l0 -0.515625q0 -0.53125 -0.34375 -0.84375q-0.328125 -0.3125 -1.015625 -0.3125q-0.5 0 -0.984375 0.109375q-0.484375 0.109375 -1.0 0.328125l0 -0.921875q0.203125 -0.078125 0.4375 -0.140625q0.234375 -0.0625 0.5 -0.109375q0.265625 -0.0625 0.546875 -0.09375q0.296875 -0.03125 0.578125 -0.03125q0.546875 0 0.96875 0.125q0.421875 0.109375 0.71875 0.34375q0.296875 0.234375 0.453125 0.609375q0.15625 0.359375 0.15625 0.84375l0 4.0625l-0.90625 0zm-0.109375 -2.671875l-1.296875 0q-0.375 0 -0.65625 0.078125q-0.28125 0.0625 -0.453125 0.203125q-0.171875 0.140625 -0.265625 0.34375q-0.078125 0.1875 -0.078125 0.4375q0 0.171875 0.046875 0.328125q0.0625 0.15625 0.171875 0.28125q0.125 0.109375 0.3125 0.1875q0.1875 0.0625 0.453125 0.0625q0.34375 0 0.796875 -0.203125q0.46875 -0.21875 0.96875 -0.6875l0 -1.03125zm2.6289062 -0.140625q0 -0.75 0.203125 -1.328125q0.203125 -0.59375 0.578125 -0.984375q0.390625 -0.40625 0.90625 -0.609375q0.53125 -0.21875 1.1875 -0.21875q0.28125 0 0.546875 0.03125q0.28125 0.03125 0.546875 0.109375l0 -2.46875l1.015625 0l0 8.28125l-0.90625 0l-0.03125 -1.109375q-0.4375 0.609375 -0.9375 0.921875q-0.484375 0.296875 -1.078125 0.296875q-0.5 0 -0.890625 -0.203125q-0.375 -0.21875 -0.640625 -0.59375q-0.25 -0.390625 -0.375 -0.921875q-0.125 -0.546875 -0.125 -1.203125zm1.046875 -0.078125q0 1.078125 0.3125 1.609375q0.3125 0.515625 0.890625 0.515625q0.375 0 0.796875 -0.34375q0.4375 -0.34375 0.921875 -1.03125l0 -2.734375q-0.25 -0.109375 -0.5625 -0.171875q-0.296875 -0.0625 -0.59375 -0.0625q-0.84375 0 -1.3125 0.546875q-0.453125 0.53125 -0.453125 1.671875zm5.5507812 0.078125q0 -0.75 0.203125 -1.328125q0.203125 -0.59375 0.578125 -0.984375q0.390625 -0.40625 0.90625 -0.609375q0.53125 -0.21875 1.1875 -0.21875q0.28125 0 0.546875 0.03125q0.28125 0.03125 0.546875 0.109375l0 -2.46875l1.015625 0l0 8.28125l-0.90625 0l-0.03125 -1.109375q-0.4375 0.609375 -0.9375 0.921875q-0.484375 0.296875 -1.078125 0.296875q-0.5 0 -0.890625 -0.203125q-0.375 -0.21875 -0.640625 -0.59375q-0.25 -0.390625 -0.375 -0.921875q-0.125 -0.546875 -0.125 -1.203125zm1.046875 -0.078125q0 1.078125 0.3125 1.609375q0.3125 0.515625 0.890625 0.515625q0.375 0 0.796875 -0.34375q0.4375 -0.34375 0.921875 -1.03125l0 -2.734375q-0.25 -0.109375 -0.5625 -0.171875q-0.296875 -0.0625 -0.59375 -0.0625q-0.84375 0 -1.3125 0.546875q-0.453125 0.53125 -0.453125 1.671875z" fill-rule="nonzero"/><path fill="#000000" fill-opacity="0.0" d="m111.25412 60.632545l0 0c0 -1.1393585 1.0575943 -2.062992 2.3622055 -2.062992l0 0c1.3046112 0 2.3622055 0.9236336 2.3622055 2.062992l0 0c0 1.1393585 -1.0575943 2.062992 -2.3622055 2.062992l0 0c-1.3046112 0 -2.3622055 -0.9236336 -2.3622055 -2.062992z" fill-rule="evenodd"/><path fill="#000000" fill-opacity="0.0" d="m113.60833 124.207466l0 0c0 -1.1393585 0.5217438 -2.0629883 1.1653519 -2.0629883l0 0c0.3090744 0 0.605484 0.21734619 0.824028 0.6042328c0.21855164 0.3868866 0.34133148 0.9116211 0.34133148 1.4587555l0 0c0 1.1393661 -0.5217514 2.062996 -1.1653595 2.062996l0 0c-0.6436081 0 -1.1653519 -0.92362976 -1.1653519 -2.062996z" fill-rule="evenodd"/><path fill="#000000" fill-opacity="0.0" d="m70.61942 50.09938l95.937004 0l0 18.551178l-95.937004 0z" fill-rule="evenodd"/><path fill="#000000" d="m121.05472 61.366844q0 0.5 -0.21875 0.953125q-0.203125 0.4375 -0.609375 0.765625q-0.40625 0.328125 -1.03125 0.53125q-0.625 0.1875 -1.4375 0.1875q-0.46875 0 -0.828125 -0.03125q-0.359375 -0.03125 -0.671875 -0.078125l0 -0.921875q0.359375 0.078125 0.765625 0.109375q0.40625 0.03125 0.828125 0.03125q0.5625 0 0.96875 -0.09375q0.40625 -0.109375 0.65625 -0.296875q0.265625 -0.203125 0.375 -0.46875q0.125 -0.28125 0.125 -0.625q0 -0.3125 -0.140625 -0.546875q-0.140625 -0.234375 -0.390625 -0.390625q-0.25 -0.171875 -0.609375 -0.25q-0.359375 -0.078125 -0.78125 -0.078125l-0.859375 0l0 -0.828125l0.875 0q0.34375 0 0.625 -0.09375q0.296875 -0.09375 0.5 -0.265625q0.203125 -0.171875 0.296875 -0.421875q0.109375 -0.25 0.109375 -0.5625q0 -0.609375 -0.375 -0.890625q-0.375 -0.28125 -1.09375 -0.28125q-0.390625 0 -0.796875 0.078125q-0.40625 0.0625 -0.875 0.21875l0 -0.890625q0.1875 -0.0625 0.40625 -0.109375q0.234375 -0.0625 0.453125 -0.09375q0.234375 -0.046875 0.453125 -0.0625q0.234375 -0.03125 0.4375 -0.03125q0.609375 0 1.0625 0.140625q0.46875 0.125 0.78125 0.375q0.3125 0.234375 0.46875 0.59375q0.15625 0.34375 0.15625 0.796875q0 0.65625 -0.34375 1.109375q-0.328125 0.4375 -0.921875 0.6875q0.3125 0.046875 0.59375 0.1875q0.296875 0.140625 0.515625 0.375q0.234375 0.21875 0.375 0.515625q0.15625 0.296875 0.15625 0.65625z" fill-rule="nonzero"/><path fill="#000000" fill-opacity="0.0" d="m115.58793 147.81c52.61167 0 86.845375 -21.425194 105.223335 -42.850388c18.377945 -21.425194 20.900146 -42.85039 41.800278 -42.85039" fill-rule="evenodd"/><path stroke="#000000" stroke-width="1.0" stroke-linejoin="round" stroke-linecap="butt" d="m119.37774 147.77226l1.088768 -0.024368286c1.6082993 -0.04119873 3.1987228 -0.10266113 4.7713547 -0.18373108c3.1452713 -0.16215515 6.219368 -0.402771 9.222908 -0.71661377c6.007065 -0.62768555 11.731903 -1.5483093 17.179459 -2.7200012c10.895081 -2.3433838 20.680939 -5.6910706 29.397003 -9.708282c17.432129 -8.034454 30.585068 -18.747055 39.774033 -29.459648c9.18898 -10.712601 14.414001 -21.425201 19.954315 -29.459656c2.7701569 -4.0172195 5.6191406 -7.3649063 9.081818 -9.70829c1.731369 -1.1716919 3.6161194 -2.0923042 5.7211914 -2.7199974c1.052536 -0.31384277 2.160141 -0.5544586 3.331192 -0.71660995l0.29101562 -0.037597656" fill-rule="evenodd"/><path fill="#000000" stroke="#000000" stroke-width="1.0" stroke-linecap="butt" d="m116.0879 147.80502c-0.0090408325 -0.9084625 0.7200775 -1.6522522 1.62854 -1.6612854c0.9084625 -0.009048462 1.6522522 0.7200775 1.6613007 1.62854c0.009048462 0.9084625 -0.7200775 1.6522522 -1.62854 1.6612854c-0.9084625 0.009048462 -1.6522522 -0.72006226 -1.6613007 -1.62854z" fill-rule="nonzero"/><path fill="#000000" stroke="#000000" stroke-width="1.0" stroke-linecap="butt" d="m259.1908 62.317467l-1.0541687 1.1908417l3.0157166 -1.3102608l-3.1524048 -0.9347534z" fill-rule="evenodd"/><path fill="#000000" fill-opacity="0.0" d="m62.540745 162.0971c-2.1873093 0 -3.960472 -1.7731628 -3.960472 -3.9604645l0 -15.842834c0 -2.187317 -1.7731628 -3.9604797 -3.960472 -3.9604797c2.1873093 0 3.960472 -1.7731628 3.960472 -3.9604645l0 -15.842842l0 0c0 -2.1873016 1.7731628 -3.9604645 3.960472 -3.9604645l415.18173 0c1.0503845 0 2.0577393 0.41725922 2.800476 1.1599884c0.7427368 0.7427368 1.1600037 1.7500992 1.1600037 2.800476l0 15.842842c0 2.1873016 1.7731628 3.9604645 3.9604797 3.9604645c-2.187317 0 -3.9604797 1.7731628 -3.9604797 3.9604797l0 15.842834c0 2.1873016 -1.7731628 3.9604645 -3.9604797 3.9604645z" fill-rule="evenodd"/><path fill="#000000" fill-opacity="0.0" d="m62.540745 162.0971c-2.1873093 0 -3.960472 -1.7731628 -3.960472 -3.9604645l0 -15.842834c0 -2.187317 -1.7731628 -3.9604797 -3.960472 -3.9604797c2.1873093 0 3.960472 -1.7731628 3.960472 -3.9604645l0 -15.842842l0 0c0 -2.1873016 1.7731628 -3.9604645 3.960472 -3.9604645m415.18173 0c1.0503845 0 2.0577393 0.41725922 2.800476 1.1599884c0.7427368 0.7427368 1.1600037 1.7500992 1.1600037 2.800476l0 15.842842c0 2.1873016 1.7731628 3.9604645 3.9604797 3.9604645c-2.187317 0 -3.9604797 1.7731628 -3.9604797 3.9604797l0 15.842834c0 2.1873016 -1.7731628 3.9604645 -3.9604797 3.9604645" fill-rule="evenodd"/><path stroke="#000000" stroke-width="1.0" stroke-linejoin="round" stroke-linecap="butt" d="m62.540745 162.0971c-2.1873093 0 -3.960472 -1.7731628 -3.960472 -3.9604645l0 -15.842834c0 -2.187317 -1.7731628 -3.9604797 -3.960472 -3.9604797c2.1873093 0 3.960472 -1.7731628 3.960472 -3.9604645l0 -15.842842l0 0c0 -2.1873016 1.7731628 -3.9604645 3.960472 -3.9604645m415.18173 0c1.0503845 0 2.0577393 0.41725922 2.800476 1.1599884c0.7427368 0.7427368 1.1600037 1.7500992 1.1600037 2.800476l0 15.842842c0 2.1873016 1.7731628 3.9604645 3.9604797 3.9604645c-2.187317 0 -3.9604797 1.7731628 -3.9604797 3.9604797l0 15.842834c0 2.1873016 -1.7731628 3.9604645 -3.9604797 3.9604645" fill-rule="evenodd"/><path fill="#ead1dc" d="m214.16273 179.7559l166.17323 0l0 18.551178l-166.17323 0z" fill-rule="evenodd"/><path stroke="#000000" stroke-width="1.0" stroke-linejoin="round" stroke-linecap="butt" d="m214.16273 179.7559l166.17323 0l0 18.551178l-166.17323 0z" fill-rule="evenodd"/><path fill="#000000" d="m243.64607 191.53337l-0.703125 0l-2.359375 -5.375l-0.125 0l0 7.34375l1.140625 0q0.21875 0 0.3125 0.078125q0.09375 0.078125 0.09375 0.21875q0 0.140625 -0.09375 0.234375q-0.09375 0.078125 -0.3125 0.078125l-2.265625 0q-0.234375 0 -0.328125 -0.078125q-0.09375 -0.09375 -0.09375 -0.234375q0 -0.140625 0.09375 -0.21875q0.09375 -0.078125 0.328125 -0.078125l0.515625 0l0 -7.34375l-0.390625 0q-0.21875 0 -0.3125 -0.078125q-0.09375 -0.09375 -0.09375 -0.234375q0 -0.140625 0.09375 -0.21875q0.09375 -0.078125 0.3125 -0.078125l1.515625 0l2.328125 5.296875l2.28125 -5.296875l1.515625 0q0.21875 0 0.3125 0.078125q0.109375 0.078125 0.109375 0.21875q0 0.140625 -0.109375 0.234375q-0.09375 0.078125 -0.3125 0.078125l-0.390625 0l0 7.34375l0.515625 0q0.234375 0 0.328125 0.078125q0.09375 0.078125 0.09375 0.21875q0 0.140625 -0.09375 0.234375q-0.09375 0.078125 -0.328125 0.078125l-2.265625 0q-0.21875 0 -0.3125 -0.078125q-0.09375 -0.09375 -0.09375 -0.234375q0 -0.140625 0.09375 -0.21875q0.09375 -0.078125 0.3125 -0.078125l1.140625 0l0 -7.34375l-0.125 0l-2.328125 5.375zm12.032715 -0.578125q0 1.40625 -1.015625 2.40625q-1.0 0.984375 -2.421875 0.984375q-1.4375 0 -2.4375 -1.0q-1.0 -1.0 -1.0 -2.390625q0 -1.40625 1.0 -2.40625q1.0 -1.0 2.4375 -1.0q1.421875 0 2.421875 1.0q1.015625 0.984375 1.015625 2.40625zm-0.625 0q0 -1.15625 -0.828125 -1.96875q-0.8125 -0.8125 -1.984375 -0.8125q-1.171875 0 -2.0 0.8125q-0.828125 0.8125 -0.828125 1.96875q0 1.140625 0.828125 1.96875q0.828125 0.8125 2.0 0.8125q1.171875 0 1.984375 -0.8125q0.828125 -0.8125 0.828125 -1.96875zm9.204605 -6.03125l0 8.578125l0.8125 0q0.234375 0 0.328125 0.078125q0.09375 0.078125 0.09375 0.21875q0 0.140625 -0.09375 0.234375q-0.09375 0.078125 -0.328125 0.078125l-1.4375 0l0 -1.21875q-1.0625 1.453125 -2.71875 1.453125q-0.828125 0 -1.59375 -0.4375q-0.765625 -0.4375 -1.21875 -1.25q-0.4375 -0.828125 -0.4375 -1.703125q0 -0.875 0.4375 -1.6875q0.453125 -0.828125 1.21875 -1.265625q0.765625 -0.453125 1.609375 -0.453125q1.609375 0 2.703125 1.46875l0 -3.46875l-0.8125 0q-0.234375 0 -0.328125 -0.09375q-0.09375 -0.09375 -0.09375 -0.234375q0 -0.125 0.09375 -0.203125q0.09375 -0.09375 0.328125 -0.09375l1.4375 0zm-0.625 6.03125q0 -1.171875 -0.796875 -1.96875q-0.78125 -0.8125 -1.875 -0.8125q-1.09375 0 -1.890625 0.8125q-0.796875 0.796875 -0.796875 1.96875q0 1.15625 0.796875 1.96875q0.796875 0.8125 1.890625 0.8125q1.09375 0 1.875 -0.8125q0.796875 -0.8125 0.796875 -1.96875zm8.720215 3.15625l0 -0.90625q-1.265625 1.140625 -2.734375 1.140625q-0.890625 0 -1.359375 -0.484375q-0.609375 -0.640625 -0.609375 -1.5l0 -3.96875l-0.828125 0q-0.21875 0 -0.3125 -0.078125q-0.09375 -0.09375 -0.09375 -0.234375q0 -0.140625 0.09375 -0.21875q0.09375 -0.09375 0.3125 -0.09375l1.4375 0l0 4.59375q0 0.59375 0.375 0.984375q0.390625 0.390625 0.96875 0.390625q1.5 0 2.75 -1.375l0 -3.96875l-1.140625 0q-0.21875 0 -0.3125 -0.078125q-0.09375 -0.09375 -0.09375 -0.234375q0 -0.140625 0.09375 -0.21875q0.09375 -0.09375 0.3125 -0.09375l1.75 0l0 5.734375l0.515625 0q0.234375 0 0.328125 0.078125q0.09375 0.078125 0.09375 0.21875q0 0.140625 -0.09375 0.234375q-0.09375 0.078125 -0.328125 0.078125l-1.125 0zm7.20459 -9.1875l0 8.578125l2.421875 0q0.21875 0 0.3125 0.078125q0.09375 0.078125 0.09375 0.21875q0 0.140625 -0.09375 0.234375q-0.09375 0.078125 -0.3125 0.078125l-5.453125 0q-0.21875 0 -0.3125 -0.078125q-0.09375 -0.09375 -0.09375 -0.234375q0 -0.140625 0.09375 -0.21875q0.09375 -0.078125 0.3125 -0.078125l2.421875 0l0 -7.953125l-1.78125 0q-0.21875 0 -0.328125 -0.09375q-0.09375 -0.09375 -0.09375 -0.234375q0 -0.125 0.09375 -0.203125q0.109375 -0.09375 0.328125 -0.09375l2.390625 0zm12.126465 6.03125q0 1.40625 -1.015625 2.40625q-1.0 0.984375 -2.421875 0.984375q-1.4375 0 -2.4375 -1.0q-1.0 -1.0 -1.0 -2.390625q0 -1.40625 1.0 -2.40625q1.0 -1.0 2.4375 -1.0q1.421875 0 2.421875 1.0q1.015625 0.984375 1.015625 2.40625zm-0.625 0q0 -1.15625 -0.828125 -1.96875q-0.8125 -0.8125 -1.984375 -0.8125q-1.171875 0 -2.0 0.8125q-0.828125 0.8125 -0.828125 1.96875q0 1.140625 0.828125 1.96875q0.828125 0.8125 2.0 0.8125q1.171875 0 1.984375 -0.8125q0.828125 -0.8125 0.828125 -1.96875zm6.063965 -3.1875l0.265625 0q0.40625 0 0.6875 0.296875q0.296875 0.296875 0.296875 0.6875q0 0.4375 -0.296875 0.734375q-0.28125 0.28125 -0.6875 0.28125l-0.265625 0q-0.40625 0 -0.703125 -0.296875q-0.296875 -0.296875 -0.296875 -0.703125q0 -0.421875 0.296875 -0.703125q0.296875 -0.296875 0.703125 -0.296875zm0 4.578125l0.265625 0q0.40625 0 0.6875 0.296875q0.296875 0.28125 0.296875 0.6875q0 0.421875 -0.296875 0.71875q-0.28125 0.28125 -0.6875 0.28125l-0.265625 0q-0.40625 0 -0.703125 -0.28125q-0.296875 -0.296875 -0.296875 -0.703125q0 -0.421875 0.296875 -0.703125q0.296875 -0.296875 0.703125 -0.296875zm9.001465 -4.578125l0.265625 0q0.40625 0 0.6875 0.296875q0.296875 0.296875 0.296875 0.6875q0 0.4375 -0.296875 0.734375q-0.28125 0.28125 -0.6875 0.28125l-0.265625 0q-0.40625 0 -0.703125 -0.296875q-0.296875 -0.296875 -0.296875 -0.703125q0 -0.421875 0.296875 -0.703125q0.296875 -0.296875 0.703125 -0.296875zm0 4.578125l0.265625 0q0.40625 0 0.6875 0.296875q0.296875 0.28125 0.296875 0.6875q0 0.421875 -0.296875 0.71875q-0.28125 0.28125 -0.6875 0.28125l-0.265625 0q-0.40625 0 -0.703125 -0.28125q-0.296875 -0.296875 -0.296875 -0.703125q0 -0.421875 0.296875 -0.703125q0.296875 -0.296875 0.703125 -0.296875zm10.89209 1.765625l0 -0.890625q-1.34375 1.125 -2.859375 1.125q-1.109375 0 -1.734375 -0.546875q-0.609375 -0.5625 -0.609375 -1.375q0 -0.890625 0.8125 -1.5625q0.828125 -0.671875 2.390625 -0.671875q0.421875 0 0.921875 0.0625q0.5 0.046875 1.078125 0.171875l0 -1.0q0 -0.5 -0.46875 -0.875q-0.46875 -0.375 -1.40625 -0.375q-0.71875 0 -2.015625 0.421875q-0.234375 0.0625 -0.296875 0.0625q-0.109375 0 -0.203125 -0.078125q-0.078125 -0.09375 -0.078125 -0.21875q0 -0.125 0.078125 -0.203125q0.09375 -0.109375 0.828125 -0.296875q1.140625 -0.3125 1.71875 -0.3125q1.171875 0 1.8125 0.578125q0.65625 0.578125 0.65625 1.296875l0 4.078125l0.828125 0q0.21875 0 0.3125 0.078125q0.09375 0.078125 0.09375 0.21875q0 0.140625 -0.09375 0.234375q-0.09375 0.078125 -0.3125 0.078125l-1.453125 0zm0 -3.0625q-0.421875 -0.125 -0.90625 -0.171875q-0.484375 -0.0625 -1.015625 -0.0625q-1.34375 0 -2.109375 0.578125q-0.5625 0.421875 -0.5625 1.03125q0 0.546875 0.4375 0.9375q0.4375 0.375 1.265625 0.375q0.796875 0 1.484375 -0.3125q0.6875 -0.328125 1.40625 -1.015625l0 -1.359375zm10.251465 -6.125l0 8.578125l0.8125 0q0.234375 0 0.328125 0.078125q0.09375 0.078125 0.09375 0.21875q0 0.140625 -0.09375 0.234375q-0.09375 0.078125 -0.328125 0.078125l-1.4375 0l0 -1.21875q-1.0625 1.453125 -2.71875 1.453125q-0.828125 0 -1.59375 -0.4375q-0.765625 -0.4375 -1.21875 -1.25q-0.4375 -0.828125 -0.4375 -1.703125q0 -0.875 0.4375 -1.6875q0.453125 -0.828125 1.21875 -1.265625q0.765625 -0.453125 1.609375 -0.453125q1.609375 0 2.703125 1.46875l0 -3.46875l-0.8125 0q-0.234375 0 -0.328125 -0.09375q-0.09375 -0.09375 -0.09375 -0.234375q0 -0.125 0.09375 -0.203125q0.09375 -0.09375 0.328125 -0.09375l1.4375 0zm-0.625 6.03125q0 -1.171875 -0.796875 -1.96875q-0.78125 -0.8125 -1.875 -0.8125q-1.09375 0 -1.890625 0.8125q-0.796875 0.796875 -0.796875 1.96875q0 1.15625 0.796875 1.96875q0.796875 0.8125 1.890625 0.8125q1.09375 0 1.875 -0.8125q0.796875 -0.8125 0.796875 -1.96875zm9.626465 -6.03125l0 8.578125l0.8125 0q0.234375 0 0.328125 0.078125q0.09375 0.078125 0.09375 0.21875q0 0.140625 -0.09375 0.234375q-0.09375 0.078125 -0.328125 0.078125l-1.4375 0l0 -1.21875q-1.0625 1.453125 -2.71875 1.453125q-0.828125 0 -1.59375 -0.4375q-0.765625 -0.4375 -1.21875 -1.25q-0.4375 -0.828125 -0.4375 -1.703125q0 -0.875 0.4375 -1.6875q0.453125 -0.828125 1.21875 -1.265625q0.765625 -0.453125 1.609375 -0.453125q1.609375 0 2.703125 1.46875l0 -3.46875l-0.8125 0q-0.234375 0 -0.328125 -0.09375q-0.09375 -0.09375 -0.09375 -0.234375q0 -0.125 0.09375 -0.203125q0.09375 -0.09375 0.328125 -0.09375l1.4375 0zm-0.625 6.03125q0 -1.171875 -0.796875 -1.96875q-0.78125 -0.8125 -1.875 -0.8125q-1.09375 0 -1.890625 0.8125q-0.796875 0.796875 -0.796875 1.96875q0 1.15625 0.796875 1.96875q0.796875 0.8125 1.890625 0.8125q1.09375 0 1.875 -0.8125q0.796875 -0.8125 0.796875 -1.96875zm6.5483093 -0.484375q0 -0.84375 0.21875 -1.78125q0.21875 -0.953125 0.828125 -2.1875q0.625 -1.25 0.921875 -1.5q0.078125 -0.078125 0.1875 -0.078125q0.125 0 0.21875 0.09375q0.09375 0.078125 0.09375 0.203125q0 0.078125 -0.046875 0.15625q-0.8125 1.484375 -1.15625 2.6875q-0.34375 1.203125 -0.34375 2.40625q0 1.203125 0.34375 2.40625q0.34375 1.203125 1.15625 2.671875q0.046875 0.09375 0.046875 0.15625q0 0.125 -0.09375 0.21875q-0.09375 0.09375 -0.21875 0.09375q-0.109375 0 -0.1875 -0.078125q-0.28125 -0.25 -0.890625 -1.46875q-0.609375 -1.203125 -0.84375 -2.125q-0.234375 -0.9375 -0.234375 -1.875zm9.251465 0q0 0.84375 -0.234375 1.78125q-0.21875 0.9375 -0.84375 2.171875q-0.609375 1.25 -0.90625 1.5q-0.078125 0.09375 -0.1875 0.09375q-0.125 0 -0.21875 -0.09375q-0.09375 -0.09375 -0.09375 -0.21875q0 -0.0625 0.046875 -0.15625q0.8125 -1.46875 1.15625 -2.671875q0.34375 -1.203125 0.34375 -2.40625q0 -1.203125 -0.34375 -2.40625q-0.34375 -1.203125 -1.15625 -2.6875q-0.046875 -0.078125 -0.046875 -0.15625q0 -0.125 0.09375 -0.203125q0.09375 -0.09375 0.21875 -0.09375q0.109375 0 0.1875 0.078125q0.28125 0.25 0.890625 1.453125q0.625 1.203125 0.859375 2.140625q0.234375 0.9375 0.234375 1.875z" fill-rule="nonzero"/><path fill="#ead1dc" d="m214.16273 211.7559l166.17323 0l0 18.551178l-166.17323 0z" fill-rule="evenodd"/><path stroke="#000000" stroke-width="1.0" stroke-linejoin="round" stroke-linecap="butt" d="m214.16273 211.7559l166.17323 0l0 18.551178l-166.17323 0z" fill-rule="evenodd"/><path fill="#000000" d="m243.64607 223.53337l-0.703125 0l-2.359375 -5.375l-0.125 0l0 7.34375l1.140625 0q0.21875 0 0.3125 0.078125q0.09375 0.078125 0.09375 0.21875q0 0.140625 -0.09375 0.234375q-0.09375 0.078125 -0.3125 0.078125l-2.265625 0q-0.234375 0 -0.328125 -0.078125q-0.09375 -0.09375 -0.09375 -0.234375q0 -0.140625 0.09375 -0.21875q0.09375 -0.078125 0.328125 -0.078125l0.515625 0l0 -7.34375l-0.390625 0q-0.21875 0 -0.3125 -0.078125q-0.09375 -0.09375 -0.09375 -0.234375q0 -0.140625 0.09375 -0.21875q0.09375 -0.078125 0.3125 -0.078125l1.515625 0l2.328125 5.296875l2.28125 -5.296875l1.515625 0q0.21875 0 0.3125 0.078125q0.109375 0.078125 0.109375 0.21875q0 0.140625 -0.109375 0.234375q-0.09375 0.078125 -0.3125 0.078125l-0.390625 0l0 7.34375l0.515625 0q0.234375 0 0.328125 0.078125q0.09375 0.078125 0.09375 0.21875q0 0.140625 -0.09375 0.234375q-0.09375 0.078125 -0.328125 0.078125l-2.265625 0q-0.21875 0 -0.3125 -0.078125q-0.09375 -0.09375 -0.09375 -0.234375q0 -0.140625 0.09375 -0.21875q0.09375 -0.078125 0.3125 -0.078125l1.140625 0l0 -7.34375l-0.125 0l-2.328125 5.375zm12.032715 -0.578125q0 1.40625 -1.015625 2.40625q-1.0 0.984375 -2.421875 0.984375q-1.4375 0 -2.4375 -1.0q-1.0 -1.0 -1.0 -2.390625q0 -1.40625 1.0 -2.40625q1.0 -1.0 2.4375 -1.0q1.421875 0 2.421875 1.0q1.015625 0.984375 1.015625 2.40625zm-0.625 0q0 -1.15625 -0.828125 -1.96875q-0.8125 -0.8125 -1.984375 -0.8125q-1.171875 0 -2.0 0.8125q-0.828125 0.8125 -0.828125 1.96875q0 1.140625 0.828125 1.96875q0.828125 0.8125 2.0 0.8125q1.171875 0 1.984375 -0.8125q0.828125 -0.8125 0.828125 -1.96875zm9.204605 -6.03125l0 8.578125l0.8125 0q0.234375 0 0.328125 0.078125q0.09375 0.078125 0.09375 0.21875q0 0.140625 -0.09375 0.234375q-0.09375 0.078125 -0.328125 0.078125l-1.4375 0l0 -1.21875q-1.0625 1.453125 -2.71875 1.453125q-0.828125 0 -1.59375 -0.4375q-0.765625 -0.4375 -1.21875 -1.25q-0.4375 -0.828125 -0.4375 -1.703125q0 -0.875 0.4375 -1.6875q0.453125 -0.828125 1.21875 -1.265625q0.765625 -0.453125 1.609375 -0.453125q1.609375 0 2.703125 1.46875l0 -3.46875l-0.8125 0q-0.234375 0 -0.328125 -0.09375q-0.09375 -0.09375 -0.09375 -0.234375q0 -0.125 0.09375 -0.203125q0.09375 -0.09375 0.328125 -0.09375l1.4375 0zm-0.625 6.03125q0 -1.171875 -0.796875 -1.96875q-0.78125 -0.8125 -1.875 -0.8125q-1.09375 0 -1.890625 0.8125q-0.796875 0.796875 -0.796875 1.96875q0 1.15625 0.796875 1.96875q0.796875 0.8125 1.890625 0.8125q1.09375 0 1.875 -0.8125q0.796875 -0.8125 0.796875 -1.96875zm8.720215 3.15625l0 -0.90625q-1.265625 1.140625 -2.734375 1.140625q-0.890625 0 -1.359375 -0.484375q-0.609375 -0.640625 -0.609375 -1.5l0 -3.96875l-0.828125 0q-0.21875 0 -0.3125 -0.078125q-0.09375 -0.09375 -0.09375 -0.234375q0 -0.140625 0.09375 -0.21875q0.09375 -0.09375 0.3125 -0.09375l1.4375 0l0 4.59375q0 0.59375 0.375 0.984375q0.390625 0.390625 0.96875 0.390625q1.5 0 2.75 -1.375l0 -3.96875l-1.140625 0q-0.21875 0 -0.3125 -0.078125q-0.09375 -0.09375 -0.09375 -0.234375q0 -0.140625 0.09375 -0.21875q0.09375 -0.09375 0.3125 -0.09375l1.75 0l0 5.734375l0.515625 0q0.234375 0 0.328125 0.078125q0.09375 0.078125 0.09375 0.21875q0 0.140625 -0.09375 0.234375q-0.09375 0.078125 -0.328125 0.078125l-1.125 0zm7.20459 -9.1875l0 8.578125l2.421875 0q0.21875 0 0.3125 0.078125q0.09375 0.078125 0.09375 0.21875q0 0.140625 -0.09375 0.234375q-0.09375 0.078125 -0.3125 0.078125l-5.453125 0q-0.21875 0 -0.3125 -0.078125q-0.09375 -0.09375 -0.09375 -0.234375q0 -0.140625 0.09375 -0.21875q0.09375 -0.078125 0.3125 -0.078125l2.421875 0l0 -7.953125l-1.78125 0q-0.21875 0 -0.328125 -0.09375q-0.09375 -0.09375 -0.09375 -0.234375q0 -0.125 0.09375 -0.203125q0.109375 -0.09375 0.328125 -0.09375l2.390625 0zm12.126465 6.03125q0 1.40625 -1.015625 2.40625q-1.0 0.984375 -2.421875 0.984375q-1.4375 0 -2.4375 -1.0q-1.0 -1.0 -1.0 -2.390625q0 -1.40625 1.0 -2.40625q1.0 -1.0 2.4375 -1.0q1.421875 0 2.421875 1.0q1.015625 0.984375 1.015625 2.40625zm-0.625 0q0 -1.15625 -0.828125 -1.96875q-0.8125 -0.8125 -1.984375 -0.8125q-1.171875 0 -2.0 0.8125q-0.828125 0.8125 -0.828125 1.96875q0 1.140625 0.828125 1.96875q0.828125 0.8125 2.0 0.8125q1.171875 0 1.984375 -0.8125q0.828125 -0.8125 0.828125 -1.96875zm6.063965 -3.1875l0.265625 0q0.40625 0 0.6875 0.296875q0.296875 0.296875 0.296875 0.6875q0 0.4375 -0.296875 0.734375q-0.28125 0.28125 -0.6875 0.28125l-0.265625 0q-0.40625 0 -0.703125 -0.296875q-0.296875 -0.296875 -0.296875 -0.703125q0 -0.421875 0.296875 -0.703125q0.296875 -0.296875 0.703125 -0.296875zm0 4.578125l0.265625 0q0.40625 0 0.6875 0.296875q0.296875 0.28125 0.296875 0.6875q0 0.421875 -0.296875 0.71875q-0.28125 0.28125 -0.6875 0.28125l-0.265625 0q-0.40625 0 -0.703125 -0.28125q-0.296875 -0.296875 -0.296875 -0.703125q0 -0.421875 0.296875 -0.703125q0.296875 -0.296875 0.703125 -0.296875zm9.001465 -4.578125l0.265625 0q0.40625 0 0.6875 0.296875q0.296875 0.296875 0.296875 0.6875q0 0.4375 -0.296875 0.734375q-0.28125 0.28125 -0.6875 0.28125l-0.265625 0q-0.40625 0 -0.703125 -0.296875q-0.296875 -0.296875 -0.296875 -0.703125q0 -0.421875 0.296875 -0.703125q0.296875 -0.296875 0.703125 -0.296875zm0 4.578125l0.265625 0q0.40625 0 0.6875 0.296875q0.296875 0.28125 0.296875 0.6875q0 0.421875 -0.296875 0.71875q-0.28125 0.28125 -0.6875 0.28125l-0.265625 0q-0.40625 0 -0.703125 -0.28125q-0.296875 -0.296875 -0.296875 -0.703125q0 -0.421875 0.296875 -0.703125q0.296875 -0.296875 0.703125 -0.296875zm6.32959 -4.578125l0 0.625q0.78125 -0.84375 1.578125 -0.84375q0.46875 0 0.828125 0.25q0.359375 0.25 0.59375 0.765625q0.421875 -0.515625 0.84375 -0.765625q0.421875 -0.25 0.84375 -0.25q0.65625 0 1.0625 0.4375q0.515625 0.546875 0.515625 1.203125l0 4.3125l0.515625 0q0.21875 0 0.3125 0.078125q0.109375 0.078125 0.109375 0.21875q0 0.140625 -0.109375 0.234375q-0.09375 0.078125 -0.3125 0.078125l-1.125 0l0 -4.859375q0 -0.46875 -0.296875 -0.765625q-0.28125 -0.3125 -0.65625 -0.3125q-0.328125 0 -0.703125 0.25q-0.375 0.25 -0.859375 1.0l0 4.078125l0.515625 0q0.21875 0 0.3125 0.078125q0.09375 0.078125 0.09375 0.21875q0 0.140625 -0.09375 0.234375q-0.09375 0.078125 -0.3125 0.078125l-1.140625 0l0 -4.8125q0 -0.484375 -0.296875 -0.796875q-0.28125 -0.328125 -0.640625 -0.328125q-0.328125 0 -0.640625 0.203125q-0.453125 0.3125 -0.9375 1.046875l0 4.078125l0.515625 0q0.21875 0 0.3125 0.078125q0.09375 0.078125 0.09375 0.21875q0 0.140625 -0.09375 0.234375q-0.09375 0.078125 -0.3125 0.078125l-1.65625 0q-0.21875 0 -0.3125 -0.078125q-0.09375 -0.09375 -0.09375 -0.234375q0 -0.140625 0.09375 -0.21875q0.09375 -0.078125 0.3125 -0.078125l0.515625 0l0 -5.109375l-0.515625 0q-0.21875 0 -0.3125 -0.078125q-0.09375 -0.09375 -0.09375 -0.234375q0 -0.140625 0.09375 -0.21875q0.09375 -0.09375 0.3125 -0.09375l1.140625 0zm13.907715 6.34375l0 -0.90625q-1.265625 1.140625 -2.734375 1.140625q-0.890625 0 -1.359375 -0.484375q-0.609375 -0.640625 -0.609375 -1.5l0 -3.96875l-0.828125 0q-0.21875 0 -0.3125 -0.078125q-0.09375 -0.09375 -0.09375 -0.234375q0 -0.140625 0.09375 -0.21875q0.09375 -0.09375 0.3125 -0.09375l1.4375 0l0 4.59375q0 0.59375 0.375 0.984375q0.390625 0.390625 0.96875 0.390625q1.5 0 2.75 -1.375l0 -3.96875l-1.140625 0q-0.21875 0 -0.3125 -0.078125q-0.09375 -0.09375 -0.09375 -0.234375q0 -0.140625 0.09375 -0.21875q0.09375 -0.09375 0.3125 -0.09375l1.75 0l0 5.734375l0.515625 0q0.234375 0 0.328125 0.078125q0.09375 0.078125 0.09375 0.21875q0 0.140625 -0.09375 0.234375q-0.09375 0.078125 -0.328125 0.078125l-1.125 0zm7.20459 -9.1875l0 8.578125l2.421875 0q0.21875 0 0.3125 0.078125q0.09375 0.078125 0.09375 0.21875q0 0.140625 -0.09375 0.234375q-0.09375 0.078125 -0.3125 0.078125l-5.453125 0q-0.21875 0 -0.3125 -0.078125q-0.09375 -0.09375 -0.09375 -0.234375q0 -0.140625 0.09375 -0.21875q0.09375 -0.078125 0.3125 -0.078125l2.421875 0l0 -7.953125l-1.78125 0q-0.21875 0 -0.328125 -0.09375q-0.09375 -0.09375 -0.09375 -0.234375q0 -0.125 0.09375 -0.203125q0.109375 -0.09375 0.328125 -0.09375l2.390625 0zm8.626434 5.546875q0 -0.84375 0.21875 -1.78125q0.21875 -0.953125 0.828125 -2.1875q0.625 -1.25 0.921875 -1.5q0.078125 -0.078125 0.1875 -0.078125q0.125 0 0.21875 0.09375q0.09375 0.078125 0.09375 0.203125q0 0.078125 -0.046875 0.15625q-0.8125 1.484375 -1.15625 2.6875q-0.34375 1.203125 -0.34375 2.40625q0 1.203125 0.34375 2.40625q0.34375 1.203125 1.15625 2.671875q0.046875 0.09375 0.046875 0.15625q0 0.125 -0.09375 0.21875q-0.09375 0.09375 -0.21875 0.09375q-0.109375 0 -0.1875 -0.078125q-0.28125 -0.25 -0.890625 -1.46875q-0.609375 -1.203125 -0.84375 -2.125q-0.234375 -0.9375 -0.234375 -1.875zm9.251465 0q0 0.84375 -0.234375 1.78125q-0.21875 0.9375 -0.84375 2.171875q-0.609375 1.25 -0.90625 1.5q-0.078125 0.09375 -0.1875 0.09375q-0.125 0 -0.21875 -0.09375q-0.09375 -0.09375 -0.09375 -0.21875q0 -0.0625 0.046875 -0.15625q0.8125 -1.46875 1.15625 -2.671875q0.34375 -1.203125 0.34375 -2.40625q0 -1.203125 -0.34375 -2.40625q-0.34375 -1.203125 -1.15625 -2.6875q-0.046875 -0.078125 -0.046875 -0.15625q0 -0.125 0.09375 -0.203125q0.09375 -0.09375 0.21875 -0.09375q0.109375 0 0.1875 0.078125q0.28125 0.25 0.890625 1.453125q0.625 1.203125 0.859375 2.140625q0.234375 0.9375 0.234375 1.875z" fill-rule="nonzero"/><path fill="#000000" fill-opacity="0.0" d="m205.5538 144.1811l80.346466 0l0 42.015747l-80.346466 0z" fill-rule="evenodd"/><path fill="#000000" d="m225.52255 167.22148l1.765625 0.453125q-0.5625 2.171875 -2.0 3.328125q-1.4375 1.140625 -3.53125 1.140625q-2.15625 0 -3.515625 -0.875q-1.34375 -0.890625 -2.0625 -2.546875q-0.703125 -1.671875 -0.703125 -3.59375q0 -2.078125 0.796875 -3.625q0.796875 -1.5625 2.265625 -2.359375q1.484375 -0.8125 3.25 -0.8125q2.0 0 3.359375 1.015625q1.375 1.015625 1.90625 2.875l-1.734375 0.40625q-0.46875 -1.453125 -1.359375 -2.109375q-0.875 -0.671875 -2.203125 -0.671875q-1.546875 0 -2.578125 0.734375q-1.03125 0.734375 -1.453125 1.984375q-0.421875 1.234375 -0.421875 2.5625q0 1.703125 0.5 2.96875q0.5 1.265625 1.546875 1.90625q1.046875 0.625 2.265625 0.625q1.484375 0 2.515625 -0.859375q1.03125 -0.859375 1.390625 -2.546875zm3.1291962 -0.15625q0 -2.6875 1.484375 -3.96875q1.25 -1.078125 3.046875 -1.078125q2.0 0 3.265625 1.3125q1.265625 1.296875 1.265625 3.609375q0 1.859375 -0.5625 2.9375q-0.5625 1.0625 -1.640625 1.65625q-1.0625 0.59375 -2.328125 0.59375q-2.03125 0 -3.28125 -1.296875q-1.25 -1.3125 -1.25 -3.765625zm1.6875 0q0 1.859375 0.796875 2.796875q0.8125 0.921875 2.046875 0.921875q1.21875 0 2.03125 -0.921875q0.8125 -0.9375 0.8125 -2.84375q0 -1.796875 -0.8125 -2.71875q-0.8125 -0.921875 -2.03125 -0.921875q-1.234375 0 -2.046875 0.921875q-0.796875 0.90625 -0.796875 2.765625zm15.563217 4.84375l0 -1.21875q-0.90625 1.4375 -2.703125 1.4375q-1.15625 0 -2.125 -0.640625q-0.96875 -0.640625 -1.5 -1.78125q-0.53125 -1.140625 -0.53125 -2.625q0 -1.453125 0.484375 -2.625q0.484375 -1.1875 1.4375 -1.8125q0.96875 -0.625 2.171875 -0.625q0.875 0 1.546875 0.375q0.6875 0.359375 1.109375 0.953125l0 -4.796875l1.640625 0l0 13.359375l-1.53125 0zm-5.171875 -4.828125q0 1.859375 0.78125 2.78125q0.78125 0.921875 1.84375 0.921875q1.078125 0 1.828125 -0.875q0.75 -0.890625 0.75 -2.6875q0 -1.984375 -0.765625 -2.90625q-0.765625 -0.9375 -1.890625 -0.9375q-1.078125 0 -1.8125 0.890625q-0.734375 0.890625 -0.734375 2.8125zm15.906982 1.71875l1.6875 0.203125q-0.40625 1.484375 -1.484375 2.3125q-1.0781403 0.8125 -2.7656403 0.8125q-2.125 0 -3.375 -1.296875q-1.234375 -1.3125 -1.234375 -3.671875q0 -2.453125 1.25 -3.796875q1.265625 -1.34375 3.265625 -1.34375q1.9375 0 3.1562653 1.328125q1.234375 1.3125 1.234375 3.703125q0 0.15625 0 0.4375l-7.2187653 0q0.09375 1.59375 0.90625 2.453125q0.8125 0.84375 2.015625 0.84375q0.90625 0 1.546875 -0.46875q0.64064026 -0.484375 1.0156403 -1.515625zm-5.3906403 -2.65625l5.4062653 0q-0.109375 -1.21875 -0.625 -1.828125q-0.78126526 -0.953125 -2.0312653 -0.953125q-1.125 0 -1.90625 0.765625q-0.765625 0.75 -0.84375 2.015625z" fill-rule="nonzero"/><path fill="#000000" fill-opacity="0.0" d="m311.67453 60.212597c0 29.885983 -31.836487 47.199245 -61.255936 59.77197c-29.419449 12.572731 -56.42183 20.404915 -61.255936 34.52346c-4.8341217 14.118561 12.5000305 34.523468 25.000076 34.523468" fill-rule="evenodd"/><path stroke="#000000" stroke-width="1.0" stroke-linejoin="round" stroke-linecap="butt" d="m311.49924 63.998543l-0.03100586 0.33470154c-0.04547119 0.44882202 -0.09832764 0.89466095 -0.15841675 1.3375473c-0.24035645 1.7715607 -0.5967102 3.495926 -1.06073 5.1749954c-0.9279785 3.3581543 -2.286499 6.5351486 -4.008667 9.546288c-3.4443665 6.0222855 -8.343262 11.381149 -14.16156 16.198982c-11.636566 9.635651 -26.950531 17.107147 -41.660263 23.393517c-29.419434 12.572723 -56.42183 20.404907 -61.25595 34.523453c-2.4170532 7.059265 0.70796204 15.69014 5.9997406 22.556198c2.6458893 3.4330292 5.833481 6.4248505 9.140823 8.558395c1.6536865 1.0667877 3.3373108 1.9190063 4.9981384 2.5045319c0.4152069 0.1463623 0.82901 0.27607727 1.2405243 0.38830566l0.22439575 0.058898926" fill-rule="evenodd"/><path fill="#000000" stroke="#000000" stroke-width="1.0" stroke-linecap="butt" d="m311.65143 60.712063c0.90753174 0.04201889 1.6091614 0.81178665 1.5671387 1.7193222c-0.042022705 0.90753937 -0.8117981 1.6091805 -1.7193298 1.5671577c-0.90753174 -0.04201889 -1.6091614 -0.81178665 -1.5671387 -1.719326c0.042022705 -0.90753555 0.8117676 -1.6091728 1.7193298 -1.5671539z" fill-rule="nonzero"/><path fill="#000000" stroke="#000000" stroke-width="1.0" stroke-linecap="butt" d="m210.76627 188.57436l-1.2645416 0.9645233l3.2121735 -0.7023926l-2.9121552 -1.5266724z" fill-rule="evenodd"/><path fill="#000000" fill-opacity="0.0" d="m311.1706 83.14173c0 32.153824 24.277405 50.827827 47.08261 64.307655c22.805176 13.479828 44.138214 21.765488 47.08258 36.791046c2.9443665 15.025574 -12.499908 36.79106 -24.999817 36.79106" fill-rule="evenodd"/><path stroke="#000000" stroke-width="1.0" stroke-linejoin="round" stroke-linecap="butt" d="m311.28555 86.929985l0.042419434 0.6453705c0.034698486 0.4829483 0.07498169 0.96269226 0.12084961 1.4392776c0.18338013 1.9063187 0.45529175 3.7620163 0.80947876 5.5690994c0.70840454 3.6141663 1.7457886 7.0338974 3.0619812 10.275368c2.6323242 6.4829407 6.379669 12.252846 10.839661 17.439201c8.920013 10.372719 20.690643 18.411156 32.09326 25.151085c22.805206 13.479813 44.138214 21.765472 47.08258 36.79106c1.4721985 7.512787 -1.6528015 16.71054 -6.708313 24.03012c-2.5277405 3.6597748 -5.538147 6.850006 -8.697845 9.125305c-1.579834 1.1376343 -3.1970215 2.0465546 -4.809845 2.6710358c-0.40319824 0.15612793 -0.8061218 0.29447937 -1.2081604 0.41418457l-0.18487549 0.05291748" fill-rule="evenodd"/><path fill="#000000" stroke="#000000" stroke-width="1.0" stroke-linecap="butt" d="m311.18576 83.6415c0.9081116 -0.027557373 1.6665955 0.6862564 1.6941528 1.5943527c0.027557373 0.9080887 -0.6862793 1.6665802 -1.5943604 1.69413c-0.90808105 0.027557373 -1.666565 -0.6862564 -1.6941223 -1.5943451c-0.027557373 -0.9080887 0.6862488 -1.6665802 1.5943298 -1.6941376z" fill-rule="nonzero"/><path fill="#000000" stroke="#000000" stroke-width="1.0" stroke-linecap="butt" d="m383.72675 220.53401l0.9494324 -1.2759094l-2.8937988 1.5611877l3.2202759 0.66415405z" fill-rule="evenodd"/></g></svg>