<svg version="1.1" viewBox="0.0 0.0 395.56692913385825 263.71128608923885" fill="none" stroke="none" stroke-linecap="square" stroke-miterlimit="10" xmlns:xlink="http://www.w3.org/1999/xlink" xmlns="http://www.w3.org/2000/svg"><clipPath id="p.0"><path d="m0 0l395.56693 0l0 263.71127l-395.56693 0l0 -263.71127z" clip-rule="nonzero"/></clipPath><g clip-path="url(#p.0)"><path fill="#000000" fill-opacity="0.0" d="m0 0l395.56693 0l0 263.71127l-395.56693 0z" fill-rule="evenodd"/><path fill="#000000" fill-opacity="0.0" d="m78.54075 98.097115c-2.1873093 0 -3.960472 -1.7731628 -3.960472 -3.960472l0 -15.842834c0 -2.1873093 -1.7731628 -3.960472 -3.960472 -3.960472c2.1873093 0 3.960472 -1.7731628 3.960472 -3.960472l0 -15.842838l0 0c0 -2.1873093 1.7731628 -3.960472 3.960472 -3.960472l415.18173 0c1.0503845 0 2.0577393 0.41726303 2.800476 1.159996c0.7427368 0.742733 1.1600037 1.7500954 1.1600037 2.800476l0 15.842838c0 2.1873093 1.7731628 3.960472 3.9604797 3.960472c-2.187317 0 -3.9604797 1.7731628 -3.9604797 3.960472l0 15.842834c0 2.1873093 -1.7731628 3.960472 -3.9604797 3.960472z" fill-rule="evenodd"/><path fill="#000000" fill-opacity="0.0" d="m78.54075 98.097115c-2.1873093 0 -3.960472 -1.7731628 -3.960472 -3.960472l0 -15.842834c0 -2.1873093 -1.7731628 -3.960472 -3.960472 -3.960472c2.1873093 0 3.960472 -1.7731628 3.960472 -3.960472l0 -15.842838l0 0c0 -2.1873093 1.7731628 -3.960472 3.960472 -3.960472m415.18173 0c1.0503845 0 2.0577393 0.41726303 2.800476 1.159996c0.7427368 0.742733 1.1600037 1.7500954 1.1600037 2.800476l0 15.842838c0 2.1873093 1.7731628 3.960472 3.9604797 3.960472c-2.187317 0 -3.9604797 1.7731628 -3.9604797 3.960472l0 15.842834c0 2.1873093 -1.7731628 3.960472 -3.9604797 3.960472" fill-rule="evenodd"/><path stroke="#000000" stroke-width="1.0" stroke-linejoin="round" stroke-linecap="butt" d="m78.54075 98.097115c-2.1873093 0 -3.960472 -1.7731628 -3.960472 -3.960472l0 -15.842834c0 -2.1873093 -1.7731628 -3.960472 -3.960472 -3.960472c2.1873093 0 3.960472 -1.7731628 3.960472 -3.960472l0 -15.842838l0 0c0 -2.1873093 1.7731628 -3.960472 3.960472 -3.960472m415.18173 0c1.0503845 0 2.0577393 0.41726303 2.800476 1.159996c0.7427368 0.742733 1.1600037 1.7500954 1.1600037 2.800476l0 15.842838c0 2.1873093 1.7731628 3.960472 3.9604797 3.960472c-2.187317 0 -3.9604797 1.7731628 -3.9604797 3.960472l0 15.842834c0 2.1873093 -1.7731628 3.960472 -3.9604797 3.960472" fill-rule="evenodd"/><path fill="#000000" fill-opacity="0.0" d="m79.88648 185.78215c-3.2773438 0 -5.9341507 -2.6567993 -5.9341507 -5.934143l0 -23.738007c0 -3.2773438 -2.656807 -5.934143 -5.934143 -5.934143c3.2773361 0 5.934143 -2.6568146 5.934143 -5.934143l0 -23.738014l0 0c0 -3.2773361 2.656807 -5.934143 5.9341507 -5.934143l412.83035 0c1.573822 0 3.083191 0.62519836 4.1960754 1.7380676c1.112854 1.1128693 1.7380676 2.6222382 1.7380676 4.1960754l0 23.738014c0 3.2773285 2.6567993 5.934143 5.934143 5.934143c-3.2773438 0 -5.934143 2.6567993 -5.934143 5.934143l0 23.738007c0 3.2773438 -2.6567993 5.934143 -5.934143 5.934143z" fill-rule="evenodd"/><path fill="#000000" fill-opacity="0.0" d="m79.88648 185.78215c-3.2773438 0 -5.9341507 -2.6567993 -5.9341507 -5.934143l0 -23.738007c0 -3.2773438 -2.656807 -5.934143 -5.934143 -5.934143c3.2773361 0 5.934143 -2.6568146 5.934143 -5.934143l0 -23.738014l0 0c0 -3.2773361 2.656807 -5.934143 5.9341507 -5.934143m412.83035 0c1.573822 0 3.083191 0.62519836 4.1960754 1.7380676c1.112854 1.1128693 1.7380676 2.6222382 1.7380676 4.1960754l0 23.738014c0 3.2773285 2.6567993 5.934143 5.934143 5.934143c-3.2773438 0 -5.934143 2.6567993 -5.934143 5.934143l0 23.738007c0 3.2773438 -2.6567993 5.934143 -5.934143 5.934143" fill-rule="evenodd"/><path stroke="#000000" stroke-width="1.0" stroke-linejoin="round" stroke-linecap="butt" d="m79.88648 185.78215c-3.2773438 0 -5.9341507 -2.6567993 -5.9341507 -5.934143l0 -23.738007c0 -3.2773438 -2.656807 -5.934143 -5.934143 -5.934143c3.2773361 0 5.934143 -2.6568146 5.934143 -5.934143l0 -23.738014l0 0c0 -3.2773361 2.656807 -5.934143 5.9341507 -5.934143m412.83035 0c1.573822 0 3.083191 0.62519836 4.1960754 1.7380676c1.112854 1.1128693 1.7380676 2.6222382 1.7380676 4.1960754l0 23.738014c0 3.2773285 2.6567993 5.934143 5.934143 5.934143c-3.2773438 0 -5.934143 2.6567993 -5.934143 5.934143l0 23.738007c0 3.2773438 -2.6567993 5.934143 -5.934143 5.934143" fill-rule="evenodd"/><path fill="#000000" fill-opacity="0.0" d="m134.58005 138.38058l0 0" fill-rule="evenodd"/><path stroke="#000000" stroke-width="1.0" stroke-linejoin="round" stroke-linecap="butt" d="m134.58005 138.38058l0 0" fill-rule="evenodd"/><path fill="#000000" fill-opacity="0.0" d="m134.58005 138.38058l0 0" fill-rule="evenodd"/><path stroke="#000000" stroke-width="1.0" stroke-linejoin="round" stroke-linecap="butt" d="m134.58005 138.38058l0 0" fill-rule="evenodd"/><path fill="#d9d9d9" d="m86.61155 114.56956l95.937004 0l0 23.811028l-95.937004 0z" fill-rule="evenodd"/><path stroke="#000000" stroke-width="1.0" stroke-linejoin="round" stroke-linecap="butt" d="m86.61155 114.56956l95.937004 0l0 23.811028l-95.937004 0z" fill-rule="evenodd"/><path fill="#000000" fill-opacity="0.0" d="m134.58005 138.38058l0 -5.763794" fill-rule="evenodd"/><path stroke="#000000" stroke-width="1.0" stroke-linejoin="round" stroke-linecap="butt" d="m134.58005 138.38058l0 -5.763794" fill-rule="evenodd"/><path fill="#000000" fill-opacity="0.0" d="m158.58005 138.38058l0 -5.763794" fill-rule="evenodd"/><path stroke="#000000" stroke-width="1.0" stroke-linejoin="round" stroke-linecap="butt" d="m158.58005 138.38058l0 -5.763794" fill-rule="evenodd"/><path fill="#000000" fill-opacity="0.0" d="m110.580055 138.38058l0 -5.763794" fill-rule="evenodd"/><path stroke="#000000" stroke-width="1.0" stroke-linejoin="round" stroke-linecap="butt" d="m110.580055 138.38058l0 -5.763794" fill-rule="evenodd"/><path fill="#000000" fill-opacity="0.0" d="m170.6751 138.38058l0 -5.763794" fill-rule="evenodd"/><path stroke="#000000" stroke-width="1.0" stroke-linejoin="round" stroke-linecap="butt" d="m170.6751 138.38058l0 -5.763794" fill-rule="evenodd"/><path fill="#000000" fill-opacity="0.0" d="m122.675095 138.38058l0 -5.763794" fill-rule="evenodd"/><path stroke="#000000" stroke-width="1.0" stroke-linejoin="round" stroke-linecap="butt" d="m122.675095 138.38058l0 -5.763794" fill-rule="evenodd"/><path fill="#000000" fill-opacity="0.0" d="m146.6751 138.38058l0 -5.763794" fill-rule="evenodd"/><path stroke="#000000" stroke-width="1.0" stroke-linejoin="round" stroke-linecap="butt" d="m146.6751 138.38058l0 -5.763794" fill-rule="evenodd"/><path fill="#000000" fill-opacity="0.0" d="m98.675095 138.38058l0 -5.763794" fill-rule="evenodd"/><path stroke="#000000" stroke-width="1.0" stroke-linejoin="round" stroke-linecap="butt" d="m98.675095 138.38058l0 -5.763794" fill-rule="evenodd"/><path fill="#000000" fill-opacity="0.0" d="m326.58005 74.01473l0 0" fill-rule="evenodd"/><path stroke="#000000" stroke-width="1.0" stroke-linejoin="round" stroke-linecap="butt" d="m326.58005 74.01473l0 0" fill-rule="evenodd"/><path fill="#000000" fill-opacity="0.0" d="m326.58005 74.01473l0 0" fill-rule="evenodd"/><path stroke="#000000" stroke-width="1.0" stroke-linejoin="round" stroke-linecap="butt" d="m326.58005 74.01473l0 0" fill-rule="evenodd"/><path fill="#000000" fill-opacity="0.0" d="m338.67508 74.01473l0 -5.7637863" fill-rule="evenodd"/><path stroke="#000000" stroke-width="1.0" stroke-linejoin="round" stroke-linecap="butt" d="m338.67508 74.01473l0 -5.7637863" fill-rule="evenodd"/><path fill="#000000" fill-opacity="0.0" d="m314.67508 90.01473l0 -5.7637863" fill-rule="evenodd"/><path stroke="#000000" stroke-width="1.0" stroke-linejoin="round" stroke-linecap="butt" d="m314.67508 90.01473l0 -5.7637863" fill-rule="evenodd"/><path fill="#d9d9d9" d="m278.61154 50.203705l95.93701 0l0 23.811028l-95.93701 0z" fill-rule="evenodd"/><path stroke="#000000" stroke-width="1.0" stroke-linejoin="round" stroke-linecap="butt" d="m278.61154 50.203705l95.93701 0l0 23.811028l-95.93701 0z" fill-rule="evenodd"/><path fill="#000000" fill-opacity="0.0" d="m326.58005 74.01473l0 -5.7637863" fill-rule="evenodd"/><path stroke="#000000" stroke-width="1.0" stroke-linejoin="round" stroke-linecap="butt" d="m326.58005 74.01473l0 -5.7637863" fill-rule="evenodd"/><path fill="#000000" fill-opacity="0.0" d="m350.58005 74.01473l0 -5.7637863" fill-rule="evenodd"/><path stroke="#000000" stroke-width="1.0" stroke-linejoin="round" stroke-linecap="butt" d="m350.58005 74.01473l0 -5.7637863" fill-rule="evenodd"/><path fill="#000000" fill-opacity="0.0" d="m302.58005 74.01473l0 -5.7637863" fill-rule="evenodd"/><path stroke="#000000" stroke-width="1.0" stroke-linejoin="round" stroke-linecap="butt" d="m302.58005 74.01473l0 -5.7637863" fill-rule="evenodd"/><path fill="#000000" fill-opacity="0.0" d="m362.67508 74.01473l0 -5.7637863" fill-rule="evenodd"/><path stroke="#000000" stroke-width="1.0" stroke-linejoin="round" stroke-linecap="butt" d="m362.67508 74.01473l0 -5.7637863" fill-rule="evenodd"/><path fill="#000000" fill-opacity="0.0" d="m314.67508 74.01473l0 -5.7637863" fill-rule="evenodd"/><path stroke="#000000" stroke-width="1.0" stroke-linejoin="round" stroke-linecap="butt" d="m314.67508 74.01473l0 -5.7637863" fill-rule="evenodd"/><path fill="#000000" fill-opacity="0.0" d="m338.67508 74.01473l0 -5.7637863" fill-rule="evenodd"/><path stroke="#000000" stroke-width="1.0" stroke-linejoin="round" stroke-linecap="butt" d="m338.67508 74.01473l0 -5.7637863" fill-rule="evenodd"/><path fill="#000000" fill-opacity="0.0" d="m290.67508 74.01473l0 -5.7637863" fill-rule="evenodd"/><path stroke="#000000" stroke-width="1.0" stroke-linejoin="round" stroke-linecap="butt" d="m290.67508 74.01473l0 -5.7637863" fill-rule="evenodd"/><path fill="#000000" fill-opacity="0.0" d="m18.367455 42.75853l68.25197 0l0 42.015747l-68.25197 0z" fill-rule="evenodd"/><path fill="#000000" fill-opacity="0.0" d="m-8.426511 136.50931l82.267715 0l0 23.81102l-82.267715 0z" fill-rule="evenodd"/><path fill="#000000" d="m12.57558 146.33107l1.546875 0l1.921874 5.1875l0.421875 1.265625l0.421875 -1.296875l1.90625 -5.15625l1.5 0l-3.078125 7.84375l-1.562499 0l-3.078125 -7.84375zm16.15625 3.5q0 0.296875 -0.015625 0.5q0 0.1875 -0.015625 0.359375l-5.5 0q0 1.203125 0.671875 1.84375q0.671875 0.640625 1.9375 0.640625q0.34375 0 0.6875 -0.015625q0.34375 -0.03125 0.65625 -0.078125q0.328125 -0.046875 0.609375 -0.109375q0.296875 -0.0625 0.546875 -0.125l0 1.109375q-0.546875 0.15625 -1.25 0.25q-0.703125 0.109375 -1.453125 0.109375q-1.0 0 -1.734375 -0.265625q-0.71875 -0.28125 -1.1875 -0.796875q-0.46875 -0.53125 -0.6875 -1.28125q-0.21875 -0.75 -0.21875 -1.703125q0 -0.828125 0.234375 -1.5625q0.234375 -0.75 0.6875 -1.296875q0.46875 -0.5625 1.125 -0.890625q0.671875 -0.328125 1.515625 -0.328125q0.8125 0 1.4375 0.265625q0.640625 0.25 1.078125 0.71875q0.4375 0.46875 0.65625 1.15625q0.21875 0.671875 0.21875 1.5zm-1.40625 -0.1875q0.015625 -0.53125 -0.109375 -0.953125q-0.125 -0.4375 -0.390625 -0.75q-0.25 -0.3125 -0.640625 -0.484375q-0.390625 -0.1875 -0.90625 -0.1875q-0.453125 0 -0.828125 0.171875q-0.359375 0.171875 -0.625 0.484375q-0.265625 0.3125 -0.4375 0.75q-0.15625 0.4375 -0.1875 0.96875l4.125 0zm9.671877 4.234375q-0.53125 0.203125 -1.09375 0.296875q-0.546875 0.109375 -1.140625 0.109375q-1.859375 0 -2.875002 -1.0q-1.0 -1.015625 -1.0 -2.953125q0 -0.9375 0.28125 -1.6875q0.296875 -0.765625 0.8125 -1.296875q0.5312519 -0.546875 1.2500019 -0.828125q0.734375 -0.296875 1.609375 -0.296875q0.609375 0 1.140625 0.09375q0.53125 0.078125 1.015625 0.265625l0 1.296875q-0.5 -0.265625 -1.03125 -0.375q-0.53125 -0.125 -1.09375 -0.125q-0.515625 0 -0.984375 0.203125q-0.46875 0.1875 -0.828125 0.5625q-0.34375 0.375 -0.546875 0.921875q-0.203125 0.53125 -0.203125 1.21875q0 1.421875 0.6875 2.125q0.703125 0.703125 1.921875 0.703125q0.5625 0 1.078125 -0.125q0.515625 -0.125 1.0 -0.375l0 1.265625zm9.03125 0.1875q-0.46875 0.125 -0.96875 0.171875q-0.484375 0.046875 -0.984375 0.046875q-1.484375 0 -2.21875 -0.671875q-0.71875 -0.671875 -0.71875 -2.046875l0 -4.09375l-2.1875 0l0 -1.140625l2.1875 0l0 -2.15625l1.359375 -0.359375l0 2.515625l3.53125 0l0 1.140625l-3.53125 0l0 3.984375q0 0.84375 0.453125 1.265625q0.453125 0.40625 1.328125 0.40625q0.375 0 0.8125 -0.046875q0.453125 -0.0625 0.9375 -0.1875l0 1.171875zm9.296875 -3.875q0 0.90625 -0.265625 1.671875q-0.25 0.765625 -0.734375 1.3125q-0.484375 0.53125 -1.1875 0.84375q-0.6875 0.296875 -1.5625 0.296875q-0.84375 0 -1.515625 -0.265625q-0.671875 -0.265625 -1.140625 -0.765625q-0.453125 -0.515625 -0.703125 -1.265625q-0.25 -0.75 -0.25 -1.71875q0 -0.921875 0.25 -1.671875q0.265625 -0.75 0.75 -1.296875q0.484375 -0.546875 1.171875 -0.84375q0.703125 -0.296875 1.59375 -0.296875q0.84375 0 1.5 0.265625q0.671875 0.25 1.140625 0.765625q0.46875 0.5 0.703125 1.25q0.25 0.75 0.25 1.71875zm-1.390625 0.0625q0 -0.734375 -0.15625 -1.265625q-0.15625 -0.546875 -0.453125 -0.90625q-0.296875 -0.375 -0.734375 -0.546875q-0.421875 -0.1875 -0.9375 -0.1875q-0.609375 0 -1.046875 0.234375q-0.4375 0.234375 -0.71875 0.640625q-0.265625 0.390625 -0.40625 0.921875q-0.125 0.53125 -0.125 1.109375q0 0.71875 0.15625 1.265625q0.171875 0.546875 0.46875 0.921875q0.296875 0.359375 0.71875 0.546875q0.421875 0.171875 0.953125 0.171875q0.609375 0 1.03125 -0.234375q0.4375 -0.234375 0.71875 -0.625q0.28125 -0.40625 0.40625 -0.9375q0.125 -0.53125 0.125 -1.109375zm3.6875 -3.921875l1.234375 0l0.046875 1.4375q0.6875 -0.828125 1.359375 -1.203125q0.6875 -0.375 1.375 -0.375q1.21875 0 1.84375 0.796875q0.6249962 0.78125 0.5781212 2.328125l-1.3749962 0q0.03125 -1.03125 -0.296875 -1.484375q-0.328125 -0.46875 -0.953125 -0.46875q-0.265625 0 -0.546875 0.09375q-0.28125 0.09375 -0.578125 0.3125q-0.28125 0.21875 -0.609375 0.5625q-0.328125 0.328125 -0.703125 0.796875l0 5.046875l-1.375 0l0 -7.84375z" fill-rule="nonzero"/><path fill="#000000" fill-opacity="0.0" d="m86.48819 29.38845l0 174.86615" fill-rule="evenodd"/><path stroke="#000000" stroke-width="1.0" stroke-linejoin="round" stroke-linecap="butt" d="m86.48819 29.38845l0 174.86615" fill-rule="evenodd"/><path fill="#000000" fill-opacity="0.0" d="m182.48819 29.38845l0 174.86615" fill-rule="evenodd"/><path stroke="#000000" stroke-width="1.0" stroke-linejoin="round" stroke-linecap="butt" d="m182.48819 29.38845l0 174.86615" fill-rule="evenodd"/><path fill="#000000" fill-opacity="0.0" d="m93.5538 0.18110237l80.346466 0l0 42.015747l-80.346466 0z" fill-rule="evenodd"/><path fill="#000000" d="m111.24136 23.612103l1.65625 -0.140625q0.125 1.0 0.546875 1.640625q0.4375 0.640625 1.34375 1.046875q0.921875 0.390625 2.0625 0.390625q1.0 0 1.78125 -0.296875q0.78125 -0.296875 1.15625 -0.8125q0.375 -0.53125 0.375 -1.15625q0 -0.625 -0.375 -1.09375q-0.359375 -0.46875 -1.1875 -0.796875q-0.546875 -0.203125 -2.390625 -0.640625q-1.828125 -0.453125 -2.5625 -0.84375q-0.96875 -0.5 -1.4375 -1.234375q-0.46875 -0.75 -0.46875 -1.671875q0 -1.0 0.578125 -1.875q0.578125 -0.890625 1.671875 -1.34375q1.109375 -0.453125 2.453125 -0.453125q1.484375 0 2.609375 0.484375q1.140625 0.46875 1.75 1.40625q0.609375 0.921875 0.65625 2.09375l-1.6875 0.125q-0.140625 -1.265625 -0.9375 -1.90625q-0.78125 -0.65625 -2.3125 -0.65625q-1.609375 0 -2.34375 0.59375q-0.734375 0.59375 -0.734375 1.421875q0 0.71875 0.53125 1.171875q0.5 0.46875 2.65625 0.96875q2.15625 0.484375 2.953125 0.84375q1.171875 0.53125 1.71875 1.359375q0.5625 0.828125 0.5625 1.90625q0 1.0625 -0.609375 2.015625q-0.609375 0.9375 -1.75 1.46875q-1.140625 0.515625 -2.578125 0.515625q-1.8125 0 -3.046875 -0.53125q-1.21875 -0.53125 -1.921875 -1.59375q-0.6875 -1.0625 -0.71875 -2.40625zm16.412323 2.828125l0.234375 1.453125q-0.6875 0.140625 -1.234375 0.140625q-0.890625 0 -1.390625 -0.28125q-0.484375 -0.28125 -0.6875 -0.734375q-0.203125 -0.46875 -0.203125 -1.9375l0 -5.578125l-1.203125 0l0 -1.265625l1.203125 0l0 -2.390625l1.625 -0.984375l0 3.375l1.65625 0l0 1.265625l-1.65625 0l0 5.671875q0 0.6875 0.078125 0.890625q0.09375 0.203125 0.28125 0.328125q0.203125 0.109375 0.578125 0.109375q0.265625 0 0.71875 -0.0625zm7.917679 0.28125q-0.921875 0.765625 -1.765625 1.09375q-0.828125 0.3125 -1.796875 0.3125q-1.59375 0 -2.453125 -0.78125q-0.859375 -0.78125 -0.859375 -1.984375q0 -0.71875 0.328125 -1.296875q0.328125 -0.59375 0.84375 -0.9375q0.53125 -0.359375 1.1875 -0.546875q0.46875 -0.125 1.453125 -0.25q1.984375 -0.234375 2.921875 -0.5625q0.015625 -0.34375 0.015625 -0.421875q0 -1.0 -0.46875 -1.421875q-0.625 -0.546875 -1.875 -0.546875q-1.15625 0 -1.703125 0.40625q-0.546875 0.40625 -0.8125 1.421875l-1.609375 -0.21875q0.21875 -1.015625 0.71875 -1.640625q0.5 -0.640625 1.453125 -0.984375q0.953125 -0.34375 2.1875 -0.34375q1.25 0 2.015625 0.296875q0.78125 0.28125 1.140625 0.734375q0.375 0.4375 0.515625 1.109375q0.078125 0.421875 0.078125 1.515625l0 2.1875q0 2.28125 0.109375 2.890625q0.109375 0.59375 0.40625 1.15625l-1.703125 0q-0.265625 -0.515625 -0.328125 -1.1875zm-0.140625 -3.671875q-0.890625 0.375 -2.671875 0.625q-1.015625 0.140625 -1.4375 0.328125q-0.421875 0.1875 -0.65625 0.53125q-0.21875 0.34375 -0.21875 0.78125q0 0.65625 0.5 1.09375q0.5 0.4375 1.453125 0.4375q0.9375 0 1.671875 -0.40625q0.75 -0.421875 1.09375 -1.140625q0.265625 -0.5625 0.265625 -1.640625l0 -0.609375zm10.516342 1.3125l1.609375 0.21875q-0.265625 1.65625 -1.359375 2.609375q-1.078125 0.9375 -2.671875 0.9375q-1.984375 0 -3.1875 -1.296875q-1.203125 -1.296875 -1.203125 -3.71875q0 -1.578125 0.515625 -2.75q0.515625 -1.171875 1.578125 -1.75q1.0625 -0.59375 2.3125 -0.59375q1.578125 0 2.578125 0.796875q1.0 0.796875 1.28125 2.265625l-1.59375 0.234375q-0.234375 -0.96875 -0.8125 -1.453125q-0.578125 -0.5 -1.390625 -0.5q-1.234375 0 -2.015625 0.890625q-0.78125 0.890625 -0.78125 2.8125q0 1.953125 0.75 2.84375q0.75 0.875 1.953125 0.875q0.96875 0 1.609375 -0.59375q0.65625 -0.59375 0.828125 -1.828125zm3.015625 3.546875l0 -13.359375l1.640625 0l0 7.625l3.890625 -3.9375l2.109375 0l-3.6875 3.59375l4.0625 6.078125l-2.015625 0l-3.203125 -4.953125l-1.15625 1.125l0 3.828125l-1.640625 0z" fill-rule="nonzero"/><path fill="#000000" fill-opacity="0.0" d="m285.5538 0.18110237l80.346466 0l0 42.015747l-80.346466 0z" fill-rule="evenodd"/><path fill="#000000" d="m304.92697 27.908978l0 -13.359375l1.765625 0l0 5.484375l6.9375 0l0 -5.484375l1.765625 0l0 13.359375l-1.765625 0l0 -6.296875l-6.9375 0l0 6.296875l-1.765625 0zm19.832336 -3.109375l1.6875 0.203125q-0.40625 1.484375 -1.484375 2.3125q-1.078125 0.8125 -2.765625 0.8125q-2.125 0 -3.375 -1.296875q-1.234375 -1.3125 -1.234375 -3.671875q0 -2.453125 1.25 -3.796875q1.265625 -1.34375 3.265625 -1.34375q1.9375 0 3.15625 1.328125q1.234375 1.3125 1.234375 3.703125q0 0.15625 0 0.4375l-7.21875 0q0.09375 1.59375 0.90625 2.453125q0.8125 0.84375 2.015625 0.84375q0.90625 0 1.546875 -0.46875q0.640625 -0.484375 1.015625 -1.515625zm-5.390625 -2.65625l5.40625 0q-0.109375 -1.21875 -0.625 -1.828125q-0.78125 -0.953125 -2.03125 -0.953125q-1.125 0 -1.90625 0.765625q-0.765625 0.75 -0.84375 2.015625zm15.453827 4.578125q-0.921875 0.765625 -1.765625 1.09375q-0.828125 0.3125 -1.796875 0.3125q-1.59375 0 -2.453125 -0.78125q-0.859375 -0.78125 -0.859375 -1.984375q0 -0.71875 0.328125 -1.296875q0.328125 -0.59375 0.84375 -0.9375q0.53125 -0.359375 1.1875 -0.546875q0.46875 -0.125 1.453125 -0.25q1.984375 -0.234375 2.921875 -0.5625q0.015625 -0.34375 0.015625 -0.421875q0 -1.0 -0.46875 -1.421875q-0.625 -0.546875 -1.875 -0.546875q-1.15625 0 -1.703125 0.40625q-0.546875 0.40625 -0.8125 1.421875l-1.609375 -0.21875q0.21875 -1.015625 0.71875 -1.640625q0.5 -0.640625 1.453125 -0.984375q0.953125 -0.34375 2.1875 -0.34375q1.25 0 2.015625 0.296875q0.78125 0.28125 1.140625 0.734375q0.375 0.4375 0.515625 1.109375q0.078125 0.421875 0.078125 1.515625l0 2.1875q0 2.28125 0.109375 2.890625q0.109375 0.59375 0.40625 1.15625l-1.703125 0q-0.265625 -0.515625 -0.328125 -1.1875zm-0.140625 -3.671875q-0.890625 0.375 -2.671875 0.625q-1.015625 0.140625 -1.4375 0.328125q-0.421875 0.1875 -0.65625 0.53125q-0.21875 0.34375 -0.21875 0.78125q0 0.65625 0.5 1.09375q0.5 0.4375 1.453125 0.4375q0.9375 0 1.671875 -0.40625q0.75 -0.421875 1.09375 -1.140625q0.265625 -0.5625 0.265625 -1.640625l0 -0.609375zm4.2038574 8.5625l0 -13.375l1.484375 0l0 1.25q0.53125 -0.734375 1.1875 -1.09375q0.671875 -0.375 1.625 -0.375q1.234375 0 2.171875 0.640625q0.953125 0.625 1.4375 1.796875q0.484375 1.15625 0.484375 2.546875q0 1.484375 -0.53125 2.671875q-0.53125 1.1875 -1.546875 1.828125q-1.015625 0.625 -2.140625 0.625q-0.8125 0 -1.46875 -0.34375q-0.65625 -0.34375 -1.0625 -0.875l0 4.703125l-1.640625 0zm1.484375 -8.484375q0 1.859375 0.75 2.765625q0.765625 0.890625 1.828125 0.890625q1.09375 0 1.875 -0.921875q0.78125 -0.9375 0.78125 -2.875q0 -1.84375 -0.765625 -2.765625q-0.75 -0.921875 -1.8125 -0.921875q-1.046875 0 -1.859375 0.984375q-0.796875 0.96875 -0.796875 2.84375z" fill-rule="nonzero"/><path fill="#d9d9d9" d="m86.61155 138.2748l95.937004 0l0 23.81102l-95.937004 0z" fill-rule="evenodd"/><path stroke="#000000" stroke-width="1.0" stroke-linejoin="round" stroke-linecap="butt" d="m86.61155 138.2748l95.937004 0l0 23.81102l-95.937004 0z" fill-rule="evenodd"/><path fill="#000000" fill-opacity="0.0" d="m134.58005 162.08582l0 -5.7637787" fill-rule="evenodd"/><path stroke="#000000" stroke-width="1.0" stroke-linejoin="round" stroke-linecap="butt" d="m134.58005 162.08582l0 -5.7637787" fill-rule="evenodd"/><path fill="#000000" fill-opacity="0.0" d="m158.58005 162.08582l0 -5.7637787" fill-rule="evenodd"/><path stroke="#000000" stroke-width="1.0" stroke-linejoin="round" stroke-linecap="butt" d="m158.58005 162.08582l0 -5.7637787" fill-rule="evenodd"/><path fill="#000000" fill-opacity="0.0" d="m110.580055 162.08582l0 -5.7637787" fill-rule="evenodd"/><path stroke="#000000" stroke-width="1.0" stroke-linejoin="round" stroke-linecap="butt" d="m110.580055 162.08582l0 -5.7637787" fill-rule="evenodd"/><path fill="#000000" fill-opacity="0.0" d="m170.6751 162.08582l0 -5.7637787" fill-rule="evenodd"/><path stroke="#000000" stroke-width="1.0" stroke-linejoin="round" stroke-linecap="butt" d="m170.6751 162.08582l0 -5.7637787" fill-rule="evenodd"/><path fill="#000000" fill-opacity="0.0" d="m122.675095 162.08582l0 -5.7637787" fill-rule="evenodd"/><path stroke="#000000" stroke-width="1.0" stroke-linejoin="round" stroke-linecap="butt" d="m122.675095 162.08582l0 -5.7637787" fill-rule="evenodd"/><path fill="#000000" fill-opacity="0.0" d="m146.6751 162.08582l0 -5.7637787" fill-rule="evenodd"/><path stroke="#000000" stroke-width="1.0" stroke-linejoin="round" stroke-linecap="butt" d="m146.6751 162.08582l0 -5.7637787" fill-rule="evenodd"/><path fill="#000000" fill-opacity="0.0" d="m98.675095 162.08582l0 -5.7637787" fill-rule="evenodd"/><path stroke="#000000" stroke-width="1.0" stroke-linejoin="round" stroke-linecap="butt" d="m98.675095 162.08582l0 -5.7637787" fill-rule="evenodd"/><path fill="#d9d9d9" d="m86.61155 161.98003l95.937004 0l0 23.811035l-95.937004 0z" fill-rule="evenodd"/><path stroke="#000000" stroke-width="1.0" stroke-linejoin="round" stroke-linecap="butt" d="m86.61155 161.98003l95.937004 0l0 23.811035l-95.937004 0z" fill-rule="evenodd"/><path fill="#000000" fill-opacity="0.0" d="m134.58005 185.79106l0 -5.7637787" fill-rule="evenodd"/><path stroke="#000000" stroke-width="1.0" stroke-linejoin="round" stroke-linecap="butt" d="m134.58005 185.79106l0 -5.7637787" fill-rule="evenodd"/><path fill="#000000" fill-opacity="0.0" d="m158.58005 185.79106l0 -5.7637787" fill-rule="evenodd"/><path stroke="#000000" stroke-width="1.0" stroke-linejoin="round" stroke-linecap="butt" d="m158.58005 185.79106l0 -5.7637787" fill-rule="evenodd"/><path fill="#000000" fill-opacity="0.0" d="m110.580055 185.79106l0 -5.7637787" fill-rule="evenodd"/><path stroke="#000000" stroke-width="1.0" stroke-linejoin="round" stroke-linecap="butt" d="m110.580055 185.79106l0 -5.7637787" fill-rule="evenodd"/><path fill="#000000" fill-opacity="0.0" d="m170.6751 185.79106l0 -5.7637787" fill-rule="evenodd"/><path stroke="#000000" stroke-width="1.0" stroke-linejoin="round" stroke-linecap="butt" d="m170.6751 185.79106l0 -5.7637787" fill-rule="evenodd"/><path fill="#000000" fill-opacity="0.0" d="m122.675095 185.79106l0 -5.7637787" fill-rule="evenodd"/><path stroke="#000000" stroke-width="1.0" stroke-linejoin="round" stroke-linecap="butt" d="m122.675095 185.79106l0 -5.7637787" fill-rule="evenodd"/><path fill="#000000" fill-opacity="0.0" d="m146.6751 185.79106l0 -5.7637787" fill-rule="evenodd"/><path stroke="#000000" stroke-width="1.0" stroke-linejoin="round" stroke-linecap="butt" d="m146.6751 185.79106l0 -5.7637787" fill-rule="evenodd"/><path fill="#000000" fill-opacity="0.0" d="m98.675095 185.79106l0 -5.7637787" fill-rule="evenodd"/><path stroke="#000000" stroke-width="1.0" stroke-linejoin="round" stroke-linecap="butt" d="m98.675095 185.79106l0 -5.7637787" fill-rule="evenodd"/><path fill="#d9d9d9" d="m86.61155 74.274796l95.937004 0l0 23.81102l-95.937004 0z" fill-rule="evenodd"/><path stroke="#000000" stroke-width="1.0" stroke-linejoin="round" stroke-linecap="butt" d="m86.61155 74.274796l95.937004 0l0 23.81102l-95.937004 0z" fill-rule="evenodd"/><path fill="#000000" fill-opacity="0.0" d="m134.58005 98.085815l0 -5.7637787" fill-rule="evenodd"/><path stroke="#000000" stroke-width="1.0" stroke-linejoin="round" stroke-linecap="butt" d="m134.58005 98.085815l0 -5.7637787" fill-rule="evenodd"/><path fill="#000000" fill-opacity="0.0" d="m158.58005 98.085815l0 -5.7637787" fill-rule="evenodd"/><path stroke="#000000" stroke-width="1.0" stroke-linejoin="round" stroke-linecap="butt" d="m158.58005 98.085815l0 -5.7637787" fill-rule="evenodd"/><path fill="#000000" fill-opacity="0.0" d="m110.580055 98.085815l0 -5.7637787" fill-rule="evenodd"/><path stroke="#000000" stroke-width="1.0" stroke-linejoin="round" stroke-linecap="butt" d="m110.580055 98.085815l0 -5.7637787" fill-rule="evenodd"/><path fill="#000000" fill-opacity="0.0" d="m170.6751 98.085815l0 -5.7637787" fill-rule="evenodd"/><path stroke="#000000" stroke-width="1.0" stroke-linejoin="round" stroke-linecap="butt" d="m170.6751 98.085815l0 -5.7637787" fill-rule="evenodd"/><path fill="#000000" fill-opacity="0.0" d="m122.675095 98.085815l0 -5.7637787" fill-rule="evenodd"/><path stroke="#000000" stroke-width="1.0" stroke-linejoin="round" stroke-linecap="butt" d="m122.675095 98.085815l0 -5.7637787" fill-rule="evenodd"/><path fill="#000000" fill-opacity="0.0" d="m146.6751 98.085815l0 -5.7637787" fill-rule="evenodd"/><path stroke="#000000" stroke-width="1.0" stroke-linejoin="round" stroke-linecap="butt" d="m146.6751 98.085815l0 -5.7637787" fill-rule="evenodd"/><path fill="#000000" fill-opacity="0.0" d="m98.675095 98.085815l0 -5.7637787" fill-rule="evenodd"/><path stroke="#000000" stroke-width="1.0" stroke-linejoin="round" stroke-linecap="butt" d="m98.675095 98.085815l0 -5.7637787" fill-rule="evenodd"/><path fill="#d9d9d9" d="m86.61155 50.569553l95.937004 0l0 23.811024l-95.937004 0z" fill-rule="evenodd"/><path stroke="#000000" stroke-width="1.0" stroke-linejoin="round" stroke-linecap="butt" d="m86.61155 50.569553l95.937004 0l0 23.811024l-95.937004 0z" fill-rule="evenodd"/><path fill="#000000" fill-opacity="0.0" d="m134.58005 74.38058l0 -5.7637787" fill-rule="evenodd"/><path stroke="#000000" stroke-width="1.0" stroke-linejoin="round" stroke-linecap="butt" d="m134.58005 74.38058l0 -5.7637787" fill-rule="evenodd"/><path fill="#000000" fill-opacity="0.0" d="m158.58005 74.38058l0 -5.7637787" fill-rule="evenodd"/><path stroke="#000000" stroke-width="1.0" stroke-linejoin="round" stroke-linecap="butt" d="m158.58005 74.38058l0 -5.7637787" fill-rule="evenodd"/><path fill="#000000" fill-opacity="0.0" d="m110.580055 74.38058l0 -5.7637787" fill-rule="evenodd"/><path stroke="#000000" stroke-width="1.0" stroke-linejoin="round" stroke-linecap="butt" d="m110.580055 74.38058l0 -5.7637787" fill-rule="evenodd"/><path fill="#000000" fill-opacity="0.0" d="m170.6751 74.38058l0 -5.7637787" fill-rule="evenodd"/><path stroke="#000000" stroke-width="1.0" stroke-linejoin="round" stroke-linecap="butt" d="m170.6751 74.38058l0 -5.7637787" fill-rule="evenodd"/><path fill="#000000" fill-opacity="0.0" d="m122.675095 74.38058l0 -5.7637787" fill-rule="evenodd"/><path stroke="#000000" stroke-width="1.0" stroke-linejoin="round" stroke-linecap="butt" d="m122.675095 74.38058l0 -5.7637787" fill-rule="evenodd"/><path fill="#000000" fill-opacity="0.0" d="m146.6751 74.38058l0 -5.7637787" fill-rule="evenodd"/><path stroke="#000000" stroke-width="1.0" stroke-linejoin="round" stroke-linecap="butt" d="m146.6751 74.38058l0 -5.7637787" fill-rule="evenodd"/><path fill="#000000" fill-opacity="0.0" d="m98.675095 74.38058l0 -5.7637787" fill-rule="evenodd"/><path stroke="#000000" stroke-width="1.0" stroke-linejoin="round" stroke-linecap="butt" d="m98.675095 74.38058l0 -5.7637787" fill-rule="evenodd"/><path fill="#000000" fill-opacity="0.0" d="m1.824147E-4 60.790028l76.37795 0l0 23.999996l-76.37795 0z" fill-rule="evenodd"/><path fill="#000000" d="m15.11251 70.706276l1.546876 0l1.921875 5.1875l0.421875 1.265625l0.421875 -1.296875l1.90625 -5.15625l1.5 0l-3.078125 7.84375l-1.5625 0l-3.078126 -7.84375zm15.750001 5.703125q0 0.40625 -0.140625 0.734375q-0.140625 0.328125 -0.390625 0.59375q-0.234375 0.25 -0.5625 0.4375q-0.3125 0.171875 -0.6875 0.296875q-0.359375 0.109375 -0.75 0.15625q-0.375 0.0625 -0.734375 0.0625q-0.796875 0 -1.46875 -0.078125q-0.671875 -0.0625 -1.3125 -0.21875l0 -1.25q0.6875 0.1875 1.359375 0.296875q0.6875 0.09375 1.359375 0.09375q0.984375 0 1.453125 -0.265625q0.46875 -0.265625 0.46875 -0.75q0 -0.21875 -0.078125 -0.375q-0.078125 -0.171875 -0.28125 -0.328125q-0.1875 -0.15625 -0.59375 -0.3125q-0.40625 -0.171875 -1.125 -0.375q-0.53125 -0.15625 -0.984375 -0.359375q-0.4375 -0.203125 -0.765625 -0.46875q-0.328125 -0.28125 -0.515625 -0.640625q-0.1875 -0.375 -0.1875 -0.875q0 -0.328125 0.140625 -0.71875q0.15625 -0.390625 0.515625 -0.71875q0.375 -0.34375 1.0 -0.5625q0.625 -0.21875 1.5625 -0.21875q0.46875 0 1.03125 0.046875q0.5625 0.046875 1.171875 0.171875l0 1.21875q-0.640625 -0.15625 -1.21875 -0.234375q-0.578125 -0.078125 -1.0 -0.078125q-0.5 0 -0.859375 0.078125q-0.34375 0.078125 -0.5625 0.21875q-0.203125 0.140625 -0.296875 0.328125q-0.09375 0.171875 -0.09375 0.390625q0 0.203125 0.078125 0.375q0.078125 0.171875 0.296875 0.34375q0.234375 0.15625 0.625 0.3125q0.40625 0.15625 1.046875 0.34375q0.6875 0.203125 1.15625 0.4375q0.484375 0.21875 0.78125 0.5q0.296875 0.265625 0.421875 0.609375q0.140625 0.34375 0.140625 0.78125zm5.25 -7.78125l-2.3125 0l0 -1.125l3.6875 0l0 9.90625l2.34375 0l0 1.140625l-6.296875 0l0 -1.140625l2.578125 0l0 -8.78125zm8.796875 3.203125l-2.3125 0l0 -1.125l3.6875 0l0 6.703125l2.34375 0l0 1.140625l-6.296875 0l0 -1.140625l2.578125 0l0 -5.578125zm0.484375 -4.421875q0.21875 0 0.40625 0.09375q0.203125 0.078125 0.34375 0.234375q0.15625 0.140625 0.234375 0.328125q0.078125 0.1875 0.078125 0.421875q0 0.21875 -0.078125 0.421875q-0.078125 0.1875 -0.234375 0.34375q-0.140625 0.140625 -0.34375 0.21875q-0.1875 0.078125 -0.40625 0.078125q-0.234375 0 -0.4375 -0.078125q-0.1875 -0.078125 -0.328125 -0.21875q-0.140625 -0.15625 -0.234375 -0.34375q-0.078125 -0.203125 -0.078125 -0.421875q0 -0.234375 0.078125 -0.421875q0.09375 -0.1875 0.234375 -0.328125q0.140625 -0.15625 0.328125 -0.234375q0.203125 -0.09375 0.4375 -0.09375zm11.734375 10.84375q-0.53125 0.203125 -1.09375 0.296875q-0.546875 0.109375 -1.140625 0.109375q-1.859375 0 -2.875 -1.0q-1.0 -1.015625 -1.0 -2.953125q0 -0.9375 0.28125 -1.6875q0.296875 -0.765625 0.8125 -1.296875q0.53125 -0.546875 1.25 -0.828125q0.734375 -0.296875 1.609375 -0.296875q0.609375 0 1.140625 0.09375q0.53125 0.078125 1.015625 0.265625l0 1.296875q-0.5 -0.265625 -1.03125 -0.375q-0.53125 -0.125 -1.09375 -0.125q-0.515625 0 -0.984375 0.203125q-0.46875 0.1875 -0.828125 0.5625q-0.34375 0.375 -0.546875 0.921875q-0.203125 0.53125 -0.203125 1.21875q0 1.421875 0.6875 2.125q0.703125 0.703125 1.921875 0.703125q0.5625 0 1.078125 -0.125q0.515625 -0.125 1.0 -0.375l0 1.265625zm9.328125 -4.046875q0 0.296875 -0.015625 0.5q0 0.1875 -0.015625 0.359375l-5.5 0q0 1.203125 0.671875 1.84375q0.671875 0.640625 1.9375 0.640625q0.34375 0 0.6875 -0.015625q0.34375 -0.03125 0.65625 -0.078125q0.328125 -0.046875 0.609375 -0.109375q0.296875 -0.0625 0.546875 -0.125l0 1.109375q-0.546875 0.15625 -1.25 0.25q-0.703125 0.109375 -1.453125 0.109375q-1.0 0 -1.734375 -0.265625q-0.71875 -0.28125 -1.1875 -0.796875q-0.46875 -0.53125 -0.6875 -1.28125q-0.21875 -0.75 -0.21875 -1.703125q0 -0.828125 0.234375 -1.5625q0.234375 -0.75 0.6875 -1.296875q0.46875 -0.5625 1.125 -0.890625q0.671875 -0.328125 1.515625 -0.328125q0.8125 0 1.4375 0.265625q0.640625 0.25 1.078125 0.71875q0.4375 0.46875 0.65625 1.15625q0.21875 0.671875 0.21875 1.5zm-1.40625 -0.1875q0.015625 -0.53125 -0.109375 -0.953125q-0.125 -0.4375 -0.390625 -0.75q-0.25 -0.3125 -0.640625 -0.484375q-0.390625 -0.1875 -0.90625 -0.1875q-0.453125 0 -0.828125 0.171875q-0.359375 0.171875 -0.625 0.484375q-0.265625 0.3125 -0.4375 0.75q-0.15625 0.4375 -0.1875 0.96875l4.125 0z" fill-rule="nonzero"/><path fill="#d9d9d9" d="m278.61154 73.909386l95.93701 0l0 23.81102l-95.93701 0z" fill-rule="evenodd"/><path stroke="#000000" stroke-width="1.0" stroke-linejoin="round" stroke-linecap="butt" d="m278.61154 73.909386l95.93701 0l0 23.81102l-95.93701 0z" fill-rule="evenodd"/><path fill="#000000" fill-opacity="0.0" d="m326.58005 97.720406l0 -5.7637787" fill-rule="evenodd"/><path stroke="#000000" stroke-width="1.0" stroke-linejoin="round" stroke-linecap="butt" d="m326.58005 97.720406l0 -5.7637787" fill-rule="evenodd"/><path fill="#000000" fill-opacity="0.0" d="m350.58005 97.720406l0 -5.7637787" fill-rule="evenodd"/><path stroke="#000000" stroke-width="1.0" stroke-linejoin="round" stroke-linecap="butt" d="m350.58005 97.720406l0 -5.7637787" fill-rule="evenodd"/><path fill="#000000" fill-opacity="0.0" d="m302.58005 97.720406l0 -5.7637787" fill-rule="evenodd"/><path stroke="#000000" stroke-width="1.0" stroke-linejoin="round" stroke-linecap="butt" d="m302.58005 97.720406l0 -5.7637787" fill-rule="evenodd"/><path fill="#000000" fill-opacity="0.0" d="m362.67508 97.720406l0 -5.7637787" fill-rule="evenodd"/><path stroke="#000000" stroke-width="1.0" stroke-linejoin="round" stroke-linecap="butt" d="m362.67508 97.720406l0 -5.7637787" fill-rule="evenodd"/><path fill="#000000" fill-opacity="0.0" d="m314.67508 97.720406l0 -5.7637787" fill-rule="evenodd"/><path stroke="#000000" stroke-width="1.0" stroke-linejoin="round" stroke-linecap="butt" d="m314.67508 97.720406l0 -5.7637787" fill-rule="evenodd"/><path fill="#000000" fill-opacity="0.0" d="m338.67508 97.720406l0 -5.7637787" fill-rule="evenodd"/><path stroke="#000000" stroke-width="1.0" stroke-linejoin="round" stroke-linecap="butt" d="m338.67508 97.720406l0 -5.7637787" fill-rule="evenodd"/><path fill="#000000" fill-opacity="0.0" d="m290.67508 97.720406l0 -5.7637787" fill-rule="evenodd"/><path stroke="#000000" stroke-width="1.0" stroke-linejoin="round" stroke-linecap="butt" d="m290.67508 97.720406l0 -5.7637787" fill-rule="evenodd"/><path fill="#d9d9d9" d="m278.61154 97.32074l95.93701 0l0 23.811028l-95.93701 0z" fill-rule="evenodd"/><path stroke="#000000" stroke-width="1.0" stroke-linejoin="round" stroke-linecap="butt" d="m278.61154 97.32074l95.93701 0l0 23.811028l-95.93701 0z" fill-rule="evenodd"/><path fill="#000000" fill-opacity="0.0" d="m326.58005 121.13177l0 -5.7637787" fill-rule="evenodd"/><path stroke="#000000" stroke-width="1.0" stroke-linejoin="round" stroke-linecap="butt" d="m326.58005 121.13177l0 -5.7637787" fill-rule="evenodd"/><path fill="#000000" fill-opacity="0.0" d="m350.58005 121.13177l0 -5.7637787" fill-rule="evenodd"/><path stroke="#000000" stroke-width="1.0" stroke-linejoin="round" stroke-linecap="butt" d="m350.58005 121.13177l0 -5.7637787" fill-rule="evenodd"/><path fill="#000000" fill-opacity="0.0" d="m302.58005 121.13177l0 -5.7637787" fill-rule="evenodd"/><path stroke="#000000" stroke-width="1.0" stroke-linejoin="round" stroke-linecap="butt" d="m302.58005 121.13177l0 -5.7637787" fill-rule="evenodd"/><path fill="#000000" fill-opacity="0.0" d="m362.67508 121.13177l0 -5.7637787" fill-rule="evenodd"/><path stroke="#000000" stroke-width="1.0" stroke-linejoin="round" stroke-linecap="butt" d="m362.67508 121.13177l0 -5.7637787" fill-rule="evenodd"/><path fill="#000000" fill-opacity="0.0" d="m314.67508 121.13177l0 -5.7637787" fill-rule="evenodd"/><path stroke="#000000" stroke-width="1.0" stroke-linejoin="round" stroke-linecap="butt" d="m314.67508 121.13177l0 -5.7637787" fill-rule="evenodd"/><path fill="#000000" fill-opacity="0.0" d="m338.67508 121.13177l0 -5.7637787" fill-rule="evenodd"/><path stroke="#000000" stroke-width="1.0" stroke-linejoin="round" stroke-linecap="butt" d="m338.67508 121.13177l0 -5.7637787" fill-rule="evenodd"/><path fill="#000000" fill-opacity="0.0" d="m290.67508 121.13177l0 -5.7637787" fill-rule="evenodd"/><path stroke="#000000" stroke-width="1.0" stroke-linejoin="round" stroke-linecap="butt" d="m290.67508 121.13177l0 -5.7637787" fill-rule="evenodd"/><path fill="#d9d9d9" d="m278.61154 121.02642l95.93701 0l0 23.811028l-95.93701 0z" fill-rule="evenodd"/><path stroke="#000000" stroke-width="1.0" stroke-linejoin="round" stroke-linecap="butt" d="m278.61154 121.02642l95.93701 0l0 23.811028l-95.93701 0z" fill-rule="evenodd"/><path fill="#000000" fill-opacity="0.0" d="m326.58005 144.83745l0 -5.7637787" fill-rule="evenodd"/><path stroke="#000000" stroke-width="1.0" stroke-linejoin="round" stroke-linecap="butt" d="m326.58005 144.83745l0 -5.7637787" fill-rule="evenodd"/><path fill="#000000" fill-opacity="0.0" d="m350.58005 144.83745l0 -5.7637787" fill-rule="evenodd"/><path stroke="#000000" stroke-width="1.0" stroke-linejoin="round" stroke-linecap="butt" d="m350.58005 144.83745l0 -5.7637787" fill-rule="evenodd"/><path fill="#000000" fill-opacity="0.0" d="m302.58005 144.83745l0 -5.7637787" fill-rule="evenodd"/><path stroke="#000000" stroke-width="1.0" stroke-linejoin="round" stroke-linecap="butt" d="m302.58005 144.83745l0 -5.7637787" fill-rule="evenodd"/><path fill="#000000" fill-opacity="0.0" d="m362.67508 144.83745l0 -5.7637787" fill-rule="evenodd"/><path stroke="#000000" stroke-width="1.0" stroke-linejoin="round" stroke-linecap="butt" d="m362.67508 144.83745l0 -5.7637787" fill-rule="evenodd"/><path fill="#000000" fill-opacity="0.0" d="m314.67508 144.83745l0 -5.7637787" fill-rule="evenodd"/><path stroke="#000000" stroke-width="1.0" stroke-linejoin="round" stroke-linecap="butt" d="m314.67508 144.83745l0 -5.7637787" fill-rule="evenodd"/><path fill="#000000" fill-opacity="0.0" d="m338.67508 144.83745l0 -5.7637787" fill-rule="evenodd"/><path stroke="#000000" stroke-width="1.0" stroke-linejoin="round" stroke-linecap="butt" d="m338.67508 144.83745l0 -5.7637787" fill-rule="evenodd"/><path fill="#000000" fill-opacity="0.0" d="m290.67508 144.83745l0 -5.7637787" fill-rule="evenodd"/><path stroke="#000000" stroke-width="1.0" stroke-linejoin="round" stroke-linecap="butt" d="m290.67508 144.83745l0 -5.7637787" fill-rule="evenodd"/><path fill="#d9d9d9" d="m278.61154 144.7321l95.93701 0l0 23.81102l-95.93701 0z" fill-rule="evenodd"/><path stroke="#000000" stroke-width="1.0" stroke-linejoin="round" stroke-linecap="butt" d="m278.61154 144.7321l95.93701 0l0 23.81102l-95.93701 0z" fill-rule="evenodd"/><path fill="#000000" fill-opacity="0.0" d="m326.58005 168.54312l0 -5.7637787" fill-rule="evenodd"/><path stroke="#000000" stroke-width="1.0" stroke-linejoin="round" stroke-linecap="butt" d="m326.58005 168.54312l0 -5.7637787" fill-rule="evenodd"/><path fill="#000000" fill-opacity="0.0" d="m350.58005 168.54312l0 -5.7637787" fill-rule="evenodd"/><path stroke="#000000" stroke-width="1.0" stroke-linejoin="round" stroke-linecap="butt" d="m350.58005 168.54312l0 -5.7637787" fill-rule="evenodd"/><path fill="#000000" fill-opacity="0.0" d="m302.58005 168.54312l0 -5.7637787" fill-rule="evenodd"/><path stroke="#000000" stroke-width="1.0" stroke-linejoin="round" stroke-linecap="butt" d="m302.58005 168.54312l0 -5.7637787" fill-rule="evenodd"/><path fill="#000000" fill-opacity="0.0" d="m362.67508 168.54312l0 -5.7637787" fill-rule="evenodd"/><path stroke="#000000" stroke-width="1.0" stroke-linejoin="round" stroke-linecap="butt" d="m362.67508 168.54312l0 -5.7637787" fill-rule="evenodd"/><path fill="#000000" fill-opacity="0.0" d="m314.67508 168.54312l0 -5.7637787" fill-rule="evenodd"/><path stroke="#000000" stroke-width="1.0" stroke-linejoin="round" stroke-linecap="butt" d="m314.67508 168.54312l0 -5.7637787" fill-rule="evenodd"/><path fill="#000000" fill-opacity="0.0" d="m338.67508 168.54312l0 -5.7637787" fill-rule="evenodd"/><path stroke="#000000" stroke-width="1.0" stroke-linejoin="round" stroke-linecap="butt" d="m338.67508 168.54312l0 -5.7637787" fill-rule="evenodd"/><path fill="#000000" fill-opacity="0.0" d="m290.67508 168.54312l0 -5.7637787" fill-rule="evenodd"/><path stroke="#000000" stroke-width="1.0" stroke-linejoin="round" stroke-linecap="butt" d="m290.67508 168.54312l0 -5.7637787" fill-rule="evenodd"/><path fill="#d9d9d9" d="m278.61154 168.43777l95.93701 0l0 23.811035l-95.93701 0z" fill-rule="evenodd"/><path stroke="#000000" stroke-width="1.0" stroke-linejoin="round" stroke-linecap="butt" d="m278.61154 168.43777l95.93701 0l0 23.811035l-95.93701 0z" fill-rule="evenodd"/><path fill="#000000" fill-opacity="0.0" d="m326.58005 192.24881l0 -5.763794" fill-rule="evenodd"/><path stroke="#000000" stroke-width="1.0" stroke-linejoin="round" stroke-linecap="butt" d="m326.58005 192.24881l0 -5.763794" fill-rule="evenodd"/><path fill="#000000" fill-opacity="0.0" d="m350.58005 192.24881l0 -5.763794" fill-rule="evenodd"/><path stroke="#000000" stroke-width="1.0" stroke-linejoin="round" stroke-linecap="butt" d="m350.58005 192.24881l0 -5.763794" fill-rule="evenodd"/><path fill="#000000" fill-opacity="0.0" d="m302.58005 192.24881l0 -5.763794" fill-rule="evenodd"/><path stroke="#000000" stroke-width="1.0" stroke-linejoin="round" stroke-linecap="butt" d="m302.58005 192.24881l0 -5.763794" fill-rule="evenodd"/><path fill="#000000" fill-opacity="0.0" d="m362.67508 192.24881l0 -5.763794" fill-rule="evenodd"/><path stroke="#000000" stroke-width="1.0" stroke-linejoin="round" stroke-linecap="butt" d="m362.67508 192.24881l0 -5.763794" fill-rule="evenodd"/><path fill="#000000" fill-opacity="0.0" d="m314.67508 192.24881l0 -5.763794" fill-rule="evenodd"/><path stroke="#000000" stroke-width="1.0" stroke-linejoin="round" stroke-linecap="butt" d="m314.67508 192.24881l0 -5.763794" fill-rule="evenodd"/><path fill="#000000" fill-opacity="0.0" d="m338.67508 192.24881l0 -5.763794" fill-rule="evenodd"/><path stroke="#000000" stroke-width="1.0" stroke-linejoin="round" stroke-linecap="butt" d="m338.67508 192.24881l0 -5.763794" fill-rule="evenodd"/><path fill="#000000" fill-opacity="0.0" d="m290.67508 192.24881l0 -5.763794" fill-rule="evenodd"/><path stroke="#000000" stroke-width="1.0" stroke-linejoin="round" stroke-linecap="butt" d="m290.67508 192.24881l0 -5.763794" fill-rule="evenodd"/><path fill="#d9d9d9" d="m278.61154 191.84914l95.93701 0l0 23.81102l-95.93701 0z" fill-rule="evenodd"/><path stroke="#000000" stroke-width="1.0" stroke-linejoin="round" stroke-linecap="butt" d="m278.61154 191.84914l95.93701 0l0 23.81102l-95.93701 0z" fill-rule="evenodd"/><path fill="#000000" fill-opacity="0.0" d="m326.58005 215.66016l0 -5.7637787" fill-rule="evenodd"/><path stroke="#000000" stroke-width="1.0" stroke-linejoin="round" stroke-linecap="butt" d="m326.58005 215.66016l0 -5.7637787" fill-rule="evenodd"/><path fill="#000000" fill-opacity="0.0" d="m350.58005 215.66016l0 -5.7637787" fill-rule="evenodd"/><path stroke="#000000" stroke-width="1.0" stroke-linejoin="round" stroke-linecap="butt" d="m350.58005 215.66016l0 -5.7637787" fill-rule="evenodd"/><path fill="#000000" fill-opacity="0.0" d="m302.58005 215.66016l0 -5.7637787" fill-rule="evenodd"/><path stroke="#000000" stroke-width="1.0" stroke-linejoin="round" stroke-linecap="butt" d="m302.58005 215.66016l0 -5.7637787" fill-rule="evenodd"/><path fill="#000000" fill-opacity="0.0" d="m362.67508 215.66016l0 -5.7637787" fill-rule="evenodd"/><path stroke="#000000" stroke-width="1.0" stroke-linejoin="round" stroke-linecap="butt" d="m362.67508 215.66016l0 -5.7637787" fill-rule="evenodd"/><path fill="#000000" fill-opacity="0.0" d="m314.67508 215.66016l0 -5.7637787" fill-rule="evenodd"/><path stroke="#000000" stroke-width="1.0" stroke-linejoin="round" stroke-linecap="butt" d="m314.67508 215.66016l0 -5.7637787" fill-rule="evenodd"/><path fill="#000000" fill-opacity="0.0" d="m338.67508 215.66016l0 -5.7637787" fill-rule="evenodd"/><path stroke="#000000" stroke-width="1.0" stroke-linejoin="round" stroke-linecap="butt" d="m338.67508 215.66016l0 -5.7637787" fill-rule="evenodd"/><path fill="#000000" fill-opacity="0.0" d="m290.67508 215.66016l0 -5.7637787" fill-rule="evenodd"/><path stroke="#000000" stroke-width="1.0" stroke-linejoin="round" stroke-linecap="butt" d="m290.67508 215.66016l0 -5.7637787" fill-rule="evenodd"/><path fill="#d9d9d9" d="m278.61154 215.55481l95.93701 0l0 23.811035l-95.93701 0z" fill-rule="evenodd"/><path stroke="#000000" stroke-width="1.0" stroke-linejoin="round" stroke-linecap="butt" d="m278.61154 215.55481l95.93701 0l0 23.811035l-95.93701 0z" fill-rule="evenodd"/><path fill="#000000" fill-opacity="0.0" d="m326.58005 239.36584l0 -5.7637787" fill-rule="evenodd"/><path stroke="#000000" stroke-width="1.0" stroke-linejoin="round" stroke-linecap="butt" d="m326.58005 239.36584l0 -5.7637787" fill-rule="evenodd"/><path fill="#000000" fill-opacity="0.0" d="m350.58005 239.36584l0 -5.7637787" fill-rule="evenodd"/><path stroke="#000000" stroke-width="1.0" stroke-linejoin="round" stroke-linecap="butt" d="m350.58005 239.36584l0 -5.7637787" fill-rule="evenodd"/><path fill="#000000" fill-opacity="0.0" d="m302.58005 239.36584l0 -5.7637787" fill-rule="evenodd"/><path stroke="#000000" stroke-width="1.0" stroke-linejoin="round" stroke-linecap="butt" d="m302.58005 239.36584l0 -5.7637787" fill-rule="evenodd"/><path fill="#000000" fill-opacity="0.0" d="m362.67508 239.36584l0 -5.7637787" fill-rule="evenodd"/><path stroke="#000000" stroke-width="1.0" stroke-linejoin="round" stroke-linecap="butt" d="m362.67508 239.36584l0 -5.7637787" fill-rule="evenodd"/><path fill="#000000" fill-opacity="0.0" d="m314.67508 239.36584l0 -5.7637787" fill-rule="evenodd"/><path stroke="#000000" stroke-width="1.0" stroke-linejoin="round" stroke-linecap="butt" d="m314.67508 239.36584l0 -5.7637787" fill-rule="evenodd"/><path fill="#000000" fill-opacity="0.0" d="m338.67508 239.36584l0 -5.7637787" fill-rule="evenodd"/><path stroke="#000000" stroke-width="1.0" stroke-linejoin="round" stroke-linecap="butt" d="m338.67508 239.36584l0 -5.7637787" fill-rule="evenodd"/><path fill="#000000" fill-opacity="0.0" d="m290.67508 239.36584l0 -5.7637787" fill-rule="evenodd"/><path stroke="#000000" stroke-width="1.0" stroke-linejoin="round" stroke-linecap="butt" d="m290.67508 239.36584l0 -5.7637787" fill-rule="evenodd"/><path fill="#000000" fill-opacity="0.0" d="m131.93904 124.207466c48.42839 0 78.522156 25.811028 96.8568 51.622047c18.33464 25.81102 24.910187 51.622055 49.820374 51.622055" fill-rule="evenodd"/><path stroke="#000000" stroke-width="1.0" stroke-linejoin="round" stroke-linecap="butt" d="m135.72864 124.26184l0.697052 0.020462036c1.477768 0.04962921 2.937851 0.123672485 4.380417 0.22133636c2.885147 0.19535065 5.7002716 0.4852295 8.446991 0.86331177c5.4934235 0.7561798 10.713226 1.8652496 15.672226 3.2767868c9.918015 2.8230896 18.792847 6.856064 26.72728 11.695618c15.868805 9.679138 27.975906 22.584656 37.14322 35.490158c9.167328 12.905518 15.394882 25.811035 22.444382 35.490158c3.5247192 4.839569 7.254944 8.872543 11.660889 11.695618c2.2029724 1.4115448 4.5748596 2.5206146 7.1744385 3.2767944c1.2998047 0.37808228 2.6565247 0.66796875 4.0775146 0.86331177c0.17764282 0.024414062 0.3562622 0.04736328 0.5359192 0.06880188l0.50445557 0.055740356" fill-rule="evenodd"/><path fill="#000000" stroke="#000000" stroke-width="1.0" stroke-linecap="butt" d="m132.43898 124.214645c0.013046265 -0.90841675 0.760025 -1.6342621 1.6684418 -1.6212311c0.90841675 0.013031006 1.6342621 0.7600174 1.6212311 1.6684265c-0.013046265 0.90841675 -0.760025 1.6342697 -1.6684418 1.6212311c-0.9084015 -0.013031006 -1.6342621 -0.76000977 -1.6212311 -1.6684265z" fill-rule="nonzero"/><path fill="#000000" stroke="#000000" stroke-width="1.0" stroke-linecap="butt" d="m275.19342 227.27994l-1.1795044 1.0668488l3.142212 -0.96842957l-3.0295715 -1.2779083z" fill-rule="evenodd"/><path fill="#000000" fill-opacity="0.0" d="m131.97853 60.632545c55.6183 0 92.9059 35.779526 111.2366 71.55906c18.330704 35.779526 17.704544 71.55905 35.409073 71.55905" fill-rule="evenodd"/><path stroke="#000000" stroke-width="1.0" stroke-linejoin="round" stroke-linecap="butt" d="m135.76811 60.688755l0.09086609 0.002292633c0.4277954 0.0129470825 0.8544769 0.028030396 1.2800446 0.045230865c1.7022552 0.06878662 3.3865814 0.17142868 5.0529633 0.30682373c3.3327942 0.2707939 6.593811 0.67261124 9.782928 1.1967278c6.378235 1.0482292 12.468826 2.5856323 18.270554 4.5423203c11.603455 3.913391 22.051453 9.503937 31.334213 16.2126c18.565536 13.41732 32.470108 31.307083 41.635452 49.196854c9.1653595 17.889755 13.591507 35.779526 17.939346 49.196854c2.1739197 6.7086487 4.328308 12.29921 7.0457153 16.212585c1.3587036 1.9566956 2.8581543 3.4940948 4.571228 4.542328c0.42825317 0.26205444 0.86987305 0.49354553 1.3259888 0.6933594c0.22805786 0.09991455 0.4597168 0.19189453 0.6951599 0.2758484c0.1177063 0.04196167 0.23635864 0.08190918 0.35598755 0.11984253l0.084228516 0.02508545" fill-rule="evenodd"/><path fill="#000000" stroke="#000000" stroke-width="1.0" stroke-linecap="butt" d="m132.47847 60.63996c0.013473511 -0.9084091 0.7608185 -1.6338959 1.66922 -1.6204185c0.90841675 0.013473511 1.6338959 0.76080704 1.6204224 1.6692162c-0.013473511 0.9084091 -0.7608032 1.6338959 -1.66922 1.6204185c-0.9084015 -0.013473511 -1.6338959 -0.76080704 -1.6204224 -1.6692162z" fill-rule="nonzero"/><path fill="#000000" stroke="#000000" stroke-width="1.0" stroke-linecap="butt" d="m275.2328 203.25749l-1.2747192 0.9510498l3.219452 -0.66825867l-2.8957825 -1.5574951z" fill-rule="evenodd"/><path fill="#000000" fill-opacity="0.0" d="m278.61942 215.74481l95.93701 0l0 18.551178l-95.93701 0z" fill-rule="evenodd"/><path fill="#000000" d="m329.36722 225.51228q0 0.875 -0.171875 1.609375q-0.171875 0.71875 -0.53125 1.234375q-0.359375 0.515625 -0.890625 0.8125q-0.53125 0.28125 -1.25 0.28125q-0.609375 0 -1.109375 -0.234375q-0.5 -0.234375 -0.859375 -0.703125q-0.359375 -0.484375 -0.5625 -1.234375q-0.1875 -0.75 -0.1875 -1.765625q0 -0.875 0.171875 -1.59375q0.1875 -0.734375 0.53125 -1.25q0.359375 -0.53125 0.890625 -0.8125q0.546875 -0.28125 1.25 -0.28125q0.609375 0 1.109375 0.234375q0.515625 0.234375 0.875 0.71875q0.359375 0.484375 0.546875 1.234375q0.1875 0.734375 0.1875 1.75zm-1.03125 0.03125q0 -0.1875 -0.015625 -0.390625q-0.015625 -0.203125 -0.03125 -0.390625l-3.234375 2.421875q0.09375 0.296875 0.21875 0.5625q0.140625 0.25 0.328125 0.4375q0.1875 0.1875 0.421875 0.296875q0.25 0.09375 0.5625 0.09375q0.40625 0 0.71875 -0.1875q0.328125 -0.203125 0.5625 -0.578125q0.234375 -0.390625 0.34375 -0.953125q0.125 -0.5625 0.125 -1.3125zm-3.5 -0.0625q0 0.171875 0 0.359375q0 0.1875 0.03125 0.359375l3.234375 -2.40625q-0.09375 -0.296875 -0.234375 -0.53125q-0.125 -0.25 -0.3125 -0.421875q-0.1875 -0.1875 -0.4375 -0.28125q-0.234375 -0.109375 -0.53125 -0.109375q-0.390625 0 -0.71875 0.203125q-0.328125 0.1875 -0.5625 0.578125q-0.21875 0.375 -0.34375 0.9375q-0.125 0.5625 -0.125 1.3125z" fill-rule="nonzero"/><path fill="#000000" fill-opacity="0.0" d="m278.61942 191.74481l95.93701 0l0 18.551178l-95.93701 0z" fill-rule="evenodd"/><path fill="#000000" d="m329.13284 205.34041l-4.8125 0l0 -0.953125l1.96875 0l0 -5.59375l-1.828125 1.0l-0.375 -0.859375l2.4375 -1.28125l0.890625 0l0 6.734375l1.71875 0l0 0.953125z" fill-rule="nonzero"/><path fill="#000000" fill-opacity="0.0" d="m278.61942 168.33345l95.93701 0l0 18.551178l-95.93701 0z" fill-rule="evenodd"/><path fill="#000000" d="m329.19534 181.92905l-5.046875 0l0 -0.921875l1.984375 -1.96875q0.484375 -0.46875 0.78125 -0.8125q0.3125 -0.359375 0.484375 -0.640625q0.171875 -0.296875 0.21875 -0.546875q0.0625 -0.265625 0.0625 -0.578125q0 -0.28125 -0.078125 -0.53125q-0.0625 -0.25 -0.234375 -0.4375q-0.15625 -0.203125 -0.40625 -0.3125q-0.25 -0.109375 -0.59375 -0.109375q-0.5 0 -0.90625 0.21875q-0.390625 0.21875 -0.71875 0.5625l-0.5625 -0.671875q0.4375 -0.46875 1.0 -0.734375q0.5625 -0.28125 1.3125 -0.28125q0.515625 0 0.921875 0.15625q0.421875 0.15625 0.71875 0.4375q0.3125 0.28125 0.484375 0.703125q0.171875 0.421875 0.171875 0.9375q0 0.4375 -0.125 0.8125q-0.109375 0.375 -0.359375 0.75q-0.234375 0.375 -0.59375 0.78125q-0.359375 0.390625 -0.84375 0.859375l-1.390625 1.359375l3.71875 0l0 0.96875z" fill-rule="nonzero"/><path fill="#000000" fill-opacity="0.0" d="m278.61942 144.33345l95.93701 0l0 18.551178l-95.93701 0z" fill-rule="evenodd"/><path fill="#000000" d="m329.05472 155.60092q0 0.5 -0.21875 0.953125q-0.203125 0.4375 -0.609375 0.765625q-0.40625 0.328125 -1.03125 0.53125q-0.625 0.1875 -1.4375 0.1875q-0.46875 0 -0.828125 -0.03125q-0.359375 -0.03125 -0.671875 -0.078125l0 -0.921875q0.359375 0.078125 0.765625 0.109375q0.40625 0.03125 0.828125 0.03125q0.5625 0 0.96875 -0.09375q0.40625 -0.109375 0.65625 -0.296875q0.265625 -0.203125 0.375 -0.46875q0.125 -0.28125 0.125 -0.625q0 -0.3125 -0.140625 -0.546875q-0.140625 -0.234375 -0.390625 -0.390625q-0.25 -0.171875 -0.609375 -0.25q-0.359375 -0.078125 -0.78125 -0.078125l-0.859375 0l0 -0.828125l0.875 0q0.34375 0 0.625 -0.09375q0.296875 -0.09375 0.5 -0.265625q0.203125 -0.171875 0.296875 -0.421875q0.109375 -0.25 0.109375 -0.5625q0 -0.609375 -0.375 -0.890625q-0.375 -0.28125 -1.09375 -0.28125q-0.390625 0 -0.796875 0.078125q-0.40625 0.0625 -0.875 0.21875l0 -0.890625q0.1875 -0.0625 0.40625 -0.109375q0.234375 -0.0625 0.453125 -0.09375q0.234375 -0.046875 0.453125 -0.0625q0.234375 -0.03125 0.4375 -0.03125q0.609375 0 1.0625 0.140625q0.46875 0.125 0.78125 0.375q0.3125 0.234375 0.46875 0.59375q0.15625 0.34375 0.15625 0.796875q0 0.65625 -0.34375 1.109375q-0.328125 0.4375 -0.921875 0.6875q0.3125 0.046875 0.59375 0.1875q0.296875 0.140625 0.515625 0.375q0.234375 0.21875 0.375 0.515625q0.15625 0.296875 0.15625 0.65625z" fill-rule="nonzero"/><path fill="#000000" fill-opacity="0.0" d="m278.61942 120.9221l95.93701 0l0 18.551186l-95.93701 0z" fill-rule="evenodd"/><path fill="#000000" d="m329.57034 132.83018l-1.296875 0l0 1.6875l-1.046875 0l0 -1.6875l-3.6875 0l0 -0.90625l3.265625 -5.0625l1.46875 0l0 5.0625l1.296875 0l0 0.90625zm-2.34375 -4.984375l-2.671875 4.078125l2.671875 0l0 -4.078125z" fill-rule="nonzero"/><path fill="#000000" fill-opacity="0.0" d="m278.61942 97.510735l95.93701 0l0 18.551186l-95.93701 0z" fill-rule="evenodd"/><path fill="#000000" d="m304.65042 113.57508q-2.6875 -2.515625 -2.6875 -5.546875q0 -0.703125 0.140625 -1.40625q0.140625 -0.703125 0.453125 -1.40625q0.328125 -0.71875 0.84375 -1.421875q0.53125 -0.71875 1.28125 -1.40625l0.59375 0.59375q-2.28125 2.25 -2.28125 4.984375q0 1.359375 0.578125 2.609375q0.578125 1.25 1.703125 2.359375l-0.625 0.640625zm7.8164062 -2.46875l-0.921875 0l-0.03125 -0.953125q-0.265625 0.3125 -0.5 0.515625q-0.234375 0.203125 -0.46875 0.328125q-0.234375 0.109375 -0.484375 0.15625q-0.234375 0.0625 -0.5 0.0625q-0.90625 0 -1.375 -0.53125q-0.453125 -0.546875 -0.453125 -1.625l0 -3.84375l1.015625 0l0 3.765625q0 1.359375 1.03125 1.359375q0.1875 0 0.359375 -0.046875q0.171875 -0.0625 0.375 -0.203125q0.203125 -0.140625 0.421875 -0.375q0.21875 -0.234375 0.5 -0.59375l0 -3.90625l1.03125 0l0 5.890625zm1.8632812 -5.890625l0.90625 0l0.046875 0.953125q0.25 -0.296875 0.484375 -0.5q0.25 -0.203125 0.484375 -0.328125q0.234375 -0.125 0.46875 -0.171875q0.234375 -0.046875 0.5 -0.046875q0.90625 0 1.375 0.53125q0.46875 0.53125 0.46875 1.609375l0 3.84375l-1.03125 0l0 -3.75q0 -0.703125 -0.265625 -1.03125q-0.25 -0.328125 -0.75 -0.328125q-0.1875 0 -0.375 0.0625q-0.171875 0.046875 -0.375 0.1875q-0.1875 0.140625 -0.421875 0.375q-0.21875 0.234375 -0.5 0.578125l0 3.90625l-1.015625 0l0 -5.890625zm8.597656 0.84375l-1.734375 0l0 -0.84375l2.765625 0l0 5.046875l1.75 0l0 0.84375l-4.703125 0l0 -0.84375l1.921875 0l0 -4.203125zm0.359375 -3.296875q0.171875 0 0.3125 0.0625q0.15625 0.046875 0.265625 0.171875q0.109375 0.109375 0.171875 0.25q0.0625 0.140625 0.0625 0.3125q0 0.15625 -0.0625 0.3125q-0.0625 0.140625 -0.171875 0.25q-0.109375 0.109375 -0.265625 0.171875q-0.140625 0.0625 -0.3125 0.0625q-0.171875 0 -0.3125 -0.0625q-0.140625 -0.0625 -0.25 -0.171875q-0.109375 -0.109375 -0.171875 -0.25q-0.0625 -0.15625 -0.0625 -0.3125q0 -0.171875 0.0625 -0.3125q0.0625 -0.140625 0.171875 -0.25q0.109375 -0.125 0.25 -0.171875q0.140625 -0.0625 0.3125 -0.0625zm4.2382812 2.453125l0.90625 0l0.046875 0.953125q0.25 -0.296875 0.484375 -0.5q0.25 -0.203125 0.484375 -0.328125q0.234375 -0.125 0.46875 -0.171875q0.234375 -0.046875 0.5 -0.046875q0.90625 0 1.375 0.53125q0.46875 0.53125 0.46875 1.609375l0 3.84375l-1.03125 0l0 -3.75q0 -0.703125 -0.265625 -1.03125q-0.25 -0.328125 -0.75 -0.328125q-0.1875 0 -0.375 0.0625q-0.171875 0.046875 -0.375 0.1875q-0.1875 0.140625 -0.421875 0.375q-0.21875 0.234375 -0.5 0.578125l0 3.90625l-1.015625 0l0 -5.890625zm8.597656 0.84375l-1.734375 0l0 -0.84375l2.765625 0l0 5.046875l1.75 0l0 0.84375l-4.703125 0l0 -0.84375l1.921875 0l0 -4.203125zm0.359375 -3.296875q0.171875 0 0.3125 0.0625q0.15625 0.046875 0.265625 0.171875q0.109375 0.109375 0.171875 0.25q0.0625 0.140625 0.0625 0.3125q0 0.15625 -0.0625 0.3125q-0.0625 0.140625 -0.171875 0.25q-0.109375 0.109375 -0.265625 0.171875q-0.140625 0.0625 -0.3125 0.0625q-0.171875 0 -0.3125 -0.0625q-0.140625 -0.0625 -0.25 -0.171875q-0.109375 -0.109375 -0.171875 -0.25q-0.0625 -0.15625 -0.0625 -0.3125q0 -0.171875 0.0625 -0.3125q0.0625 -0.140625 0.171875 -0.25q0.109375 -0.125 0.25 -0.171875q0.140625 -0.0625 0.3125 -0.0625zm8.972656 8.265625q-0.34375 0.078125 -0.71875 0.109375q-0.359375 0.046875 -0.734375 0.046875q-1.109375 0 -1.65625 -0.5q-0.546875 -0.5 -0.546875 -1.53125l0 -3.078125l-1.640625 0l0 -0.859375l1.640625 0l0 -1.609375l1.015625 -0.265625l0 1.875l2.640625 0l0 0.859375l-2.640625 0l0 2.984375q0 0.640625 0.328125 0.953125q0.34375 0.3125 1.0 0.3125q0.28125 0 0.609375 -0.046875q0.34375 -0.046875 0.703125 -0.140625l0 0.890625zm3.0664062 -8.640625q2.703125 2.5 2.703125 5.5625q0 0.625 -0.140625 1.3125q-0.125 0.671875 -0.4375 1.390625q-0.296875 0.71875 -0.828125 1.4375q-0.53125 0.734375 -1.328125 1.484375l-0.578125 -0.609375q1.140625 -1.125 1.703125 -2.359375q0.5625 -1.234375 0.5625 -2.578125q0 -2.796875 -2.265625 -5.015625l0.609375 -0.625z" fill-rule="nonzero"/><path fill="#000000" fill-opacity="0.0" d="m278.61942 74.09938l95.93701 0l0 18.551178l-95.93701 0z" fill-rule="evenodd"/><path fill="#000000" d="m304.65042 90.16372q-2.6875 -2.515625 -2.6875 -5.546875q0 -0.703125 0.140625 -1.40625q0.140625 -0.703125 0.453125 -1.40625q0.328125 -0.71875 0.84375 -1.421875q0.53125 -0.71875 1.28125 -1.40625l0.59375 0.59375q-2.28125 2.25 -2.28125 4.984375q0 1.359375 0.578125 2.609375q0.578125 1.25 1.703125 2.359375l-0.625 0.640625zm7.8164062 -2.46875l-0.921875 0l-0.03125 -0.953125q-0.265625 0.3125 -0.5 0.515625q-0.234375 0.203125 -0.46875 0.328125q-0.234375 0.109375 -0.484375 0.15625q-0.234375 0.0625 -0.5 0.0625q-0.90625 0 -1.375 -0.53125q-0.453125 -0.546875 -0.453125 -1.625l0 -3.84375l1.015625 0l0 3.765625q0 1.359375 1.03125 1.359375q0.1875 0 0.359375 -0.046875q0.171875 -0.0625 0.375 -0.203125q0.203125 -0.140625 0.421875 -0.375q0.21875 -0.234375 0.5 -0.59375l0 -3.90625l1.03125 0l0 5.890625zm1.8632812 -5.890625l0.90625 0l0.046875 0.953125q0.25 -0.296875 0.484375 -0.5q0.25 -0.203125 0.484375 -0.328125q0.234375 -0.125 0.46875 -0.171875q0.234375 -0.046875 0.5 -0.046875q0.90625 0 1.375 0.53125q0.46875 0.53125 0.46875 1.609375l0 3.84375l-1.03125 0l0 -3.75q0 -0.703125 -0.265625 -1.03125q-0.25 -0.328125 -0.75 -0.328125q-0.1875 0 -0.375 0.0625q-0.171875 0.046875 -0.375 0.1875q-0.1875 0.140625 -0.421875 0.375q-0.21875 0.234375 -0.5 0.578125l0 3.90625l-1.015625 0l0 -5.890625zm8.597656 0.84375l-1.734375 0l0 -0.84375l2.765625 0l0 5.046875l1.75 0l0 0.84375l-4.703125 0l0 -0.84375l1.921875 0l0 -4.203125zm0.359375 -3.296875q0.171875 0 0.3125 0.0625q0.15625 0.046875 0.265625 0.171875q0.109375 0.109375 0.171875 0.25q0.0625 0.140625 0.0625 0.3125q0 0.15625 -0.0625 0.3125q-0.0625 0.140625 -0.171875 0.25q-0.109375 0.109375 -0.265625 0.171875q-0.140625 0.0625 -0.3125 0.0625q-0.171875 0 -0.3125 -0.0625q-0.140625 -0.0625 -0.25 -0.171875q-0.109375 -0.109375 -0.171875 -0.25q-0.0625 -0.15625 -0.0625 -0.3125q0 -0.171875 0.0625 -0.3125q0.0625 -0.140625 0.171875 -0.25q0.109375 -0.125 0.25 -0.171875q0.140625 -0.0625 0.3125 -0.0625zm4.2382812 2.453125l0.90625 0l0.046875 0.953125q0.25 -0.296875 0.484375 -0.5q0.25 -0.203125 0.484375 -0.328125q0.234375 -0.125 0.46875 -0.171875q0.234375 -0.046875 0.5 -0.046875q0.90625 0 1.375 0.53125q0.46875 0.53125 0.46875 1.609375l0 3.84375l-1.03125 0l0 -3.75q0 -0.703125 -0.265625 -1.03125q-0.25 -0.328125 -0.75 -0.328125q-0.1875 0 -0.375 0.0625q-0.171875 0.046875 -0.375 0.1875q-0.1875 0.140625 -0.421875 0.375q-0.21875 0.234375 -0.5 0.578125l0 3.90625l-1.015625 0l0 -5.890625zm8.597656 0.84375l-1.734375 0l0 -0.84375l2.765625 0l0 5.046875l1.75 0l0 0.84375l-4.703125 0l0 -0.84375l1.921875 0l0 -4.203125zm0.359375 -3.296875q0.171875 0 0.3125 0.0625q0.15625 0.046875 0.265625 0.171875q0.109375 0.109375 0.171875 0.25q0.0625 0.140625 0.0625 0.3125q0 0.15625 -0.0625 0.3125q-0.0625 0.140625 -0.171875 0.25q-0.109375 0.109375 -0.265625 0.171875q-0.140625 0.0625 -0.3125 0.0625q-0.171875 0 -0.3125 -0.0625q-0.140625 -0.0625 -0.25 -0.171875q-0.109375 -0.109375 -0.171875 -0.25q-0.0625 -0.15625 -0.0625 -0.3125q0 -0.171875 0.0625 -0.3125q0.0625 -0.140625 0.171875 -0.25q0.109375 -0.125 0.25 -0.171875q0.140625 -0.0625 0.3125 -0.0625zm8.972656 8.265625q-0.34375 0.078125 -0.71875 0.109375q-0.359375 0.046875 -0.734375 0.046875q-1.109375 0 -1.65625 -0.5q-0.546875 -0.5 -0.546875 -1.53125l0 -3.078125l-1.640625 0l0 -0.859375l1.640625 0l0 -1.609375l1.015625 -0.265625l0 1.875l2.640625 0l0 0.859375l-2.640625 0l0 2.984375q0 0.640625 0.328125 0.953125q0.34375 0.3125 1.0 0.3125q0.28125 0 0.609375 -0.046875q0.34375 -0.046875 0.703125 -0.140625l0 0.890625zm3.0664062 -8.640625q2.703125 2.5 2.703125 5.5625q0 0.625 -0.140625 1.3125q-0.125 0.671875 -0.4375 1.390625q-0.296875 0.71875 -0.828125 1.4375q-0.53125 0.734375 -1.328125 1.484375l-0.578125 -0.609375q1.140625 -1.125 1.703125 -2.359375q0.5625 -1.234375 0.5625 -2.578125q0 -2.796875 -2.265625 -5.015625l0.609375 -0.625z" fill-rule="nonzero"/><path fill="#000000" fill-opacity="0.0" d="m278.61942 50.09938l95.93701 0l0 18.551178l-95.93701 0z" fill-rule="evenodd"/><path fill="#000000" d="m304.65042 66.16372q-2.6875 -2.515625 -2.6875 -5.546875q0 -0.703125 0.140625 -1.40625q0.140625 -0.703125 0.453125 -1.40625q0.328125 -0.71875 0.84375 -1.421875q0.53125 -0.71875 1.28125 -1.40625l0.59375 0.59375q-2.28125 2.25 -2.28125 4.984375q0 1.359375 0.578125 2.609375q0.578125 1.25 1.703125 2.359375l-0.625 0.640625zm7.8164062 -2.46875l-0.921875 0l-0.03125 -0.953125q-0.265625 0.3125 -0.5 0.515625q-0.234375 0.203125 -0.46875 0.328125q-0.234375 0.109375 -0.484375 0.15625q-0.234375 0.0625 -0.5 0.0625q-0.90625 0 -1.375 -0.53125q-0.453125 -0.546875 -0.453125 -1.625l0 -3.84375l1.015625 0l0 3.765625q0 1.359375 1.03125 1.359375q0.1875 0 0.359375 -0.046875q0.171875 -0.0625 0.375 -0.203125q0.203125 -0.140625 0.421875 -0.375q0.21875 -0.234375 0.5 -0.59375l0 -3.90625l1.03125 0l0 5.890625zm1.8632812 -5.890625l0.90625 0l0.046875 0.953125q0.25 -0.296875 0.484375 -0.5q0.25 -0.203125 0.484375 -0.328125q0.234375 -0.125 0.46875 -0.171875q0.234375 -0.046875 0.5 -0.046875q0.90625 0 1.375 0.53125q0.46875 0.53125 0.46875 1.609375l0 3.84375l-1.03125 0l0 -3.75q0 -0.703125 -0.265625 -1.03125q-0.25 -0.328125 -0.75 -0.328125q-0.1875 0 -0.375 0.0625q-0.171875 0.046875 -0.375 0.1875q-0.1875 0.140625 -0.421875 0.375q-0.21875 0.234375 -0.5 0.578125l0 3.90625l-1.015625 0l0 -5.890625zm8.597656 0.84375l-1.734375 0l0 -0.84375l2.765625 0l0 5.046875l1.75 0l0 0.84375l-4.703125 0l0 -0.84375l1.921875 0l0 -4.203125zm0.359375 -3.296875q0.171875 0 0.3125 0.0625q0.15625 0.046875 0.265625 0.171875q0.109375 0.109375 0.171875 0.25q0.0625 0.140625 0.0625 0.3125q0 0.15625 -0.0625 0.3125q-0.0625 0.140625 -0.171875 0.25q-0.109375 0.109375 -0.265625 0.171875q-0.140625 0.0625 -0.3125 0.0625q-0.171875 0 -0.3125 -0.0625q-0.140625 -0.0625 -0.25 -0.171875q-0.109375 -0.109375 -0.171875 -0.25q-0.0625 -0.15625 -0.0625 -0.3125q0 -0.171875 0.0625 -0.3125q0.0625 -0.140625 0.171875 -0.25q0.109375 -0.125 0.25 -0.171875q0.140625 -0.0625 0.3125 -0.0625zm4.2382812 2.453125l0.90625 0l0.046875 0.953125q0.25 -0.296875 0.484375 -0.5q0.25 -0.203125 0.484375 -0.328125q0.234375 -0.125 0.46875 -0.171875q0.234375 -0.046875 0.5 -0.046875q0.90625 0 1.375 0.53125q0.46875 0.53125 0.46875 1.609375l0 3.84375l-1.03125 0l0 -3.75q0 -0.703125 -0.265625 -1.03125q-0.25 -0.328125 -0.75 -0.328125q-0.1875 0 -0.375 0.0625q-0.171875 0.046875 -0.375 0.1875q-0.1875 0.140625 -0.421875 0.375q-0.21875 0.234375 -0.5 0.578125l0 3.90625l-1.015625 0l0 -5.890625zm8.597656 0.84375l-1.734375 0l0 -0.84375l2.765625 0l0 5.046875l1.75 0l0 0.84375l-4.703125 0l0 -0.84375l1.921875 0l0 -4.203125zm0.359375 -3.296875q0.171875 0 0.3125 0.0625q0.15625 0.046875 0.265625 0.171875q0.109375 0.109375 0.171875 0.25q0.0625 0.140625 0.0625 0.3125q0 0.15625 -0.0625 0.3125q-0.0625 0.140625 -0.171875 0.25q-0.109375 0.109375 -0.265625 0.171875q-0.140625 0.0625 -0.3125 0.0625q-0.171875 0 -0.3125 -0.0625q-0.140625 -0.0625 -0.25 -0.171875q-0.109375 -0.109375 -0.171875 -0.25q-0.0625 -0.15625 -0.0625 -0.3125q0 -0.171875 0.0625 -0.3125q0.0625 -0.140625 0.171875 -0.25q0.109375 -0.125 0.25 -0.171875q0.140625 -0.0625 0.3125 -0.0625zm8.972656 8.265625q-0.34375 0.078125 -0.71875 0.109375q-0.359375 0.046875 -0.734375 0.046875q-1.109375 0 -1.65625 -0.5q-0.546875 -0.5 -0.546875 -1.53125l0 -3.078125l-1.640625 0l0 -0.859375l1.640625 0l0 -1.609375l1.015625 -0.265625l0 1.875l2.640625 0l0 0.859375l-2.640625 0l0 2.984375q0 0.640625 0.328125 0.953125q0.34375 0.3125 1.0 0.3125q0.28125 0 0.609375 -0.046875q0.34375 -0.046875 0.703125 -0.140625l0 0.890625zm3.0664062 -8.640625q2.703125 2.5 2.703125 5.5625q0 0.625 -0.140625 1.3125q-0.125 0.671875 -0.4375 1.390625q-0.296875 0.71875 -0.828125 1.4375q-0.53125 0.734375 -1.328125 1.484375l-0.578125 -0.609375q1.140625 -1.125 1.703125 -2.359375q0.5625 -1.234375 0.5625 -2.578125q0 -2.796875 -2.265625 -5.015625l0.609375 -0.625z" fill-rule="nonzero"/><path fill="#000000" fill-opacity="0.0" d="m86.61942 74.09938l95.937004 0l0 18.551178l-95.937004 0z" fill-rule="evenodd"/><path fill="#000000" d="m121.03128 80.25747l-1.734375 0l0 -0.84375l2.765625 0l0 7.4375l1.75 0l0 0.84375l-4.703125 0l0 -0.84375l1.921875 0l0 -6.59375zm9.566406 4.1875q0 0.21875 -0.015625 0.359375q0 0.140625 0 0.28125l-4.140625 0q0 0.890625 0.5 1.375q0.515625 0.484375 1.453125 0.484375q0.265625 0 0.515625 -0.015625q0.265625 -0.015625 0.5 -0.046875q0.25 -0.046875 0.46875 -0.078125q0.21875 -0.046875 0.40625 -0.109375l0 0.84375q-0.421875 0.109375 -0.953125 0.1875q-0.515625 0.078125 -1.078125 0.078125q-0.75 0 -1.296875 -0.203125q-0.546875 -0.21875 -0.90625 -0.59375q-0.34375 -0.390625 -0.515625 -0.953125q-0.15625 -0.578125 -0.15625 -1.296875q0 -0.609375 0.171875 -1.15625q0.1875 -0.5625 0.53125 -0.984375q0.34375 -0.421875 0.828125 -0.65625q0.5 -0.25 1.140625 -0.25q0.609375 0 1.078125 0.1875q0.484375 0.1875 0.8125 0.546875q0.328125 0.359375 0.484375 0.875q0.171875 0.5 0.171875 1.125zm-1.0625 -0.15625q0.015625 -0.390625 -0.078125 -0.703125q-0.09375 -0.328125 -0.296875 -0.5625q-0.1875 -0.234375 -0.484375 -0.359375q-0.28125 -0.140625 -0.671875 -0.140625q-0.328125 0 -0.609375 0.125q-0.28125 0.125 -0.484375 0.359375q-0.1875 0.234375 -0.3125 0.5625q-0.125 0.328125 -0.15625 0.71875l3.09375 0zm2.6914062 -2.484375l0.90625 0l0.046875 0.953125q0.25 -0.296875 0.484375 -0.5q0.25 -0.203125 0.484375 -0.328125q0.234375 -0.125 0.46875 -0.171875q0.234375 -0.046875 0.5 -0.046875q0.90625 0 1.375 0.53125q0.46875 0.53125 0.46875 1.609375l0 3.84375l-1.03125 0l0 -3.75q0 -0.703125 -0.265625 -1.03125q-0.25 -0.328125 -0.75 -0.328125q-0.1875 0 -0.375 0.0625q-0.171875 0.046875 -0.375 0.1875q-0.1875 0.140625 -0.421875 0.375q-0.21875 0.234375 -0.5 0.578125l0 3.90625l-1.015625 0l0 -5.890625zm11.472656 2.109375l-5.03125 0l0 -0.859375l5.03125 0l0 0.859375zm0 2.03125l-5.03125 0l0 -0.859375l5.03125 0l0 0.859375zm6.6914062 1.75l-5.046875 0l0 -0.921875l1.984375 -1.96875q0.484375 -0.46875 0.78125 -0.8125q0.3125 -0.359375 0.484375 -0.640625q0.171875 -0.296875 0.21875 -0.546875q0.0625 -0.265625 0.0625 -0.578125q0 -0.28125 -0.078125 -0.53125q-0.0625 -0.25 -0.234375 -0.4375q-0.15625 -0.203125 -0.40625 -0.3125q-0.25 -0.109375 -0.59375 -0.109375q-0.5 0 -0.90625 0.21875q-0.390625 0.21875 -0.71875 0.5625l-0.5625 -0.671875q0.4375 -0.46875 1.0 -0.734375q0.5625 -0.28125 1.3125 -0.28125q0.515625 0 0.921875 0.15625q0.421875 0.15625 0.71875 0.4375q0.3125 0.28125 0.484375 0.703125q0.171875 0.421875 0.171875 0.9375q0 0.4375 -0.125 0.8125q-0.109375 0.375 -0.359375 0.75q-0.234375 0.375 -0.59375 0.78125q-0.359375 0.390625 -0.84375 0.859375l-1.390625 1.359375l3.71875 0l0 0.96875z" fill-rule="nonzero"/><path fill="#000000" fill-opacity="0.0" d="m86.61942 162.09938l95.937004 0l0 18.551178l-95.937004 0z" fill-rule="evenodd"/><path fill="#000000" d="m121.03128 168.25748l-1.734375 0l0 -0.84375l2.765625 0l0 7.4375l1.75 0l0 0.84375l-4.703125 0l0 -0.84375l1.921875 0l0 -6.59375zm9.566406 4.1875q0 0.21875 -0.015625 0.359375q0 0.140625 0 0.28125l-4.140625 0q0 0.890625 0.5 1.375q0.515625 0.484375 1.453125 0.484375q0.265625 0 0.515625 -0.015625q0.265625 -0.015625 0.5 -0.046875q0.25 -0.046875 0.46875 -0.078125q0.21875 -0.046875 0.40625 -0.109375l0 0.84375q-0.421875 0.109375 -0.953125 0.1875q-0.515625 0.078125 -1.078125 0.078125q-0.75 0 -1.296875 -0.203125q-0.546875 -0.21875 -0.90625 -0.59375q-0.34375 -0.390625 -0.515625 -0.953125q-0.15625 -0.578125 -0.15625 -1.296875q0 -0.609375 0.171875 -1.15625q0.1875 -0.5625 0.53125 -0.984375q0.34375 -0.421875 0.828125 -0.65625q0.5 -0.25 1.140625 -0.25q0.609375 0 1.078125 0.1875q0.484375 0.1875 0.8125 0.546875q0.328125 0.359375 0.484375 0.875q0.171875 0.5 0.171875 1.125zm-1.0625 -0.15625q0.015625 -0.390625 -0.078125 -0.703125q-0.09375 -0.328125 -0.296875 -0.5625q-0.1875 -0.234375 -0.484375 -0.359375q-0.28125 -0.140625 -0.671875 -0.140625q-0.328125 0 -0.609375 0.125q-0.28125 0.125 -0.484375 0.359375q-0.1875 0.234375 -0.3125 0.5625q-0.125 0.328125 -0.15625 0.71875l3.09375 0zm2.6914062 -2.484375l0.90625 0l0.046875 0.953125q0.25 -0.296875 0.484375 -0.5q0.25 -0.203125 0.484375 -0.328125q0.234375 -0.125 0.46875 -0.171875q0.234375 -0.046875 0.5 -0.046875q0.90625 0 1.375 0.53125q0.46875 0.53125 0.46875 1.609375l0 3.84375l-1.03125 0l0 -3.75q0 -0.703125 -0.265625 -1.03125q-0.25 -0.328125 -0.75 -0.328125q-0.1875 0 -0.375 0.0625q-0.171875 0.046875 -0.375 0.1875q-0.1875 0.140625 -0.421875 0.375q-0.21875 0.234375 -0.5 0.578125l0 3.90625l-1.015625 0l0 -5.890625zm11.472656 2.109375l-5.03125 0l0 -0.859375l5.03125 0l0 0.859375zm0 2.03125l-5.03125 0l0 -0.859375l5.03125 0l0 0.859375zm6.5039062 -0.703125q0 0.578125 -0.25 1.046875q-0.25 0.46875 -0.6875 0.8125q-0.421875 0.328125 -1.015625 0.515625q-0.578125 0.1875 -1.25 0.1875q-0.171875 0 -0.375 -0.015625q-0.1875 0 -0.390625 -0.015625q-0.1875 -0.015625 -0.375 -0.03125q-0.1875 -0.015625 -0.328125 -0.046875l0 -0.921875q0.3125 0.078125 0.71875 0.109375q0.40625 0.03125 0.828125 0.03125q0.46875 0 0.84375 -0.109375q0.375 -0.109375 0.640625 -0.3125q0.265625 -0.21875 0.40625 -0.515625q0.140625 -0.296875 0.140625 -0.65625q0 -0.71875 -0.515625 -1.046875q-0.515625 -0.328125 -1.484375 -0.328125l-1.453125 0l0 -3.90625l4.125 0l0 0.890625l-3.15625 0l0 2.140625l0.671875 0q0.546875 0 1.0625 0.109375q0.53125 0.09375 0.9375 0.34375q0.40625 0.25 0.65625 0.671875q0.25 0.421875 0.25 1.046875z" fill-rule="nonzero"/><path fill="#000000" fill-opacity="0.0" d="m86.61942 138.09938l95.937004 0l0 18.551178l-95.937004 0z" fill-rule="evenodd"/><path fill="#000000" d="m107.115265 151.47623q-0.40625 0.15625 -0.828125 0.21875q-0.421875 0.078125 -0.859375 0.078125q-1.390625 0 -2.15625 -0.75q-0.75 -0.765625 -0.75 -2.21875q0 -0.6875 0.21875 -1.25q0.21875 -0.578125 0.609375 -0.984375q0.390625 -0.40625 0.9375 -0.625q0.546875 -0.21875 1.203125 -0.21875q0.453125 0 0.84375 0.0625q0.40625 0.0625 0.78125 0.21875l0 0.96875q-0.390625 -0.203125 -0.78125 -0.28125q-0.390625 -0.09375 -0.8125 -0.09375q-0.40625 0 -0.75 0.15625q-0.34375 0.140625 -0.609375 0.421875q-0.265625 0.28125 -0.421875 0.6875q-0.140625 0.40625 -0.140625 0.90625q0 1.0625 0.515625 1.59375q0.515625 0.53125 1.4375 0.53125q0.40625 0 0.796875 -0.09375q0.390625 -0.09375 0.765625 -0.28125l0 0.953125zm5.8007812 0.21875l-0.03125 -0.796875q-0.46875 0.484375 -0.96875 0.703125q-0.5 0.203125 -1.046875 0.203125q-0.5 0 -0.859375 -0.125q-0.359375 -0.140625 -0.59375 -0.359375q-0.21875 -0.234375 -0.328125 -0.53125q-0.109375 -0.3125 -0.109375 -0.671875q0 -0.875 0.65625 -1.375q0.65625 -0.5 1.953125 -0.5l1.21875 0l0 -0.515625q0 -0.53125 -0.34375 -0.84375q-0.328125 -0.3125 -1.015625 -0.3125q-0.5 0 -0.984375 0.109375q-0.484375 0.109375 -1.0 0.328125l0 -0.921875q0.203125 -0.078125 0.4375 -0.140625q0.234375 -0.0625 0.5 -0.109375q0.265625 -0.0625 0.546875 -0.09375q0.296875 -0.03125 0.578125 -0.03125q0.546875 0 0.96875 0.125q0.421875 0.109375 0.71875 0.34375q0.296875 0.234375 0.453125 0.609375q0.15625 0.359375 0.15625 0.84375l0 4.0625l-0.90625 0zm-0.109375 -2.671875l-1.296875 0q-0.375 0 -0.65625 0.078125q-0.28125 0.0625 -0.453125 0.203125q-0.171875 0.140625 -0.265625 0.34375q-0.078125 0.1875 -0.078125 0.4375q0 0.171875 0.046875 0.328125q0.0625 0.15625 0.171875 0.28125q0.125 0.109375 0.3125 0.1875q0.1875 0.0625 0.453125 0.0625q0.34375 0 0.796875 -0.203125q0.46875 -0.21875 0.96875 -0.6875l0 -1.03125zm7.9570312 -0.375q0 0.78125 -0.21875 1.375q-0.21875 0.578125 -0.609375 0.96875q-0.390625 0.390625 -0.921875 0.59375q-0.515625 0.1875 -1.140625 0.1875q-0.28125 0 -0.5625 -0.03125q-0.265625 -0.03125 -0.5625 -0.109375l0 2.46875l-1.015625 0l0 -8.296875l0.90625 0l0.0625 0.984375q0.4375 -0.59375 0.9375 -0.828125q0.5 -0.25 1.078125 -0.25q0.515625 0 0.890625 0.21875q0.375 0.203125 0.625 0.59375q0.265625 0.375 0.390625 0.921875q0.140625 0.53125 0.140625 1.203125zm-1.046875 0.046875q0 -0.46875 -0.078125 -0.84375q-0.0625 -0.390625 -0.203125 -0.65625q-0.140625 -0.28125 -0.375 -0.4375q-0.234375 -0.15625 -0.546875 -0.15625q-0.1875 0 -0.390625 0.0625q-0.203125 0.0625 -0.421875 0.203125q-0.203125 0.140625 -0.4375 0.375q-0.234375 0.234375 -0.515625 0.59375l0 2.84375q0.28125 0.125 0.59375 0.203125q0.3125 0.0625 0.609375 0.0625q0.828125 0 1.296875 -0.5625q0.46875 -0.5625 0.46875 -1.6875zm6.3945312 3.0l-0.03125 -0.796875q-0.46875 0.484375 -0.96875 0.703125q-0.5 0.203125 -1.046875 0.203125q-0.5 0 -0.859375 -0.125q-0.359375 -0.140625 -0.59375 -0.359375q-0.21875 -0.234375 -0.328125 -0.53125q-0.109375 -0.3125 -0.109375 -0.671875q0 -0.875 0.65625 -1.375q0.65625 -0.5 1.953125 -0.5l1.21875 0l0 -0.515625q0 -0.53125 -0.34375 -0.84375q-0.328125 -0.3125 -1.015625 -0.3125q-0.5 0 -0.984375 0.109375q-0.484375 0.109375 -1.0 0.328125l0 -0.921875q0.203125 -0.078125 0.4375 -0.140625q0.234375 -0.0625 0.5 -0.109375q0.265625 -0.0625 0.546875 -0.09375q0.296875 -0.03125 0.578125 -0.03125q0.546875 0 0.96875 0.125q0.421875 0.109375 0.71875 0.34375q0.296875 0.234375 0.453125 0.609375q0.15625 0.359375 0.15625 0.84375l0 4.0625l-0.90625 0zm-0.109375 -2.671875l-1.296875 0q-0.375 0 -0.65625 0.078125q-0.28125 0.0625 -0.453125 0.203125q-0.171875 0.140625 -0.265625 0.34375q-0.078125 0.1875 -0.078125 0.4375q0 0.171875 0.046875 0.328125q0.0625 0.15625 0.171875 0.28125q0.125 0.109375 0.3125 0.1875q0.1875 0.0625 0.453125 0.0625q0.34375 0 0.796875 -0.203125q0.46875 -0.21875 0.96875 -0.6875l0 -1.03125zm7.5039062 2.453125q-0.40625 0.15625 -0.828125 0.21875q-0.421875 0.078125 -0.859375 0.078125q-1.390625 0 -2.15625 -0.75q-0.75 -0.765625 -0.75 -2.21875q0 -0.6875 0.21875 -1.25q0.21875 -0.578125 0.609375 -0.984375q0.390625 -0.40625 0.9375 -0.625q0.546875 -0.21875 1.203125 -0.21875q0.453125 0 0.84375 0.0625q0.40625 0.0625 0.78125 0.21875l0 0.96875q-0.390625 -0.203125 -0.78125 -0.28125q-0.390625 -0.09375 -0.8125 -0.09375q-0.40625 0 -0.75 0.15625q-0.34375 0.140625 -0.609375 0.421875q-0.265625 0.28125 -0.421875 0.6875q-0.140625 0.40625 -0.140625 0.90625q0 1.0625 0.515625 1.59375q0.515625 0.53125 1.4375 0.53125q0.40625 0 0.796875 -0.09375q0.390625 -0.09375 0.765625 -0.28125l0 0.953125zm4.0195312 -4.828125l-1.734375 0l0 -0.84375l2.765625 0l0 5.046875l1.75 0l0 0.84375l-4.703125 0l0 -0.84375l1.921875 0l0 -4.203125zm0.359375 -3.296875q0.171875 0 0.3125 0.0625q0.15625 0.046875 0.265625 0.171875q0.109375 0.109375 0.171875 0.25q0.0625 0.140625 0.0625 0.3125q0 0.15625 -0.0625 0.3125q-0.0625 0.140625 -0.171875 0.25q-0.109375 0.109375 -0.265625 0.171875q-0.140625 0.0625 -0.3125 0.0625q-0.171875 0 -0.3125 -0.0625q-0.140625 -0.0625 -0.25 -0.171875q-0.109375 -0.109375 -0.171875 -0.25q-0.0625 -0.15625 -0.0625 -0.3125q0 -0.171875 0.0625 -0.3125q0.0625 -0.140625 0.171875 -0.25q0.109375 -0.125 0.25 -0.171875q0.140625 -0.0625 0.3125 -0.0625zm8.972656 8.265625q-0.34375 0.078125 -0.71875 0.109375q-0.359375 0.046875 -0.734375 0.046875q-1.109375 0 -1.65625 -0.5q-0.546875 -0.5 -0.546875 -1.53125l0 -3.078125l-1.640625 0l0 -0.859375l1.640625 0l0 -1.609375l1.015625 -0.265625l0 1.875l2.640625 0l0 0.859375l-2.640625 0l0 2.984375q0 0.640625 0.328125 0.953125q0.34375 0.3125 1.0 0.3125q0.28125 0 0.609375 -0.046875q0.34375 -0.046875 0.703125 -0.140625l0 0.890625zm7.0976562 -5.8125l-2.0 5.265625q-0.3125 0.8125 -0.65625 1.390625q-0.328125 0.578125 -0.71875 0.953125q-0.390625 0.375 -0.859375 0.546875q-0.46875 0.171875 -1.046875 0.171875q-0.15625 0 -0.28125 -0.015625q-0.109375 0 -0.265625 0l0 -0.9375q0.125 0.015625 0.28125 0.03125q0.15625 0.015625 0.328125 0.015625q0.28125 0 0.515625 -0.078125q0.25 -0.078125 0.46875 -0.265625q0.21875 -0.1875 0.40625 -0.484375q0.203125 -0.28125 0.390625 -0.703125l-2.34375 -5.890625l1.15625 0l1.484375 3.890625l0.296875 0.921875l0.34375 -0.9375l1.375 -3.875l1.125 0zm6.2382812 2.109375l-5.03125 0l0 -0.859375l5.03125 0l0 0.859375zm0 2.03125l-5.03125 0l0 -0.859375l5.03125 0l0 0.859375zm6.6914062 -0.171875q0 0.484375 -0.203125 0.859375q-0.1875 0.375 -0.546875 0.640625q-0.359375 0.25 -0.84375 0.390625q-0.484375 0.140625 -1.0625 0.140625q-0.625 0 -1.109375 -0.140625q-0.46875 -0.140625 -0.796875 -0.390625q-0.3125 -0.265625 -0.484375 -0.609375q-0.15625 -0.34375 -0.15625 -0.75q0 -0.703125 0.390625 -1.21875q0.390625 -0.515625 1.203125 -0.921875q-0.75 -0.390625 -1.09375 -0.84375q-0.34375 -0.46875 -0.34375 -1.078125q0 -0.375 0.15625 -0.71875q0.15625 -0.34375 0.453125 -0.609375q0.3125 -0.265625 0.765625 -0.421875q0.46875 -0.171875 1.09375 -0.171875q0.59375 0 1.046875 0.125q0.453125 0.125 0.75 0.359375q0.3125 0.234375 0.453125 0.578125q0.15625 0.328125 0.15625 0.734375q0 0.671875 -0.375 1.140625q-0.359375 0.46875 -1.046875 0.8125q0.328125 0.171875 0.625 0.390625q0.296875 0.203125 0.515625 0.453125q0.21875 0.25 0.328125 0.5625q0.125 0.3125 0.125 0.6875zm-1.21875 -3.96875q0 -0.515625 -0.359375 -0.765625q-0.359375 -0.265625 -1.03125 -0.265625q-0.65625 0 -1.03125 0.265625q-0.359375 0.25 -0.359375 0.75q0 0.234375 0.09375 0.421875q0.09375 0.1875 0.265625 0.359375q0.1875 0.171875 0.453125 0.34375q0.28125 0.15625 0.671875 0.328125q0.65625 -0.3125 0.96875 -0.640625q0.328125 -0.34375 0.328125 -0.796875zm0.109375 4.046875q0 -0.21875 -0.078125 -0.421875q-0.0625 -0.203125 -0.25 -0.40625q-0.171875 -0.203125 -0.484375 -0.390625q-0.296875 -0.203125 -0.765625 -0.421875q-0.40625 0.203125 -0.671875 0.390625q-0.265625 0.1875 -0.4375 0.390625q-0.171875 0.1875 -0.25 0.40625q-0.0625 0.203125 -0.0625 0.4375q0 0.265625 0.109375 0.46875q0.125 0.203125 0.3125 0.34375q0.203125 0.140625 0.484375 0.21875q0.28125 0.0625 0.59375 0.0625q0.3125 0 0.578125 -0.0625q0.28125 -0.0625 0.484375 -0.1875q0.203125 -0.140625 0.3125 -0.34375q0.125 -0.203125 0.125 -0.484375z" fill-rule="nonzero"/><path fill="#000000" fill-opacity="0.0" d="m127.25412 60.632545l0 0c0 -1.1393585 1.0575867 -2.062992 2.3621979 -2.062992l0 0c1.3046112 0 2.3622131 0.9236336 2.3622131 2.062992l0 0c0 1.1393585 -1.0576019 2.062992 -2.3622131 2.062992l0 0c-1.3046112 0 -2.3621979 -0.9236336 -2.3621979 -2.062992z" fill-rule="evenodd"/><path fill="#000000" fill-opacity="0.0" d="m129.60832 124.207466l0 0c0 -1.1393585 0.52175903 -2.0629883 1.1653595 -2.0629883l0 0c0.30906677 0 0.605484 0.21734619 0.82403564 0.6042328c0.21853638 0.3868866 0.34132385 0.9116211 0.34132385 1.4587555l0 0c0 1.1393661 -0.5217438 2.062996 -1.1653595 2.062996l0 0c-0.64360046 0 -1.1653595 -0.92362976 -1.1653595 -2.062996z" fill-rule="evenodd"/></g></svg>