<?xml version="1.0" encoding="UTF-8" standalone="no"?>
<!DOCTYPE svg PUBLIC "-//W3C//DTD SVG 1.1//EN" "http://www.w3.org/Graphics/SVG/1.1/DTD/svg11.dtd">
<svg width="100%" height="100%" viewBox="0 0 800 800" version="1.1" xmlns="http://www.w3.org/2000/svg" xmlns:xlink="http://www.w3.org/1999/xlink" xml:space="preserve" xmlns:serif="http://www.serif.com/" style="fill-rule:evenodd;clip-rule:evenodd;stroke-linecap:round;stroke-linejoin:round;stroke-miterlimit:1.5;">
    <g transform="matrix(0.983485,0.985004,-0.985004,0.983485,390.701,-425.337)">
        <path d="M364.349,211.499C363.845,208.199 363.592,204.862 363.592,201.521C363.592,166.54 390.802,138.141 424.318,138.141C457.833,138.141 485.044,166.54 485.044,201.521C485.044,204.862 484.79,208.199 484.286,211.499L465.48,334.617C463.933,344.745 467.13,355.034 474.079,362.287C481.028,369.539 490.886,372.876 500.59,371.262L618.553,351.634C621.714,351.107 624.911,350.843 628.113,350.843C661.629,350.843 688.839,379.243 688.839,414.223C688.839,449.203 661.629,477.603 628.113,477.603C624.911,477.603 621.714,477.338 618.553,476.812L500.59,457.184C490.886,455.569 481.028,458.907 474.079,466.159C467.13,473.412 463.933,483.7 465.48,493.829L484.286,616.947C484.79,620.247 485.044,623.584 485.044,626.925C485.044,661.906 457.833,690.305 424.318,690.305C390.802,690.305 363.592,661.906 363.592,626.925C363.592,623.584 363.845,620.247 364.349,616.947L383.156,493.829C384.703,483.7 381.505,473.412 374.557,466.159C367.608,458.907 357.75,455.569 348.045,457.184L230.083,476.812C226.921,477.338 223.724,477.603 220.523,477.603C187.007,477.603 159.797,449.203 159.797,414.223C159.797,379.243 187.007,350.843 220.523,350.843C223.724,350.843 226.921,351.107 230.083,351.634L348.045,371.262C357.75,372.876 367.608,369.539 374.557,362.287C381.505,355.034 384.703,344.745 383.156,334.617L364.349,211.499Z" style="fill:rgb(255,0,1);stroke:black;stroke-width:7.18px;"/>
    </g>
</svg>
